<svg xmlns="http://www.w3.org/2000/svg" xmlns:xlink="http://www.w3.org/1999/xlink" width="400" zoomAndPan="magnify" viewBox="0 0 300 299.999988" height="400" preserveAspectRatio="xMidYMid meet" version="1.0"><defs><filter x="0%" y="0%" width="100%" height="100%" id="3eba9fb094"><feColorMatrix values="0 0 0 0 1 0 0 0 0 1 0 0 0 0 1 0 0 0 1 0" color-interpolation-filters="sRGB"/></filter><mask id="812a3f8988"><g filter="url(#3eba9fb094)"><rect x="-30" width="360" fill="#000000" y="-29.999999" height="359.999986" fill-opacity="0.7"/></g></mask><clipPath id="d000838cce"><path d="M 1 272 L 136.726562 272 L 136.726562 278.996094 L 1 278.996094 Z M 1 272 " clip-rule="nonzero"/></clipPath><clipPath id="8c9430246f"><path d="M 1 256 L 136.726562 256 L 136.726562 264 L 1 264 Z M 1 256 " clip-rule="nonzero"/></clipPath><clipPath id="b0ae07dfe6"><path d="M 1 240 L 136.726562 240 L 136.726562 248 L 1 248 Z M 1 240 " clip-rule="nonzero"/></clipPath><clipPath id="d7de496e5d"><path d="M 1 224 L 136.726562 224 L 136.726562 232 L 1 232 Z M 1 224 " clip-rule="nonzero"/></clipPath><clipPath id="6eea585b09"><path d="M 1 208 L 136.726562 208 L 136.726562 216 L 1 216 Z M 1 208 " clip-rule="nonzero"/></clipPath><clipPath id="d1e604fa5b"><path d="M 1 192 L 136.726562 192 L 136.726562 200 L 1 200 Z M 1 192 " clip-rule="nonzero"/></clipPath><clipPath id="dd44a9ca88"><path d="M 1 176 L 136.726562 176 L 136.726562 184 L 1 184 Z M 1 176 " clip-rule="nonzero"/></clipPath><clipPath id="30019e89a9"><path d="M 1 160 L 136.726562 160 L 136.726562 168 L 1 168 Z M 1 160 " clip-rule="nonzero"/></clipPath><clipPath id="7d7e42dd23"><path d="M 1 144 L 136.726562 144 L 136.726562 152 L 1 152 Z M 1 144 " clip-rule="nonzero"/></clipPath><clipPath id="83374e6a3d"><path d="M 1 128 L 136.726562 128 L 136.726562 136 L 1 136 Z M 1 128 " clip-rule="nonzero"/></clipPath><clipPath id="a93bcda1bd"><path d="M 1 112 L 136.726562 112 L 136.726562 120 L 1 120 Z M 1 112 " clip-rule="nonzero"/></clipPath><clipPath id="5236434aa9"><path d="M 1 96 L 136.726562 96 L 136.726562 104 L 1 104 Z M 1 96 " clip-rule="nonzero"/></clipPath><clipPath id="d33603b311"><path d="M 1 80 L 136.726562 80 L 136.726562 88 L 1 88 Z M 1 80 " clip-rule="nonzero"/></clipPath><clipPath id="df7d628fe2"><path d="M 1 64 L 136.726562 64 L 136.726562 72 L 1 72 Z M 1 64 " clip-rule="nonzero"/></clipPath><clipPath id="d433f72afa"><path d="M 1 48 L 136.726562 48 L 136.726562 56 L 1 56 Z M 1 48 " clip-rule="nonzero"/></clipPath><clipPath id="72062e1a6d"><path d="M 1 32 L 136.726562 32 L 136.726562 40 L 1 40 Z M 1 32 " clip-rule="nonzero"/></clipPath><clipPath id="fbb60cb731"><path d="M 1 16 L 136.726562 16 L 136.726562 24 L 1 24 Z M 1 16 " clip-rule="nonzero"/></clipPath><clipPath id="60e34ee471"><path d="M 1 0.75 L 136.726562 0.75 L 136.726562 8 L 1 8 Z M 1 0.75 " clip-rule="nonzero"/></clipPath><clipPath id="e8973395b8"><rect x="0" width="138" y="0" height="279"/></clipPath><clipPath id="bbc0fbf90c"><path d="M 80.640625 0 L 218.023438 0 L 218.023438 15 L 80.640625 15 Z M 80.640625 0 " clip-rule="nonzero"/></clipPath></defs><g mask="url(#812a3f8988)"><g transform="matrix(1, 0, 0, 1, 81, 21)"><g clip-path="url(#e8973395b8)"><g clip-path="url(#d000838cce)"><path fill="#000000" d="M 1.007812 275.605469 C 1.007812 273.726562 2.527344 272.199219 4.398438 272.199219 C 6.273438 272.199219 7.792969 273.726562 7.792969 275.605469 C 7.792969 277.484375 6.273438 279.007812 4.398438 279.007812 C 2.527344 279.007812 1.007812 277.484375 1.007812 275.605469 Z M 15.328125 275.605469 C 15.328125 273.726562 16.847656 272.199219 18.71875 272.199219 C 20.59375 272.199219 22.113281 273.726562 22.113281 275.605469 C 22.113281 277.484375 20.59375 279.007812 18.71875 279.007812 C 16.847656 279.007812 15.328125 277.484375 15.328125 275.605469 Z M 29.648438 275.605469 C 29.648438 273.726562 31.167969 272.199219 33.039062 272.199219 C 34.914062 272.199219 36.433594 273.726562 36.433594 275.605469 C 36.433594 277.484375 34.914062 279.007812 33.039062 279.007812 C 31.167969 279.007812 29.648438 277.484375 29.648438 275.605469 Z M 43.96875 275.605469 C 43.96875 273.726562 45.484375 272.199219 47.359375 272.199219 C 49.234375 272.199219 50.753906 273.726562 50.753906 275.605469 C 50.753906 277.484375 49.234375 279.007812 47.359375 279.007812 C 45.484375 279.007812 43.96875 277.484375 43.96875 275.605469 Z M 58.289062 275.605469 C 58.289062 273.726562 59.804688 272.199219 61.679688 272.199219 C 63.554688 272.199219 65.074219 273.726562 65.074219 275.605469 C 65.074219 277.484375 63.554688 279.007812 61.679688 279.007812 C 59.804688 279.007812 58.289062 277.484375 58.289062 275.605469 Z M 72.605469 275.605469 C 72.605469 273.726562 74.125 272.199219 76 272.199219 C 77.875 272.199219 79.390625 273.726562 79.390625 275.605469 C 79.390625 277.484375 77.875 279.007812 76 279.007812 C 74.125 279.007812 72.605469 277.484375 72.605469 275.605469 Z M 86.925781 275.605469 C 86.925781 273.726562 88.445312 272.199219 90.320312 272.199219 C 92.195312 272.199219 93.710938 273.726562 93.710938 275.605469 C 93.710938 277.484375 92.195312 279.007812 90.320312 279.007812 C 88.445312 279.007812 86.925781 277.484375 86.925781 275.605469 Z M 101.246094 275.605469 C 101.246094 273.726562 102.765625 272.199219 104.640625 272.199219 C 106.511719 272.199219 108.03125 273.726562 108.03125 275.605469 C 108.03125 277.484375 106.511719 279.007812 104.640625 279.007812 C 102.765625 279.007812 101.246094 277.484375 101.246094 275.605469 Z M 115.566406 275.605469 C 115.566406 273.726562 117.085938 272.199219 118.960938 272.199219 C 120.832031 272.199219 122.351562 273.726562 122.351562 275.605469 C 122.351562 277.484375 120.832031 279.007812 118.960938 279.007812 C 117.085938 279.007812 115.566406 277.484375 115.566406 275.605469 Z M 129.886719 275.605469 C 129.886719 273.726562 131.40625 272.199219 133.28125 272.199219 C 135.152344 272.199219 136.671875 273.726562 136.671875 275.605469 C 136.671875 277.484375 135.152344 279.007812 133.28125 279.007812 C 131.40625 279.007812 129.886719 277.484375 129.886719 275.605469 Z M 129.886719 275.605469 " fill-opacity="1" fill-rule="nonzero"/></g><g clip-path="url(#8c9430246f)"><path fill="#000000" d="M 1.007812 259.636719 C 1.007812 257.757812 2.527344 256.234375 4.398438 256.234375 C 6.273438 256.234375 7.792969 257.757812 7.792969 259.636719 C 7.792969 261.519531 6.273438 263.042969 4.398438 263.042969 C 2.527344 263.042969 1.007812 261.519531 1.007812 259.636719 Z M 15.328125 259.636719 C 15.328125 257.757812 16.847656 256.234375 18.71875 256.234375 C 20.59375 256.234375 22.113281 257.757812 22.113281 259.636719 C 22.113281 261.519531 20.59375 263.042969 18.71875 263.042969 C 16.847656 263.042969 15.328125 261.519531 15.328125 259.636719 Z M 29.648438 259.636719 C 29.648438 257.757812 31.167969 256.234375 33.039062 256.234375 C 34.914062 256.234375 36.433594 257.757812 36.433594 259.636719 C 36.433594 261.519531 34.914062 263.042969 33.039062 263.042969 C 31.167969 263.042969 29.648438 261.519531 29.648438 259.636719 Z M 43.96875 259.636719 C 43.96875 257.757812 45.484375 256.234375 47.359375 256.234375 C 49.234375 256.234375 50.753906 257.757812 50.753906 259.636719 C 50.753906 261.519531 49.234375 263.042969 47.359375 263.042969 C 45.484375 263.042969 43.96875 261.519531 43.96875 259.636719 Z M 58.289062 259.636719 C 58.289062 257.757812 59.804688 256.234375 61.679688 256.234375 C 63.554688 256.234375 65.074219 257.757812 65.074219 259.636719 C 65.074219 261.519531 63.554688 263.042969 61.679688 263.042969 C 59.804688 263.042969 58.289062 261.519531 58.289062 259.636719 Z M 72.605469 259.636719 C 72.605469 257.757812 74.125 256.234375 76 256.234375 C 77.875 256.234375 79.390625 257.757812 79.390625 259.636719 C 79.390625 261.519531 77.875 263.042969 76 263.042969 C 74.125 263.042969 72.605469 261.519531 72.605469 259.636719 Z M 86.925781 259.636719 C 86.925781 257.757812 88.445312 256.234375 90.320312 256.234375 C 92.195312 256.234375 93.710938 257.757812 93.710938 259.636719 C 93.710938 261.519531 92.195312 263.042969 90.320312 263.042969 C 88.445312 263.042969 86.925781 261.519531 86.925781 259.636719 Z M 101.246094 259.636719 C 101.246094 257.757812 102.765625 256.234375 104.640625 256.234375 C 106.511719 256.234375 108.03125 257.757812 108.03125 259.636719 C 108.03125 261.519531 106.511719 263.042969 104.640625 263.042969 C 102.765625 263.042969 101.246094 261.519531 101.246094 259.636719 Z M 115.566406 259.636719 C 115.566406 257.757812 117.085938 256.234375 118.960938 256.234375 C 120.832031 256.234375 122.351562 257.757812 122.351562 259.636719 C 122.351562 261.519531 120.832031 263.042969 118.960938 263.042969 C 117.085938 263.042969 115.566406 261.519531 115.566406 259.636719 Z M 129.886719 259.636719 C 129.886719 257.757812 131.40625 256.234375 133.28125 256.234375 C 135.152344 256.234375 136.671875 257.757812 136.671875 259.636719 C 136.671875 261.519531 135.152344 263.042969 133.28125 263.042969 C 131.40625 263.042969 129.886719 261.519531 129.886719 259.636719 Z M 129.886719 259.636719 " fill-opacity="1" fill-rule="nonzero"/></g><g clip-path="url(#b0ae07dfe6)"><path fill="#000000" d="M 1.007812 243.671875 C 1.007812 241.789062 2.527344 240.265625 4.398438 240.265625 C 6.273438 240.265625 7.792969 241.789062 7.792969 243.671875 C 7.792969 245.550781 6.273438 247.074219 4.398438 247.074219 C 2.527344 247.074219 1.007812 245.550781 1.007812 243.671875 Z M 15.328125 243.671875 C 15.328125 241.789062 16.847656 240.265625 18.71875 240.265625 C 20.59375 240.265625 22.113281 241.789062 22.113281 243.671875 C 22.113281 245.550781 20.59375 247.074219 18.71875 247.074219 C 16.847656 247.074219 15.328125 245.550781 15.328125 243.671875 Z M 29.648438 243.671875 C 29.648438 241.789062 31.167969 240.265625 33.039062 240.265625 C 34.914062 240.265625 36.433594 241.789062 36.433594 243.671875 C 36.433594 245.550781 34.914062 247.074219 33.039062 247.074219 C 31.167969 247.074219 29.648438 245.550781 29.648438 243.671875 Z M 43.96875 243.671875 C 43.96875 241.789062 45.484375 240.265625 47.359375 240.265625 C 49.234375 240.265625 50.753906 241.789062 50.753906 243.671875 C 50.753906 245.550781 49.234375 247.074219 47.359375 247.074219 C 45.484375 247.074219 43.96875 245.550781 43.96875 243.671875 Z M 58.289062 243.671875 C 58.289062 241.789062 59.804688 240.265625 61.679688 240.265625 C 63.554688 240.265625 65.074219 241.789062 65.074219 243.671875 C 65.074219 245.550781 63.554688 247.074219 61.679688 247.074219 C 59.804688 247.074219 58.289062 245.550781 58.289062 243.671875 Z M 72.605469 243.671875 C 72.605469 241.789062 74.125 240.265625 76 240.265625 C 77.875 240.265625 79.390625 241.789062 79.390625 243.671875 C 79.390625 245.550781 77.875 247.074219 76 247.074219 C 74.125 247.074219 72.605469 245.550781 72.605469 243.671875 Z M 86.925781 243.671875 C 86.925781 241.789062 88.445312 240.265625 90.320312 240.265625 C 92.195312 240.265625 93.710938 241.789062 93.710938 243.671875 C 93.710938 245.550781 92.195312 247.074219 90.320312 247.074219 C 88.445312 247.074219 86.925781 245.550781 86.925781 243.671875 Z M 101.246094 243.671875 C 101.246094 241.789062 102.765625 240.265625 104.640625 240.265625 C 106.511719 240.265625 108.03125 241.789062 108.03125 243.671875 C 108.03125 245.550781 106.511719 247.074219 104.640625 247.074219 C 102.765625 247.074219 101.246094 245.550781 101.246094 243.671875 Z M 115.566406 243.671875 C 115.566406 241.789062 117.085938 240.265625 118.960938 240.265625 C 120.832031 240.265625 122.351562 241.789062 122.351562 243.671875 C 122.351562 245.550781 120.832031 247.074219 118.960938 247.074219 C 117.085938 247.074219 115.566406 245.550781 115.566406 243.671875 Z M 129.886719 243.671875 C 129.886719 241.789062 131.40625 240.265625 133.28125 240.265625 C 135.152344 240.265625 136.671875 241.789062 136.671875 243.671875 C 136.671875 245.550781 135.152344 247.074219 133.28125 247.074219 C 131.40625 247.074219 129.886719 245.550781 129.886719 243.671875 Z M 129.886719 243.671875 " fill-opacity="1" fill-rule="nonzero"/></g><g clip-path="url(#d7de496e5d)"><path fill="#000000" d="M 1.007812 227.703125 C 1.007812 225.824219 2.527344 224.300781 4.398438 224.300781 C 6.273438 224.300781 7.792969 225.824219 7.792969 227.703125 C 7.792969 229.585938 6.273438 231.109375 4.398438 231.109375 C 2.527344 231.109375 1.007812 229.585938 1.007812 227.703125 Z M 15.328125 227.703125 C 15.328125 225.824219 16.847656 224.300781 18.71875 224.300781 C 20.59375 224.300781 22.113281 225.824219 22.113281 227.703125 C 22.113281 229.585938 20.59375 231.109375 18.71875 231.109375 C 16.847656 231.109375 15.328125 229.585938 15.328125 227.703125 Z M 29.648438 227.703125 C 29.648438 225.824219 31.167969 224.300781 33.039062 224.300781 C 34.914062 224.300781 36.433594 225.824219 36.433594 227.703125 C 36.433594 229.585938 34.914062 231.109375 33.039062 231.109375 C 31.167969 231.109375 29.648438 229.585938 29.648438 227.703125 Z M 43.96875 227.703125 C 43.96875 225.824219 45.484375 224.300781 47.359375 224.300781 C 49.234375 224.300781 50.753906 225.824219 50.753906 227.703125 C 50.753906 229.585938 49.234375 231.109375 47.359375 231.109375 C 45.484375 231.109375 43.96875 229.585938 43.96875 227.703125 Z M 58.289062 227.703125 C 58.289062 225.824219 59.804688 224.300781 61.679688 224.300781 C 63.554688 224.300781 65.074219 225.824219 65.074219 227.703125 C 65.074219 229.585938 63.554688 231.109375 61.679688 231.109375 C 59.804688 231.109375 58.289062 229.585938 58.289062 227.703125 Z M 72.605469 227.703125 C 72.605469 225.824219 74.125 224.300781 76 224.300781 C 77.875 224.300781 79.390625 225.824219 79.390625 227.703125 C 79.390625 229.585938 77.875 231.109375 76 231.109375 C 74.125 231.109375 72.605469 229.585938 72.605469 227.703125 Z M 86.925781 227.703125 C 86.925781 225.824219 88.445312 224.300781 90.320312 224.300781 C 92.195312 224.300781 93.710938 225.824219 93.710938 227.703125 C 93.710938 229.585938 92.195312 231.109375 90.320312 231.109375 C 88.445312 231.109375 86.925781 229.585938 86.925781 227.703125 Z M 101.246094 227.703125 C 101.246094 225.824219 102.765625 224.300781 104.640625 224.300781 C 106.511719 224.300781 108.03125 225.824219 108.03125 227.703125 C 108.03125 229.585938 106.511719 231.109375 104.640625 231.109375 C 102.765625 231.109375 101.246094 229.585938 101.246094 227.703125 Z M 115.566406 227.703125 C 115.566406 225.824219 117.085938 224.300781 118.960938 224.300781 C 120.832031 224.300781 122.351562 225.824219 122.351562 227.703125 C 122.351562 229.585938 120.832031 231.109375 118.960938 231.109375 C 117.085938 231.109375 115.566406 229.585938 115.566406 227.703125 Z M 129.886719 227.703125 C 129.886719 225.824219 131.40625 224.300781 133.28125 224.300781 C 135.152344 224.300781 136.671875 225.824219 136.671875 227.703125 C 136.671875 229.585938 135.152344 231.109375 133.28125 231.109375 C 131.40625 231.109375 129.886719 229.585938 129.886719 227.703125 Z M 129.886719 227.703125 " fill-opacity="1" fill-rule="nonzero"/></g><g clip-path="url(#6eea585b09)"><path fill="#000000" d="M 1.007812 211.738281 C 1.007812 209.855469 2.527344 208.332031 4.398438 208.332031 C 6.273438 208.332031 7.792969 209.855469 7.792969 211.738281 C 7.792969 213.617188 6.273438 215.140625 4.398438 215.140625 C 2.527344 215.140625 1.007812 213.617188 1.007812 211.738281 Z M 15.328125 211.738281 C 15.328125 209.855469 16.847656 208.332031 18.71875 208.332031 C 20.59375 208.332031 22.113281 209.855469 22.113281 211.738281 C 22.113281 213.617188 20.59375 215.140625 18.71875 215.140625 C 16.847656 215.140625 15.328125 213.617188 15.328125 211.738281 Z M 29.648438 211.738281 C 29.648438 209.855469 31.167969 208.332031 33.039062 208.332031 C 34.914062 208.332031 36.433594 209.855469 36.433594 211.738281 C 36.433594 213.617188 34.914062 215.140625 33.039062 215.140625 C 31.167969 215.140625 29.648438 213.617188 29.648438 211.738281 Z M 43.96875 211.738281 C 43.96875 209.855469 45.484375 208.332031 47.359375 208.332031 C 49.234375 208.332031 50.753906 209.855469 50.753906 211.738281 C 50.753906 213.617188 49.234375 215.140625 47.359375 215.140625 C 45.484375 215.140625 43.96875 213.617188 43.96875 211.738281 Z M 58.289062 211.738281 C 58.289062 209.855469 59.804688 208.332031 61.679688 208.332031 C 63.554688 208.332031 65.074219 209.855469 65.074219 211.738281 C 65.074219 213.617188 63.554688 215.140625 61.679688 215.140625 C 59.804688 215.140625 58.289062 213.617188 58.289062 211.738281 Z M 72.605469 211.738281 C 72.605469 209.855469 74.125 208.332031 76 208.332031 C 77.875 208.332031 79.390625 209.855469 79.390625 211.738281 C 79.390625 213.617188 77.875 215.140625 76 215.140625 C 74.125 215.140625 72.605469 213.617188 72.605469 211.738281 Z M 86.925781 211.738281 C 86.925781 209.855469 88.445312 208.332031 90.320312 208.332031 C 92.195312 208.332031 93.710938 209.855469 93.710938 211.738281 C 93.710938 213.617188 92.195312 215.140625 90.320312 215.140625 C 88.445312 215.140625 86.925781 213.617188 86.925781 211.738281 Z M 101.246094 211.738281 C 101.246094 209.855469 102.765625 208.332031 104.640625 208.332031 C 106.511719 208.332031 108.03125 209.855469 108.03125 211.738281 C 108.03125 213.617188 106.511719 215.140625 104.640625 215.140625 C 102.765625 215.140625 101.246094 213.617188 101.246094 211.738281 Z M 115.566406 211.738281 C 115.566406 209.855469 117.085938 208.332031 118.960938 208.332031 C 120.832031 208.332031 122.351562 209.855469 122.351562 211.738281 C 122.351562 213.617188 120.832031 215.140625 118.960938 215.140625 C 117.085938 215.140625 115.566406 213.617188 115.566406 211.738281 Z M 129.886719 211.738281 C 129.886719 209.855469 131.40625 208.332031 133.28125 208.332031 C 135.152344 208.332031 136.671875 209.855469 136.671875 211.738281 C 136.671875 213.617188 135.152344 215.140625 133.28125 215.140625 C 131.40625 215.140625 129.886719 213.617188 129.886719 211.738281 Z M 129.886719 211.738281 " fill-opacity="1" fill-rule="nonzero"/></g><g clip-path="url(#d1e604fa5b)"><path fill="#000000" d="M 1.007812 195.769531 C 1.007812 193.890625 2.527344 192.367188 4.398438 192.367188 C 6.273438 192.367188 7.792969 193.890625 7.792969 195.769531 C 7.792969 197.648438 6.273438 199.175781 4.398438 199.175781 C 2.527344 199.175781 1.007812 197.648438 1.007812 195.769531 Z M 15.328125 195.769531 C 15.328125 193.890625 16.847656 192.367188 18.71875 192.367188 C 20.59375 192.367188 22.113281 193.890625 22.113281 195.769531 C 22.113281 197.648438 20.59375 199.175781 18.71875 199.175781 C 16.847656 199.175781 15.328125 197.648438 15.328125 195.769531 Z M 29.648438 195.769531 C 29.648438 193.890625 31.167969 192.367188 33.039062 192.367188 C 34.914062 192.367188 36.433594 193.890625 36.433594 195.769531 C 36.433594 197.648438 34.914062 199.175781 33.039062 199.175781 C 31.167969 199.175781 29.648438 197.648438 29.648438 195.769531 Z M 43.96875 195.769531 C 43.96875 193.890625 45.484375 192.367188 47.359375 192.367188 C 49.234375 192.367188 50.753906 193.890625 50.753906 195.769531 C 50.753906 197.648438 49.234375 199.175781 47.359375 199.175781 C 45.484375 199.175781 43.96875 197.648438 43.96875 195.769531 Z M 58.289062 195.769531 C 58.289062 193.890625 59.804688 192.367188 61.679688 192.367188 C 63.554688 192.367188 65.074219 193.890625 65.074219 195.769531 C 65.074219 197.648438 63.554688 199.175781 61.679688 199.175781 C 59.804688 199.175781 58.289062 197.648438 58.289062 195.769531 Z M 72.605469 195.769531 C 72.605469 193.890625 74.125 192.367188 76 192.367188 C 77.875 192.367188 79.390625 193.890625 79.390625 195.769531 C 79.390625 197.648438 77.875 199.175781 76 199.175781 C 74.125 199.175781 72.605469 197.648438 72.605469 195.769531 Z M 86.925781 195.769531 C 86.925781 193.890625 88.445312 192.367188 90.320312 192.367188 C 92.195312 192.367188 93.710938 193.890625 93.710938 195.769531 C 93.710938 197.648438 92.195312 199.175781 90.320312 199.175781 C 88.445312 199.175781 86.925781 197.648438 86.925781 195.769531 Z M 101.246094 195.769531 C 101.246094 193.890625 102.765625 192.367188 104.640625 192.367188 C 106.511719 192.367188 108.03125 193.890625 108.03125 195.769531 C 108.03125 197.648438 106.511719 199.175781 104.640625 199.175781 C 102.765625 199.175781 101.246094 197.648438 101.246094 195.769531 Z M 115.566406 195.769531 C 115.566406 193.890625 117.085938 192.367188 118.960938 192.367188 C 120.832031 192.367188 122.351562 193.890625 122.351562 195.769531 C 122.351562 197.648438 120.832031 199.175781 118.960938 199.175781 C 117.085938 199.175781 115.566406 197.648438 115.566406 195.769531 Z M 129.886719 195.769531 C 129.886719 193.890625 131.40625 192.367188 133.28125 192.367188 C 135.152344 192.367188 136.671875 193.890625 136.671875 195.769531 C 136.671875 197.648438 135.152344 199.175781 133.28125 199.175781 C 131.40625 199.175781 129.886719 197.648438 129.886719 195.769531 Z M 129.886719 195.769531 " fill-opacity="1" fill-rule="nonzero"/></g><g clip-path="url(#dd44a9ca88)"><path fill="#000000" d="M 1.007812 179.804688 C 1.007812 177.921875 2.527344 176.398438 4.398438 176.398438 C 6.273438 176.398438 7.792969 177.921875 7.792969 179.804688 C 7.792969 181.683594 6.273438 183.207031 4.398438 183.207031 C 2.527344 183.207031 1.007812 181.683594 1.007812 179.804688 Z M 15.328125 179.804688 C 15.328125 177.921875 16.847656 176.398438 18.71875 176.398438 C 20.59375 176.398438 22.113281 177.921875 22.113281 179.804688 C 22.113281 181.683594 20.59375 183.207031 18.71875 183.207031 C 16.847656 183.207031 15.328125 181.683594 15.328125 179.804688 Z M 29.648438 179.804688 C 29.648438 177.921875 31.167969 176.398438 33.039062 176.398438 C 34.914062 176.398438 36.433594 177.921875 36.433594 179.804688 C 36.433594 181.683594 34.914062 183.207031 33.039062 183.207031 C 31.167969 183.207031 29.648438 181.683594 29.648438 179.804688 Z M 43.96875 179.804688 C 43.96875 177.921875 45.484375 176.398438 47.359375 176.398438 C 49.234375 176.398438 50.753906 177.921875 50.753906 179.804688 C 50.753906 181.683594 49.234375 183.207031 47.359375 183.207031 C 45.484375 183.207031 43.96875 181.683594 43.96875 179.804688 Z M 58.289062 179.804688 C 58.289062 177.921875 59.804688 176.398438 61.679688 176.398438 C 63.554688 176.398438 65.074219 177.921875 65.074219 179.804688 C 65.074219 181.683594 63.554688 183.207031 61.679688 183.207031 C 59.804688 183.207031 58.289062 181.683594 58.289062 179.804688 Z M 72.605469 179.804688 C 72.605469 177.921875 74.125 176.398438 76 176.398438 C 77.875 176.398438 79.390625 177.921875 79.390625 179.804688 C 79.390625 181.683594 77.875 183.207031 76 183.207031 C 74.125 183.207031 72.605469 181.683594 72.605469 179.804688 Z M 86.925781 179.804688 C 86.925781 177.921875 88.445312 176.398438 90.320312 176.398438 C 92.195312 176.398438 93.710938 177.921875 93.710938 179.804688 C 93.710938 181.683594 92.195312 183.207031 90.320312 183.207031 C 88.445312 183.207031 86.925781 181.683594 86.925781 179.804688 Z M 101.246094 179.804688 C 101.246094 177.921875 102.765625 176.398438 104.640625 176.398438 C 106.511719 176.398438 108.03125 177.921875 108.03125 179.804688 C 108.03125 181.683594 106.511719 183.207031 104.640625 183.207031 C 102.765625 183.207031 101.246094 181.683594 101.246094 179.804688 Z M 115.566406 179.804688 C 115.566406 177.921875 117.085938 176.398438 118.960938 176.398438 C 120.832031 176.398438 122.351562 177.921875 122.351562 179.804688 C 122.351562 181.683594 120.832031 183.207031 118.960938 183.207031 C 117.085938 183.207031 115.566406 181.683594 115.566406 179.804688 Z M 129.886719 179.804688 C 129.886719 177.921875 131.40625 176.398438 133.28125 176.398438 C 135.152344 176.398438 136.671875 177.921875 136.671875 179.804688 C 136.671875 181.683594 135.152344 183.207031 133.28125 183.207031 C 131.40625 183.207031 129.886719 181.683594 129.886719 179.804688 Z M 129.886719 179.804688 " fill-opacity="1" fill-rule="nonzero"/></g><g clip-path="url(#30019e89a9)"><path fill="#000000" d="M 1.007812 163.835938 C 1.007812 161.957031 2.527344 160.429688 4.398438 160.429688 C 6.273438 160.429688 7.792969 161.957031 7.792969 163.835938 C 7.792969 165.714844 6.273438 167.242188 4.398438 167.242188 C 2.527344 167.242188 1.007812 165.714844 1.007812 163.835938 Z M 15.328125 163.835938 C 15.328125 161.957031 16.847656 160.429688 18.71875 160.429688 C 20.59375 160.429688 22.113281 161.957031 22.113281 163.835938 C 22.113281 165.714844 20.59375 167.242188 18.71875 167.242188 C 16.847656 167.242188 15.328125 165.714844 15.328125 163.835938 Z M 29.648438 163.835938 C 29.648438 161.957031 31.167969 160.429688 33.039062 160.429688 C 34.914062 160.429688 36.433594 161.957031 36.433594 163.835938 C 36.433594 165.714844 34.914062 167.242188 33.039062 167.242188 C 31.167969 167.242188 29.648438 165.714844 29.648438 163.835938 Z M 43.96875 163.835938 C 43.96875 161.957031 45.484375 160.429688 47.359375 160.429688 C 49.234375 160.429688 50.753906 161.957031 50.753906 163.835938 C 50.753906 165.714844 49.234375 167.242188 47.359375 167.242188 C 45.484375 167.242188 43.96875 165.714844 43.96875 163.835938 Z M 58.289062 163.835938 C 58.289062 161.957031 59.804688 160.429688 61.679688 160.429688 C 63.554688 160.429688 65.074219 161.957031 65.074219 163.835938 C 65.074219 165.714844 63.554688 167.242188 61.679688 167.242188 C 59.804688 167.242188 58.289062 165.714844 58.289062 163.835938 Z M 72.605469 163.835938 C 72.605469 161.957031 74.125 160.429688 76 160.429688 C 77.875 160.429688 79.390625 161.957031 79.390625 163.835938 C 79.390625 165.714844 77.875 167.242188 76 167.242188 C 74.125 167.242188 72.605469 165.714844 72.605469 163.835938 Z M 86.925781 163.835938 C 86.925781 161.957031 88.445312 160.429688 90.320312 160.429688 C 92.195312 160.429688 93.710938 161.957031 93.710938 163.835938 C 93.710938 165.714844 92.195312 167.242188 90.320312 167.242188 C 88.445312 167.242188 86.925781 165.714844 86.925781 163.835938 Z M 101.246094 163.835938 C 101.246094 161.957031 102.765625 160.429688 104.640625 160.429688 C 106.511719 160.429688 108.03125 161.957031 108.03125 163.835938 C 108.03125 165.714844 106.511719 167.242188 104.640625 167.242188 C 102.765625 167.242188 101.246094 165.714844 101.246094 163.835938 Z M 115.566406 163.835938 C 115.566406 161.957031 117.085938 160.429688 118.960938 160.429688 C 120.832031 160.429688 122.351562 161.957031 122.351562 163.835938 C 122.351562 165.714844 120.832031 167.242188 118.960938 167.242188 C 117.085938 167.242188 115.566406 165.714844 115.566406 163.835938 Z M 129.886719 163.835938 C 129.886719 161.957031 131.40625 160.429688 133.28125 160.429688 C 135.152344 160.429688 136.671875 161.957031 136.671875 163.835938 C 136.671875 165.714844 135.152344 167.242188 133.28125 167.242188 C 131.40625 167.242188 129.886719 165.714844 129.886719 163.835938 Z M 129.886719 163.835938 " fill-opacity="1" fill-rule="nonzero"/></g><g clip-path="url(#7d7e42dd23)"><path fill="#000000" d="M 1.007812 147.867188 C 1.007812 145.988281 2.527344 144.464844 4.398438 144.464844 C 6.273438 144.464844 7.792969 145.988281 7.792969 147.867188 C 7.792969 149.75 6.273438 151.273438 4.398438 151.273438 C 2.527344 151.273438 1.007812 149.75 1.007812 147.867188 Z M 15.328125 147.867188 C 15.328125 145.988281 16.847656 144.464844 18.71875 144.464844 C 20.59375 144.464844 22.113281 145.988281 22.113281 147.867188 C 22.113281 149.75 20.59375 151.273438 18.71875 151.273438 C 16.847656 151.273438 15.328125 149.75 15.328125 147.867188 Z M 29.648438 147.867188 C 29.648438 145.988281 31.167969 144.464844 33.039062 144.464844 C 34.914062 144.464844 36.433594 145.988281 36.433594 147.867188 C 36.433594 149.75 34.914062 151.273438 33.039062 151.273438 C 31.167969 151.273438 29.648438 149.75 29.648438 147.867188 Z M 43.96875 147.867188 C 43.96875 145.988281 45.484375 144.464844 47.359375 144.464844 C 49.234375 144.464844 50.753906 145.988281 50.753906 147.867188 C 50.753906 149.75 49.234375 151.273438 47.359375 151.273438 C 45.484375 151.273438 43.96875 149.75 43.96875 147.867188 Z M 58.289062 147.867188 C 58.289062 145.988281 59.804688 144.464844 61.679688 144.464844 C 63.554688 144.464844 65.074219 145.988281 65.074219 147.867188 C 65.074219 149.75 63.554688 151.273438 61.679688 151.273438 C 59.804688 151.273438 58.289062 149.75 58.289062 147.867188 Z M 72.605469 147.867188 C 72.605469 145.988281 74.125 144.464844 76 144.464844 C 77.875 144.464844 79.390625 145.988281 79.390625 147.867188 C 79.390625 149.75 77.875 151.273438 76 151.273438 C 74.125 151.273438 72.605469 149.75 72.605469 147.867188 Z M 86.925781 147.867188 C 86.925781 145.988281 88.445312 144.464844 90.320312 144.464844 C 92.195312 144.464844 93.710938 145.988281 93.710938 147.867188 C 93.710938 149.75 92.195312 151.273438 90.320312 151.273438 C 88.445312 151.273438 86.925781 149.75 86.925781 147.867188 Z M 101.246094 147.867188 C 101.246094 145.988281 102.765625 144.464844 104.640625 144.464844 C 106.511719 144.464844 108.03125 145.988281 108.03125 147.867188 C 108.03125 149.75 106.511719 151.273438 104.640625 151.273438 C 102.765625 151.273438 101.246094 149.75 101.246094 147.867188 Z M 115.566406 147.867188 C 115.566406 145.988281 117.085938 144.464844 118.960938 144.464844 C 120.832031 144.464844 122.351562 145.988281 122.351562 147.867188 C 122.351562 149.75 120.832031 151.273438 118.960938 151.273438 C 117.085938 151.273438 115.566406 149.75 115.566406 147.867188 Z M 129.886719 147.867188 C 129.886719 145.988281 131.40625 144.464844 133.28125 144.464844 C 135.152344 144.464844 136.671875 145.988281 136.671875 147.867188 C 136.671875 149.75 135.152344 151.273438 133.28125 151.273438 C 131.40625 151.273438 129.886719 149.75 129.886719 147.867188 Z M 129.886719 147.867188 " fill-opacity="1" fill-rule="nonzero"/></g><g clip-path="url(#83374e6a3d)"><path fill="#000000" d="M 1.007812 131.902344 C 1.007812 130.023438 2.527344 128.496094 4.398438 128.496094 C 6.273438 128.496094 7.792969 130.023438 7.792969 131.902344 C 7.792969 133.78125 6.273438 135.304688 4.398438 135.304688 C 2.527344 135.304688 1.007812 133.78125 1.007812 131.902344 Z M 15.328125 131.902344 C 15.328125 130.023438 16.847656 128.496094 18.71875 128.496094 C 20.59375 128.496094 22.113281 130.023438 22.113281 131.902344 C 22.113281 133.78125 20.59375 135.304688 18.71875 135.304688 C 16.847656 135.304688 15.328125 133.78125 15.328125 131.902344 Z M 29.648438 131.902344 C 29.648438 130.023438 31.167969 128.496094 33.039062 128.496094 C 34.914062 128.496094 36.433594 130.023438 36.433594 131.902344 C 36.433594 133.78125 34.914062 135.304688 33.039062 135.304688 C 31.167969 135.304688 29.648438 133.78125 29.648438 131.902344 Z M 43.96875 131.902344 C 43.96875 130.023438 45.484375 128.496094 47.359375 128.496094 C 49.234375 128.496094 50.753906 130.023438 50.753906 131.902344 C 50.753906 133.78125 49.234375 135.304688 47.359375 135.304688 C 45.484375 135.304688 43.96875 133.78125 43.96875 131.902344 Z M 58.289062 131.902344 C 58.289062 130.023438 59.804688 128.496094 61.679688 128.496094 C 63.554688 128.496094 65.074219 130.023438 65.074219 131.902344 C 65.074219 133.78125 63.554688 135.304688 61.679688 135.304688 C 59.804688 135.304688 58.289062 133.78125 58.289062 131.902344 Z M 72.605469 131.902344 C 72.605469 130.023438 74.125 128.496094 76 128.496094 C 77.875 128.496094 79.390625 130.023438 79.390625 131.902344 C 79.390625 133.78125 77.875 135.304688 76 135.304688 C 74.125 135.304688 72.605469 133.78125 72.605469 131.902344 Z M 86.925781 131.902344 C 86.925781 130.023438 88.445312 128.496094 90.320312 128.496094 C 92.195312 128.496094 93.710938 130.023438 93.710938 131.902344 C 93.710938 133.78125 92.195312 135.304688 90.320312 135.304688 C 88.445312 135.304688 86.925781 133.78125 86.925781 131.902344 Z M 101.246094 131.902344 C 101.246094 130.023438 102.765625 128.496094 104.640625 128.496094 C 106.511719 128.496094 108.03125 130.023438 108.03125 131.902344 C 108.03125 133.78125 106.511719 135.304688 104.640625 135.304688 C 102.765625 135.304688 101.246094 133.78125 101.246094 131.902344 Z M 115.566406 131.902344 C 115.566406 130.023438 117.085938 128.496094 118.960938 128.496094 C 120.832031 128.496094 122.351562 130.023438 122.351562 131.902344 C 122.351562 133.78125 120.832031 135.304688 118.960938 135.304688 C 117.085938 135.304688 115.566406 133.78125 115.566406 131.902344 Z M 129.886719 131.902344 C 129.886719 130.023438 131.40625 128.496094 133.28125 128.496094 C 135.152344 128.496094 136.671875 130.023438 136.671875 131.902344 C 136.671875 133.78125 135.152344 135.304688 133.28125 135.304688 C 131.40625 135.304688 129.886719 133.78125 129.886719 131.902344 Z M 129.886719 131.902344 " fill-opacity="1" fill-rule="nonzero"/></g><g clip-path="url(#a93bcda1bd)"><path fill="#000000" d="M 1.007812 115.933594 C 1.007812 114.054688 2.527344 112.53125 4.398438 112.53125 C 6.273438 112.53125 7.792969 114.054688 7.792969 115.933594 C 7.792969 117.816406 6.273438 119.339844 4.398438 119.339844 C 2.527344 119.339844 1.007812 117.816406 1.007812 115.933594 Z M 15.328125 115.933594 C 15.328125 114.054688 16.847656 112.53125 18.71875 112.53125 C 20.59375 112.53125 22.113281 114.054688 22.113281 115.933594 C 22.113281 117.816406 20.59375 119.339844 18.71875 119.339844 C 16.847656 119.339844 15.328125 117.816406 15.328125 115.933594 Z M 29.648438 115.933594 C 29.648438 114.054688 31.167969 112.53125 33.039062 112.53125 C 34.914062 112.53125 36.433594 114.054688 36.433594 115.933594 C 36.433594 117.816406 34.914062 119.339844 33.039062 119.339844 C 31.167969 119.339844 29.648438 117.816406 29.648438 115.933594 Z M 43.96875 115.933594 C 43.96875 114.054688 45.484375 112.53125 47.359375 112.53125 C 49.234375 112.53125 50.753906 114.054688 50.753906 115.933594 C 50.753906 117.816406 49.234375 119.339844 47.359375 119.339844 C 45.484375 119.339844 43.96875 117.816406 43.96875 115.933594 Z M 58.289062 115.933594 C 58.289062 114.054688 59.804688 112.53125 61.679688 112.53125 C 63.554688 112.53125 65.074219 114.054688 65.074219 115.933594 C 65.074219 117.816406 63.554688 119.339844 61.679688 119.339844 C 59.804688 119.339844 58.289062 117.816406 58.289062 115.933594 Z M 72.605469 115.933594 C 72.605469 114.054688 74.125 112.53125 76 112.53125 C 77.875 112.53125 79.390625 114.054688 79.390625 115.933594 C 79.390625 117.816406 77.875 119.339844 76 119.339844 C 74.125 119.339844 72.605469 117.816406 72.605469 115.933594 Z M 86.925781 115.933594 C 86.925781 114.054688 88.445312 112.53125 90.320312 112.53125 C 92.195312 112.53125 93.710938 114.054688 93.710938 115.933594 C 93.710938 117.816406 92.195312 119.339844 90.320312 119.339844 C 88.445312 119.339844 86.925781 117.816406 86.925781 115.933594 Z M 101.246094 115.933594 C 101.246094 114.054688 102.765625 112.53125 104.640625 112.53125 C 106.511719 112.53125 108.03125 114.054688 108.03125 115.933594 C 108.03125 117.816406 106.511719 119.339844 104.640625 119.339844 C 102.765625 119.339844 101.246094 117.816406 101.246094 115.933594 Z M 115.566406 115.933594 C 115.566406 114.054688 117.085938 112.53125 118.960938 112.53125 C 120.832031 112.53125 122.351562 114.054688 122.351562 115.933594 C 122.351562 117.816406 120.832031 119.339844 118.960938 119.339844 C 117.085938 119.339844 115.566406 117.816406 115.566406 115.933594 Z M 129.886719 115.933594 C 129.886719 114.054688 131.40625 112.53125 133.28125 112.53125 C 135.152344 112.53125 136.671875 114.054688 136.671875 115.933594 C 136.671875 117.816406 135.152344 119.339844 133.28125 119.339844 C 131.40625 119.339844 129.886719 117.816406 129.886719 115.933594 Z M 129.886719 115.933594 " fill-opacity="1" fill-rule="nonzero"/></g><g clip-path="url(#5236434aa9)"><path fill="#000000" d="M 1.007812 99.96875 C 1.007812 98.085938 2.527344 96.5625 4.398438 96.5625 C 6.273438 96.5625 7.792969 98.085938 7.792969 99.96875 C 7.792969 101.847656 6.273438 103.371094 4.398438 103.371094 C 2.527344 103.371094 1.007812 101.847656 1.007812 99.96875 Z M 15.328125 99.96875 C 15.328125 98.085938 16.847656 96.5625 18.71875 96.5625 C 20.59375 96.5625 22.113281 98.085938 22.113281 99.96875 C 22.113281 101.847656 20.59375 103.371094 18.71875 103.371094 C 16.847656 103.371094 15.328125 101.847656 15.328125 99.96875 Z M 29.648438 99.96875 C 29.648438 98.085938 31.167969 96.5625 33.039062 96.5625 C 34.914062 96.5625 36.433594 98.085938 36.433594 99.96875 C 36.433594 101.847656 34.914062 103.371094 33.039062 103.371094 C 31.167969 103.371094 29.648438 101.847656 29.648438 99.96875 Z M 43.96875 99.96875 C 43.96875 98.085938 45.484375 96.5625 47.359375 96.5625 C 49.234375 96.5625 50.753906 98.085938 50.753906 99.96875 C 50.753906 101.847656 49.234375 103.371094 47.359375 103.371094 C 45.484375 103.371094 43.96875 101.847656 43.96875 99.96875 Z M 58.289062 99.96875 C 58.289062 98.085938 59.804688 96.5625 61.679688 96.5625 C 63.554688 96.5625 65.074219 98.085938 65.074219 99.96875 C 65.074219 101.847656 63.554688 103.371094 61.679688 103.371094 C 59.804688 103.371094 58.289062 101.847656 58.289062 99.96875 Z M 72.605469 99.96875 C 72.605469 98.085938 74.125 96.5625 76 96.5625 C 77.875 96.5625 79.390625 98.085938 79.390625 99.96875 C 79.390625 101.847656 77.875 103.371094 76 103.371094 C 74.125 103.371094 72.605469 101.847656 72.605469 99.96875 Z M 86.925781 99.96875 C 86.925781 98.085938 88.445312 96.5625 90.320312 96.5625 C 92.195312 96.5625 93.710938 98.085938 93.710938 99.96875 C 93.710938 101.847656 92.195312 103.371094 90.320312 103.371094 C 88.445312 103.371094 86.925781 101.847656 86.925781 99.96875 Z M 101.246094 99.96875 C 101.246094 98.085938 102.765625 96.5625 104.640625 96.5625 C 106.511719 96.5625 108.03125 98.085938 108.03125 99.96875 C 108.03125 101.847656 106.511719 103.371094 104.640625 103.371094 C 102.765625 103.371094 101.246094 101.847656 101.246094 99.96875 Z M 115.566406 99.96875 C 115.566406 98.085938 117.085938 96.5625 118.960938 96.5625 C 120.832031 96.5625 122.351562 98.085938 122.351562 99.96875 C 122.351562 101.847656 120.832031 103.371094 118.960938 103.371094 C 117.085938 103.371094 115.566406 101.847656 115.566406 99.96875 Z M 129.886719 99.96875 C 129.886719 98.085938 131.40625 96.5625 133.28125 96.5625 C 135.152344 96.5625 136.671875 98.085938 136.671875 99.96875 C 136.671875 101.847656 135.152344 103.371094 133.28125 103.371094 C 131.40625 103.371094 129.886719 101.847656 129.886719 99.96875 Z M 129.886719 99.96875 " fill-opacity="1" fill-rule="nonzero"/></g><g clip-path="url(#d33603b311)"><path fill="#000000" d="M 1.007812 84 C 1.007812 82.121094 2.527344 80.597656 4.398438 80.597656 C 6.273438 80.597656 7.792969 82.121094 7.792969 84 C 7.792969 85.882812 6.273438 87.40625 4.398438 87.40625 C 2.527344 87.40625 1.007812 85.882812 1.007812 84 Z M 15.328125 84 C 15.328125 82.121094 16.847656 80.597656 18.71875 80.597656 C 20.59375 80.597656 22.113281 82.121094 22.113281 84 C 22.113281 85.882812 20.59375 87.40625 18.71875 87.40625 C 16.847656 87.40625 15.328125 85.882812 15.328125 84 Z M 29.648438 84 C 29.648438 82.121094 31.167969 80.597656 33.039062 80.597656 C 34.914062 80.597656 36.433594 82.121094 36.433594 84 C 36.433594 85.882812 34.914062 87.40625 33.039062 87.40625 C 31.167969 87.40625 29.648438 85.882812 29.648438 84 Z M 43.96875 84 C 43.96875 82.121094 45.484375 80.597656 47.359375 80.597656 C 49.234375 80.597656 50.753906 82.121094 50.753906 84 C 50.753906 85.882812 49.234375 87.40625 47.359375 87.40625 C 45.484375 87.40625 43.96875 85.882812 43.96875 84 Z M 58.289062 84 C 58.289062 82.121094 59.804688 80.597656 61.679688 80.597656 C 63.554688 80.597656 65.074219 82.121094 65.074219 84 C 65.074219 85.882812 63.554688 87.40625 61.679688 87.40625 C 59.804688 87.40625 58.289062 85.882812 58.289062 84 Z M 72.605469 84 C 72.605469 82.121094 74.125 80.597656 76 80.597656 C 77.875 80.597656 79.390625 82.121094 79.390625 84 C 79.390625 85.882812 77.875 87.40625 76 87.40625 C 74.125 87.40625 72.605469 85.882812 72.605469 84 Z M 86.925781 84 C 86.925781 82.121094 88.445312 80.597656 90.320312 80.597656 C 92.195312 80.597656 93.710938 82.121094 93.710938 84 C 93.710938 85.882812 92.195312 87.40625 90.320312 87.40625 C 88.445312 87.40625 86.925781 85.882812 86.925781 84 Z M 101.246094 84 C 101.246094 82.121094 102.765625 80.597656 104.640625 80.597656 C 106.511719 80.597656 108.03125 82.121094 108.03125 84 C 108.03125 85.882812 106.511719 87.40625 104.640625 87.40625 C 102.765625 87.40625 101.246094 85.882812 101.246094 84 Z M 115.566406 84 C 115.566406 82.121094 117.085938 80.597656 118.960938 80.597656 C 120.832031 80.597656 122.351562 82.121094 122.351562 84 C 122.351562 85.882812 120.832031 87.40625 118.960938 87.40625 C 117.085938 87.40625 115.566406 85.882812 115.566406 84 Z M 129.886719 84 C 129.886719 82.121094 131.40625 80.597656 133.28125 80.597656 C 135.152344 80.597656 136.671875 82.121094 136.671875 84 C 136.671875 85.882812 135.152344 87.40625 133.28125 87.40625 C 131.40625 87.40625 129.886719 85.882812 129.886719 84 Z M 129.886719 84 " fill-opacity="1" fill-rule="nonzero"/></g><g clip-path="url(#df7d628fe2)"><path fill="#000000" d="M 1.007812 68.035156 C 1.007812 66.152344 2.527344 64.628906 4.398438 64.628906 C 6.273438 64.628906 7.792969 66.152344 7.792969 68.035156 C 7.792969 69.914062 6.273438 71.4375 4.398438 71.4375 C 2.527344 71.4375 1.007812 69.914062 1.007812 68.035156 Z M 15.328125 68.035156 C 15.328125 66.152344 16.847656 64.628906 18.71875 64.628906 C 20.59375 64.628906 22.113281 66.152344 22.113281 68.035156 C 22.113281 69.914062 20.59375 71.4375 18.71875 71.4375 C 16.847656 71.4375 15.328125 69.914062 15.328125 68.035156 Z M 29.648438 68.035156 C 29.648438 66.152344 31.167969 64.628906 33.039062 64.628906 C 34.914062 64.628906 36.433594 66.152344 36.433594 68.035156 C 36.433594 69.914062 34.914062 71.4375 33.039062 71.4375 C 31.167969 71.4375 29.648438 69.914062 29.648438 68.035156 Z M 43.96875 68.035156 C 43.96875 66.152344 45.484375 64.628906 47.359375 64.628906 C 49.234375 64.628906 50.753906 66.152344 50.753906 68.035156 C 50.753906 69.914062 49.234375 71.4375 47.359375 71.4375 C 45.484375 71.4375 43.96875 69.914062 43.96875 68.035156 Z M 58.289062 68.035156 C 58.289062 66.152344 59.804688 64.628906 61.679688 64.628906 C 63.554688 64.628906 65.074219 66.152344 65.074219 68.035156 C 65.074219 69.914062 63.554688 71.4375 61.679688 71.4375 C 59.804688 71.4375 58.289062 69.914062 58.289062 68.035156 Z M 72.605469 68.035156 C 72.605469 66.152344 74.125 64.628906 76 64.628906 C 77.875 64.628906 79.390625 66.152344 79.390625 68.035156 C 79.390625 69.914062 77.875 71.4375 76 71.4375 C 74.125 71.4375 72.605469 69.914062 72.605469 68.035156 Z M 86.925781 68.035156 C 86.925781 66.152344 88.445312 64.628906 90.320312 64.628906 C 92.195312 64.628906 93.710938 66.152344 93.710938 68.035156 C 93.710938 69.914062 92.195312 71.4375 90.320312 71.4375 C 88.445312 71.4375 86.925781 69.914062 86.925781 68.035156 Z M 101.246094 68.035156 C 101.246094 66.152344 102.765625 64.628906 104.640625 64.628906 C 106.511719 64.628906 108.03125 66.152344 108.03125 68.035156 C 108.03125 69.914062 106.511719 71.4375 104.640625 71.4375 C 102.765625 71.4375 101.246094 69.914062 101.246094 68.035156 Z M 115.566406 68.035156 C 115.566406 66.152344 117.085938 64.628906 118.960938 64.628906 C 120.832031 64.628906 122.351562 66.152344 122.351562 68.035156 C 122.351562 69.914062 120.832031 71.4375 118.960938 71.4375 C 117.085938 71.4375 115.566406 69.914062 115.566406 68.035156 Z M 129.886719 68.035156 C 129.886719 66.152344 131.40625 64.628906 133.28125 64.628906 C 135.152344 64.628906 136.671875 66.152344 136.671875 68.035156 C 136.671875 69.914062 135.152344 71.4375 133.28125 71.4375 C 131.40625 71.4375 129.886719 69.914062 129.886719 68.035156 Z M 129.886719 68.035156 " fill-opacity="1" fill-rule="nonzero"/></g><g clip-path="url(#d433f72afa)"><path fill="#000000" d="M 1.007812 52.066406 C 1.007812 50.1875 2.527344 48.664062 4.398438 48.664062 C 6.273438 48.664062 7.792969 50.1875 7.792969 52.066406 C 7.792969 53.945312 6.273438 55.472656 4.398438 55.472656 C 2.527344 55.472656 1.007812 53.945312 1.007812 52.066406 Z M 15.328125 52.066406 C 15.328125 50.1875 16.847656 48.664062 18.71875 48.664062 C 20.59375 48.664062 22.113281 50.1875 22.113281 52.066406 C 22.113281 53.945312 20.59375 55.472656 18.71875 55.472656 C 16.847656 55.472656 15.328125 53.945312 15.328125 52.066406 Z M 29.648438 52.066406 C 29.648438 50.1875 31.167969 48.664062 33.039062 48.664062 C 34.914062 48.664062 36.433594 50.1875 36.433594 52.066406 C 36.433594 53.945312 34.914062 55.472656 33.039062 55.472656 C 31.167969 55.472656 29.648438 53.945312 29.648438 52.066406 Z M 43.96875 52.066406 C 43.96875 50.1875 45.484375 48.664062 47.359375 48.664062 C 49.234375 48.664062 50.753906 50.1875 50.753906 52.066406 C 50.753906 53.945312 49.234375 55.472656 47.359375 55.472656 C 45.484375 55.472656 43.96875 53.945312 43.96875 52.066406 Z M 58.289062 52.066406 C 58.289062 50.1875 59.804688 48.664062 61.679688 48.664062 C 63.554688 48.664062 65.074219 50.1875 65.074219 52.066406 C 65.074219 53.945312 63.554688 55.472656 61.679688 55.472656 C 59.804688 55.472656 58.289062 53.945312 58.289062 52.066406 Z M 72.605469 52.066406 C 72.605469 50.1875 74.125 48.664062 76 48.664062 C 77.875 48.664062 79.390625 50.1875 79.390625 52.066406 C 79.390625 53.945312 77.875 55.472656 76 55.472656 C 74.125 55.472656 72.605469 53.945312 72.605469 52.066406 Z M 86.925781 52.066406 C 86.925781 50.1875 88.445312 48.664062 90.320312 48.664062 C 92.195312 48.664062 93.710938 50.1875 93.710938 52.066406 C 93.710938 53.945312 92.195312 55.472656 90.320312 55.472656 C 88.445312 55.472656 86.925781 53.945312 86.925781 52.066406 Z M 101.246094 52.066406 C 101.246094 50.1875 102.765625 48.664062 104.640625 48.664062 C 106.511719 48.664062 108.03125 50.1875 108.03125 52.066406 C 108.03125 53.945312 106.511719 55.472656 104.640625 55.472656 C 102.765625 55.472656 101.246094 53.945312 101.246094 52.066406 Z M 115.566406 52.066406 C 115.566406 50.1875 117.085938 48.664062 118.960938 48.664062 C 120.832031 48.664062 122.351562 50.1875 122.351562 52.066406 C 122.351562 53.945312 120.832031 55.472656 118.960938 55.472656 C 117.085938 55.472656 115.566406 53.945312 115.566406 52.066406 Z M 129.886719 52.066406 C 129.886719 50.1875 131.40625 48.664062 133.28125 48.664062 C 135.152344 48.664062 136.671875 50.1875 136.671875 52.066406 C 136.671875 53.945312 135.152344 55.472656 133.28125 55.472656 C 131.40625 55.472656 129.886719 53.945312 129.886719 52.066406 Z M 129.886719 52.066406 " fill-opacity="1" fill-rule="nonzero"/></g><g clip-path="url(#72062e1a6d)"><path fill="#000000" d="M 1.007812 36.101562 C 1.007812 34.21875 2.527344 32.695312 4.398438 32.695312 C 6.273438 32.695312 7.792969 34.21875 7.792969 36.101562 C 7.792969 37.980469 6.273438 39.503906 4.398438 39.503906 C 2.527344 39.503906 1.007812 37.980469 1.007812 36.101562 Z M 15.328125 36.101562 C 15.328125 34.21875 16.847656 32.695312 18.71875 32.695312 C 20.59375 32.695312 22.113281 34.21875 22.113281 36.101562 C 22.113281 37.980469 20.59375 39.503906 18.71875 39.503906 C 16.847656 39.503906 15.328125 37.980469 15.328125 36.101562 Z M 29.648438 36.101562 C 29.648438 34.21875 31.167969 32.695312 33.039062 32.695312 C 34.914062 32.695312 36.433594 34.21875 36.433594 36.101562 C 36.433594 37.980469 34.914062 39.503906 33.039062 39.503906 C 31.167969 39.503906 29.648438 37.980469 29.648438 36.101562 Z M 43.96875 36.101562 C 43.96875 34.21875 45.484375 32.695312 47.359375 32.695312 C 49.234375 32.695312 50.753906 34.21875 50.753906 36.101562 C 50.753906 37.980469 49.234375 39.503906 47.359375 39.503906 C 45.484375 39.503906 43.96875 37.980469 43.96875 36.101562 Z M 58.289062 36.101562 C 58.289062 34.21875 59.804688 32.695312 61.679688 32.695312 C 63.554688 32.695312 65.074219 34.21875 65.074219 36.101562 C 65.074219 37.980469 63.554688 39.503906 61.679688 39.503906 C 59.804688 39.503906 58.289062 37.980469 58.289062 36.101562 Z M 72.605469 36.101562 C 72.605469 34.21875 74.125 32.695312 76 32.695312 C 77.875 32.695312 79.390625 34.21875 79.390625 36.101562 C 79.390625 37.980469 77.875 39.503906 76 39.503906 C 74.125 39.503906 72.605469 37.980469 72.605469 36.101562 Z M 86.925781 36.101562 C 86.925781 34.21875 88.445312 32.695312 90.320312 32.695312 C 92.195312 32.695312 93.710938 34.21875 93.710938 36.101562 C 93.710938 37.980469 92.195312 39.503906 90.320312 39.503906 C 88.445312 39.503906 86.925781 37.980469 86.925781 36.101562 Z M 101.246094 36.101562 C 101.246094 34.21875 102.765625 32.695312 104.640625 32.695312 C 106.511719 32.695312 108.03125 34.21875 108.03125 36.101562 C 108.03125 37.980469 106.511719 39.503906 104.640625 39.503906 C 102.765625 39.503906 101.246094 37.980469 101.246094 36.101562 Z M 115.566406 36.101562 C 115.566406 34.21875 117.085938 32.695312 118.960938 32.695312 C 120.832031 32.695312 122.351562 34.21875 122.351562 36.101562 C 122.351562 37.980469 120.832031 39.503906 118.960938 39.503906 C 117.085938 39.503906 115.566406 37.980469 115.566406 36.101562 Z M 129.886719 36.101562 C 129.886719 34.21875 131.40625 32.695312 133.28125 32.695312 C 135.152344 32.695312 136.671875 34.21875 136.671875 36.101562 C 136.671875 37.980469 135.152344 39.503906 133.28125 39.503906 C 131.40625 39.503906 129.886719 37.980469 129.886719 36.101562 Z M 129.886719 36.101562 " fill-opacity="1" fill-rule="nonzero"/></g><g clip-path="url(#fbb60cb731)"><path fill="#000000" d="M 1.007812 20.132812 C 1.007812 18.253906 2.527344 16.730469 4.398438 16.730469 C 6.273438 16.730469 7.792969 18.253906 7.792969 20.132812 C 7.792969 22.011719 6.273438 23.539062 4.398438 23.539062 C 2.527344 23.539062 1.007812 22.011719 1.007812 20.132812 Z M 15.328125 20.132812 C 15.328125 18.253906 16.847656 16.730469 18.71875 16.730469 C 20.59375 16.730469 22.113281 18.253906 22.113281 20.132812 C 22.113281 22.011719 20.59375 23.539062 18.71875 23.539062 C 16.847656 23.539062 15.328125 22.011719 15.328125 20.132812 Z M 29.648438 20.132812 C 29.648438 18.253906 31.167969 16.730469 33.039062 16.730469 C 34.914062 16.730469 36.433594 18.253906 36.433594 20.132812 C 36.433594 22.011719 34.914062 23.539062 33.039062 23.539062 C 31.167969 23.539062 29.648438 22.011719 29.648438 20.132812 Z M 43.96875 20.132812 C 43.96875 18.253906 45.484375 16.730469 47.359375 16.730469 C 49.234375 16.730469 50.753906 18.253906 50.753906 20.132812 C 50.753906 22.011719 49.234375 23.539062 47.359375 23.539062 C 45.484375 23.539062 43.96875 22.011719 43.96875 20.132812 Z M 58.289062 20.132812 C 58.289062 18.253906 59.804688 16.730469 61.679688 16.730469 C 63.554688 16.730469 65.074219 18.253906 65.074219 20.132812 C 65.074219 22.011719 63.554688 23.539062 61.679688 23.539062 C 59.804688 23.539062 58.289062 22.011719 58.289062 20.132812 Z M 72.605469 20.132812 C 72.605469 18.253906 74.125 16.730469 76 16.730469 C 77.875 16.730469 79.390625 18.253906 79.390625 20.132812 C 79.390625 22.011719 77.875 23.539062 76 23.539062 C 74.125 23.539062 72.605469 22.011719 72.605469 20.132812 Z M 86.925781 20.132812 C 86.925781 18.253906 88.445312 16.730469 90.320312 16.730469 C 92.195312 16.730469 93.710938 18.253906 93.710938 20.132812 C 93.710938 22.011719 92.195312 23.539062 90.320312 23.539062 C 88.445312 23.539062 86.925781 22.011719 86.925781 20.132812 Z M 101.246094 20.132812 C 101.246094 18.253906 102.765625 16.730469 104.640625 16.730469 C 106.511719 16.730469 108.03125 18.253906 108.03125 20.132812 C 108.03125 22.011719 106.511719 23.539062 104.640625 23.539062 C 102.765625 23.539062 101.246094 22.011719 101.246094 20.132812 Z M 115.566406 20.132812 C 115.566406 18.253906 117.085938 16.730469 118.960938 16.730469 C 120.832031 16.730469 122.351562 18.253906 122.351562 20.132812 C 122.351562 22.011719 120.832031 23.539062 118.960938 23.539062 C 117.085938 23.539062 115.566406 22.011719 115.566406 20.132812 Z M 129.886719 20.132812 C 129.886719 18.253906 131.40625 16.730469 133.28125 16.730469 C 135.152344 16.730469 136.671875 18.253906 136.671875 20.132812 C 136.671875 22.011719 135.152344 23.539062 133.28125 23.539062 C 131.40625 23.539062 129.886719 22.011719 129.886719 20.132812 Z M 129.886719 20.132812 " fill-opacity="1" fill-rule="nonzero"/></g><g clip-path="url(#60e34ee471)"><path fill="#000000" d="M 1.007812 4.167969 C 1.007812 2.285156 2.527344 0.761719 4.398438 0.761719 C 6.273438 0.761719 7.792969 2.285156 7.792969 4.167969 C 7.792969 6.046875 6.273438 7.570312 4.398438 7.570312 C 2.527344 7.570312 1.007812 6.046875 1.007812 4.167969 Z M 15.328125 4.167969 C 15.328125 2.285156 16.847656 0.761719 18.71875 0.761719 C 20.59375 0.761719 22.113281 2.285156 22.113281 4.167969 C 22.113281 6.046875 20.59375 7.570312 18.71875 7.570312 C 16.847656 7.570312 15.328125 6.046875 15.328125 4.167969 Z M 29.648438 4.167969 C 29.648438 2.285156 31.167969 0.761719 33.039062 0.761719 C 34.914062 0.761719 36.433594 2.285156 36.433594 4.167969 C 36.433594 6.046875 34.914062 7.570312 33.039062 7.570312 C 31.167969 7.570312 29.648438 6.046875 29.648438 4.167969 Z M 43.96875 4.167969 C 43.96875 2.285156 45.484375 0.761719 47.359375 0.761719 C 49.234375 0.761719 50.753906 2.285156 50.753906 4.167969 C 50.753906 6.046875 49.234375 7.570312 47.359375 7.570312 C 45.484375 7.570312 43.96875 6.046875 43.96875 4.167969 Z M 58.289062 4.167969 C 58.289062 2.285156 59.804688 0.761719 61.679688 0.761719 C 63.554688 0.761719 65.074219 2.285156 65.074219 4.167969 C 65.074219 6.046875 63.554688 7.570312 61.679688 7.570312 C 59.804688 7.570312 58.289062 6.046875 58.289062 4.167969 Z M 72.605469 4.167969 C 72.605469 2.285156 74.125 0.761719 76 0.761719 C 77.875 0.761719 79.390625 2.285156 79.390625 4.167969 C 79.390625 6.046875 77.875 7.570312 76 7.570312 C 74.125 7.570312 72.605469 6.046875 72.605469 4.167969 Z M 86.925781 4.167969 C 86.925781 2.285156 88.445312 0.761719 90.320312 0.761719 C 92.195312 0.761719 93.710938 2.285156 93.710938 4.167969 C 93.710938 6.046875 92.195312 7.570312 90.320312 7.570312 C 88.445312 7.570312 86.925781 6.046875 86.925781 4.167969 Z M 101.246094 4.167969 C 101.246094 2.285156 102.765625 0.761719 104.640625 0.761719 C 106.511719 0.761719 108.03125 2.285156 108.03125 4.167969 C 108.03125 6.046875 106.511719 7.570312 104.640625 7.570312 C 102.765625 7.570312 101.246094 6.046875 101.246094 4.167969 Z M 115.566406 4.167969 C 115.566406 2.285156 117.085938 0.761719 118.960938 0.761719 C 120.832031 0.761719 122.351562 2.285156 122.351562 4.167969 C 122.351562 6.046875 120.832031 7.570312 118.960938 7.570312 C 117.085938 7.570312 115.566406 6.046875 115.566406 4.167969 Z M 129.886719 4.167969 C 129.886719 2.285156 131.40625 0.761719 133.28125 0.761719 C 135.152344 0.761719 136.671875 2.285156 136.671875 4.167969 C 136.671875 6.046875 135.152344 7.570312 133.28125 7.570312 C 131.40625 7.570312 129.886719 6.046875 129.886719 4.167969 Z M 129.886719 4.167969 " fill-opacity="1" fill-rule="nonzero"/></g></g></g></g><g clip-path="url(#bbc0fbf90c)"><path fill="#0bb851" d="M 80.640625 0 L 218.042969 0 L 218.042969 15 L 80.640625 15 Z M 80.640625 0 " fill-opacity="1" fill-rule="nonzero"/></g></svg>