<svg xmlns="http://www.w3.org/2000/svg" xmlns:xlink="http://www.w3.org/1999/xlink" width="400" zoomAndPan="magnify" viewBox="0 0 300 299.999988" height="400" preserveAspectRatio="xMidYMid meet" version="1.0"><defs><filter x="0%" y="0%" width="100%" height="100%" id="75ea31fdcd"><feColorMatrix values="0 0 0 0 1 0 0 0 0 1 0 0 0 0 1 0 0 0 1 0" color-interpolation-filters="sRGB"/></filter><mask id="5f09afbeaa"><g filter="url(#75ea31fdcd)"><rect x="-30" width="360" fill="#000000" y="-29.999999" height="359.999986" fill-opacity="0.7"/></g></mask><clipPath id="659aa23b03"><path d="M 272 1.324219 L 278.996094 1.324219 L 278.996094 137.074219 L 272 137.074219 Z M 272 1.324219 " clip-rule="nonzero"/></clipPath><clipPath id="281fc3802e"><path d="M 256 1.324219 L 264 1.324219 L 264 137.074219 L 256 137.074219 Z M 256 1.324219 " clip-rule="nonzero"/></clipPath><clipPath id="91bd81bfdd"><path d="M 240 1.324219 L 248 1.324219 L 248 137.074219 L 240 137.074219 Z M 240 1.324219 " clip-rule="nonzero"/></clipPath><clipPath id="b091298563"><path d="M 224 1.324219 L 232 1.324219 L 232 137.074219 L 224 137.074219 Z M 224 1.324219 " clip-rule="nonzero"/></clipPath><clipPath id="cb0389fee9"><path d="M 208 1.324219 L 216 1.324219 L 216 137.074219 L 208 137.074219 Z M 208 1.324219 " clip-rule="nonzero"/></clipPath><clipPath id="531a014ac8"><path d="M 192 1.324219 L 200 1.324219 L 200 137.074219 L 192 137.074219 Z M 192 1.324219 " clip-rule="nonzero"/></clipPath><clipPath id="708734864b"><path d="M 176 1.324219 L 184 1.324219 L 184 137.074219 L 176 137.074219 Z M 176 1.324219 " clip-rule="nonzero"/></clipPath><clipPath id="802bc1adde"><path d="M 160 1.324219 L 168 1.324219 L 168 137.074219 L 160 137.074219 Z M 160 1.324219 " clip-rule="nonzero"/></clipPath><clipPath id="8b8a3b653e"><path d="M 144 1.324219 L 152 1.324219 L 152 137.074219 L 144 137.074219 Z M 144 1.324219 " clip-rule="nonzero"/></clipPath><clipPath id="6835437efe"><path d="M 128 1.324219 L 136 1.324219 L 136 137.074219 L 128 137.074219 Z M 128 1.324219 " clip-rule="nonzero"/></clipPath><clipPath id="795c00353a"><path d="M 112 1.324219 L 120 1.324219 L 120 137.074219 L 112 137.074219 Z M 112 1.324219 " clip-rule="nonzero"/></clipPath><clipPath id="6e3964938c"><path d="M 96 1.324219 L 104 1.324219 L 104 137.074219 L 96 137.074219 Z M 96 1.324219 " clip-rule="nonzero"/></clipPath><clipPath id="82d0680029"><path d="M 80 1.324219 L 88 1.324219 L 88 137.074219 L 80 137.074219 Z M 80 1.324219 " clip-rule="nonzero"/></clipPath><clipPath id="3ff5bbc5f3"><path d="M 64 1.324219 L 72 1.324219 L 72 137.074219 L 64 137.074219 Z M 64 1.324219 " clip-rule="nonzero"/></clipPath><clipPath id="7faaab08f0"><path d="M 48 1.324219 L 56 1.324219 L 56 137.074219 L 48 137.074219 Z M 48 1.324219 " clip-rule="nonzero"/></clipPath><clipPath id="30680e1278"><path d="M 32 1.324219 L 40 1.324219 L 40 137.074219 L 32 137.074219 Z M 32 1.324219 " clip-rule="nonzero"/></clipPath><clipPath id="e5eee41f08"><path d="M 16 1.324219 L 24 1.324219 L 24 137.074219 L 16 137.074219 Z M 16 1.324219 " clip-rule="nonzero"/></clipPath><clipPath id="21f1bfc658"><path d="M 0.746094 1.324219 L 8 1.324219 L 8 137.074219 L 0.746094 137.074219 Z M 0.746094 1.324219 " clip-rule="nonzero"/></clipPath><clipPath id="d14fedcf50"><rect x="0" width="279" y="0" height="138"/></clipPath><clipPath id="b8e835e88a"><path d="M 0 88.03125 L 15 88.03125 L 15 225.414062 L 0 225.414062 Z M 0 88.03125 " clip-rule="nonzero"/></clipPath></defs><g mask="url(#5f09afbeaa)"><g transform="matrix(1, 0, 0, 1, 21, 87)"><g clip-path="url(#d14fedcf50)"><g clip-path="url(#659aa23b03)"><path fill="#000000" d="M 275.605469 137.046875 C 273.722656 137.046875 272.199219 135.527344 272.199219 133.652344 C 272.199219 131.777344 273.722656 130.261719 275.605469 130.261719 C 277.484375 130.261719 279.007812 131.777344 279.007812 133.652344 C 279.007812 135.527344 277.484375 137.046875 275.605469 137.046875 Z M 275.605469 122.726562 C 273.722656 122.726562 272.199219 121.207031 272.199219 119.332031 C 272.199219 117.460938 273.722656 115.941406 275.605469 115.941406 C 277.484375 115.941406 279.007812 117.460938 279.007812 119.332031 C 279.007812 121.207031 277.484375 122.726562 275.605469 122.726562 Z M 275.605469 108.40625 C 273.722656 108.40625 272.199219 106.886719 272.199219 105.011719 C 272.199219 103.140625 273.722656 101.621094 275.605469 101.621094 C 277.484375 101.621094 279.007812 103.140625 279.007812 105.011719 C 279.007812 106.886719 277.484375 108.40625 275.605469 108.40625 Z M 275.605469 94.085938 C 273.722656 94.085938 272.199219 92.566406 272.199219 90.691406 C 272.199219 88.820312 273.722656 87.300781 275.605469 87.300781 C 277.484375 87.300781 279.007812 88.820312 279.007812 90.691406 C 279.007812 92.566406 277.484375 94.085938 275.605469 94.085938 Z M 275.605469 79.765625 C 273.722656 79.765625 272.199219 78.246094 272.199219 76.371094 C 272.199219 74.5 273.722656 72.980469 275.605469 72.980469 C 277.484375 72.980469 279.007812 74.5 279.007812 76.371094 C 279.007812 78.246094 277.484375 79.765625 275.605469 79.765625 Z M 275.605469 65.445312 C 273.722656 65.445312 272.199219 63.925781 272.199219 62.050781 C 272.199219 60.179688 273.722656 58.660156 275.605469 58.660156 C 277.484375 58.660156 279.007812 60.179688 279.007812 62.050781 C 279.007812 63.925781 277.484375 65.445312 275.605469 65.445312 Z M 275.605469 51.125 C 273.722656 51.125 272.199219 49.605469 272.199219 47.734375 C 272.199219 45.859375 273.722656 44.339844 275.605469 44.339844 C 277.484375 44.339844 279.007812 45.859375 279.007812 47.734375 C 279.007812 49.605469 277.484375 51.125 275.605469 51.125 Z M 275.605469 36.804688 C 273.722656 36.804688 272.199219 35.285156 272.199219 33.414062 C 272.199219 31.539062 273.722656 30.019531 275.605469 30.019531 C 277.484375 30.019531 279.007812 31.539062 279.007812 33.414062 C 279.007812 35.285156 277.484375 36.804688 275.605469 36.804688 Z M 275.605469 22.484375 C 273.722656 22.484375 272.199219 20.964844 272.199219 19.09375 C 272.199219 17.21875 273.722656 15.699219 275.605469 15.699219 C 277.484375 15.699219 279.007812 17.21875 279.007812 19.09375 C 279.007812 20.964844 277.484375 22.484375 275.605469 22.484375 Z M 275.605469 8.164062 C 273.722656 8.164062 272.199219 6.644531 272.199219 4.773438 C 272.199219 2.898438 273.722656 1.378906 275.605469 1.378906 C 277.484375 1.378906 279.007812 2.898438 279.007812 4.773438 C 279.007812 6.644531 277.484375 8.164062 275.605469 8.164062 Z M 275.605469 8.164062 " fill-opacity="1" fill-rule="nonzero"/></g><g clip-path="url(#281fc3802e)"><path fill="#000000" d="M 259.636719 137.046875 C 257.757812 137.046875 256.234375 135.527344 256.234375 133.652344 C 256.234375 131.777344 257.757812 130.261719 259.636719 130.261719 C 261.519531 130.261719 263.042969 131.777344 263.042969 133.652344 C 263.042969 135.527344 261.519531 137.046875 259.636719 137.046875 Z M 259.636719 122.726562 C 257.757812 122.726562 256.234375 121.207031 256.234375 119.332031 C 256.234375 117.460938 257.757812 115.941406 259.636719 115.941406 C 261.519531 115.941406 263.042969 117.460938 263.042969 119.332031 C 263.042969 121.207031 261.519531 122.726562 259.636719 122.726562 Z M 259.636719 108.40625 C 257.757812 108.40625 256.234375 106.886719 256.234375 105.011719 C 256.234375 103.140625 257.757812 101.621094 259.636719 101.621094 C 261.519531 101.621094 263.042969 103.140625 263.042969 105.011719 C 263.042969 106.886719 261.519531 108.40625 259.636719 108.40625 Z M 259.636719 94.085938 C 257.757812 94.085938 256.234375 92.566406 256.234375 90.691406 C 256.234375 88.820312 257.757812 87.300781 259.636719 87.300781 C 261.519531 87.300781 263.042969 88.820312 263.042969 90.691406 C 263.042969 92.566406 261.519531 94.085938 259.636719 94.085938 Z M 259.636719 79.765625 C 257.757812 79.765625 256.234375 78.246094 256.234375 76.371094 C 256.234375 74.5 257.757812 72.980469 259.636719 72.980469 C 261.519531 72.980469 263.042969 74.5 263.042969 76.371094 C 263.042969 78.246094 261.519531 79.765625 259.636719 79.765625 Z M 259.636719 65.445312 C 257.757812 65.445312 256.234375 63.925781 256.234375 62.050781 C 256.234375 60.179688 257.757812 58.660156 259.636719 58.660156 C 261.519531 58.660156 263.042969 60.179688 263.042969 62.050781 C 263.042969 63.925781 261.519531 65.445312 259.636719 65.445312 Z M 259.636719 51.125 C 257.757812 51.125 256.234375 49.605469 256.234375 47.734375 C 256.234375 45.859375 257.757812 44.339844 259.636719 44.339844 C 261.519531 44.339844 263.042969 45.859375 263.042969 47.734375 C 263.042969 49.605469 261.519531 51.125 259.636719 51.125 Z M 259.636719 36.804688 C 257.757812 36.804688 256.234375 35.285156 256.234375 33.414062 C 256.234375 31.539062 257.757812 30.019531 259.636719 30.019531 C 261.519531 30.019531 263.042969 31.539062 263.042969 33.414062 C 263.042969 35.285156 261.519531 36.804688 259.636719 36.804688 Z M 259.636719 22.484375 C 257.757812 22.484375 256.234375 20.964844 256.234375 19.09375 C 256.234375 17.21875 257.757812 15.699219 259.636719 15.699219 C 261.519531 15.699219 263.042969 17.21875 263.042969 19.09375 C 263.042969 20.964844 261.519531 22.484375 259.636719 22.484375 Z M 259.636719 8.164062 C 257.757812 8.164062 256.234375 6.644531 256.234375 4.773438 C 256.234375 2.898438 257.757812 1.378906 259.636719 1.378906 C 261.519531 1.378906 263.042969 2.898438 263.042969 4.773438 C 263.042969 6.644531 261.519531 8.164062 259.636719 8.164062 Z M 259.636719 8.164062 " fill-opacity="1" fill-rule="nonzero"/></g><g clip-path="url(#91bd81bfdd)"><path fill="#000000" d="M 243.671875 137.046875 C 241.789062 137.046875 240.265625 135.527344 240.265625 133.652344 C 240.265625 131.777344 241.789062 130.261719 243.671875 130.261719 C 245.550781 130.261719 247.074219 131.777344 247.074219 133.652344 C 247.074219 135.527344 245.550781 137.046875 243.671875 137.046875 Z M 243.671875 122.726562 C 241.789062 122.726562 240.265625 121.207031 240.265625 119.332031 C 240.265625 117.460938 241.789062 115.941406 243.671875 115.941406 C 245.550781 115.941406 247.074219 117.460938 247.074219 119.332031 C 247.074219 121.207031 245.550781 122.726562 243.671875 122.726562 Z M 243.671875 108.40625 C 241.789062 108.40625 240.265625 106.886719 240.265625 105.011719 C 240.265625 103.140625 241.789062 101.621094 243.671875 101.621094 C 245.550781 101.621094 247.074219 103.140625 247.074219 105.011719 C 247.074219 106.886719 245.550781 108.40625 243.671875 108.40625 Z M 243.671875 94.085938 C 241.789062 94.085938 240.265625 92.566406 240.265625 90.691406 C 240.265625 88.820312 241.789062 87.300781 243.671875 87.300781 C 245.550781 87.300781 247.074219 88.820312 247.074219 90.691406 C 247.074219 92.566406 245.550781 94.085938 243.671875 94.085938 Z M 243.671875 79.765625 C 241.789062 79.765625 240.265625 78.246094 240.265625 76.371094 C 240.265625 74.5 241.789062 72.980469 243.671875 72.980469 C 245.550781 72.980469 247.074219 74.5 247.074219 76.371094 C 247.074219 78.246094 245.550781 79.765625 243.671875 79.765625 Z M 243.671875 65.445312 C 241.789062 65.445312 240.265625 63.925781 240.265625 62.050781 C 240.265625 60.179688 241.789062 58.660156 243.671875 58.660156 C 245.550781 58.660156 247.074219 60.179688 247.074219 62.050781 C 247.074219 63.925781 245.550781 65.445312 243.671875 65.445312 Z M 243.671875 51.125 C 241.789062 51.125 240.265625 49.605469 240.265625 47.734375 C 240.265625 45.859375 241.789062 44.339844 243.671875 44.339844 C 245.550781 44.339844 247.074219 45.859375 247.074219 47.734375 C 247.074219 49.605469 245.550781 51.125 243.671875 51.125 Z M 243.671875 36.804688 C 241.789062 36.804688 240.265625 35.285156 240.265625 33.414062 C 240.265625 31.539062 241.789062 30.019531 243.671875 30.019531 C 245.550781 30.019531 247.074219 31.539062 247.074219 33.414062 C 247.074219 35.285156 245.550781 36.804688 243.671875 36.804688 Z M 243.671875 22.484375 C 241.789062 22.484375 240.265625 20.964844 240.265625 19.09375 C 240.265625 17.21875 241.789062 15.699219 243.671875 15.699219 C 245.550781 15.699219 247.074219 17.21875 247.074219 19.09375 C 247.074219 20.964844 245.550781 22.484375 243.671875 22.484375 Z M 243.671875 8.164062 C 241.789062 8.164062 240.265625 6.644531 240.265625 4.773438 C 240.265625 2.898438 241.789062 1.378906 243.671875 1.378906 C 245.550781 1.378906 247.074219 2.898438 247.074219 4.773438 C 247.074219 6.644531 245.550781 8.164062 243.671875 8.164062 Z M 243.671875 8.164062 " fill-opacity="1" fill-rule="nonzero"/></g><g clip-path="url(#b091298563)"><path fill="#000000" d="M 227.703125 137.046875 C 225.824219 137.046875 224.300781 135.527344 224.300781 133.652344 C 224.300781 131.777344 225.824219 130.261719 227.703125 130.261719 C 229.582031 130.261719 231.109375 131.777344 231.109375 133.652344 C 231.109375 135.527344 229.582031 137.046875 227.703125 137.046875 Z M 227.703125 122.726562 C 225.824219 122.726562 224.300781 121.207031 224.300781 119.332031 C 224.300781 117.460938 225.824219 115.941406 227.703125 115.941406 C 229.582031 115.941406 231.109375 117.460938 231.109375 119.332031 C 231.109375 121.207031 229.582031 122.726562 227.703125 122.726562 Z M 227.703125 108.40625 C 225.824219 108.40625 224.300781 106.886719 224.300781 105.011719 C 224.300781 103.140625 225.824219 101.621094 227.703125 101.621094 C 229.582031 101.621094 231.109375 103.140625 231.109375 105.011719 C 231.109375 106.886719 229.582031 108.40625 227.703125 108.40625 Z M 227.703125 94.085938 C 225.824219 94.085938 224.300781 92.566406 224.300781 90.691406 C 224.300781 88.820312 225.824219 87.300781 227.703125 87.300781 C 229.582031 87.300781 231.109375 88.820312 231.109375 90.691406 C 231.109375 92.566406 229.582031 94.085938 227.703125 94.085938 Z M 227.703125 79.765625 C 225.824219 79.765625 224.300781 78.246094 224.300781 76.371094 C 224.300781 74.5 225.824219 72.980469 227.703125 72.980469 C 229.582031 72.980469 231.109375 74.5 231.109375 76.371094 C 231.109375 78.246094 229.582031 79.765625 227.703125 79.765625 Z M 227.703125 65.445312 C 225.824219 65.445312 224.300781 63.925781 224.300781 62.050781 C 224.300781 60.179688 225.824219 58.660156 227.703125 58.660156 C 229.582031 58.660156 231.109375 60.179688 231.109375 62.050781 C 231.109375 63.925781 229.582031 65.445312 227.703125 65.445312 Z M 227.703125 51.125 C 225.824219 51.125 224.300781 49.605469 224.300781 47.734375 C 224.300781 45.859375 225.824219 44.339844 227.703125 44.339844 C 229.582031 44.339844 231.109375 45.859375 231.109375 47.734375 C 231.109375 49.605469 229.582031 51.125 227.703125 51.125 Z M 227.703125 36.804688 C 225.824219 36.804688 224.300781 35.285156 224.300781 33.414062 C 224.300781 31.539062 225.824219 30.019531 227.703125 30.019531 C 229.582031 30.019531 231.109375 31.539062 231.109375 33.414062 C 231.109375 35.285156 229.582031 36.804688 227.703125 36.804688 Z M 227.703125 22.484375 C 225.824219 22.484375 224.300781 20.964844 224.300781 19.09375 C 224.300781 17.21875 225.824219 15.699219 227.703125 15.699219 C 229.582031 15.699219 231.109375 17.21875 231.109375 19.09375 C 231.109375 20.964844 229.582031 22.484375 227.703125 22.484375 Z M 227.703125 8.164062 C 225.824219 8.164062 224.300781 6.644531 224.300781 4.773438 C 224.300781 2.898438 225.824219 1.378906 227.703125 1.378906 C 229.582031 1.378906 231.109375 2.898438 231.109375 4.773438 C 231.109375 6.644531 229.582031 8.164062 227.703125 8.164062 Z M 227.703125 8.164062 " fill-opacity="1" fill-rule="nonzero"/></g><g clip-path="url(#cb0389fee9)"><path fill="#000000" d="M 211.738281 137.046875 C 209.855469 137.046875 208.332031 135.527344 208.332031 133.652344 C 208.332031 131.777344 209.855469 130.261719 211.738281 130.261719 C 213.617188 130.261719 215.140625 131.777344 215.140625 133.652344 C 215.140625 135.527344 213.617188 137.046875 211.738281 137.046875 Z M 211.738281 122.726562 C 209.855469 122.726562 208.332031 121.207031 208.332031 119.332031 C 208.332031 117.460938 209.855469 115.941406 211.738281 115.941406 C 213.617188 115.941406 215.140625 117.460938 215.140625 119.332031 C 215.140625 121.207031 213.617188 122.726562 211.738281 122.726562 Z M 211.738281 108.40625 C 209.855469 108.40625 208.332031 106.886719 208.332031 105.011719 C 208.332031 103.140625 209.855469 101.621094 211.738281 101.621094 C 213.617188 101.621094 215.140625 103.140625 215.140625 105.011719 C 215.140625 106.886719 213.617188 108.40625 211.738281 108.40625 Z M 211.738281 94.085938 C 209.855469 94.085938 208.332031 92.566406 208.332031 90.691406 C 208.332031 88.820312 209.855469 87.300781 211.738281 87.300781 C 213.617188 87.300781 215.140625 88.820312 215.140625 90.691406 C 215.140625 92.566406 213.617188 94.085938 211.738281 94.085938 Z M 211.738281 79.765625 C 209.855469 79.765625 208.332031 78.246094 208.332031 76.371094 C 208.332031 74.5 209.855469 72.980469 211.738281 72.980469 C 213.617188 72.980469 215.140625 74.5 215.140625 76.371094 C 215.140625 78.246094 213.617188 79.765625 211.738281 79.765625 Z M 211.738281 65.445312 C 209.855469 65.445312 208.332031 63.925781 208.332031 62.050781 C 208.332031 60.179688 209.855469 58.660156 211.738281 58.660156 C 213.617188 58.660156 215.140625 60.179688 215.140625 62.050781 C 215.140625 63.925781 213.617188 65.445312 211.738281 65.445312 Z M 211.738281 51.125 C 209.855469 51.125 208.332031 49.605469 208.332031 47.734375 C 208.332031 45.859375 209.855469 44.339844 211.738281 44.339844 C 213.617188 44.339844 215.140625 45.859375 215.140625 47.734375 C 215.140625 49.605469 213.617188 51.125 211.738281 51.125 Z M 211.738281 36.804688 C 209.855469 36.804688 208.332031 35.285156 208.332031 33.414062 C 208.332031 31.539062 209.855469 30.019531 211.738281 30.019531 C 213.617188 30.019531 215.140625 31.539062 215.140625 33.414062 C 215.140625 35.285156 213.617188 36.804688 211.738281 36.804688 Z M 211.738281 22.484375 C 209.855469 22.484375 208.332031 20.964844 208.332031 19.09375 C 208.332031 17.21875 209.855469 15.699219 211.738281 15.699219 C 213.617188 15.699219 215.140625 17.21875 215.140625 19.09375 C 215.140625 20.964844 213.617188 22.484375 211.738281 22.484375 Z M 211.738281 8.164062 C 209.855469 8.164062 208.332031 6.644531 208.332031 4.773438 C 208.332031 2.898438 209.855469 1.378906 211.738281 1.378906 C 213.617188 1.378906 215.140625 2.898438 215.140625 4.773438 C 215.140625 6.644531 213.617188 8.164062 211.738281 8.164062 Z M 211.738281 8.164062 " fill-opacity="1" fill-rule="nonzero"/></g><g clip-path="url(#531a014ac8)"><path fill="#000000" d="M 195.769531 137.046875 C 193.890625 137.046875 192.363281 135.527344 192.363281 133.652344 C 192.363281 131.777344 193.890625 130.261719 195.769531 130.261719 C 197.648438 130.261719 199.171875 131.777344 199.171875 133.652344 C 199.171875 135.527344 197.648438 137.046875 195.769531 137.046875 Z M 195.769531 122.726562 C 193.890625 122.726562 192.363281 121.207031 192.363281 119.332031 C 192.363281 117.460938 193.890625 115.941406 195.769531 115.941406 C 197.648438 115.941406 199.171875 117.460938 199.171875 119.332031 C 199.171875 121.207031 197.648438 122.726562 195.769531 122.726562 Z M 195.769531 108.40625 C 193.890625 108.40625 192.363281 106.886719 192.363281 105.011719 C 192.363281 103.140625 193.890625 101.621094 195.769531 101.621094 C 197.648438 101.621094 199.171875 103.140625 199.171875 105.011719 C 199.171875 106.886719 197.648438 108.40625 195.769531 108.40625 Z M 195.769531 94.085938 C 193.890625 94.085938 192.363281 92.566406 192.363281 90.691406 C 192.363281 88.820312 193.890625 87.300781 195.769531 87.300781 C 197.648438 87.300781 199.171875 88.820312 199.171875 90.691406 C 199.171875 92.566406 197.648438 94.085938 195.769531 94.085938 Z M 195.769531 79.765625 C 193.890625 79.765625 192.363281 78.246094 192.363281 76.371094 C 192.363281 74.5 193.890625 72.980469 195.769531 72.980469 C 197.648438 72.980469 199.171875 74.5 199.171875 76.371094 C 199.171875 78.246094 197.648438 79.765625 195.769531 79.765625 Z M 195.769531 65.445312 C 193.890625 65.445312 192.363281 63.925781 192.363281 62.050781 C 192.363281 60.179688 193.890625 58.660156 195.769531 58.660156 C 197.648438 58.660156 199.171875 60.179688 199.171875 62.050781 C 199.171875 63.925781 197.648438 65.445312 195.769531 65.445312 Z M 195.769531 51.125 C 193.890625 51.125 192.363281 49.605469 192.363281 47.734375 C 192.363281 45.859375 193.890625 44.339844 195.769531 44.339844 C 197.648438 44.339844 199.171875 45.859375 199.171875 47.734375 C 199.171875 49.605469 197.648438 51.125 195.769531 51.125 Z M 195.769531 36.804688 C 193.890625 36.804688 192.363281 35.285156 192.363281 33.414062 C 192.363281 31.539062 193.890625 30.019531 195.769531 30.019531 C 197.648438 30.019531 199.171875 31.539062 199.171875 33.414062 C 199.171875 35.285156 197.648438 36.804688 195.769531 36.804688 Z M 195.769531 22.484375 C 193.890625 22.484375 192.363281 20.964844 192.363281 19.09375 C 192.363281 17.21875 193.890625 15.699219 195.769531 15.699219 C 197.648438 15.699219 199.171875 17.21875 199.171875 19.09375 C 199.171875 20.964844 197.648438 22.484375 195.769531 22.484375 Z M 195.769531 8.164062 C 193.890625 8.164062 192.363281 6.644531 192.363281 4.773438 C 192.363281 2.898438 193.890625 1.378906 195.769531 1.378906 C 197.648438 1.378906 199.171875 2.898438 199.171875 4.773438 C 199.171875 6.644531 197.648438 8.164062 195.769531 8.164062 Z M 195.769531 8.164062 " fill-opacity="1" fill-rule="nonzero"/></g><g clip-path="url(#708734864b)"><path fill="#000000" d="M 179.800781 137.046875 C 177.921875 137.046875 176.398438 135.527344 176.398438 133.652344 C 176.398438 131.777344 177.921875 130.261719 179.800781 130.261719 C 181.683594 130.261719 183.207031 131.777344 183.207031 133.652344 C 183.207031 135.527344 181.683594 137.046875 179.800781 137.046875 Z M 179.800781 122.726562 C 177.921875 122.726562 176.398438 121.207031 176.398438 119.332031 C 176.398438 117.460938 177.921875 115.941406 179.800781 115.941406 C 181.683594 115.941406 183.207031 117.460938 183.207031 119.332031 C 183.207031 121.207031 181.683594 122.726562 179.800781 122.726562 Z M 179.800781 108.40625 C 177.921875 108.40625 176.398438 106.886719 176.398438 105.011719 C 176.398438 103.140625 177.921875 101.621094 179.800781 101.621094 C 181.683594 101.621094 183.207031 103.140625 183.207031 105.011719 C 183.207031 106.886719 181.683594 108.40625 179.800781 108.40625 Z M 179.800781 94.085938 C 177.921875 94.085938 176.398438 92.566406 176.398438 90.691406 C 176.398438 88.820312 177.921875 87.300781 179.800781 87.300781 C 181.683594 87.300781 183.207031 88.820312 183.207031 90.691406 C 183.207031 92.566406 181.683594 94.085938 179.800781 94.085938 Z M 179.800781 79.765625 C 177.921875 79.765625 176.398438 78.246094 176.398438 76.371094 C 176.398438 74.5 177.921875 72.980469 179.800781 72.980469 C 181.683594 72.980469 183.207031 74.5 183.207031 76.371094 C 183.207031 78.246094 181.683594 79.765625 179.800781 79.765625 Z M 179.800781 65.445312 C 177.921875 65.445312 176.398438 63.925781 176.398438 62.050781 C 176.398438 60.179688 177.921875 58.660156 179.800781 58.660156 C 181.683594 58.660156 183.207031 60.179688 183.207031 62.050781 C 183.207031 63.925781 181.683594 65.445312 179.800781 65.445312 Z M 179.800781 51.125 C 177.921875 51.125 176.398438 49.605469 176.398438 47.734375 C 176.398438 45.859375 177.921875 44.339844 179.800781 44.339844 C 181.683594 44.339844 183.207031 45.859375 183.207031 47.734375 C 183.207031 49.605469 181.683594 51.125 179.800781 51.125 Z M 179.800781 36.804688 C 177.921875 36.804688 176.398438 35.285156 176.398438 33.414062 C 176.398438 31.539062 177.921875 30.019531 179.800781 30.019531 C 181.683594 30.019531 183.207031 31.539062 183.207031 33.414062 C 183.207031 35.285156 181.683594 36.804688 179.800781 36.804688 Z M 179.800781 22.484375 C 177.921875 22.484375 176.398438 20.964844 176.398438 19.09375 C 176.398438 17.21875 177.921875 15.699219 179.800781 15.699219 C 181.683594 15.699219 183.207031 17.21875 183.207031 19.09375 C 183.207031 20.964844 181.683594 22.484375 179.800781 22.484375 Z M 179.800781 8.164062 C 177.921875 8.164062 176.398438 6.644531 176.398438 4.773438 C 176.398438 2.898438 177.921875 1.378906 179.800781 1.378906 C 181.683594 1.378906 183.207031 2.898438 183.207031 4.773438 C 183.207031 6.644531 181.683594 8.164062 179.800781 8.164062 Z M 179.800781 8.164062 " fill-opacity="1" fill-rule="nonzero"/></g><g clip-path="url(#802bc1adde)"><path fill="#000000" d="M 163.835938 137.046875 C 161.957031 137.046875 160.429688 135.527344 160.429688 133.652344 C 160.429688 131.777344 161.957031 130.261719 163.835938 130.261719 C 165.714844 130.261719 167.238281 131.777344 167.238281 133.652344 C 167.238281 135.527344 165.714844 137.046875 163.835938 137.046875 Z M 163.835938 122.726562 C 161.957031 122.726562 160.429688 121.207031 160.429688 119.332031 C 160.429688 117.460938 161.957031 115.941406 163.835938 115.941406 C 165.714844 115.941406 167.238281 117.460938 167.238281 119.332031 C 167.238281 121.207031 165.714844 122.726562 163.835938 122.726562 Z M 163.835938 108.40625 C 161.957031 108.40625 160.429688 106.886719 160.429688 105.011719 C 160.429688 103.140625 161.957031 101.621094 163.835938 101.621094 C 165.714844 101.621094 167.238281 103.140625 167.238281 105.011719 C 167.238281 106.886719 165.714844 108.40625 163.835938 108.40625 Z M 163.835938 94.085938 C 161.957031 94.085938 160.429688 92.566406 160.429688 90.691406 C 160.429688 88.820312 161.957031 87.300781 163.835938 87.300781 C 165.714844 87.300781 167.238281 88.820312 167.238281 90.691406 C 167.238281 92.566406 165.714844 94.085938 163.835938 94.085938 Z M 163.835938 79.765625 C 161.957031 79.765625 160.429688 78.246094 160.429688 76.371094 C 160.429688 74.5 161.957031 72.980469 163.835938 72.980469 C 165.714844 72.980469 167.238281 74.5 167.238281 76.371094 C 167.238281 78.246094 165.714844 79.765625 163.835938 79.765625 Z M 163.835938 65.445312 C 161.957031 65.445312 160.429688 63.925781 160.429688 62.050781 C 160.429688 60.179688 161.957031 58.660156 163.835938 58.660156 C 165.714844 58.660156 167.238281 60.179688 167.238281 62.050781 C 167.238281 63.925781 165.714844 65.445312 163.835938 65.445312 Z M 163.835938 51.125 C 161.957031 51.125 160.429688 49.605469 160.429688 47.734375 C 160.429688 45.859375 161.957031 44.339844 163.835938 44.339844 C 165.714844 44.339844 167.238281 45.859375 167.238281 47.734375 C 167.238281 49.605469 165.714844 51.125 163.835938 51.125 Z M 163.835938 36.804688 C 161.957031 36.804688 160.429688 35.285156 160.429688 33.414062 C 160.429688 31.539062 161.957031 30.019531 163.835938 30.019531 C 165.714844 30.019531 167.238281 31.539062 167.238281 33.414062 C 167.238281 35.285156 165.714844 36.804688 163.835938 36.804688 Z M 163.835938 22.484375 C 161.957031 22.484375 160.429688 20.964844 160.429688 19.09375 C 160.429688 17.21875 161.957031 15.699219 163.835938 15.699219 C 165.714844 15.699219 167.238281 17.21875 167.238281 19.09375 C 167.238281 20.964844 165.714844 22.484375 163.835938 22.484375 Z M 163.835938 8.164062 C 161.957031 8.164062 160.429688 6.644531 160.429688 4.773438 C 160.429688 2.898438 161.957031 1.378906 163.835938 1.378906 C 165.714844 1.378906 167.238281 2.898438 167.238281 4.773438 C 167.238281 6.644531 165.714844 8.164062 163.835938 8.164062 Z M 163.835938 8.164062 " fill-opacity="1" fill-rule="nonzero"/></g><g clip-path="url(#8b8a3b653e)"><path fill="#000000" d="M 147.867188 137.046875 C 145.988281 137.046875 144.464844 135.527344 144.464844 133.652344 C 144.464844 131.777344 145.988281 130.261719 147.867188 130.261719 C 149.75 130.261719 151.273438 131.777344 151.273438 133.652344 C 151.273438 135.527344 149.75 137.046875 147.867188 137.046875 Z M 147.867188 122.726562 C 145.988281 122.726562 144.464844 121.207031 144.464844 119.332031 C 144.464844 117.460938 145.988281 115.941406 147.867188 115.941406 C 149.75 115.941406 151.273438 117.460938 151.273438 119.332031 C 151.273438 121.207031 149.75 122.726562 147.867188 122.726562 Z M 147.867188 108.40625 C 145.988281 108.40625 144.464844 106.886719 144.464844 105.011719 C 144.464844 103.140625 145.988281 101.621094 147.867188 101.621094 C 149.75 101.621094 151.273438 103.140625 151.273438 105.011719 C 151.273438 106.886719 149.75 108.40625 147.867188 108.40625 Z M 147.867188 94.085938 C 145.988281 94.085938 144.464844 92.566406 144.464844 90.691406 C 144.464844 88.820312 145.988281 87.300781 147.867188 87.300781 C 149.75 87.300781 151.273438 88.820312 151.273438 90.691406 C 151.273438 92.566406 149.75 94.085938 147.867188 94.085938 Z M 147.867188 79.765625 C 145.988281 79.765625 144.464844 78.246094 144.464844 76.371094 C 144.464844 74.5 145.988281 72.980469 147.867188 72.980469 C 149.75 72.980469 151.273438 74.5 151.273438 76.371094 C 151.273438 78.246094 149.75 79.765625 147.867188 79.765625 Z M 147.867188 65.445312 C 145.988281 65.445312 144.464844 63.925781 144.464844 62.050781 C 144.464844 60.179688 145.988281 58.660156 147.867188 58.660156 C 149.75 58.660156 151.273438 60.179688 151.273438 62.050781 C 151.273438 63.925781 149.75 65.445312 147.867188 65.445312 Z M 147.867188 51.125 C 145.988281 51.125 144.464844 49.605469 144.464844 47.734375 C 144.464844 45.859375 145.988281 44.339844 147.867188 44.339844 C 149.75 44.339844 151.273438 45.859375 151.273438 47.734375 C 151.273438 49.605469 149.75 51.125 147.867188 51.125 Z M 147.867188 36.804688 C 145.988281 36.804688 144.464844 35.285156 144.464844 33.414062 C 144.464844 31.539062 145.988281 30.019531 147.867188 30.019531 C 149.75 30.019531 151.273438 31.539062 151.273438 33.414062 C 151.273438 35.285156 149.75 36.804688 147.867188 36.804688 Z M 147.867188 22.484375 C 145.988281 22.484375 144.464844 20.964844 144.464844 19.09375 C 144.464844 17.21875 145.988281 15.699219 147.867188 15.699219 C 149.75 15.699219 151.273438 17.21875 151.273438 19.09375 C 151.273438 20.964844 149.75 22.484375 147.867188 22.484375 Z M 147.867188 8.164062 C 145.988281 8.164062 144.464844 6.644531 144.464844 4.773438 C 144.464844 2.898438 145.988281 1.378906 147.867188 1.378906 C 149.75 1.378906 151.273438 2.898438 151.273438 4.773438 C 151.273438 6.644531 149.75 8.164062 147.867188 8.164062 Z M 147.867188 8.164062 " fill-opacity="1" fill-rule="nonzero"/></g><g clip-path="url(#6835437efe)"><path fill="#000000" d="M 131.902344 137.046875 C 130.019531 137.046875 128.496094 135.527344 128.496094 133.652344 C 128.496094 131.777344 130.019531 130.261719 131.902344 130.261719 C 133.78125 130.261719 135.304688 131.777344 135.304688 133.652344 C 135.304688 135.527344 133.78125 137.046875 131.902344 137.046875 Z M 131.902344 122.726562 C 130.019531 122.726562 128.496094 121.207031 128.496094 119.332031 C 128.496094 117.460938 130.019531 115.941406 131.902344 115.941406 C 133.78125 115.941406 135.304688 117.460938 135.304688 119.332031 C 135.304688 121.207031 133.78125 122.726562 131.902344 122.726562 Z M 131.902344 108.40625 C 130.019531 108.40625 128.496094 106.886719 128.496094 105.011719 C 128.496094 103.140625 130.019531 101.621094 131.902344 101.621094 C 133.78125 101.621094 135.304688 103.140625 135.304688 105.011719 C 135.304688 106.886719 133.78125 108.40625 131.902344 108.40625 Z M 131.902344 94.085938 C 130.019531 94.085938 128.496094 92.566406 128.496094 90.691406 C 128.496094 88.820312 130.019531 87.300781 131.902344 87.300781 C 133.78125 87.300781 135.304688 88.820312 135.304688 90.691406 C 135.304688 92.566406 133.78125 94.085938 131.902344 94.085938 Z M 131.902344 79.765625 C 130.019531 79.765625 128.496094 78.246094 128.496094 76.371094 C 128.496094 74.5 130.019531 72.980469 131.902344 72.980469 C 133.78125 72.980469 135.304688 74.5 135.304688 76.371094 C 135.304688 78.246094 133.78125 79.765625 131.902344 79.765625 Z M 131.902344 65.445312 C 130.019531 65.445312 128.496094 63.925781 128.496094 62.050781 C 128.496094 60.179688 130.019531 58.660156 131.902344 58.660156 C 133.78125 58.660156 135.304688 60.179688 135.304688 62.050781 C 135.304688 63.925781 133.78125 65.445312 131.902344 65.445312 Z M 131.902344 51.125 C 130.019531 51.125 128.496094 49.605469 128.496094 47.734375 C 128.496094 45.859375 130.019531 44.339844 131.902344 44.339844 C 133.78125 44.339844 135.304688 45.859375 135.304688 47.734375 C 135.304688 49.605469 133.78125 51.125 131.902344 51.125 Z M 131.902344 36.804688 C 130.019531 36.804688 128.496094 35.285156 128.496094 33.414062 C 128.496094 31.539062 130.019531 30.019531 131.902344 30.019531 C 133.78125 30.019531 135.304688 31.539062 135.304688 33.414062 C 135.304688 35.285156 133.78125 36.804688 131.902344 36.804688 Z M 131.902344 22.484375 C 130.019531 22.484375 128.496094 20.964844 128.496094 19.09375 C 128.496094 17.21875 130.019531 15.699219 131.902344 15.699219 C 133.78125 15.699219 135.304688 17.21875 135.304688 19.09375 C 135.304688 20.964844 133.78125 22.484375 131.902344 22.484375 Z M 131.902344 8.164062 C 130.019531 8.164062 128.496094 6.644531 128.496094 4.773438 C 128.496094 2.898438 130.019531 1.378906 131.902344 1.378906 C 133.78125 1.378906 135.304688 2.898438 135.304688 4.773438 C 135.304688 6.644531 133.78125 8.164062 131.902344 8.164062 Z M 131.902344 8.164062 " fill-opacity="1" fill-rule="nonzero"/></g><g clip-path="url(#795c00353a)"><path fill="#000000" d="M 115.933594 137.046875 C 114.054688 137.046875 112.53125 135.527344 112.53125 133.652344 C 112.53125 131.777344 114.054688 130.261719 115.933594 130.261719 C 117.816406 130.261719 119.339844 131.777344 119.339844 133.652344 C 119.339844 135.527344 117.816406 137.046875 115.933594 137.046875 Z M 115.933594 122.726562 C 114.054688 122.726562 112.53125 121.207031 112.53125 119.332031 C 112.53125 117.460938 114.054688 115.941406 115.933594 115.941406 C 117.816406 115.941406 119.339844 117.460938 119.339844 119.332031 C 119.339844 121.207031 117.816406 122.726562 115.933594 122.726562 Z M 115.933594 108.40625 C 114.054688 108.40625 112.53125 106.886719 112.53125 105.011719 C 112.53125 103.140625 114.054688 101.621094 115.933594 101.621094 C 117.816406 101.621094 119.339844 103.140625 119.339844 105.011719 C 119.339844 106.886719 117.816406 108.40625 115.933594 108.40625 Z M 115.933594 94.085938 C 114.054688 94.085938 112.53125 92.566406 112.53125 90.691406 C 112.53125 88.820312 114.054688 87.300781 115.933594 87.300781 C 117.816406 87.300781 119.339844 88.820312 119.339844 90.691406 C 119.339844 92.566406 117.816406 94.085938 115.933594 94.085938 Z M 115.933594 79.765625 C 114.054688 79.765625 112.53125 78.246094 112.53125 76.371094 C 112.53125 74.5 114.054688 72.980469 115.933594 72.980469 C 117.816406 72.980469 119.339844 74.5 119.339844 76.371094 C 119.339844 78.246094 117.816406 79.765625 115.933594 79.765625 Z M 115.933594 65.445312 C 114.054688 65.445312 112.53125 63.925781 112.53125 62.050781 C 112.53125 60.179688 114.054688 58.660156 115.933594 58.660156 C 117.816406 58.660156 119.339844 60.179688 119.339844 62.050781 C 119.339844 63.925781 117.816406 65.445312 115.933594 65.445312 Z M 115.933594 51.125 C 114.054688 51.125 112.53125 49.605469 112.53125 47.734375 C 112.53125 45.859375 114.054688 44.339844 115.933594 44.339844 C 117.816406 44.339844 119.339844 45.859375 119.339844 47.734375 C 119.339844 49.605469 117.816406 51.125 115.933594 51.125 Z M 115.933594 36.804688 C 114.054688 36.804688 112.53125 35.285156 112.53125 33.414062 C 112.53125 31.539062 114.054688 30.019531 115.933594 30.019531 C 117.816406 30.019531 119.339844 31.539062 119.339844 33.414062 C 119.339844 35.285156 117.816406 36.804688 115.933594 36.804688 Z M 115.933594 22.484375 C 114.054688 22.484375 112.53125 20.964844 112.53125 19.09375 C 112.53125 17.21875 114.054688 15.699219 115.933594 15.699219 C 117.816406 15.699219 119.339844 17.21875 119.339844 19.09375 C 119.339844 20.964844 117.816406 22.484375 115.933594 22.484375 Z M 115.933594 8.164062 C 114.054688 8.164062 112.53125 6.644531 112.53125 4.773438 C 112.53125 2.898438 114.054688 1.378906 115.933594 1.378906 C 117.816406 1.378906 119.339844 2.898438 119.339844 4.773438 C 119.339844 6.644531 117.816406 8.164062 115.933594 8.164062 Z M 115.933594 8.164062 " fill-opacity="1" fill-rule="nonzero"/></g><g clip-path="url(#6e3964938c)"><path fill="#000000" d="M 99.96875 137.046875 C 98.085938 137.046875 96.5625 135.527344 96.5625 133.652344 C 96.5625 131.777344 98.085938 130.261719 99.96875 130.261719 C 101.847656 130.261719 103.371094 131.777344 103.371094 133.652344 C 103.371094 135.527344 101.847656 137.046875 99.96875 137.046875 Z M 99.96875 122.726562 C 98.085938 122.726562 96.5625 121.207031 96.5625 119.332031 C 96.5625 117.460938 98.085938 115.941406 99.96875 115.941406 C 101.847656 115.941406 103.371094 117.460938 103.371094 119.332031 C 103.371094 121.207031 101.847656 122.726562 99.96875 122.726562 Z M 99.96875 108.40625 C 98.085938 108.40625 96.5625 106.886719 96.5625 105.011719 C 96.5625 103.140625 98.085938 101.621094 99.96875 101.621094 C 101.847656 101.621094 103.371094 103.140625 103.371094 105.011719 C 103.371094 106.886719 101.847656 108.40625 99.96875 108.40625 Z M 99.96875 94.085938 C 98.085938 94.085938 96.5625 92.566406 96.5625 90.691406 C 96.5625 88.820312 98.085938 87.300781 99.96875 87.300781 C 101.847656 87.300781 103.371094 88.820312 103.371094 90.691406 C 103.371094 92.566406 101.847656 94.085938 99.96875 94.085938 Z M 99.96875 79.765625 C 98.085938 79.765625 96.5625 78.246094 96.5625 76.371094 C 96.5625 74.5 98.085938 72.980469 99.96875 72.980469 C 101.847656 72.980469 103.371094 74.5 103.371094 76.371094 C 103.371094 78.246094 101.847656 79.765625 99.96875 79.765625 Z M 99.96875 65.445312 C 98.085938 65.445312 96.5625 63.925781 96.5625 62.050781 C 96.5625 60.179688 98.085938 58.660156 99.96875 58.660156 C 101.847656 58.660156 103.371094 60.179688 103.371094 62.050781 C 103.371094 63.925781 101.847656 65.445312 99.96875 65.445312 Z M 99.96875 51.125 C 98.085938 51.125 96.5625 49.605469 96.5625 47.734375 C 96.5625 45.859375 98.085938 44.339844 99.96875 44.339844 C 101.847656 44.339844 103.371094 45.859375 103.371094 47.734375 C 103.371094 49.605469 101.847656 51.125 99.96875 51.125 Z M 99.96875 36.804688 C 98.085938 36.804688 96.5625 35.285156 96.5625 33.414062 C 96.5625 31.539062 98.085938 30.019531 99.96875 30.019531 C 101.847656 30.019531 103.371094 31.539062 103.371094 33.414062 C 103.371094 35.285156 101.847656 36.804688 99.96875 36.804688 Z M 99.96875 22.484375 C 98.085938 22.484375 96.5625 20.964844 96.5625 19.09375 C 96.5625 17.21875 98.085938 15.699219 99.96875 15.699219 C 101.847656 15.699219 103.371094 17.21875 103.371094 19.09375 C 103.371094 20.964844 101.847656 22.484375 99.96875 22.484375 Z M 99.96875 8.164062 C 98.085938 8.164062 96.5625 6.644531 96.5625 4.773438 C 96.5625 2.898438 98.085938 1.378906 99.96875 1.378906 C 101.847656 1.378906 103.371094 2.898438 103.371094 4.773438 C 103.371094 6.644531 101.847656 8.164062 99.96875 8.164062 Z M 99.96875 8.164062 " fill-opacity="1" fill-rule="nonzero"/></g><g clip-path="url(#82d0680029)"><path fill="#000000" d="M 84 137.046875 C 82.121094 137.046875 80.597656 135.527344 80.597656 133.652344 C 80.597656 131.777344 82.121094 130.261719 84 130.261719 C 85.878906 130.261719 87.40625 131.777344 87.40625 133.652344 C 87.40625 135.527344 85.878906 137.046875 84 137.046875 Z M 84 122.726562 C 82.121094 122.726562 80.597656 121.207031 80.597656 119.332031 C 80.597656 117.460938 82.121094 115.941406 84 115.941406 C 85.878906 115.941406 87.40625 117.460938 87.40625 119.332031 C 87.40625 121.207031 85.878906 122.726562 84 122.726562 Z M 84 108.40625 C 82.121094 108.40625 80.597656 106.886719 80.597656 105.011719 C 80.597656 103.140625 82.121094 101.621094 84 101.621094 C 85.878906 101.621094 87.40625 103.140625 87.40625 105.011719 C 87.40625 106.886719 85.878906 108.40625 84 108.40625 Z M 84 94.085938 C 82.121094 94.085938 80.597656 92.566406 80.597656 90.691406 C 80.597656 88.820312 82.121094 87.300781 84 87.300781 C 85.878906 87.300781 87.40625 88.820312 87.40625 90.691406 C 87.40625 92.566406 85.878906 94.085938 84 94.085938 Z M 84 79.765625 C 82.121094 79.765625 80.597656 78.246094 80.597656 76.371094 C 80.597656 74.5 82.121094 72.980469 84 72.980469 C 85.878906 72.980469 87.40625 74.5 87.40625 76.371094 C 87.40625 78.246094 85.878906 79.765625 84 79.765625 Z M 84 65.445312 C 82.121094 65.445312 80.597656 63.925781 80.597656 62.050781 C 80.597656 60.179688 82.121094 58.660156 84 58.660156 C 85.878906 58.660156 87.40625 60.179688 87.40625 62.050781 C 87.40625 63.925781 85.878906 65.445312 84 65.445312 Z M 84 51.125 C 82.121094 51.125 80.597656 49.605469 80.597656 47.734375 C 80.597656 45.859375 82.121094 44.339844 84 44.339844 C 85.878906 44.339844 87.40625 45.859375 87.40625 47.734375 C 87.40625 49.605469 85.878906 51.125 84 51.125 Z M 84 36.804688 C 82.121094 36.804688 80.597656 35.285156 80.597656 33.414062 C 80.597656 31.539062 82.121094 30.019531 84 30.019531 C 85.878906 30.019531 87.40625 31.539062 87.40625 33.414062 C 87.40625 35.285156 85.878906 36.804688 84 36.804688 Z M 84 22.484375 C 82.121094 22.484375 80.597656 20.964844 80.597656 19.09375 C 80.597656 17.21875 82.121094 15.699219 84 15.699219 C 85.878906 15.699219 87.40625 17.21875 87.40625 19.09375 C 87.40625 20.964844 85.878906 22.484375 84 22.484375 Z M 84 8.164062 C 82.121094 8.164062 80.597656 6.644531 80.597656 4.773438 C 80.597656 2.898438 82.121094 1.378906 84 1.378906 C 85.878906 1.378906 87.40625 2.898438 87.40625 4.773438 C 87.40625 6.644531 85.878906 8.164062 84 8.164062 Z M 84 8.164062 " fill-opacity="1" fill-rule="nonzero"/></g><g clip-path="url(#3ff5bbc5f3)"><path fill="#000000" d="M 68.035156 137.046875 C 66.152344 137.046875 64.628906 135.527344 64.628906 133.652344 C 64.628906 131.777344 66.152344 130.261719 68.035156 130.261719 C 69.914062 130.261719 71.4375 131.777344 71.4375 133.652344 C 71.4375 135.527344 69.914062 137.046875 68.035156 137.046875 Z M 68.035156 122.726562 C 66.152344 122.726562 64.628906 121.207031 64.628906 119.332031 C 64.628906 117.460938 66.152344 115.941406 68.035156 115.941406 C 69.914062 115.941406 71.4375 117.460938 71.4375 119.332031 C 71.4375 121.207031 69.914062 122.726562 68.035156 122.726562 Z M 68.035156 108.40625 C 66.152344 108.40625 64.628906 106.886719 64.628906 105.011719 C 64.628906 103.140625 66.152344 101.621094 68.035156 101.621094 C 69.914062 101.621094 71.4375 103.140625 71.4375 105.011719 C 71.4375 106.886719 69.914062 108.40625 68.035156 108.40625 Z M 68.035156 94.085938 C 66.152344 94.085938 64.628906 92.566406 64.628906 90.691406 C 64.628906 88.820312 66.152344 87.300781 68.035156 87.300781 C 69.914062 87.300781 71.4375 88.820312 71.4375 90.691406 C 71.4375 92.566406 69.914062 94.085938 68.035156 94.085938 Z M 68.035156 79.765625 C 66.152344 79.765625 64.628906 78.246094 64.628906 76.371094 C 64.628906 74.5 66.152344 72.980469 68.035156 72.980469 C 69.914062 72.980469 71.4375 74.5 71.4375 76.371094 C 71.4375 78.246094 69.914062 79.765625 68.035156 79.765625 Z M 68.035156 65.445312 C 66.152344 65.445312 64.628906 63.925781 64.628906 62.050781 C 64.628906 60.179688 66.152344 58.660156 68.035156 58.660156 C 69.914062 58.660156 71.4375 60.179688 71.4375 62.050781 C 71.4375 63.925781 69.914062 65.445312 68.035156 65.445312 Z M 68.035156 51.125 C 66.152344 51.125 64.628906 49.605469 64.628906 47.734375 C 64.628906 45.859375 66.152344 44.339844 68.035156 44.339844 C 69.914062 44.339844 71.4375 45.859375 71.4375 47.734375 C 71.4375 49.605469 69.914062 51.125 68.035156 51.125 Z M 68.035156 36.804688 C 66.152344 36.804688 64.628906 35.285156 64.628906 33.414062 C 64.628906 31.539062 66.152344 30.019531 68.035156 30.019531 C 69.914062 30.019531 71.4375 31.539062 71.4375 33.414062 C 71.4375 35.285156 69.914062 36.804688 68.035156 36.804688 Z M 68.035156 22.484375 C 66.152344 22.484375 64.628906 20.964844 64.628906 19.09375 C 64.628906 17.21875 66.152344 15.699219 68.035156 15.699219 C 69.914062 15.699219 71.4375 17.21875 71.4375 19.09375 C 71.4375 20.964844 69.914062 22.484375 68.035156 22.484375 Z M 68.035156 8.164062 C 66.152344 8.164062 64.628906 6.644531 64.628906 4.773438 C 64.628906 2.898438 66.152344 1.378906 68.035156 1.378906 C 69.914062 1.378906 71.4375 2.898438 71.4375 4.773438 C 71.4375 6.644531 69.914062 8.164062 68.035156 8.164062 Z M 68.035156 8.164062 " fill-opacity="1" fill-rule="nonzero"/></g><g clip-path="url(#7faaab08f0)"><path fill="#000000" d="M 52.066406 137.046875 C 50.1875 137.046875 48.660156 135.527344 48.660156 133.652344 C 48.660156 131.777344 50.1875 130.261719 52.066406 130.261719 C 53.945312 130.261719 55.472656 131.777344 55.472656 133.652344 C 55.472656 135.527344 53.945312 137.046875 52.066406 137.046875 Z M 52.066406 122.726562 C 50.1875 122.726562 48.660156 121.207031 48.660156 119.332031 C 48.660156 117.460938 50.1875 115.941406 52.066406 115.941406 C 53.945312 115.941406 55.472656 117.460938 55.472656 119.332031 C 55.472656 121.207031 53.945312 122.726562 52.066406 122.726562 Z M 52.066406 108.40625 C 50.1875 108.40625 48.660156 106.886719 48.660156 105.011719 C 48.660156 103.140625 50.1875 101.621094 52.066406 101.621094 C 53.945312 101.621094 55.472656 103.140625 55.472656 105.011719 C 55.472656 106.886719 53.945312 108.40625 52.066406 108.40625 Z M 52.066406 94.085938 C 50.1875 94.085938 48.660156 92.566406 48.660156 90.691406 C 48.660156 88.820312 50.1875 87.300781 52.066406 87.300781 C 53.945312 87.300781 55.472656 88.820312 55.472656 90.691406 C 55.472656 92.566406 53.945312 94.085938 52.066406 94.085938 Z M 52.066406 79.765625 C 50.1875 79.765625 48.660156 78.246094 48.660156 76.371094 C 48.660156 74.5 50.1875 72.980469 52.066406 72.980469 C 53.945312 72.980469 55.472656 74.5 55.472656 76.371094 C 55.472656 78.246094 53.945312 79.765625 52.066406 79.765625 Z M 52.066406 65.445312 C 50.1875 65.445312 48.660156 63.925781 48.660156 62.050781 C 48.660156 60.179688 50.1875 58.660156 52.066406 58.660156 C 53.945312 58.660156 55.472656 60.179688 55.472656 62.050781 C 55.472656 63.925781 53.945312 65.445312 52.066406 65.445312 Z M 52.066406 51.125 C 50.1875 51.125 48.660156 49.605469 48.660156 47.734375 C 48.660156 45.859375 50.1875 44.339844 52.066406 44.339844 C 53.945312 44.339844 55.472656 45.859375 55.472656 47.734375 C 55.472656 49.605469 53.945312 51.125 52.066406 51.125 Z M 52.066406 36.804688 C 50.1875 36.804688 48.660156 35.285156 48.660156 33.414062 C 48.660156 31.539062 50.1875 30.019531 52.066406 30.019531 C 53.945312 30.019531 55.472656 31.539062 55.472656 33.414062 C 55.472656 35.285156 53.945312 36.804688 52.066406 36.804688 Z M 52.066406 22.484375 C 50.1875 22.484375 48.660156 20.964844 48.660156 19.09375 C 48.660156 17.21875 50.1875 15.699219 52.066406 15.699219 C 53.945312 15.699219 55.472656 17.21875 55.472656 19.09375 C 55.472656 20.964844 53.945312 22.484375 52.066406 22.484375 Z M 52.066406 8.164062 C 50.1875 8.164062 48.660156 6.644531 48.660156 4.773438 C 48.660156 2.898438 50.1875 1.378906 52.066406 1.378906 C 53.945312 1.378906 55.472656 2.898438 55.472656 4.773438 C 55.472656 6.644531 53.945312 8.164062 52.066406 8.164062 Z M 52.066406 8.164062 " fill-opacity="1" fill-rule="nonzero"/></g><g clip-path="url(#30680e1278)"><path fill="#000000" d="M 36.097656 137.046875 C 34.21875 137.046875 32.695312 135.527344 32.695312 133.652344 C 32.695312 131.777344 34.21875 130.261719 36.097656 130.261719 C 37.980469 130.261719 39.503906 131.777344 39.503906 133.652344 C 39.503906 135.527344 37.980469 137.046875 36.097656 137.046875 Z M 36.097656 122.726562 C 34.21875 122.726562 32.695312 121.207031 32.695312 119.332031 C 32.695312 117.460938 34.21875 115.941406 36.097656 115.941406 C 37.980469 115.941406 39.503906 117.460938 39.503906 119.332031 C 39.503906 121.207031 37.980469 122.726562 36.097656 122.726562 Z M 36.097656 108.40625 C 34.21875 108.40625 32.695312 106.886719 32.695312 105.011719 C 32.695312 103.140625 34.21875 101.621094 36.097656 101.621094 C 37.980469 101.621094 39.503906 103.140625 39.503906 105.011719 C 39.503906 106.886719 37.980469 108.40625 36.097656 108.40625 Z M 36.097656 94.085938 C 34.21875 94.085938 32.695312 92.566406 32.695312 90.691406 C 32.695312 88.820312 34.21875 87.300781 36.097656 87.300781 C 37.980469 87.300781 39.503906 88.820312 39.503906 90.691406 C 39.503906 92.566406 37.980469 94.085938 36.097656 94.085938 Z M 36.097656 79.765625 C 34.21875 79.765625 32.695312 78.246094 32.695312 76.371094 C 32.695312 74.5 34.21875 72.980469 36.097656 72.980469 C 37.980469 72.980469 39.503906 74.5 39.503906 76.371094 C 39.503906 78.246094 37.980469 79.765625 36.097656 79.765625 Z M 36.097656 65.445312 C 34.21875 65.445312 32.695312 63.925781 32.695312 62.050781 C 32.695312 60.179688 34.21875 58.660156 36.097656 58.660156 C 37.980469 58.660156 39.503906 60.179688 39.503906 62.050781 C 39.503906 63.925781 37.980469 65.445312 36.097656 65.445312 Z M 36.097656 51.125 C 34.21875 51.125 32.695312 49.605469 32.695312 47.734375 C 32.695312 45.859375 34.21875 44.339844 36.097656 44.339844 C 37.980469 44.339844 39.503906 45.859375 39.503906 47.734375 C 39.503906 49.605469 37.980469 51.125 36.097656 51.125 Z M 36.097656 36.804688 C 34.21875 36.804688 32.695312 35.285156 32.695312 33.414062 C 32.695312 31.539062 34.21875 30.019531 36.097656 30.019531 C 37.980469 30.019531 39.503906 31.539062 39.503906 33.414062 C 39.503906 35.285156 37.980469 36.804688 36.097656 36.804688 Z M 36.097656 22.484375 C 34.21875 22.484375 32.695312 20.964844 32.695312 19.09375 C 32.695312 17.21875 34.21875 15.699219 36.097656 15.699219 C 37.980469 15.699219 39.503906 17.21875 39.503906 19.09375 C 39.503906 20.964844 37.980469 22.484375 36.097656 22.484375 Z M 36.097656 8.164062 C 34.21875 8.164062 32.695312 6.644531 32.695312 4.773438 C 32.695312 2.898438 34.21875 1.378906 36.097656 1.378906 C 37.980469 1.378906 39.503906 2.898438 39.503906 4.773438 C 39.503906 6.644531 37.980469 8.164062 36.097656 8.164062 Z M 36.097656 8.164062 " fill-opacity="1" fill-rule="nonzero"/></g><g clip-path="url(#e5eee41f08)"><path fill="#000000" d="M 20.132812 137.046875 C 18.253906 137.046875 16.726562 135.527344 16.726562 133.652344 C 16.726562 131.777344 18.253906 130.261719 20.132812 130.261719 C 22.011719 130.261719 23.535156 131.777344 23.535156 133.652344 C 23.535156 135.527344 22.011719 137.046875 20.132812 137.046875 Z M 20.132812 122.726562 C 18.253906 122.726562 16.726562 121.207031 16.726562 119.332031 C 16.726562 117.460938 18.253906 115.941406 20.132812 115.941406 C 22.011719 115.941406 23.535156 117.460938 23.535156 119.332031 C 23.535156 121.207031 22.011719 122.726562 20.132812 122.726562 Z M 20.132812 108.40625 C 18.253906 108.40625 16.726562 106.886719 16.726562 105.011719 C 16.726562 103.140625 18.253906 101.621094 20.132812 101.621094 C 22.011719 101.621094 23.535156 103.140625 23.535156 105.011719 C 23.535156 106.886719 22.011719 108.40625 20.132812 108.40625 Z M 20.132812 94.085938 C 18.253906 94.085938 16.726562 92.566406 16.726562 90.691406 C 16.726562 88.820312 18.253906 87.300781 20.132812 87.300781 C 22.011719 87.300781 23.535156 88.820312 23.535156 90.691406 C 23.535156 92.566406 22.011719 94.085938 20.132812 94.085938 Z M 20.132812 79.765625 C 18.253906 79.765625 16.726562 78.246094 16.726562 76.371094 C 16.726562 74.5 18.253906 72.980469 20.132812 72.980469 C 22.011719 72.980469 23.535156 74.5 23.535156 76.371094 C 23.535156 78.246094 22.011719 79.765625 20.132812 79.765625 Z M 20.132812 65.445312 C 18.253906 65.445312 16.726562 63.925781 16.726562 62.050781 C 16.726562 60.179688 18.253906 58.660156 20.132812 58.660156 C 22.011719 58.660156 23.535156 60.179688 23.535156 62.050781 C 23.535156 63.925781 22.011719 65.445312 20.132812 65.445312 Z M 20.132812 51.125 C 18.253906 51.125 16.726562 49.605469 16.726562 47.734375 C 16.726562 45.859375 18.253906 44.339844 20.132812 44.339844 C 22.011719 44.339844 23.535156 45.859375 23.535156 47.734375 C 23.535156 49.605469 22.011719 51.125 20.132812 51.125 Z M 20.132812 36.804688 C 18.253906 36.804688 16.726562 35.285156 16.726562 33.414062 C 16.726562 31.539062 18.253906 30.019531 20.132812 30.019531 C 22.011719 30.019531 23.535156 31.539062 23.535156 33.414062 C 23.535156 35.285156 22.011719 36.804688 20.132812 36.804688 Z M 20.132812 22.484375 C 18.253906 22.484375 16.726562 20.964844 16.726562 19.09375 C 16.726562 17.21875 18.253906 15.699219 20.132812 15.699219 C 22.011719 15.699219 23.535156 17.21875 23.535156 19.09375 C 23.535156 20.964844 22.011719 22.484375 20.132812 22.484375 Z M 20.132812 8.164062 C 18.253906 8.164062 16.726562 6.644531 16.726562 4.773438 C 16.726562 2.898438 18.253906 1.378906 20.132812 1.378906 C 22.011719 1.378906 23.535156 2.898438 23.535156 4.773438 C 23.535156 6.644531 22.011719 8.164062 20.132812 8.164062 Z M 20.132812 8.164062 " fill-opacity="1" fill-rule="nonzero"/></g><g clip-path="url(#21f1bfc658)"><path fill="#000000" d="M 4.164062 137.046875 C 2.285156 137.046875 0.761719 135.527344 0.761719 133.652344 C 0.761719 131.777344 2.285156 130.261719 4.164062 130.261719 C 6.046875 130.261719 7.570312 131.777344 7.570312 133.652344 C 7.570312 135.527344 6.046875 137.046875 4.164062 137.046875 Z M 4.164062 122.726562 C 2.285156 122.726562 0.761719 121.207031 0.761719 119.332031 C 0.761719 117.460938 2.285156 115.941406 4.164062 115.941406 C 6.046875 115.941406 7.570312 117.460938 7.570312 119.332031 C 7.570312 121.207031 6.046875 122.726562 4.164062 122.726562 Z M 4.164062 108.40625 C 2.285156 108.40625 0.761719 106.886719 0.761719 105.011719 C 0.761719 103.140625 2.285156 101.621094 4.164062 101.621094 C 6.046875 101.621094 7.570312 103.140625 7.570312 105.011719 C 7.570312 106.886719 6.046875 108.40625 4.164062 108.40625 Z M 4.164062 94.085938 C 2.285156 94.085938 0.761719 92.566406 0.761719 90.691406 C 0.761719 88.820312 2.285156 87.300781 4.164062 87.300781 C 6.046875 87.300781 7.570312 88.820312 7.570312 90.691406 C 7.570312 92.566406 6.046875 94.085938 4.164062 94.085938 Z M 4.164062 79.765625 C 2.285156 79.765625 0.761719 78.246094 0.761719 76.371094 C 0.761719 74.5 2.285156 72.980469 4.164062 72.980469 C 6.046875 72.980469 7.570312 74.5 7.570312 76.371094 C 7.570312 78.246094 6.046875 79.765625 4.164062 79.765625 Z M 4.164062 65.445312 C 2.285156 65.445312 0.761719 63.925781 0.761719 62.050781 C 0.761719 60.179688 2.285156 58.660156 4.164062 58.660156 C 6.046875 58.660156 7.570312 60.179688 7.570312 62.050781 C 7.570312 63.925781 6.046875 65.445312 4.164062 65.445312 Z M 4.164062 51.125 C 2.285156 51.125 0.761719 49.605469 0.761719 47.734375 C 0.761719 45.859375 2.285156 44.339844 4.164062 44.339844 C 6.046875 44.339844 7.570312 45.859375 7.570312 47.734375 C 7.570312 49.605469 6.046875 51.125 4.164062 51.125 Z M 4.164062 36.804688 C 2.285156 36.804688 0.761719 35.285156 0.761719 33.414062 C 0.761719 31.539062 2.285156 30.019531 4.164062 30.019531 C 6.046875 30.019531 7.570312 31.539062 7.570312 33.414062 C 7.570312 35.285156 6.046875 36.804688 4.164062 36.804688 Z M 4.164062 22.484375 C 2.285156 22.484375 0.761719 20.964844 0.761719 19.09375 C 0.761719 17.21875 2.285156 15.699219 4.164062 15.699219 C 6.046875 15.699219 7.570312 17.21875 7.570312 19.09375 C 7.570312 20.964844 6.046875 22.484375 4.164062 22.484375 Z M 4.164062 8.164062 C 2.285156 8.164062 0.761719 6.644531 0.761719 4.773438 C 0.761719 2.898438 2.285156 1.378906 4.164062 1.378906 C 6.046875 1.378906 7.570312 2.898438 7.570312 4.773438 C 7.570312 6.644531 6.046875 8.164062 4.164062 8.164062 Z M 4.164062 8.164062 " fill-opacity="1" fill-rule="nonzero"/></g></g></g></g><g clip-path="url(#b8e835e88a)"><path fill="#0bb851" d="M 0 225.414062 L 0 88.011719 L 15 88.011719 L 15 225.414062 Z M 0 225.414062 " fill-opacity="1" fill-rule="nonzero"/></g></svg>