<svg xmlns="http://www.w3.org/2000/svg" xmlns:xlink="http://www.w3.org/1999/xlink" width="400" zoomAndPan="magnify" viewBox="0 0 300 299.999988" height="400" preserveAspectRatio="xMidYMid meet" version="1.0"><defs><filter x="0%" y="0%" width="100%" height="100%" id="7035fe29e8"><feColorMatrix values="0 0 0 0 1 0 0 0 0 1 0 0 0 0 1 0 0 0 1 0" color-interpolation-filters="sRGB"/></filter><mask id="5956423a6e"><g filter="url(#7035fe29e8)"><rect x="-30" width="360" fill="#000000" y="-29.999999" height="359.999986" fill-opacity="0.7"/></g></mask><clipPath id="333105021e"><path d="M 272 1.269531 L 278.9375 1.269531 L 278.9375 137 L 272 137 Z M 272 1.269531 " clip-rule="nonzero"/></clipPath><clipPath id="57db10a307"><path d="M 256 1.269531 L 263 1.269531 L 263 137 L 256 137 Z M 256 1.269531 " clip-rule="nonzero"/></clipPath><clipPath id="33a44852fe"><path d="M 240 1.269531 L 248 1.269531 L 248 137 L 240 137 Z M 240 1.269531 " clip-rule="nonzero"/></clipPath><clipPath id="cfd43eb4f2"><path d="M 224 1.269531 L 232 1.269531 L 232 137 L 224 137 Z M 224 1.269531 " clip-rule="nonzero"/></clipPath><clipPath id="6041f71798"><path d="M 208 1.269531 L 216 1.269531 L 216 137 L 208 137 Z M 208 1.269531 " clip-rule="nonzero"/></clipPath><clipPath id="495f45b1c3"><path d="M 192 1.269531 L 200 1.269531 L 200 137 L 192 137 Z M 192 1.269531 " clip-rule="nonzero"/></clipPath><clipPath id="c574dc4975"><path d="M 176 1.269531 L 184 1.269531 L 184 137 L 176 137 Z M 176 1.269531 " clip-rule="nonzero"/></clipPath><clipPath id="ca752e0c6d"><path d="M 160 1.269531 L 168 1.269531 L 168 137 L 160 137 Z M 160 1.269531 " clip-rule="nonzero"/></clipPath><clipPath id="8d2bf27a4e"><path d="M 144 1.269531 L 152 1.269531 L 152 137 L 144 137 Z M 144 1.269531 " clip-rule="nonzero"/></clipPath><clipPath id="bcef5aa9d0"><path d="M 128 1.269531 L 136 1.269531 L 136 137 L 128 137 Z M 128 1.269531 " clip-rule="nonzero"/></clipPath><clipPath id="4ab85b2e6f"><path d="M 112 1.269531 L 120 1.269531 L 120 137 L 112 137 Z M 112 1.269531 " clip-rule="nonzero"/></clipPath><clipPath id="c6d7134b25"><path d="M 96 1.269531 L 104 1.269531 L 104 137 L 96 137 Z M 96 1.269531 " clip-rule="nonzero"/></clipPath><clipPath id="a9340ad55c"><path d="M 80 1.269531 L 88 1.269531 L 88 137 L 80 137 Z M 80 1.269531 " clip-rule="nonzero"/></clipPath><clipPath id="76498e64eb"><path d="M 64 1.269531 L 72 1.269531 L 72 137 L 64 137 Z M 64 1.269531 " clip-rule="nonzero"/></clipPath><clipPath id="c5a5f7c73f"><path d="M 48 1.269531 L 56 1.269531 L 56 137 L 48 137 Z M 48 1.269531 " clip-rule="nonzero"/></clipPath><clipPath id="18aeff0d1a"><path d="M 32 1.269531 L 40 1.269531 L 40 137 L 32 137 Z M 32 1.269531 " clip-rule="nonzero"/></clipPath><clipPath id="33ce6ad7ce"><path d="M 16 1.269531 L 24 1.269531 L 24 137 L 16 137 Z M 16 1.269531 " clip-rule="nonzero"/></clipPath><clipPath id="da1e1c2cf9"><path d="M 0.6875 1.269531 L 8 1.269531 L 8 137 L 0.6875 137 Z M 0.6875 1.269531 " clip-rule="nonzero"/></clipPath><clipPath id="b5393a91fa"><rect x="0" width="279" y="0" height="138"/></clipPath></defs><g mask="url(#5956423a6e)"><g transform="matrix(1, 0, 0, 1, 10, 81)"><g clip-path="url(#b5393a91fa)"><g clip-path="url(#333105021e)"><path fill="#000000" d="M 275.542969 136.992188 C 273.664062 136.992188 272.140625 135.472656 272.140625 133.597656 C 272.140625 131.726562 273.664062 130.207031 275.542969 130.207031 C 277.421875 130.207031 278.949219 131.726562 278.949219 133.597656 C 278.949219 135.472656 277.421875 136.992188 275.542969 136.992188 Z M 275.542969 122.671875 C 273.664062 122.671875 272.140625 121.152344 272.140625 119.277344 C 272.140625 117.40625 273.664062 115.886719 275.542969 115.886719 C 277.421875 115.886719 278.949219 117.40625 278.949219 119.277344 C 278.949219 121.152344 277.421875 122.671875 275.542969 122.671875 Z M 275.542969 108.351562 C 273.664062 108.351562 272.140625 106.832031 272.140625 104.957031 C 272.140625 103.085938 273.664062 101.566406 275.542969 101.566406 C 277.421875 101.566406 278.949219 103.085938 278.949219 104.957031 C 278.949219 106.832031 277.421875 108.351562 275.542969 108.351562 Z M 275.542969 94.03125 C 273.664062 94.03125 272.140625 92.511719 272.140625 90.636719 C 272.140625 88.765625 273.664062 87.246094 275.542969 87.246094 C 277.421875 87.246094 278.949219 88.765625 278.949219 90.636719 C 278.949219 92.511719 277.421875 94.03125 275.542969 94.03125 Z M 275.542969 79.710938 C 273.664062 79.710938 272.140625 78.191406 272.140625 76.316406 C 272.140625 74.445312 273.664062 72.925781 275.542969 72.925781 C 277.421875 72.925781 278.949219 74.445312 278.949219 76.316406 C 278.949219 78.191406 277.421875 79.710938 275.542969 79.710938 Z M 275.542969 65.390625 C 273.664062 65.390625 272.140625 63.871094 272.140625 62 C 272.140625 60.125 273.664062 58.605469 275.542969 58.605469 C 277.421875 58.605469 278.949219 60.125 278.949219 62 C 278.949219 63.871094 277.421875 65.390625 275.542969 65.390625 Z M 275.542969 51.070312 C 273.664062 51.070312 272.140625 49.550781 272.140625 47.679688 C 272.140625 45.804688 273.664062 44.285156 275.542969 44.285156 C 277.421875 44.285156 278.949219 45.804688 278.949219 47.679688 C 278.949219 49.550781 277.421875 51.070312 275.542969 51.070312 Z M 275.542969 36.75 C 273.664062 36.75 272.140625 35.230469 272.140625 33.359375 C 272.140625 31.484375 273.664062 29.964844 275.542969 29.964844 C 277.421875 29.964844 278.949219 31.484375 278.949219 33.359375 C 278.949219 35.230469 277.421875 36.75 275.542969 36.75 Z M 275.542969 22.429688 C 273.664062 22.429688 272.140625 20.910156 272.140625 19.039062 C 272.140625 17.164062 273.664062 15.644531 275.542969 15.644531 C 277.421875 15.644531 278.949219 17.164062 278.949219 19.039062 C 278.949219 20.910156 277.421875 22.429688 275.542969 22.429688 Z M 275.542969 8.109375 C 273.664062 8.109375 272.140625 6.589844 272.140625 4.71875 C 272.140625 2.84375 273.664062 1.324219 275.542969 1.324219 C 277.421875 1.324219 278.949219 2.84375 278.949219 4.71875 C 278.949219 6.589844 277.421875 8.109375 275.542969 8.109375 Z M 275.542969 8.109375 " fill-opacity="1" fill-rule="nonzero"/></g><g clip-path="url(#57db10a307)"><path fill="#000000" d="M 259.578125 136.992188 C 257.695312 136.992188 256.171875 135.472656 256.171875 133.597656 C 256.171875 131.726562 257.695312 130.207031 259.578125 130.207031 C 261.457031 130.207031 262.980469 131.726562 262.980469 133.597656 C 262.980469 135.472656 261.457031 136.992188 259.578125 136.992188 Z M 259.578125 122.671875 C 257.695312 122.671875 256.171875 121.152344 256.171875 119.277344 C 256.171875 117.40625 257.695312 115.886719 259.578125 115.886719 C 261.457031 115.886719 262.980469 117.40625 262.980469 119.277344 C 262.980469 121.152344 261.457031 122.671875 259.578125 122.671875 Z M 259.578125 108.351562 C 257.695312 108.351562 256.171875 106.832031 256.171875 104.957031 C 256.171875 103.085938 257.695312 101.566406 259.578125 101.566406 C 261.457031 101.566406 262.980469 103.085938 262.980469 104.957031 C 262.980469 106.832031 261.457031 108.351562 259.578125 108.351562 Z M 259.578125 94.03125 C 257.695312 94.03125 256.171875 92.511719 256.171875 90.636719 C 256.171875 88.765625 257.695312 87.246094 259.578125 87.246094 C 261.457031 87.246094 262.980469 88.765625 262.980469 90.636719 C 262.980469 92.511719 261.457031 94.03125 259.578125 94.03125 Z M 259.578125 79.710938 C 257.695312 79.710938 256.171875 78.191406 256.171875 76.316406 C 256.171875 74.445312 257.695312 72.925781 259.578125 72.925781 C 261.457031 72.925781 262.980469 74.445312 262.980469 76.316406 C 262.980469 78.191406 261.457031 79.710938 259.578125 79.710938 Z M 259.578125 65.390625 C 257.695312 65.390625 256.171875 63.871094 256.171875 62 C 256.171875 60.125 257.695312 58.605469 259.578125 58.605469 C 261.457031 58.605469 262.980469 60.125 262.980469 62 C 262.980469 63.871094 261.457031 65.390625 259.578125 65.390625 Z M 259.578125 51.070312 C 257.695312 51.070312 256.171875 49.550781 256.171875 47.679688 C 256.171875 45.804688 257.695312 44.285156 259.578125 44.285156 C 261.457031 44.285156 262.980469 45.804688 262.980469 47.679688 C 262.980469 49.550781 261.457031 51.070312 259.578125 51.070312 Z M 259.578125 36.75 C 257.695312 36.75 256.171875 35.230469 256.171875 33.359375 C 256.171875 31.484375 257.695312 29.964844 259.578125 29.964844 C 261.457031 29.964844 262.980469 31.484375 262.980469 33.359375 C 262.980469 35.230469 261.457031 36.75 259.578125 36.75 Z M 259.578125 22.429688 C 257.695312 22.429688 256.171875 20.910156 256.171875 19.039062 C 256.171875 17.164062 257.695312 15.644531 259.578125 15.644531 C 261.457031 15.644531 262.980469 17.164062 262.980469 19.039062 C 262.980469 20.910156 261.457031 22.429688 259.578125 22.429688 Z M 259.578125 8.109375 C 257.695312 8.109375 256.171875 6.589844 256.171875 4.71875 C 256.171875 2.84375 257.695312 1.324219 259.578125 1.324219 C 261.457031 1.324219 262.980469 2.84375 262.980469 4.71875 C 262.980469 6.589844 261.457031 8.109375 259.578125 8.109375 Z M 259.578125 8.109375 " fill-opacity="1" fill-rule="nonzero"/></g><g clip-path="url(#33a44852fe)"><path fill="#000000" d="M 243.609375 136.992188 C 241.730469 136.992188 240.203125 135.472656 240.203125 133.597656 C 240.203125 131.726562 241.730469 130.207031 243.609375 130.207031 C 245.488281 130.207031 247.011719 131.726562 247.011719 133.597656 C 247.011719 135.472656 245.488281 136.992188 243.609375 136.992188 Z M 243.609375 122.671875 C 241.730469 122.671875 240.203125 121.152344 240.203125 119.277344 C 240.203125 117.40625 241.730469 115.886719 243.609375 115.886719 C 245.488281 115.886719 247.011719 117.40625 247.011719 119.277344 C 247.011719 121.152344 245.488281 122.671875 243.609375 122.671875 Z M 243.609375 108.351562 C 241.730469 108.351562 240.203125 106.832031 240.203125 104.957031 C 240.203125 103.085938 241.730469 101.566406 243.609375 101.566406 C 245.488281 101.566406 247.011719 103.085938 247.011719 104.957031 C 247.011719 106.832031 245.488281 108.351562 243.609375 108.351562 Z M 243.609375 94.03125 C 241.730469 94.03125 240.203125 92.511719 240.203125 90.636719 C 240.203125 88.765625 241.730469 87.246094 243.609375 87.246094 C 245.488281 87.246094 247.011719 88.765625 247.011719 90.636719 C 247.011719 92.511719 245.488281 94.03125 243.609375 94.03125 Z M 243.609375 79.710938 C 241.730469 79.710938 240.203125 78.191406 240.203125 76.316406 C 240.203125 74.445312 241.730469 72.925781 243.609375 72.925781 C 245.488281 72.925781 247.011719 74.445312 247.011719 76.316406 C 247.011719 78.191406 245.488281 79.710938 243.609375 79.710938 Z M 243.609375 65.390625 C 241.730469 65.390625 240.203125 63.871094 240.203125 62 C 240.203125 60.125 241.730469 58.605469 243.609375 58.605469 C 245.488281 58.605469 247.011719 60.125 247.011719 62 C 247.011719 63.871094 245.488281 65.390625 243.609375 65.390625 Z M 243.609375 51.070312 C 241.730469 51.070312 240.203125 49.550781 240.203125 47.679688 C 240.203125 45.804688 241.730469 44.285156 243.609375 44.285156 C 245.488281 44.285156 247.011719 45.804688 247.011719 47.679688 C 247.011719 49.550781 245.488281 51.070312 243.609375 51.070312 Z M 243.609375 36.75 C 241.730469 36.75 240.203125 35.230469 240.203125 33.359375 C 240.203125 31.484375 241.730469 29.964844 243.609375 29.964844 C 245.488281 29.964844 247.011719 31.484375 247.011719 33.359375 C 247.011719 35.230469 245.488281 36.75 243.609375 36.75 Z M 243.609375 22.429688 C 241.730469 22.429688 240.203125 20.910156 240.203125 19.039062 C 240.203125 17.164062 241.730469 15.644531 243.609375 15.644531 C 245.488281 15.644531 247.011719 17.164062 247.011719 19.039062 C 247.011719 20.910156 245.488281 22.429688 243.609375 22.429688 Z M 243.609375 8.109375 C 241.730469 8.109375 240.203125 6.589844 240.203125 4.71875 C 240.203125 2.84375 241.730469 1.324219 243.609375 1.324219 C 245.488281 1.324219 247.011719 2.84375 247.011719 4.71875 C 247.011719 6.589844 245.488281 8.109375 243.609375 8.109375 Z M 243.609375 8.109375 " fill-opacity="1" fill-rule="nonzero"/></g><g clip-path="url(#cfd43eb4f2)"><path fill="#000000" d="M 227.640625 136.992188 C 225.761719 136.992188 224.238281 135.472656 224.238281 133.597656 C 224.238281 131.726562 225.761719 130.207031 227.640625 130.207031 C 229.523438 130.207031 231.046875 131.726562 231.046875 133.597656 C 231.046875 135.472656 229.523438 136.992188 227.640625 136.992188 Z M 227.640625 122.671875 C 225.761719 122.671875 224.238281 121.152344 224.238281 119.277344 C 224.238281 117.40625 225.761719 115.886719 227.640625 115.886719 C 229.523438 115.886719 231.046875 117.40625 231.046875 119.277344 C 231.046875 121.152344 229.523438 122.671875 227.640625 122.671875 Z M 227.640625 108.351562 C 225.761719 108.351562 224.238281 106.832031 224.238281 104.957031 C 224.238281 103.085938 225.761719 101.566406 227.640625 101.566406 C 229.523438 101.566406 231.046875 103.085938 231.046875 104.957031 C 231.046875 106.832031 229.523438 108.351562 227.640625 108.351562 Z M 227.640625 94.03125 C 225.761719 94.03125 224.238281 92.511719 224.238281 90.636719 C 224.238281 88.765625 225.761719 87.246094 227.640625 87.246094 C 229.523438 87.246094 231.046875 88.765625 231.046875 90.636719 C 231.046875 92.511719 229.523438 94.03125 227.640625 94.03125 Z M 227.640625 79.710938 C 225.761719 79.710938 224.238281 78.191406 224.238281 76.316406 C 224.238281 74.445312 225.761719 72.925781 227.640625 72.925781 C 229.523438 72.925781 231.046875 74.445312 231.046875 76.316406 C 231.046875 78.191406 229.523438 79.710938 227.640625 79.710938 Z M 227.640625 65.390625 C 225.761719 65.390625 224.238281 63.871094 224.238281 62 C 224.238281 60.125 225.761719 58.605469 227.640625 58.605469 C 229.523438 58.605469 231.046875 60.125 231.046875 62 C 231.046875 63.871094 229.523438 65.390625 227.640625 65.390625 Z M 227.640625 51.070312 C 225.761719 51.070312 224.238281 49.550781 224.238281 47.679688 C 224.238281 45.804688 225.761719 44.285156 227.640625 44.285156 C 229.523438 44.285156 231.046875 45.804688 231.046875 47.679688 C 231.046875 49.550781 229.523438 51.070312 227.640625 51.070312 Z M 227.640625 36.75 C 225.761719 36.75 224.238281 35.230469 224.238281 33.359375 C 224.238281 31.484375 225.761719 29.964844 227.640625 29.964844 C 229.523438 29.964844 231.046875 31.484375 231.046875 33.359375 C 231.046875 35.230469 229.523438 36.75 227.640625 36.75 Z M 227.640625 22.429688 C 225.761719 22.429688 224.238281 20.910156 224.238281 19.039062 C 224.238281 17.164062 225.761719 15.644531 227.640625 15.644531 C 229.523438 15.644531 231.046875 17.164062 231.046875 19.039062 C 231.046875 20.910156 229.523438 22.429688 227.640625 22.429688 Z M 227.640625 8.109375 C 225.761719 8.109375 224.238281 6.589844 224.238281 4.71875 C 224.238281 2.84375 225.761719 1.324219 227.640625 1.324219 C 229.523438 1.324219 231.046875 2.84375 231.046875 4.71875 C 231.046875 6.589844 229.523438 8.109375 227.640625 8.109375 Z M 227.640625 8.109375 " fill-opacity="1" fill-rule="nonzero"/></g><g clip-path="url(#6041f71798)"><path fill="#000000" d="M 211.675781 136.992188 C 209.796875 136.992188 208.269531 135.472656 208.269531 133.597656 C 208.269531 131.726562 209.796875 130.207031 211.675781 130.207031 C 213.554688 130.207031 215.078125 131.726562 215.078125 133.597656 C 215.078125 135.472656 213.554688 136.992188 211.675781 136.992188 Z M 211.675781 122.671875 C 209.796875 122.671875 208.269531 121.152344 208.269531 119.277344 C 208.269531 117.40625 209.796875 115.886719 211.675781 115.886719 C 213.554688 115.886719 215.078125 117.40625 215.078125 119.277344 C 215.078125 121.152344 213.554688 122.671875 211.675781 122.671875 Z M 211.675781 108.351562 C 209.796875 108.351562 208.269531 106.832031 208.269531 104.957031 C 208.269531 103.085938 209.796875 101.566406 211.675781 101.566406 C 213.554688 101.566406 215.078125 103.085938 215.078125 104.957031 C 215.078125 106.832031 213.554688 108.351562 211.675781 108.351562 Z M 211.675781 94.03125 C 209.796875 94.03125 208.269531 92.511719 208.269531 90.636719 C 208.269531 88.765625 209.796875 87.246094 211.675781 87.246094 C 213.554688 87.246094 215.078125 88.765625 215.078125 90.636719 C 215.078125 92.511719 213.554688 94.03125 211.675781 94.03125 Z M 211.675781 79.710938 C 209.796875 79.710938 208.269531 78.191406 208.269531 76.316406 C 208.269531 74.445312 209.796875 72.925781 211.675781 72.925781 C 213.554688 72.925781 215.078125 74.445312 215.078125 76.316406 C 215.078125 78.191406 213.554688 79.710938 211.675781 79.710938 Z M 211.675781 65.390625 C 209.796875 65.390625 208.269531 63.871094 208.269531 62 C 208.269531 60.125 209.796875 58.605469 211.675781 58.605469 C 213.554688 58.605469 215.078125 60.125 215.078125 62 C 215.078125 63.871094 213.554688 65.390625 211.675781 65.390625 Z M 211.675781 51.070312 C 209.796875 51.070312 208.269531 49.550781 208.269531 47.679688 C 208.269531 45.804688 209.796875 44.285156 211.675781 44.285156 C 213.554688 44.285156 215.078125 45.804688 215.078125 47.679688 C 215.078125 49.550781 213.554688 51.070312 211.675781 51.070312 Z M 211.675781 36.75 C 209.796875 36.75 208.269531 35.230469 208.269531 33.359375 C 208.269531 31.484375 209.796875 29.964844 211.675781 29.964844 C 213.554688 29.964844 215.078125 31.484375 215.078125 33.359375 C 215.078125 35.230469 213.554688 36.75 211.675781 36.75 Z M 211.675781 22.429688 C 209.796875 22.429688 208.269531 20.910156 208.269531 19.039062 C 208.269531 17.164062 209.796875 15.644531 211.675781 15.644531 C 213.554688 15.644531 215.078125 17.164062 215.078125 19.039062 C 215.078125 20.910156 213.554688 22.429688 211.675781 22.429688 Z M 211.675781 8.109375 C 209.796875 8.109375 208.269531 6.589844 208.269531 4.71875 C 208.269531 2.84375 209.796875 1.324219 211.675781 1.324219 C 213.554688 1.324219 215.078125 2.84375 215.078125 4.71875 C 215.078125 6.589844 213.554688 8.109375 211.675781 8.109375 Z M 211.675781 8.109375 " fill-opacity="1" fill-rule="nonzero"/></g><g clip-path="url(#495f45b1c3)"><path fill="#000000" d="M 195.707031 136.992188 C 193.828125 136.992188 192.304688 135.472656 192.304688 133.597656 C 192.304688 131.726562 193.828125 130.207031 195.707031 130.207031 C 197.589844 130.207031 199.113281 131.726562 199.113281 133.597656 C 199.113281 135.472656 197.589844 136.992188 195.707031 136.992188 Z M 195.707031 122.671875 C 193.828125 122.671875 192.304688 121.152344 192.304688 119.277344 C 192.304688 117.40625 193.828125 115.886719 195.707031 115.886719 C 197.589844 115.886719 199.113281 117.40625 199.113281 119.277344 C 199.113281 121.152344 197.589844 122.671875 195.707031 122.671875 Z M 195.707031 108.351562 C 193.828125 108.351562 192.304688 106.832031 192.304688 104.957031 C 192.304688 103.085938 193.828125 101.566406 195.707031 101.566406 C 197.589844 101.566406 199.113281 103.085938 199.113281 104.957031 C 199.113281 106.832031 197.589844 108.351562 195.707031 108.351562 Z M 195.707031 94.03125 C 193.828125 94.03125 192.304688 92.511719 192.304688 90.636719 C 192.304688 88.765625 193.828125 87.246094 195.707031 87.246094 C 197.589844 87.246094 199.113281 88.765625 199.113281 90.636719 C 199.113281 92.511719 197.589844 94.03125 195.707031 94.03125 Z M 195.707031 79.710938 C 193.828125 79.710938 192.304688 78.191406 192.304688 76.316406 C 192.304688 74.445312 193.828125 72.925781 195.707031 72.925781 C 197.589844 72.925781 199.113281 74.445312 199.113281 76.316406 C 199.113281 78.191406 197.589844 79.710938 195.707031 79.710938 Z M 195.707031 65.390625 C 193.828125 65.390625 192.304688 63.871094 192.304688 62 C 192.304688 60.125 193.828125 58.605469 195.707031 58.605469 C 197.589844 58.605469 199.113281 60.125 199.113281 62 C 199.113281 63.871094 197.589844 65.390625 195.707031 65.390625 Z M 195.707031 51.070312 C 193.828125 51.070312 192.304688 49.550781 192.304688 47.679688 C 192.304688 45.804688 193.828125 44.285156 195.707031 44.285156 C 197.589844 44.285156 199.113281 45.804688 199.113281 47.679688 C 199.113281 49.550781 197.589844 51.070312 195.707031 51.070312 Z M 195.707031 36.75 C 193.828125 36.75 192.304688 35.230469 192.304688 33.359375 C 192.304688 31.484375 193.828125 29.964844 195.707031 29.964844 C 197.589844 29.964844 199.113281 31.484375 199.113281 33.359375 C 199.113281 35.230469 197.589844 36.75 195.707031 36.75 Z M 195.707031 22.429688 C 193.828125 22.429688 192.304688 20.910156 192.304688 19.039062 C 192.304688 17.164062 193.828125 15.644531 195.707031 15.644531 C 197.589844 15.644531 199.113281 17.164062 199.113281 19.039062 C 199.113281 20.910156 197.589844 22.429688 195.707031 22.429688 Z M 195.707031 8.109375 C 193.828125 8.109375 192.304688 6.589844 192.304688 4.71875 C 192.304688 2.84375 193.828125 1.324219 195.707031 1.324219 C 197.589844 1.324219 199.113281 2.84375 199.113281 4.71875 C 199.113281 6.589844 197.589844 8.109375 195.707031 8.109375 Z M 195.707031 8.109375 " fill-opacity="1" fill-rule="nonzero"/></g><g clip-path="url(#c574dc4975)"><path fill="#000000" d="M 179.742188 136.992188 C 177.859375 136.992188 176.335938 135.472656 176.335938 133.597656 C 176.335938 131.726562 177.859375 130.207031 179.742188 130.207031 C 181.621094 130.207031 183.144531 131.726562 183.144531 133.597656 C 183.144531 135.472656 181.621094 136.992188 179.742188 136.992188 Z M 179.742188 122.671875 C 177.859375 122.671875 176.335938 121.152344 176.335938 119.277344 C 176.335938 117.40625 177.859375 115.886719 179.742188 115.886719 C 181.621094 115.886719 183.144531 117.40625 183.144531 119.277344 C 183.144531 121.152344 181.621094 122.671875 179.742188 122.671875 Z M 179.742188 108.351562 C 177.859375 108.351562 176.335938 106.832031 176.335938 104.957031 C 176.335938 103.085938 177.859375 101.566406 179.742188 101.566406 C 181.621094 101.566406 183.144531 103.085938 183.144531 104.957031 C 183.144531 106.832031 181.621094 108.351562 179.742188 108.351562 Z M 179.742188 94.03125 C 177.859375 94.03125 176.335938 92.511719 176.335938 90.636719 C 176.335938 88.765625 177.859375 87.246094 179.742188 87.246094 C 181.621094 87.246094 183.144531 88.765625 183.144531 90.636719 C 183.144531 92.511719 181.621094 94.03125 179.742188 94.03125 Z M 179.742188 79.710938 C 177.859375 79.710938 176.335938 78.191406 176.335938 76.316406 C 176.335938 74.445312 177.859375 72.925781 179.742188 72.925781 C 181.621094 72.925781 183.144531 74.445312 183.144531 76.316406 C 183.144531 78.191406 181.621094 79.710938 179.742188 79.710938 Z M 179.742188 65.390625 C 177.859375 65.390625 176.335938 63.871094 176.335938 62 C 176.335938 60.125 177.859375 58.605469 179.742188 58.605469 C 181.621094 58.605469 183.144531 60.125 183.144531 62 C 183.144531 63.871094 181.621094 65.390625 179.742188 65.390625 Z M 179.742188 51.070312 C 177.859375 51.070312 176.335938 49.550781 176.335938 47.679688 C 176.335938 45.804688 177.859375 44.285156 179.742188 44.285156 C 181.621094 44.285156 183.144531 45.804688 183.144531 47.679688 C 183.144531 49.550781 181.621094 51.070312 179.742188 51.070312 Z M 179.742188 36.75 C 177.859375 36.75 176.335938 35.230469 176.335938 33.359375 C 176.335938 31.484375 177.859375 29.964844 179.742188 29.964844 C 181.621094 29.964844 183.144531 31.484375 183.144531 33.359375 C 183.144531 35.230469 181.621094 36.75 179.742188 36.75 Z M 179.742188 22.429688 C 177.859375 22.429688 176.335938 20.910156 176.335938 19.039062 C 176.335938 17.164062 177.859375 15.644531 179.742188 15.644531 C 181.621094 15.644531 183.144531 17.164062 183.144531 19.039062 C 183.144531 20.910156 181.621094 22.429688 179.742188 22.429688 Z M 179.742188 8.109375 C 177.859375 8.109375 176.335938 6.589844 176.335938 4.71875 C 176.335938 2.84375 177.859375 1.324219 179.742188 1.324219 C 181.621094 1.324219 183.144531 2.84375 183.144531 4.71875 C 183.144531 6.589844 181.621094 8.109375 179.742188 8.109375 Z M 179.742188 8.109375 " fill-opacity="1" fill-rule="nonzero"/></g><g clip-path="url(#ca752e0c6d)"><path fill="#000000" d="M 163.773438 136.992188 C 161.894531 136.992188 160.371094 135.472656 160.371094 133.597656 C 160.371094 131.726562 161.894531 130.207031 163.773438 130.207031 C 165.65625 130.207031 167.179688 131.726562 167.179688 133.597656 C 167.179688 135.472656 165.65625 136.992188 163.773438 136.992188 Z M 163.773438 122.671875 C 161.894531 122.671875 160.371094 121.152344 160.371094 119.277344 C 160.371094 117.40625 161.894531 115.886719 163.773438 115.886719 C 165.65625 115.886719 167.179688 117.40625 167.179688 119.277344 C 167.179688 121.152344 165.65625 122.671875 163.773438 122.671875 Z M 163.773438 108.351562 C 161.894531 108.351562 160.371094 106.832031 160.371094 104.957031 C 160.371094 103.085938 161.894531 101.566406 163.773438 101.566406 C 165.65625 101.566406 167.179688 103.085938 167.179688 104.957031 C 167.179688 106.832031 165.65625 108.351562 163.773438 108.351562 Z M 163.773438 94.03125 C 161.894531 94.03125 160.371094 92.511719 160.371094 90.636719 C 160.371094 88.765625 161.894531 87.246094 163.773438 87.246094 C 165.65625 87.246094 167.179688 88.765625 167.179688 90.636719 C 167.179688 92.511719 165.65625 94.03125 163.773438 94.03125 Z M 163.773438 79.710938 C 161.894531 79.710938 160.371094 78.191406 160.371094 76.316406 C 160.371094 74.445312 161.894531 72.925781 163.773438 72.925781 C 165.65625 72.925781 167.179688 74.445312 167.179688 76.316406 C 167.179688 78.191406 165.65625 79.710938 163.773438 79.710938 Z M 163.773438 65.390625 C 161.894531 65.390625 160.371094 63.871094 160.371094 62 C 160.371094 60.125 161.894531 58.605469 163.773438 58.605469 C 165.65625 58.605469 167.179688 60.125 167.179688 62 C 167.179688 63.871094 165.65625 65.390625 163.773438 65.390625 Z M 163.773438 51.070312 C 161.894531 51.070312 160.371094 49.550781 160.371094 47.679688 C 160.371094 45.804688 161.894531 44.285156 163.773438 44.285156 C 165.65625 44.285156 167.179688 45.804688 167.179688 47.679688 C 167.179688 49.550781 165.65625 51.070312 163.773438 51.070312 Z M 163.773438 36.75 C 161.894531 36.75 160.371094 35.230469 160.371094 33.359375 C 160.371094 31.484375 161.894531 29.964844 163.773438 29.964844 C 165.65625 29.964844 167.179688 31.484375 167.179688 33.359375 C 167.179688 35.230469 165.65625 36.75 163.773438 36.75 Z M 163.773438 22.429688 C 161.894531 22.429688 160.371094 20.910156 160.371094 19.039062 C 160.371094 17.164062 161.894531 15.644531 163.773438 15.644531 C 165.65625 15.644531 167.179688 17.164062 167.179688 19.039062 C 167.179688 20.910156 165.65625 22.429688 163.773438 22.429688 Z M 163.773438 8.109375 C 161.894531 8.109375 160.371094 6.589844 160.371094 4.71875 C 160.371094 2.84375 161.894531 1.324219 163.773438 1.324219 C 165.65625 1.324219 167.179688 2.84375 167.179688 4.71875 C 167.179688 6.589844 165.65625 8.109375 163.773438 8.109375 Z M 163.773438 8.109375 " fill-opacity="1" fill-rule="nonzero"/></g><g clip-path="url(#8d2bf27a4e)"><path fill="#000000" d="M 147.808594 136.992188 C 145.925781 136.992188 144.402344 135.472656 144.402344 133.597656 C 144.402344 131.726562 145.925781 130.207031 147.808594 130.207031 C 149.6875 130.207031 151.210938 131.726562 151.210938 133.597656 C 151.210938 135.472656 149.6875 136.992188 147.808594 136.992188 Z M 147.808594 122.671875 C 145.925781 122.671875 144.402344 121.152344 144.402344 119.277344 C 144.402344 117.40625 145.925781 115.886719 147.808594 115.886719 C 149.6875 115.886719 151.210938 117.40625 151.210938 119.277344 C 151.210938 121.152344 149.6875 122.671875 147.808594 122.671875 Z M 147.808594 108.351562 C 145.925781 108.351562 144.402344 106.832031 144.402344 104.957031 C 144.402344 103.085938 145.925781 101.566406 147.808594 101.566406 C 149.6875 101.566406 151.210938 103.085938 151.210938 104.957031 C 151.210938 106.832031 149.6875 108.351562 147.808594 108.351562 Z M 147.808594 94.03125 C 145.925781 94.03125 144.402344 92.511719 144.402344 90.636719 C 144.402344 88.765625 145.925781 87.246094 147.808594 87.246094 C 149.6875 87.246094 151.210938 88.765625 151.210938 90.636719 C 151.210938 92.511719 149.6875 94.03125 147.808594 94.03125 Z M 147.808594 79.710938 C 145.925781 79.710938 144.402344 78.191406 144.402344 76.316406 C 144.402344 74.445312 145.925781 72.925781 147.808594 72.925781 C 149.6875 72.925781 151.210938 74.445312 151.210938 76.316406 C 151.210938 78.191406 149.6875 79.710938 147.808594 79.710938 Z M 147.808594 65.390625 C 145.925781 65.390625 144.402344 63.871094 144.402344 62 C 144.402344 60.125 145.925781 58.605469 147.808594 58.605469 C 149.6875 58.605469 151.210938 60.125 151.210938 62 C 151.210938 63.871094 149.6875 65.390625 147.808594 65.390625 Z M 147.808594 51.070312 C 145.925781 51.070312 144.402344 49.550781 144.402344 47.679688 C 144.402344 45.804688 145.925781 44.285156 147.808594 44.285156 C 149.6875 44.285156 151.210938 45.804688 151.210938 47.679688 C 151.210938 49.550781 149.6875 51.070312 147.808594 51.070312 Z M 147.808594 36.75 C 145.925781 36.75 144.402344 35.230469 144.402344 33.359375 C 144.402344 31.484375 145.925781 29.964844 147.808594 29.964844 C 149.6875 29.964844 151.210938 31.484375 151.210938 33.359375 C 151.210938 35.230469 149.6875 36.75 147.808594 36.75 Z M 147.808594 22.429688 C 145.925781 22.429688 144.402344 20.910156 144.402344 19.039062 C 144.402344 17.164062 145.925781 15.644531 147.808594 15.644531 C 149.6875 15.644531 151.210938 17.164062 151.210938 19.039062 C 151.210938 20.910156 149.6875 22.429688 147.808594 22.429688 Z M 147.808594 8.109375 C 145.925781 8.109375 144.402344 6.589844 144.402344 4.71875 C 144.402344 2.84375 145.925781 1.324219 147.808594 1.324219 C 149.6875 1.324219 151.210938 2.84375 151.210938 4.71875 C 151.210938 6.589844 149.6875 8.109375 147.808594 8.109375 Z M 147.808594 8.109375 " fill-opacity="1" fill-rule="nonzero"/></g><g clip-path="url(#bcef5aa9d0)"><path fill="#000000" d="M 131.839844 136.992188 C 129.960938 136.992188 128.4375 135.472656 128.4375 133.597656 C 128.4375 131.726562 129.960938 130.207031 131.839844 130.207031 C 133.71875 130.207031 135.246094 131.726562 135.246094 133.597656 C 135.246094 135.472656 133.71875 136.992188 131.839844 136.992188 Z M 131.839844 122.671875 C 129.960938 122.671875 128.4375 121.152344 128.4375 119.277344 C 128.4375 117.40625 129.960938 115.886719 131.839844 115.886719 C 133.71875 115.886719 135.246094 117.40625 135.246094 119.277344 C 135.246094 121.152344 133.71875 122.671875 131.839844 122.671875 Z M 131.839844 108.351562 C 129.960938 108.351562 128.4375 106.832031 128.4375 104.957031 C 128.4375 103.085938 129.960938 101.566406 131.839844 101.566406 C 133.71875 101.566406 135.246094 103.085938 135.246094 104.957031 C 135.246094 106.832031 133.71875 108.351562 131.839844 108.351562 Z M 131.839844 94.03125 C 129.960938 94.03125 128.4375 92.511719 128.4375 90.636719 C 128.4375 88.765625 129.960938 87.246094 131.839844 87.246094 C 133.71875 87.246094 135.246094 88.765625 135.246094 90.636719 C 135.246094 92.511719 133.71875 94.03125 131.839844 94.03125 Z M 131.839844 79.710938 C 129.960938 79.710938 128.4375 78.191406 128.4375 76.316406 C 128.4375 74.445312 129.960938 72.925781 131.839844 72.925781 C 133.71875 72.925781 135.246094 74.445312 135.246094 76.316406 C 135.246094 78.191406 133.71875 79.710938 131.839844 79.710938 Z M 131.839844 65.390625 C 129.960938 65.390625 128.4375 63.871094 128.4375 62 C 128.4375 60.125 129.960938 58.605469 131.839844 58.605469 C 133.71875 58.605469 135.246094 60.125 135.246094 62 C 135.246094 63.871094 133.71875 65.390625 131.839844 65.390625 Z M 131.839844 51.070312 C 129.960938 51.070312 128.4375 49.550781 128.4375 47.679688 C 128.4375 45.804688 129.960938 44.285156 131.839844 44.285156 C 133.71875 44.285156 135.246094 45.804688 135.246094 47.679688 C 135.246094 49.550781 133.71875 51.070312 131.839844 51.070312 Z M 131.839844 36.75 C 129.960938 36.75 128.4375 35.230469 128.4375 33.359375 C 128.4375 31.484375 129.960938 29.964844 131.839844 29.964844 C 133.71875 29.964844 135.246094 31.484375 135.246094 33.359375 C 135.246094 35.230469 133.71875 36.75 131.839844 36.75 Z M 131.839844 22.429688 C 129.960938 22.429688 128.4375 20.910156 128.4375 19.039062 C 128.4375 17.164062 129.960938 15.644531 131.839844 15.644531 C 133.71875 15.644531 135.246094 17.164062 135.246094 19.039062 C 135.246094 20.910156 133.71875 22.429688 131.839844 22.429688 Z M 131.839844 8.109375 C 129.960938 8.109375 128.4375 6.589844 128.4375 4.71875 C 128.4375 2.84375 129.960938 1.324219 131.839844 1.324219 C 133.71875 1.324219 135.246094 2.84375 135.246094 4.71875 C 135.246094 6.589844 133.71875 8.109375 131.839844 8.109375 Z M 131.839844 8.109375 " fill-opacity="1" fill-rule="nonzero"/></g><g clip-path="url(#4ab85b2e6f)"><path fill="#000000" d="M 115.875 136.992188 C 113.992188 136.992188 112.46875 135.472656 112.46875 133.597656 C 112.46875 131.726562 113.992188 130.207031 115.875 130.207031 C 117.753906 130.207031 119.277344 131.726562 119.277344 133.597656 C 119.277344 135.472656 117.753906 136.992188 115.875 136.992188 Z M 115.875 122.671875 C 113.992188 122.671875 112.46875 121.152344 112.46875 119.277344 C 112.46875 117.40625 113.992188 115.886719 115.875 115.886719 C 117.753906 115.886719 119.277344 117.40625 119.277344 119.277344 C 119.277344 121.152344 117.753906 122.671875 115.875 122.671875 Z M 115.875 108.351562 C 113.992188 108.351562 112.46875 106.832031 112.46875 104.957031 C 112.46875 103.085938 113.992188 101.566406 115.875 101.566406 C 117.753906 101.566406 119.277344 103.085938 119.277344 104.957031 C 119.277344 106.832031 117.753906 108.351562 115.875 108.351562 Z M 115.875 94.03125 C 113.992188 94.03125 112.46875 92.511719 112.46875 90.636719 C 112.46875 88.765625 113.992188 87.246094 115.875 87.246094 C 117.753906 87.246094 119.277344 88.765625 119.277344 90.636719 C 119.277344 92.511719 117.753906 94.03125 115.875 94.03125 Z M 115.875 79.710938 C 113.992188 79.710938 112.46875 78.191406 112.46875 76.316406 C 112.46875 74.445312 113.992188 72.925781 115.875 72.925781 C 117.753906 72.925781 119.277344 74.445312 119.277344 76.316406 C 119.277344 78.191406 117.753906 79.710938 115.875 79.710938 Z M 115.875 65.390625 C 113.992188 65.390625 112.46875 63.871094 112.46875 62 C 112.46875 60.125 113.992188 58.605469 115.875 58.605469 C 117.753906 58.605469 119.277344 60.125 119.277344 62 C 119.277344 63.871094 117.753906 65.390625 115.875 65.390625 Z M 115.875 51.070312 C 113.992188 51.070312 112.46875 49.550781 112.46875 47.679688 C 112.46875 45.804688 113.992188 44.285156 115.875 44.285156 C 117.753906 44.285156 119.277344 45.804688 119.277344 47.679688 C 119.277344 49.550781 117.753906 51.070312 115.875 51.070312 Z M 115.875 36.75 C 113.992188 36.75 112.46875 35.230469 112.46875 33.359375 C 112.46875 31.484375 113.992188 29.964844 115.875 29.964844 C 117.753906 29.964844 119.277344 31.484375 119.277344 33.359375 C 119.277344 35.230469 117.753906 36.75 115.875 36.75 Z M 115.875 22.429688 C 113.992188 22.429688 112.46875 20.910156 112.46875 19.039062 C 112.46875 17.164062 113.992188 15.644531 115.875 15.644531 C 117.753906 15.644531 119.277344 17.164062 119.277344 19.039062 C 119.277344 20.910156 117.753906 22.429688 115.875 22.429688 Z M 115.875 8.109375 C 113.992188 8.109375 112.46875 6.589844 112.46875 4.71875 C 112.46875 2.84375 113.992188 1.324219 115.875 1.324219 C 117.753906 1.324219 119.277344 2.84375 119.277344 4.71875 C 119.277344 6.589844 117.753906 8.109375 115.875 8.109375 Z M 115.875 8.109375 " fill-opacity="1" fill-rule="nonzero"/></g><g clip-path="url(#c6d7134b25)"><path fill="#000000" d="M 99.90625 136.992188 C 98.027344 136.992188 96.5 135.472656 96.5 133.597656 C 96.5 131.726562 98.027344 130.207031 99.90625 130.207031 C 101.785156 130.207031 103.3125 131.726562 103.3125 133.597656 C 103.3125 135.472656 101.785156 136.992188 99.90625 136.992188 Z M 99.90625 122.671875 C 98.027344 122.671875 96.5 121.152344 96.5 119.277344 C 96.5 117.40625 98.027344 115.886719 99.90625 115.886719 C 101.785156 115.886719 103.3125 117.40625 103.3125 119.277344 C 103.3125 121.152344 101.785156 122.671875 99.90625 122.671875 Z M 99.90625 108.351562 C 98.027344 108.351562 96.5 106.832031 96.5 104.957031 C 96.5 103.085938 98.027344 101.566406 99.90625 101.566406 C 101.785156 101.566406 103.3125 103.085938 103.3125 104.957031 C 103.3125 106.832031 101.785156 108.351562 99.90625 108.351562 Z M 99.90625 94.03125 C 98.027344 94.03125 96.5 92.511719 96.5 90.636719 C 96.5 88.765625 98.027344 87.246094 99.90625 87.246094 C 101.785156 87.246094 103.3125 88.765625 103.3125 90.636719 C 103.3125 92.511719 101.785156 94.03125 99.90625 94.03125 Z M 99.90625 79.710938 C 98.027344 79.710938 96.5 78.191406 96.5 76.316406 C 96.5 74.445312 98.027344 72.925781 99.90625 72.925781 C 101.785156 72.925781 103.3125 74.445312 103.3125 76.316406 C 103.3125 78.191406 101.785156 79.710938 99.90625 79.710938 Z M 99.90625 65.390625 C 98.027344 65.390625 96.5 63.871094 96.5 62 C 96.5 60.125 98.027344 58.605469 99.90625 58.605469 C 101.785156 58.605469 103.3125 60.125 103.3125 62 C 103.3125 63.871094 101.785156 65.390625 99.90625 65.390625 Z M 99.90625 51.070312 C 98.027344 51.070312 96.5 49.550781 96.5 47.679688 C 96.5 45.804688 98.027344 44.285156 99.90625 44.285156 C 101.785156 44.285156 103.3125 45.804688 103.3125 47.679688 C 103.3125 49.550781 101.785156 51.070312 99.90625 51.070312 Z M 99.90625 36.75 C 98.027344 36.75 96.5 35.230469 96.5 33.359375 C 96.5 31.484375 98.027344 29.964844 99.90625 29.964844 C 101.785156 29.964844 103.3125 31.484375 103.3125 33.359375 C 103.3125 35.230469 101.785156 36.75 99.90625 36.75 Z M 99.90625 22.429688 C 98.027344 22.429688 96.5 20.910156 96.5 19.039062 C 96.5 17.164062 98.027344 15.644531 99.90625 15.644531 C 101.785156 15.644531 103.3125 17.164062 103.3125 19.039062 C 103.3125 20.910156 101.785156 22.429688 99.90625 22.429688 Z M 99.90625 8.109375 C 98.027344 8.109375 96.5 6.589844 96.5 4.71875 C 96.5 2.84375 98.027344 1.324219 99.90625 1.324219 C 101.785156 1.324219 103.3125 2.84375 103.3125 4.71875 C 103.3125 6.589844 101.785156 8.109375 99.90625 8.109375 Z M 99.90625 8.109375 " fill-opacity="1" fill-rule="nonzero"/></g><g clip-path="url(#a9340ad55c)"><path fill="#000000" d="M 83.9375 136.992188 C 82.058594 136.992188 80.535156 135.472656 80.535156 133.597656 C 80.535156 131.726562 82.058594 130.207031 83.9375 130.207031 C 85.820312 130.207031 87.34375 131.726562 87.34375 133.597656 C 87.34375 135.472656 85.820312 136.992188 83.9375 136.992188 Z M 83.9375 122.671875 C 82.058594 122.671875 80.535156 121.152344 80.535156 119.277344 C 80.535156 117.40625 82.058594 115.886719 83.9375 115.886719 C 85.820312 115.886719 87.34375 117.40625 87.34375 119.277344 C 87.34375 121.152344 85.820312 122.671875 83.9375 122.671875 Z M 83.9375 108.351562 C 82.058594 108.351562 80.535156 106.832031 80.535156 104.957031 C 80.535156 103.085938 82.058594 101.566406 83.9375 101.566406 C 85.820312 101.566406 87.34375 103.085938 87.34375 104.957031 C 87.34375 106.832031 85.820312 108.351562 83.9375 108.351562 Z M 83.9375 94.03125 C 82.058594 94.03125 80.535156 92.511719 80.535156 90.636719 C 80.535156 88.765625 82.058594 87.246094 83.9375 87.246094 C 85.820312 87.246094 87.34375 88.765625 87.34375 90.636719 C 87.34375 92.511719 85.820312 94.03125 83.9375 94.03125 Z M 83.9375 79.710938 C 82.058594 79.710938 80.535156 78.191406 80.535156 76.316406 C 80.535156 74.445312 82.058594 72.925781 83.9375 72.925781 C 85.820312 72.925781 87.34375 74.445312 87.34375 76.316406 C 87.34375 78.191406 85.820312 79.710938 83.9375 79.710938 Z M 83.9375 65.390625 C 82.058594 65.390625 80.535156 63.871094 80.535156 62 C 80.535156 60.125 82.058594 58.605469 83.9375 58.605469 C 85.820312 58.605469 87.34375 60.125 87.34375 62 C 87.34375 63.871094 85.820312 65.390625 83.9375 65.390625 Z M 83.9375 51.070312 C 82.058594 51.070312 80.535156 49.550781 80.535156 47.679688 C 80.535156 45.804688 82.058594 44.285156 83.9375 44.285156 C 85.820312 44.285156 87.34375 45.804688 87.34375 47.679688 C 87.34375 49.550781 85.820312 51.070312 83.9375 51.070312 Z M 83.9375 36.75 C 82.058594 36.75 80.535156 35.230469 80.535156 33.359375 C 80.535156 31.484375 82.058594 29.964844 83.9375 29.964844 C 85.820312 29.964844 87.34375 31.484375 87.34375 33.359375 C 87.34375 35.230469 85.820312 36.75 83.9375 36.75 Z M 83.9375 22.429688 C 82.058594 22.429688 80.535156 20.910156 80.535156 19.039062 C 80.535156 17.164062 82.058594 15.644531 83.9375 15.644531 C 85.820312 15.644531 87.34375 17.164062 87.34375 19.039062 C 87.34375 20.910156 85.820312 22.429688 83.9375 22.429688 Z M 83.9375 8.109375 C 82.058594 8.109375 80.535156 6.589844 80.535156 4.71875 C 80.535156 2.84375 82.058594 1.324219 83.9375 1.324219 C 85.820312 1.324219 87.34375 2.84375 87.34375 4.71875 C 87.34375 6.589844 85.820312 8.109375 83.9375 8.109375 Z M 83.9375 8.109375 " fill-opacity="1" fill-rule="nonzero"/></g><g clip-path="url(#76498e64eb)"><path fill="#000000" d="M 67.972656 136.992188 C 66.09375 136.992188 64.566406 135.472656 64.566406 133.597656 C 64.566406 131.726562 66.09375 130.207031 67.972656 130.207031 C 69.851562 130.207031 71.375 131.726562 71.375 133.597656 C 71.375 135.472656 69.851562 136.992188 67.972656 136.992188 Z M 67.972656 122.671875 C 66.09375 122.671875 64.566406 121.152344 64.566406 119.277344 C 64.566406 117.40625 66.09375 115.886719 67.972656 115.886719 C 69.851562 115.886719 71.375 117.40625 71.375 119.277344 C 71.375 121.152344 69.851562 122.671875 67.972656 122.671875 Z M 67.972656 108.351562 C 66.09375 108.351562 64.566406 106.832031 64.566406 104.957031 C 64.566406 103.085938 66.09375 101.566406 67.972656 101.566406 C 69.851562 101.566406 71.375 103.085938 71.375 104.957031 C 71.375 106.832031 69.851562 108.351562 67.972656 108.351562 Z M 67.972656 94.03125 C 66.09375 94.03125 64.566406 92.511719 64.566406 90.636719 C 64.566406 88.765625 66.09375 87.246094 67.972656 87.246094 C 69.851562 87.246094 71.375 88.765625 71.375 90.636719 C 71.375 92.511719 69.851562 94.03125 67.972656 94.03125 Z M 67.972656 79.710938 C 66.09375 79.710938 64.566406 78.191406 64.566406 76.316406 C 64.566406 74.445312 66.09375 72.925781 67.972656 72.925781 C 69.851562 72.925781 71.375 74.445312 71.375 76.316406 C 71.375 78.191406 69.851562 79.710938 67.972656 79.710938 Z M 67.972656 65.390625 C 66.09375 65.390625 64.566406 63.871094 64.566406 62 C 64.566406 60.125 66.09375 58.605469 67.972656 58.605469 C 69.851562 58.605469 71.375 60.125 71.375 62 C 71.375 63.871094 69.851562 65.390625 67.972656 65.390625 Z M 67.972656 51.070312 C 66.09375 51.070312 64.566406 49.550781 64.566406 47.679688 C 64.566406 45.804688 66.09375 44.285156 67.972656 44.285156 C 69.851562 44.285156 71.375 45.804688 71.375 47.679688 C 71.375 49.550781 69.851562 51.070312 67.972656 51.070312 Z M 67.972656 36.75 C 66.09375 36.75 64.566406 35.230469 64.566406 33.359375 C 64.566406 31.484375 66.09375 29.964844 67.972656 29.964844 C 69.851562 29.964844 71.375 31.484375 71.375 33.359375 C 71.375 35.230469 69.851562 36.75 67.972656 36.75 Z M 67.972656 22.429688 C 66.09375 22.429688 64.566406 20.910156 64.566406 19.039062 C 64.566406 17.164062 66.09375 15.644531 67.972656 15.644531 C 69.851562 15.644531 71.375 17.164062 71.375 19.039062 C 71.375 20.910156 69.851562 22.429688 67.972656 22.429688 Z M 67.972656 8.109375 C 66.09375 8.109375 64.566406 6.589844 64.566406 4.71875 C 64.566406 2.84375 66.09375 1.324219 67.972656 1.324219 C 69.851562 1.324219 71.375 2.84375 71.375 4.71875 C 71.375 6.589844 69.851562 8.109375 67.972656 8.109375 Z M 67.972656 8.109375 " fill-opacity="1" fill-rule="nonzero"/></g><g clip-path="url(#c5a5f7c73f)"><path fill="#000000" d="M 52.003906 136.992188 C 50.125 136.992188 48.601562 135.472656 48.601562 133.597656 C 48.601562 131.726562 50.125 130.207031 52.003906 130.207031 C 53.886719 130.207031 55.410156 131.726562 55.410156 133.597656 C 55.410156 135.472656 53.886719 136.992188 52.003906 136.992188 Z M 52.003906 122.671875 C 50.125 122.671875 48.601562 121.152344 48.601562 119.277344 C 48.601562 117.40625 50.125 115.886719 52.003906 115.886719 C 53.886719 115.886719 55.410156 117.40625 55.410156 119.277344 C 55.410156 121.152344 53.886719 122.671875 52.003906 122.671875 Z M 52.003906 108.351562 C 50.125 108.351562 48.601562 106.832031 48.601562 104.957031 C 48.601562 103.085938 50.125 101.566406 52.003906 101.566406 C 53.886719 101.566406 55.410156 103.085938 55.410156 104.957031 C 55.410156 106.832031 53.886719 108.351562 52.003906 108.351562 Z M 52.003906 94.03125 C 50.125 94.03125 48.601562 92.511719 48.601562 90.636719 C 48.601562 88.765625 50.125 87.246094 52.003906 87.246094 C 53.886719 87.246094 55.410156 88.765625 55.410156 90.636719 C 55.410156 92.511719 53.886719 94.03125 52.003906 94.03125 Z M 52.003906 79.710938 C 50.125 79.710938 48.601562 78.191406 48.601562 76.316406 C 48.601562 74.445312 50.125 72.925781 52.003906 72.925781 C 53.886719 72.925781 55.410156 74.445312 55.410156 76.316406 C 55.410156 78.191406 53.886719 79.710938 52.003906 79.710938 Z M 52.003906 65.390625 C 50.125 65.390625 48.601562 63.871094 48.601562 62 C 48.601562 60.125 50.125 58.605469 52.003906 58.605469 C 53.886719 58.605469 55.410156 60.125 55.410156 62 C 55.410156 63.871094 53.886719 65.390625 52.003906 65.390625 Z M 52.003906 51.070312 C 50.125 51.070312 48.601562 49.550781 48.601562 47.679688 C 48.601562 45.804688 50.125 44.285156 52.003906 44.285156 C 53.886719 44.285156 55.410156 45.804688 55.410156 47.679688 C 55.410156 49.550781 53.886719 51.070312 52.003906 51.070312 Z M 52.003906 36.75 C 50.125 36.75 48.601562 35.230469 48.601562 33.359375 C 48.601562 31.484375 50.125 29.964844 52.003906 29.964844 C 53.886719 29.964844 55.410156 31.484375 55.410156 33.359375 C 55.410156 35.230469 53.886719 36.75 52.003906 36.75 Z M 52.003906 22.429688 C 50.125 22.429688 48.601562 20.910156 48.601562 19.039062 C 48.601562 17.164062 50.125 15.644531 52.003906 15.644531 C 53.886719 15.644531 55.410156 17.164062 55.410156 19.039062 C 55.410156 20.910156 53.886719 22.429688 52.003906 22.429688 Z M 52.003906 8.109375 C 50.125 8.109375 48.601562 6.589844 48.601562 4.71875 C 48.601562 2.84375 50.125 1.324219 52.003906 1.324219 C 53.886719 1.324219 55.410156 2.84375 55.410156 4.71875 C 55.410156 6.589844 53.886719 8.109375 52.003906 8.109375 Z M 52.003906 8.109375 " fill-opacity="1" fill-rule="nonzero"/></g><g clip-path="url(#18aeff0d1a)"><path fill="#000000" d="M 36.039062 136.992188 C 34.15625 136.992188 32.632812 135.472656 32.632812 133.597656 C 32.632812 131.726562 34.15625 130.207031 36.039062 130.207031 C 37.917969 130.207031 39.441406 131.726562 39.441406 133.597656 C 39.441406 135.472656 37.917969 136.992188 36.039062 136.992188 Z M 36.039062 122.671875 C 34.15625 122.671875 32.632812 121.152344 32.632812 119.277344 C 32.632812 117.40625 34.15625 115.886719 36.039062 115.886719 C 37.917969 115.886719 39.441406 117.40625 39.441406 119.277344 C 39.441406 121.152344 37.917969 122.671875 36.039062 122.671875 Z M 36.039062 108.351562 C 34.15625 108.351562 32.632812 106.832031 32.632812 104.957031 C 32.632812 103.085938 34.15625 101.566406 36.039062 101.566406 C 37.917969 101.566406 39.441406 103.085938 39.441406 104.957031 C 39.441406 106.832031 37.917969 108.351562 36.039062 108.351562 Z M 36.039062 94.03125 C 34.15625 94.03125 32.632812 92.511719 32.632812 90.636719 C 32.632812 88.765625 34.15625 87.246094 36.039062 87.246094 C 37.917969 87.246094 39.441406 88.765625 39.441406 90.636719 C 39.441406 92.511719 37.917969 94.03125 36.039062 94.03125 Z M 36.039062 79.710938 C 34.15625 79.710938 32.632812 78.191406 32.632812 76.316406 C 32.632812 74.445312 34.15625 72.925781 36.039062 72.925781 C 37.917969 72.925781 39.441406 74.445312 39.441406 76.316406 C 39.441406 78.191406 37.917969 79.710938 36.039062 79.710938 Z M 36.039062 65.390625 C 34.15625 65.390625 32.632812 63.871094 32.632812 62 C 32.632812 60.125 34.15625 58.605469 36.039062 58.605469 C 37.917969 58.605469 39.441406 60.125 39.441406 62 C 39.441406 63.871094 37.917969 65.390625 36.039062 65.390625 Z M 36.039062 51.070312 C 34.15625 51.070312 32.632812 49.550781 32.632812 47.679688 C 32.632812 45.804688 34.15625 44.285156 36.039062 44.285156 C 37.917969 44.285156 39.441406 45.804688 39.441406 47.679688 C 39.441406 49.550781 37.917969 51.070312 36.039062 51.070312 Z M 36.039062 36.75 C 34.15625 36.75 32.632812 35.230469 32.632812 33.359375 C 32.632812 31.484375 34.15625 29.964844 36.039062 29.964844 C 37.917969 29.964844 39.441406 31.484375 39.441406 33.359375 C 39.441406 35.230469 37.917969 36.75 36.039062 36.75 Z M 36.039062 22.429688 C 34.15625 22.429688 32.632812 20.910156 32.632812 19.039062 C 32.632812 17.164062 34.15625 15.644531 36.039062 15.644531 C 37.917969 15.644531 39.441406 17.164062 39.441406 19.039062 C 39.441406 20.910156 37.917969 22.429688 36.039062 22.429688 Z M 36.039062 8.109375 C 34.15625 8.109375 32.632812 6.589844 32.632812 4.71875 C 32.632812 2.84375 34.15625 1.324219 36.039062 1.324219 C 37.917969 1.324219 39.441406 2.84375 39.441406 4.71875 C 39.441406 6.589844 37.917969 8.109375 36.039062 8.109375 Z M 36.039062 8.109375 " fill-opacity="1" fill-rule="nonzero"/></g><g clip-path="url(#33ce6ad7ce)"><path fill="#000000" d="M 20.070312 136.992188 C 18.191406 136.992188 16.667969 135.472656 16.667969 133.597656 C 16.667969 131.726562 18.191406 130.207031 20.070312 130.207031 C 21.953125 130.207031 23.476562 131.726562 23.476562 133.597656 C 23.476562 135.472656 21.953125 136.992188 20.070312 136.992188 Z M 20.070312 122.671875 C 18.191406 122.671875 16.667969 121.152344 16.667969 119.277344 C 16.667969 117.40625 18.191406 115.886719 20.070312 115.886719 C 21.953125 115.886719 23.476562 117.40625 23.476562 119.277344 C 23.476562 121.152344 21.953125 122.671875 20.070312 122.671875 Z M 20.070312 108.351562 C 18.191406 108.351562 16.667969 106.832031 16.667969 104.957031 C 16.667969 103.085938 18.191406 101.566406 20.070312 101.566406 C 21.953125 101.566406 23.476562 103.085938 23.476562 104.957031 C 23.476562 106.832031 21.953125 108.351562 20.070312 108.351562 Z M 20.070312 94.03125 C 18.191406 94.03125 16.667969 92.511719 16.667969 90.636719 C 16.667969 88.765625 18.191406 87.246094 20.070312 87.246094 C 21.953125 87.246094 23.476562 88.765625 23.476562 90.636719 C 23.476562 92.511719 21.953125 94.03125 20.070312 94.03125 Z M 20.070312 79.710938 C 18.191406 79.710938 16.667969 78.191406 16.667969 76.316406 C 16.667969 74.445312 18.191406 72.925781 20.070312 72.925781 C 21.953125 72.925781 23.476562 74.445312 23.476562 76.316406 C 23.476562 78.191406 21.953125 79.710938 20.070312 79.710938 Z M 20.070312 65.390625 C 18.191406 65.390625 16.667969 63.871094 16.667969 62 C 16.667969 60.125 18.191406 58.605469 20.070312 58.605469 C 21.953125 58.605469 23.476562 60.125 23.476562 62 C 23.476562 63.871094 21.953125 65.390625 20.070312 65.390625 Z M 20.070312 51.070312 C 18.191406 51.070312 16.667969 49.550781 16.667969 47.679688 C 16.667969 45.804688 18.191406 44.285156 20.070312 44.285156 C 21.953125 44.285156 23.476562 45.804688 23.476562 47.679688 C 23.476562 49.550781 21.953125 51.070312 20.070312 51.070312 Z M 20.070312 36.75 C 18.191406 36.75 16.667969 35.230469 16.667969 33.359375 C 16.667969 31.484375 18.191406 29.964844 20.070312 29.964844 C 21.953125 29.964844 23.476562 31.484375 23.476562 33.359375 C 23.476562 35.230469 21.953125 36.75 20.070312 36.75 Z M 20.070312 22.429688 C 18.191406 22.429688 16.667969 20.910156 16.667969 19.039062 C 16.667969 17.164062 18.191406 15.644531 20.070312 15.644531 C 21.953125 15.644531 23.476562 17.164062 23.476562 19.039062 C 23.476562 20.910156 21.953125 22.429688 20.070312 22.429688 Z M 20.070312 8.109375 C 18.191406 8.109375 16.667969 6.589844 16.667969 4.71875 C 16.667969 2.84375 18.191406 1.324219 20.070312 1.324219 C 21.953125 1.324219 23.476562 2.84375 23.476562 4.71875 C 23.476562 6.589844 21.953125 8.109375 20.070312 8.109375 Z M 20.070312 8.109375 " fill-opacity="1" fill-rule="nonzero"/></g><g clip-path="url(#da1e1c2cf9)"><path fill="#000000" d="M 4.105469 136.992188 C 2.222656 136.992188 0.699219 135.472656 0.699219 133.597656 C 0.699219 131.726562 2.222656 130.207031 4.105469 130.207031 C 5.984375 130.207031 7.507812 131.726562 7.507812 133.597656 C 7.507812 135.472656 5.984375 136.992188 4.105469 136.992188 Z M 4.105469 122.671875 C 2.222656 122.671875 0.699219 121.152344 0.699219 119.277344 C 0.699219 117.40625 2.222656 115.886719 4.105469 115.886719 C 5.984375 115.886719 7.507812 117.40625 7.507812 119.277344 C 7.507812 121.152344 5.984375 122.671875 4.105469 122.671875 Z M 4.105469 108.351562 C 2.222656 108.351562 0.699219 106.832031 0.699219 104.957031 C 0.699219 103.085938 2.222656 101.566406 4.105469 101.566406 C 5.984375 101.566406 7.507812 103.085938 7.507812 104.957031 C 7.507812 106.832031 5.984375 108.351562 4.105469 108.351562 Z M 4.105469 94.03125 C 2.222656 94.03125 0.699219 92.511719 0.699219 90.636719 C 0.699219 88.765625 2.222656 87.246094 4.105469 87.246094 C 5.984375 87.246094 7.507812 88.765625 7.507812 90.636719 C 7.507812 92.511719 5.984375 94.03125 4.105469 94.03125 Z M 4.105469 79.710938 C 2.222656 79.710938 0.699219 78.191406 0.699219 76.316406 C 0.699219 74.445312 2.222656 72.925781 4.105469 72.925781 C 5.984375 72.925781 7.507812 74.445312 7.507812 76.316406 C 7.507812 78.191406 5.984375 79.710938 4.105469 79.710938 Z M 4.105469 65.390625 C 2.222656 65.390625 0.699219 63.871094 0.699219 62 C 0.699219 60.125 2.222656 58.605469 4.105469 58.605469 C 5.984375 58.605469 7.507812 60.125 7.507812 62 C 7.507812 63.871094 5.984375 65.390625 4.105469 65.390625 Z M 4.105469 51.070312 C 2.222656 51.070312 0.699219 49.550781 0.699219 47.679688 C 0.699219 45.804688 2.222656 44.285156 4.105469 44.285156 C 5.984375 44.285156 7.507812 45.804688 7.507812 47.679688 C 7.507812 49.550781 5.984375 51.070312 4.105469 51.070312 Z M 4.105469 36.75 C 2.222656 36.75 0.699219 35.230469 0.699219 33.359375 C 0.699219 31.484375 2.222656 29.964844 4.105469 29.964844 C 5.984375 29.964844 7.507812 31.484375 7.507812 33.359375 C 7.507812 35.230469 5.984375 36.75 4.105469 36.75 Z M 4.105469 22.429688 C 2.222656 22.429688 0.699219 20.910156 0.699219 19.039062 C 0.699219 17.164062 2.222656 15.644531 4.105469 15.644531 C 5.984375 15.644531 7.507812 17.164062 7.507812 19.039062 C 7.507812 20.910156 5.984375 22.429688 4.105469 22.429688 Z M 4.105469 8.109375 C 2.222656 8.109375 0.699219 6.589844 0.699219 4.71875 C 0.699219 2.84375 2.222656 1.324219 4.105469 1.324219 C 5.984375 1.324219 7.507812 2.84375 7.507812 4.71875 C 7.507812 6.589844 5.984375 8.109375 4.105469 8.109375 Z M 4.105469 8.109375 " fill-opacity="1" fill-rule="nonzero"/></g></g></g></g></svg>