<svg xmlns="http://www.w3.org/2000/svg" xmlns:xlink="http://www.w3.org/1999/xlink" width="400" zoomAndPan="magnify" viewBox="0 0 300 299.999988" height="400" preserveAspectRatio="xMidYMid meet" version="1.0"><defs><filter x="0%" y="0%" width="100%" height="100%" id="70615b10fc"><feColorMatrix values="0 0 0 0 1 0 0 0 0 1 0 0 0 0 1 0 0 0 1 0" color-interpolation-filters="sRGB"/></filter><mask id="b594931877"><g filter="url(#70615b10fc)"><rect x="-30" width="360" fill="#000000" y="-29.999999" height="359.999986" fill-opacity="0.5"/></g></mask><clipPath id="9e8d3718dd"><path d="M 0.183594 1.03125 L 7 1.03125 L 7 276 L 0.183594 276 Z M 0.183594 1.03125 " clip-rule="nonzero"/></clipPath><clipPath id="8c85fda17d"><path d="M 15 1.03125 L 22 1.03125 L 22 276 L 15 276 Z M 15 1.03125 " clip-rule="nonzero"/></clipPath><clipPath id="8db875e1b5"><path d="M 29 1.03125 L 37 1.03125 L 37 276 L 29 276 Z M 29 1.03125 " clip-rule="nonzero"/></clipPath><clipPath id="19bb32b9d8"><path d="M 44 1.03125 L 51.183594 1.03125 L 51.183594 276 L 44 276 Z M 44 1.03125 " clip-rule="nonzero"/></clipPath><clipPath id="cb2a51aaaf"><rect x="0" width="52" y="0" height="276"/></clipPath><clipPath id="c79c293f8a"><path d="M 121.441406 3.601562 L 173.941406 3.601562 L 173.941406 19.175781 L 121.441406 19.175781 Z M 121.441406 3.601562 " clip-rule="nonzero"/></clipPath></defs><g mask="url(#b594931877)"><g transform="matrix(1, 0, 0, 1, 123, 24)"><g clip-path="url(#cb2a51aaaf)"><g clip-path="url(#9e8d3718dd)"><path fill="#000000" d="M 3.347656 1.046875 C 5.101562 1.046875 6.519531 2.464844 6.519531 4.210938 C 6.519531 5.957031 5.101562 7.371094 3.347656 7.371094 C 1.59375 7.371094 0.175781 5.957031 0.175781 4.210938 C 0.175781 2.464844 1.59375 1.046875 3.347656 1.046875 Z M 3.347656 13.851562 C 5.101562 13.851562 6.519531 15.269531 6.519531 17.015625 C 6.519531 18.761719 5.101562 20.175781 3.347656 20.175781 C 1.59375 20.175781 0.175781 18.761719 0.175781 17.015625 C 0.175781 15.269531 1.59375 13.851562 3.347656 13.851562 Z M 3.347656 26.65625 C 5.101562 26.65625 6.519531 28.074219 6.519531 29.820312 C 6.519531 31.566406 5.101562 32.980469 3.347656 32.980469 C 1.59375 32.980469 0.175781 31.566406 0.175781 29.820312 C 0.175781 28.074219 1.59375 26.65625 3.347656 26.65625 Z M 3.347656 39.464844 C 5.101562 39.464844 6.519531 40.878906 6.519531 42.625 C 6.519531 44.371094 5.101562 45.785156 3.347656 45.785156 C 1.59375 45.785156 0.175781 44.371094 0.175781 42.625 C 0.175781 40.878906 1.59375 39.464844 3.347656 39.464844 Z M 3.347656 52.269531 C 5.101562 52.269531 6.519531 53.683594 6.519531 55.429688 C 6.519531 57.175781 5.101562 58.589844 3.347656 58.589844 C 1.59375 58.589844 0.175781 57.175781 0.175781 55.429688 C 0.175781 53.683594 1.59375 52.269531 3.347656 52.269531 Z M 3.347656 65.074219 C 5.101562 65.074219 6.519531 66.488281 6.519531 68.234375 C 6.519531 69.980469 5.101562 71.394531 3.347656 71.394531 C 1.59375 71.394531 0.175781 69.980469 0.175781 68.234375 C 0.175781 66.488281 1.59375 65.074219 3.347656 65.074219 Z M 3.347656 77.878906 C 5.101562 77.878906 6.519531 79.292969 6.519531 81.039062 C 6.519531 82.785156 5.101562 84.203125 3.347656 84.203125 C 1.59375 84.203125 0.175781 82.785156 0.175781 81.039062 C 0.175781 79.292969 1.59375 77.878906 3.347656 77.878906 Z M 3.347656 90.683594 C 5.101562 90.683594 6.519531 92.097656 6.519531 93.84375 C 6.519531 95.589844 5.101562 97.007812 3.347656 97.007812 C 1.59375 97.007812 0.175781 95.589844 0.175781 93.84375 C 0.175781 92.097656 1.59375 90.683594 3.347656 90.683594 Z M 3.347656 103.488281 C 5.101562 103.488281 6.519531 104.90625 6.519531 106.652344 C 6.519531 108.398438 5.101562 109.8125 3.347656 109.8125 C 1.59375 109.8125 0.175781 108.398438 0.175781 106.652344 C 0.175781 104.90625 1.59375 103.488281 3.347656 103.488281 Z M 3.347656 116.292969 C 5.101562 116.292969 6.519531 117.710938 6.519531 119.457031 C 6.519531 121.203125 5.101562 122.617188 3.347656 122.617188 C 1.59375 122.617188 0.175781 121.203125 0.175781 119.457031 C 0.175781 117.710938 1.59375 116.292969 3.347656 116.292969 Z M 3.347656 129.097656 C 5.101562 129.097656 6.519531 130.515625 6.519531 132.261719 C 6.519531 134.007812 5.101562 135.421875 3.347656 135.421875 C 1.59375 135.421875 0.175781 134.007812 0.175781 132.261719 C 0.175781 130.515625 1.59375 129.097656 3.347656 129.097656 Z M 3.347656 141.90625 C 5.101562 141.90625 6.519531 143.320312 6.519531 145.066406 C 6.519531 146.8125 5.101562 148.226562 3.347656 148.226562 C 1.59375 148.226562 0.175781 146.8125 0.175781 145.066406 C 0.175781 143.320312 1.59375 141.90625 3.347656 141.90625 Z M 3.347656 154.710938 C 5.101562 154.710938 6.519531 156.125 6.519531 157.871094 C 6.519531 159.617188 5.101562 161.03125 3.347656 161.03125 C 1.59375 161.03125 0.175781 159.617188 0.175781 157.871094 C 0.175781 156.125 1.59375 154.710938 3.347656 154.710938 Z M 3.347656 167.515625 C 5.101562 167.515625 6.519531 168.929688 6.519531 170.675781 C 6.519531 172.421875 5.101562 173.835938 3.347656 173.835938 C 1.59375 173.835938 0.175781 172.421875 0.175781 170.675781 C 0.175781 168.929688 1.59375 167.515625 3.347656 167.515625 Z M 3.347656 180.320312 C 5.101562 180.320312 6.519531 181.734375 6.519531 183.480469 C 6.519531 185.226562 5.101562 186.644531 3.347656 186.644531 C 1.59375 186.644531 0.175781 185.226562 0.175781 183.480469 C 0.175781 181.734375 1.59375 180.320312 3.347656 180.320312 Z M 3.347656 193.125 C 5.101562 193.125 6.519531 194.539062 6.519531 196.285156 C 6.519531 198.03125 5.101562 199.449219 3.347656 199.449219 C 1.59375 199.449219 0.175781 198.03125 0.175781 196.285156 C 0.175781 194.539062 1.59375 193.125 3.347656 193.125 Z M 3.347656 205.929688 C 5.101562 205.929688 6.519531 207.347656 6.519531 209.09375 C 6.519531 210.835938 5.101562 212.253906 3.347656 212.253906 C 1.59375 212.253906 0.175781 210.835938 0.175781 209.09375 C 0.175781 207.347656 1.59375 205.929688 3.347656 205.929688 Z M 3.347656 218.734375 C 5.101562 218.734375 6.519531 220.152344 6.519531 221.898438 C 6.519531 223.644531 5.101562 225.058594 3.347656 225.058594 C 1.59375 225.058594 0.175781 223.644531 0.175781 221.898438 C 0.175781 220.152344 1.59375 218.734375 3.347656 218.734375 Z M 3.347656 231.539062 C 5.101562 231.539062 6.519531 232.957031 6.519531 234.703125 C 6.519531 236.449219 5.101562 237.863281 3.347656 237.863281 C 1.59375 237.863281 0.175781 236.449219 0.175781 234.703125 C 0.175781 232.957031 1.59375 231.539062 3.347656 231.539062 Z M 3.347656 244.347656 C 5.101562 244.347656 6.519531 245.761719 6.519531 247.507812 C 6.519531 249.253906 5.101562 250.667969 3.347656 250.667969 C 1.59375 250.667969 0.175781 249.253906 0.175781 247.507812 C 0.175781 245.761719 1.59375 244.347656 3.347656 244.347656 Z M 3.347656 257.152344 C 5.101562 257.152344 6.519531 258.566406 6.519531 260.3125 C 6.519531 262.058594 5.101562 263.472656 3.347656 263.472656 C 1.59375 263.472656 0.175781 262.058594 0.175781 260.3125 C 0.175781 258.566406 1.59375 257.152344 3.347656 257.152344 Z M 3.347656 269.957031 C 5.101562 269.957031 6.519531 271.371094 6.519531 273.117188 C 6.519531 274.863281 5.101562 276.277344 3.347656 276.277344 C 1.59375 276.277344 0.175781 274.863281 0.175781 273.117188 C 0.175781 271.371094 1.59375 269.957031 3.347656 269.957031 Z M 3.347656 269.957031 " fill-opacity="1" fill-rule="nonzero"/></g><g clip-path="url(#8c85fda17d)"><path fill="#000000" d="M 18.230469 1.046875 C 19.984375 1.046875 21.40625 2.464844 21.40625 4.210938 C 21.40625 5.957031 19.984375 7.371094 18.230469 7.371094 C 16.480469 7.371094 15.058594 5.957031 15.058594 4.210938 C 15.058594 2.464844 16.480469 1.046875 18.230469 1.046875 Z M 18.230469 13.851562 C 19.984375 13.851562 21.40625 15.269531 21.40625 17.015625 C 21.40625 18.761719 19.984375 20.175781 18.230469 20.175781 C 16.480469 20.175781 15.058594 18.761719 15.058594 17.015625 C 15.058594 15.269531 16.480469 13.851562 18.230469 13.851562 Z M 18.230469 26.65625 C 19.984375 26.65625 21.40625 28.074219 21.40625 29.820312 C 21.40625 31.566406 19.984375 32.980469 18.230469 32.980469 C 16.480469 32.980469 15.058594 31.566406 15.058594 29.820312 C 15.058594 28.074219 16.480469 26.65625 18.230469 26.65625 Z M 18.230469 39.464844 C 19.984375 39.464844 21.40625 40.878906 21.40625 42.625 C 21.40625 44.371094 19.984375 45.785156 18.230469 45.785156 C 16.480469 45.785156 15.058594 44.371094 15.058594 42.625 C 15.058594 40.878906 16.480469 39.464844 18.230469 39.464844 Z M 18.230469 52.269531 C 19.984375 52.269531 21.40625 53.683594 21.40625 55.429688 C 21.40625 57.175781 19.984375 58.589844 18.230469 58.589844 C 16.480469 58.589844 15.058594 57.175781 15.058594 55.429688 C 15.058594 53.683594 16.480469 52.269531 18.230469 52.269531 Z M 18.230469 65.074219 C 19.984375 65.074219 21.40625 66.488281 21.40625 68.234375 C 21.40625 69.980469 19.984375 71.394531 18.230469 71.394531 C 16.480469 71.394531 15.058594 69.980469 15.058594 68.234375 C 15.058594 66.488281 16.480469 65.074219 18.230469 65.074219 Z M 18.230469 77.878906 C 19.984375 77.878906 21.40625 79.292969 21.40625 81.039062 C 21.40625 82.785156 19.984375 84.203125 18.230469 84.203125 C 16.480469 84.203125 15.058594 82.785156 15.058594 81.039062 C 15.058594 79.292969 16.480469 77.878906 18.230469 77.878906 Z M 18.230469 90.683594 C 19.984375 90.683594 21.40625 92.097656 21.40625 93.84375 C 21.40625 95.589844 19.984375 97.007812 18.230469 97.007812 C 16.480469 97.007812 15.058594 95.589844 15.058594 93.84375 C 15.058594 92.097656 16.480469 90.683594 18.230469 90.683594 Z M 18.230469 103.488281 C 19.984375 103.488281 21.40625 104.90625 21.40625 106.652344 C 21.40625 108.398438 19.984375 109.8125 18.230469 109.8125 C 16.480469 109.8125 15.058594 108.398438 15.058594 106.652344 C 15.058594 104.90625 16.480469 103.488281 18.230469 103.488281 Z M 18.230469 116.292969 C 19.984375 116.292969 21.40625 117.710938 21.40625 119.457031 C 21.40625 121.203125 19.984375 122.617188 18.230469 122.617188 C 16.480469 122.617188 15.058594 121.203125 15.058594 119.457031 C 15.058594 117.710938 16.480469 116.292969 18.230469 116.292969 Z M 18.230469 129.097656 C 19.984375 129.097656 21.40625 130.515625 21.40625 132.261719 C 21.40625 134.007812 19.984375 135.421875 18.230469 135.421875 C 16.480469 135.421875 15.058594 134.007812 15.058594 132.261719 C 15.058594 130.515625 16.480469 129.097656 18.230469 129.097656 Z M 18.230469 141.90625 C 19.984375 141.90625 21.40625 143.320312 21.40625 145.066406 C 21.40625 146.8125 19.984375 148.226562 18.230469 148.226562 C 16.480469 148.226562 15.058594 146.8125 15.058594 145.066406 C 15.058594 143.320312 16.480469 141.90625 18.230469 141.90625 Z M 18.230469 154.710938 C 19.984375 154.710938 21.40625 156.125 21.40625 157.871094 C 21.40625 159.617188 19.984375 161.03125 18.230469 161.03125 C 16.480469 161.03125 15.058594 159.617188 15.058594 157.871094 C 15.058594 156.125 16.480469 154.710938 18.230469 154.710938 Z M 18.230469 167.515625 C 19.984375 167.515625 21.40625 168.929688 21.40625 170.675781 C 21.40625 172.421875 19.984375 173.835938 18.230469 173.835938 C 16.480469 173.835938 15.058594 172.421875 15.058594 170.675781 C 15.058594 168.929688 16.480469 167.515625 18.230469 167.515625 Z M 18.230469 180.320312 C 19.984375 180.320312 21.40625 181.734375 21.40625 183.480469 C 21.40625 185.226562 19.984375 186.644531 18.230469 186.644531 C 16.480469 186.644531 15.058594 185.226562 15.058594 183.480469 C 15.058594 181.734375 16.480469 180.320312 18.230469 180.320312 Z M 18.230469 193.125 C 19.984375 193.125 21.40625 194.539062 21.40625 196.285156 C 21.40625 198.03125 19.984375 199.449219 18.230469 199.449219 C 16.480469 199.449219 15.058594 198.03125 15.058594 196.285156 C 15.058594 194.539062 16.480469 193.125 18.230469 193.125 Z M 18.230469 205.929688 C 19.984375 205.929688 21.40625 207.347656 21.40625 209.09375 C 21.40625 210.835938 19.984375 212.253906 18.230469 212.253906 C 16.480469 212.253906 15.058594 210.835938 15.058594 209.09375 C 15.058594 207.347656 16.480469 205.929688 18.230469 205.929688 Z M 18.230469 218.734375 C 19.984375 218.734375 21.40625 220.152344 21.40625 221.898438 C 21.40625 223.644531 19.984375 225.058594 18.230469 225.058594 C 16.480469 225.058594 15.058594 223.644531 15.058594 221.898438 C 15.058594 220.152344 16.480469 218.734375 18.230469 218.734375 Z M 18.230469 231.539062 C 19.984375 231.539062 21.40625 232.957031 21.40625 234.703125 C 21.40625 236.449219 19.984375 237.863281 18.230469 237.863281 C 16.480469 237.863281 15.058594 236.449219 15.058594 234.703125 C 15.058594 232.957031 16.480469 231.539062 18.230469 231.539062 Z M 18.230469 244.347656 C 19.984375 244.347656 21.40625 245.761719 21.40625 247.507812 C 21.40625 249.253906 19.984375 250.667969 18.230469 250.667969 C 16.480469 250.667969 15.058594 249.253906 15.058594 247.507812 C 15.058594 245.761719 16.480469 244.347656 18.230469 244.347656 Z M 18.230469 257.152344 C 19.984375 257.152344 21.40625 258.566406 21.40625 260.3125 C 21.40625 262.058594 19.984375 263.472656 18.230469 263.472656 C 16.480469 263.472656 15.058594 262.058594 15.058594 260.3125 C 15.058594 258.566406 16.480469 257.152344 18.230469 257.152344 Z M 18.230469 269.957031 C 19.984375 269.957031 21.40625 271.371094 21.40625 273.117188 C 21.40625 274.863281 19.984375 276.277344 18.230469 276.277344 C 16.480469 276.277344 15.058594 274.863281 15.058594 273.117188 C 15.058594 271.371094 16.480469 269.957031 18.230469 269.957031 Z M 18.230469 269.957031 " fill-opacity="1" fill-rule="nonzero"/></g><g clip-path="url(#8db875e1b5)"><path fill="#000000" d="M 33.113281 1.046875 C 34.867188 1.046875 36.289062 2.464844 36.289062 4.210938 C 36.289062 5.957031 34.867188 7.371094 33.113281 7.371094 C 31.363281 7.371094 29.941406 5.957031 29.941406 4.210938 C 29.941406 2.464844 31.363281 1.046875 33.113281 1.046875 Z M 33.113281 13.851562 C 34.867188 13.851562 36.289062 15.269531 36.289062 17.015625 C 36.289062 18.761719 34.867188 20.175781 33.113281 20.175781 C 31.363281 20.175781 29.941406 18.761719 29.941406 17.015625 C 29.941406 15.269531 31.363281 13.851562 33.113281 13.851562 Z M 33.113281 26.65625 C 34.867188 26.65625 36.289062 28.074219 36.289062 29.820312 C 36.289062 31.566406 34.867188 32.980469 33.113281 32.980469 C 31.363281 32.980469 29.941406 31.566406 29.941406 29.820312 C 29.941406 28.074219 31.363281 26.65625 33.113281 26.65625 Z M 33.113281 39.464844 C 34.867188 39.464844 36.289062 40.878906 36.289062 42.625 C 36.289062 44.371094 34.867188 45.785156 33.113281 45.785156 C 31.363281 45.785156 29.941406 44.371094 29.941406 42.625 C 29.941406 40.878906 31.363281 39.464844 33.113281 39.464844 Z M 33.113281 52.269531 C 34.867188 52.269531 36.289062 53.683594 36.289062 55.429688 C 36.289062 57.175781 34.867188 58.589844 33.113281 58.589844 C 31.363281 58.589844 29.941406 57.175781 29.941406 55.429688 C 29.941406 53.683594 31.363281 52.269531 33.113281 52.269531 Z M 33.113281 65.074219 C 34.867188 65.074219 36.289062 66.488281 36.289062 68.234375 C 36.289062 69.980469 34.867188 71.394531 33.113281 71.394531 C 31.363281 71.394531 29.941406 69.980469 29.941406 68.234375 C 29.941406 66.488281 31.363281 65.074219 33.113281 65.074219 Z M 33.113281 77.878906 C 34.867188 77.878906 36.289062 79.292969 36.289062 81.039062 C 36.289062 82.785156 34.867188 84.203125 33.113281 84.203125 C 31.363281 84.203125 29.941406 82.785156 29.941406 81.039062 C 29.941406 79.292969 31.363281 77.878906 33.113281 77.878906 Z M 33.113281 90.683594 C 34.867188 90.683594 36.289062 92.097656 36.289062 93.84375 C 36.289062 95.589844 34.867188 97.007812 33.113281 97.007812 C 31.363281 97.007812 29.941406 95.589844 29.941406 93.84375 C 29.941406 92.097656 31.363281 90.683594 33.113281 90.683594 Z M 33.113281 103.488281 C 34.867188 103.488281 36.289062 104.90625 36.289062 106.652344 C 36.289062 108.398438 34.867188 109.8125 33.113281 109.8125 C 31.363281 109.8125 29.941406 108.398438 29.941406 106.652344 C 29.941406 104.90625 31.363281 103.488281 33.113281 103.488281 Z M 33.113281 116.292969 C 34.867188 116.292969 36.289062 117.710938 36.289062 119.457031 C 36.289062 121.203125 34.867188 122.617188 33.113281 122.617188 C 31.363281 122.617188 29.941406 121.203125 29.941406 119.457031 C 29.941406 117.710938 31.363281 116.292969 33.113281 116.292969 Z M 33.113281 129.097656 C 34.867188 129.097656 36.289062 130.515625 36.289062 132.261719 C 36.289062 134.007812 34.867188 135.421875 33.113281 135.421875 C 31.363281 135.421875 29.941406 134.007812 29.941406 132.261719 C 29.941406 130.515625 31.363281 129.097656 33.113281 129.097656 Z M 33.113281 141.90625 C 34.867188 141.90625 36.289062 143.320312 36.289062 145.066406 C 36.289062 146.8125 34.867188 148.226562 33.113281 148.226562 C 31.363281 148.226562 29.941406 146.8125 29.941406 145.066406 C 29.941406 143.320312 31.363281 141.90625 33.113281 141.90625 Z M 33.113281 154.710938 C 34.867188 154.710938 36.289062 156.125 36.289062 157.871094 C 36.289062 159.617188 34.867188 161.03125 33.113281 161.03125 C 31.363281 161.03125 29.941406 159.617188 29.941406 157.871094 C 29.941406 156.125 31.363281 154.710938 33.113281 154.710938 Z M 33.113281 167.515625 C 34.867188 167.515625 36.289062 168.929688 36.289062 170.675781 C 36.289062 172.421875 34.867188 173.835938 33.113281 173.835938 C 31.363281 173.835938 29.941406 172.421875 29.941406 170.675781 C 29.941406 168.929688 31.363281 167.515625 33.113281 167.515625 Z M 33.113281 180.320312 C 34.867188 180.320312 36.289062 181.734375 36.289062 183.480469 C 36.289062 185.226562 34.867188 186.644531 33.113281 186.644531 C 31.363281 186.644531 29.941406 185.226562 29.941406 183.480469 C 29.941406 181.734375 31.363281 180.320312 33.113281 180.320312 Z M 33.113281 193.125 C 34.867188 193.125 36.289062 194.539062 36.289062 196.285156 C 36.289062 198.03125 34.867188 199.449219 33.113281 199.449219 C 31.363281 199.449219 29.941406 198.03125 29.941406 196.285156 C 29.941406 194.539062 31.363281 193.125 33.113281 193.125 Z M 33.113281 205.929688 C 34.867188 205.929688 36.289062 207.347656 36.289062 209.09375 C 36.289062 210.835938 34.867188 212.253906 33.113281 212.253906 C 31.363281 212.253906 29.941406 210.835938 29.941406 209.09375 C 29.941406 207.347656 31.363281 205.929688 33.113281 205.929688 Z M 33.113281 218.734375 C 34.867188 218.734375 36.289062 220.152344 36.289062 221.898438 C 36.289062 223.644531 34.867188 225.058594 33.113281 225.058594 C 31.363281 225.058594 29.941406 223.644531 29.941406 221.898438 C 29.941406 220.152344 31.363281 218.734375 33.113281 218.734375 Z M 33.113281 231.539062 C 34.867188 231.539062 36.289062 232.957031 36.289062 234.703125 C 36.289062 236.449219 34.867188 237.863281 33.113281 237.863281 C 31.363281 237.863281 29.941406 236.449219 29.941406 234.703125 C 29.941406 232.957031 31.363281 231.539062 33.113281 231.539062 Z M 33.113281 244.347656 C 34.867188 244.347656 36.289062 245.761719 36.289062 247.507812 C 36.289062 249.253906 34.867188 250.667969 33.113281 250.667969 C 31.363281 250.667969 29.941406 249.253906 29.941406 247.507812 C 29.941406 245.761719 31.363281 244.347656 33.113281 244.347656 Z M 33.113281 257.152344 C 34.867188 257.152344 36.289062 258.566406 36.289062 260.3125 C 36.289062 262.058594 34.867188 263.472656 33.113281 263.472656 C 31.363281 263.472656 29.941406 262.058594 29.941406 260.3125 C 29.941406 258.566406 31.363281 257.152344 33.113281 257.152344 Z M 33.113281 269.957031 C 34.867188 269.957031 36.289062 271.371094 36.289062 273.117188 C 36.289062 274.863281 34.867188 276.277344 33.113281 276.277344 C 31.363281 276.277344 29.941406 274.863281 29.941406 273.117188 C 29.941406 271.371094 31.363281 269.957031 33.113281 269.957031 Z M 33.113281 269.957031 " fill-opacity="1" fill-rule="nonzero"/></g><g clip-path="url(#19bb32b9d8)"><path fill="#000000" d="M 48 1.046875 C 49.75 1.046875 51.171875 2.464844 51.171875 4.210938 C 51.171875 5.957031 49.75 7.371094 48 7.371094 C 46.246094 7.371094 44.824219 5.957031 44.824219 4.210938 C 44.824219 2.464844 46.246094 1.046875 48 1.046875 Z M 48 13.851562 C 49.75 13.851562 51.171875 15.269531 51.171875 17.015625 C 51.171875 18.761719 49.75 20.175781 48 20.175781 C 46.246094 20.175781 44.824219 18.761719 44.824219 17.015625 C 44.824219 15.269531 46.246094 13.851562 48 13.851562 Z M 48 26.65625 C 49.75 26.65625 51.171875 28.074219 51.171875 29.820312 C 51.171875 31.566406 49.75 32.980469 48 32.980469 C 46.246094 32.980469 44.824219 31.566406 44.824219 29.820312 C 44.824219 28.074219 46.246094 26.65625 48 26.65625 Z M 48 39.464844 C 49.75 39.464844 51.171875 40.878906 51.171875 42.625 C 51.171875 44.371094 49.75 45.785156 48 45.785156 C 46.246094 45.785156 44.824219 44.371094 44.824219 42.625 C 44.824219 40.878906 46.246094 39.464844 48 39.464844 Z M 48 52.269531 C 49.75 52.269531 51.171875 53.683594 51.171875 55.429688 C 51.171875 57.175781 49.75 58.589844 48 58.589844 C 46.246094 58.589844 44.824219 57.175781 44.824219 55.429688 C 44.824219 53.683594 46.246094 52.269531 48 52.269531 Z M 48 65.074219 C 49.75 65.074219 51.171875 66.488281 51.171875 68.234375 C 51.171875 69.980469 49.75 71.394531 48 71.394531 C 46.246094 71.394531 44.824219 69.980469 44.824219 68.234375 C 44.824219 66.488281 46.246094 65.074219 48 65.074219 Z M 48 77.878906 C 49.75 77.878906 51.171875 79.292969 51.171875 81.039062 C 51.171875 82.785156 49.75 84.203125 48 84.203125 C 46.246094 84.203125 44.824219 82.785156 44.824219 81.039062 C 44.824219 79.292969 46.246094 77.878906 48 77.878906 Z M 48 90.683594 C 49.75 90.683594 51.171875 92.097656 51.171875 93.84375 C 51.171875 95.589844 49.75 97.007812 48 97.007812 C 46.246094 97.007812 44.824219 95.589844 44.824219 93.84375 C 44.824219 92.097656 46.246094 90.683594 48 90.683594 Z M 48 103.488281 C 49.75 103.488281 51.171875 104.90625 51.171875 106.652344 C 51.171875 108.398438 49.75 109.8125 48 109.8125 C 46.246094 109.8125 44.824219 108.398438 44.824219 106.652344 C 44.824219 104.90625 46.246094 103.488281 48 103.488281 Z M 48 116.292969 C 49.75 116.292969 51.171875 117.710938 51.171875 119.457031 C 51.171875 121.203125 49.75 122.617188 48 122.617188 C 46.246094 122.617188 44.824219 121.203125 44.824219 119.457031 C 44.824219 117.710938 46.246094 116.292969 48 116.292969 Z M 48 129.097656 C 49.75 129.097656 51.171875 130.515625 51.171875 132.261719 C 51.171875 134.007812 49.75 135.421875 48 135.421875 C 46.246094 135.421875 44.824219 134.007812 44.824219 132.261719 C 44.824219 130.515625 46.246094 129.097656 48 129.097656 Z M 48 141.90625 C 49.75 141.90625 51.171875 143.320312 51.171875 145.066406 C 51.171875 146.8125 49.75 148.226562 48 148.226562 C 46.246094 148.226562 44.824219 146.8125 44.824219 145.066406 C 44.824219 143.320312 46.246094 141.90625 48 141.90625 Z M 48 154.710938 C 49.75 154.710938 51.171875 156.125 51.171875 157.871094 C 51.171875 159.617188 49.75 161.03125 48 161.03125 C 46.246094 161.03125 44.824219 159.617188 44.824219 157.871094 C 44.824219 156.125 46.246094 154.710938 48 154.710938 Z M 48 167.515625 C 49.75 167.515625 51.171875 168.929688 51.171875 170.675781 C 51.171875 172.421875 49.75 173.835938 48 173.835938 C 46.246094 173.835938 44.824219 172.421875 44.824219 170.675781 C 44.824219 168.929688 46.246094 167.515625 48 167.515625 Z M 48 180.320312 C 49.75 180.320312 51.171875 181.734375 51.171875 183.480469 C 51.171875 185.226562 49.75 186.644531 48 186.644531 C 46.246094 186.644531 44.824219 185.226562 44.824219 183.480469 C 44.824219 181.734375 46.246094 180.320312 48 180.320312 Z M 48 193.125 C 49.75 193.125 51.171875 194.539062 51.171875 196.285156 C 51.171875 198.03125 49.75 199.449219 48 199.449219 C 46.246094 199.449219 44.824219 198.03125 44.824219 196.285156 C 44.824219 194.539062 46.246094 193.125 48 193.125 Z M 48 205.929688 C 49.75 205.929688 51.171875 207.347656 51.171875 209.09375 C 51.171875 210.835938 49.75 212.253906 48 212.253906 C 46.246094 212.253906 44.824219 210.835938 44.824219 209.09375 C 44.824219 207.347656 46.246094 205.929688 48 205.929688 Z M 48 218.734375 C 49.75 218.734375 51.171875 220.152344 51.171875 221.898438 C 51.171875 223.644531 49.75 225.058594 48 225.058594 C 46.246094 225.058594 44.824219 223.644531 44.824219 221.898438 C 44.824219 220.152344 46.246094 218.734375 48 218.734375 Z M 48 231.539062 C 49.75 231.539062 51.171875 232.957031 51.171875 234.703125 C 51.171875 236.449219 49.75 237.863281 48 237.863281 C 46.246094 237.863281 44.824219 236.449219 44.824219 234.703125 C 44.824219 232.957031 46.246094 231.539062 48 231.539062 Z M 48 244.347656 C 49.75 244.347656 51.171875 245.761719 51.171875 247.507812 C 51.171875 249.253906 49.75 250.667969 48 250.667969 C 46.246094 250.667969 44.824219 249.253906 44.824219 247.507812 C 44.824219 245.761719 46.246094 244.347656 48 244.347656 Z M 48 257.152344 C 49.75 257.152344 51.171875 258.566406 51.171875 260.3125 C 51.171875 262.058594 49.75 263.472656 48 263.472656 C 46.246094 263.472656 44.824219 262.058594 44.824219 260.3125 C 44.824219 258.566406 46.246094 257.152344 48 257.152344 Z M 48 269.957031 C 49.75 269.957031 51.171875 271.371094 51.171875 273.117188 C 51.171875 274.863281 49.75 276.277344 48 276.277344 C 46.246094 276.277344 44.824219 274.863281 44.824219 273.117188 C 44.824219 271.371094 46.246094 269.957031 48 269.957031 Z M 48 269.957031 " fill-opacity="1" fill-rule="nonzero"/></g></g></g></g><g clip-path="url(#c79c293f8a)"><path fill="#0bb851" d="M 121.441406 3.601562 L 173.949219 3.601562 L 173.949219 19.175781 L 121.441406 19.175781 Z M 121.441406 3.601562 " fill-opacity="1" fill-rule="nonzero"/></g></svg>