<svg xmlns="http://www.w3.org/2000/svg" xmlns:xlink="http://www.w3.org/1999/xlink" width="400" zoomAndPan="magnify" viewBox="0 0 300 299.999988" height="400" preserveAspectRatio="xMidYMid meet" version="1.0"><defs><filter x="0%" y="0%" width="100%" height="100%" id="1b25cddaa8"><feColorMatrix values="0 0 0 0 1 0 0 0 0 1 0 0 0 0 1 0 0 0 1 0" color-interpolation-filters="sRGB"/></filter><mask id="cd4df7413a"><g filter="url(#1b25cddaa8)"><rect x="-30" width="360" fill="#000000" y="-29.999999" height="359.999986" fill-opacity="0.7"/></g></mask><clipPath id="eaf142f63a"><path d="M 34 29 L 49.121094 29 L 49.121094 44 L 34 44 Z M 34 29 " clip-rule="nonzero"/></clipPath><clipPath id="bcaea91836"><path d="M 1.121094 37 L 15 37 L 15 51 L 1.121094 51 Z M 1.121094 37 " clip-rule="nonzero"/></clipPath><clipPath id="7987c22606"><path d="M 1.121094 11 L 16 11 L 16 27 L 1.121094 27 Z M 1.121094 11 " clip-rule="nonzero"/></clipPath><clipPath id="4e0d4d423d"><rect x="0" width="50" y="0" height="300"/></clipPath></defs><g mask="url(#cd4df7413a)"><g transform="matrix(1, 0, 0, 1, 125, 0)"><g clip-path="url(#4e0d4d423d)"><path fill="#0bb851" d="M 44.203125 288.261719 L 43.035156 287.097656 L 44.203125 285.933594 L 45.367188 287.097656 Z M 44.203125 288.261719 " fill-opacity="1" fill-rule="evenodd"/><path fill="#0bb851" d="M 44.179688 263.933594 C 43.359375 263.113281 43.359375 263.113281 42.539062 262.296875 C 43.359375 261.476562 43.359375 261.476562 44.179688 260.65625 C 44.996094 261.476562 44.996094 261.476562 45.816406 262.296875 C 44.996094 263.113281 44.996094 263.113281 44.179688 263.933594 Z M 44.179688 263.933594 " fill-opacity="1" fill-rule="evenodd"/><path fill="#0bb851" d="M 43.359375 239.34375 C 42.539062 238.523438 41.71875 237.703125 40.898438 236.886719 C 41.71875 236.066406 42.539062 235.246094 43.359375 234.425781 C 44.179688 235.246094 44.996094 236.066406 45.816406 236.886719 C 44.996094 237.703125 44.179688 238.523438 43.359375 239.34375 Z M 43.359375 239.34375 " fill-opacity="1" fill-rule="evenodd"/><path fill="#0bb851" d="M 43.359375 214.753906 C 42.539062 213.933594 41.71875 213.113281 40.078125 211.476562 C 40.898438 210.65625 41.71875 209.835938 43.359375 208.195312 C 44.179688 209.015625 44.996094 209.835938 46.636719 211.476562 C 45.816406 212.296875 44.996094 213.113281 43.359375 214.753906 Z M 43.359375 214.753906 " fill-opacity="1" fill-rule="evenodd"/><path fill="#0bb851" d="M 43.359375 190.164062 C 42.539062 189.34375 40.898438 187.703125 40.078125 186.886719 C 40.898438 186.066406 42.539062 184.425781 43.359375 183.605469 C 44.179688 184.425781 45.816406 186.066406 46.636719 186.886719 C 45.816406 187.703125 44.179688 189.34375 43.359375 190.164062 Z M 43.359375 190.164062 " fill-opacity="1" fill-rule="evenodd"/><path fill="#0bb851" d="M 43.359375 165.574219 C 41.71875 163.933594 40.898438 163.113281 39.261719 161.476562 C 40.898438 159.835938 41.71875 159.015625 43.359375 157.378906 C 44.996094 159.015625 45.816406 159.835938 47.457031 161.476562 C 45.816406 163.113281 44.996094 163.933594 43.359375 165.574219 Z M 43.359375 165.574219 " fill-opacity="1" fill-rule="evenodd"/><path fill="#0bb851" d="M 42.539062 141.804688 C 40.898438 140.164062 39.261719 138.523438 37.621094 136.886719 C 39.261719 135.246094 40.898438 133.605469 42.539062 131.96875 C 44.179688 133.605469 45.816406 135.246094 47.457031 136.886719 C 45.816406 138.523438 44.179688 140.164062 42.539062 141.804688 Z M 42.539062 141.804688 " fill-opacity="1" fill-rule="evenodd"/><path fill="#0bb851" d="M 42.539062 117.214844 C 40.898438 115.574219 39.261719 113.933594 36.800781 111.476562 C 38.441406 109.835938 40.078125 108.195312 42.539062 105.738281 C 44.179688 107.378906 45.816406 109.015625 48.277344 111.476562 C 46.636719 113.113281 44.996094 114.753906 42.539062 117.214844 Z M 42.539062 117.214844 " fill-opacity="1" fill-rule="evenodd"/><path fill="#0bb851" d="M 42.539062 92.621094 C 40.898438 90.984375 38.441406 88.523438 36.800781 86.886719 C 38.441406 85.246094 40.898438 82.785156 42.539062 81.148438 C 44.179688 82.785156 46.636719 85.246094 48.277344 86.886719 C 46.636719 88.523438 44.179688 90.984375 42.539062 92.621094 Z M 42.539062 92.621094 " fill-opacity="1" fill-rule="evenodd"/><path fill="#0bb851" d="M 41.71875 68.03125 C 39.261719 65.574219 37.621094 63.933594 35.160156 61.476562 C 37.621094 59.015625 39.261719 57.378906 41.71875 54.917969 C 44.179688 57.378906 45.816406 59.015625 48.277344 61.476562 C 45.816406 63.933594 44.179688 65.574219 41.71875 68.03125 Z M 41.71875 68.03125 " fill-opacity="1" fill-rule="evenodd"/><g clip-path="url(#eaf142f63a)"><path fill="#0bb851" d="M 41.78125 43.59375 L 34.503906 36.316406 L 41.78125 29.039062 L 49.058594 36.316406 Z M 41.78125 43.59375 " fill-opacity="1" fill-rule="evenodd"/></g><path fill="#0bb851" d="M 32.871094 300 L 31.707031 298.835938 L 32.871094 297.671875 L 34.035156 298.835938 Z M 32.871094 300 " fill-opacity="1" fill-rule="evenodd"/><path fill="#0bb851" d="M 32.703125 275.410156 C 31.882812 274.589844 31.882812 274.589844 31.0625 273.769531 C 31.882812 272.949219 31.882812 272.949219 32.703125 272.132812 C 33.523438 272.949219 33.523438 272.949219 34.34375 273.769531 C 33.523438 274.589844 33.523438 274.589844 32.703125 275.410156 Z M 32.703125 275.410156 " fill-opacity="1" fill-rule="evenodd"/><path fill="#0bb851" d="M 32.703125 250.820312 C 31.882812 250 31.0625 249.179688 30.242188 248.359375 C 31.0625 247.539062 31.882812 246.722656 32.703125 245.902344 C 33.523438 246.722656 34.34375 247.539062 35.160156 248.359375 C 34.34375 249.179688 33.523438 250 32.703125 250.820312 Z M 32.703125 250.820312 " fill-opacity="1" fill-rule="evenodd"/><path fill="#0bb851" d="M 31.882812 226.230469 C 31.0625 225.410156 30.242188 224.589844 28.605469 222.949219 C 29.425781 222.132812 30.242188 221.3125 31.882812 219.671875 C 32.703125 220.492188 33.523438 221.3125 35.160156 222.949219 C 34.34375 223.769531 33.523438 224.589844 31.882812 226.230469 Z M 31.882812 226.230469 " fill-opacity="1" fill-rule="evenodd"/><path fill="#0bb851" d="M 31.882812 202.460938 C 31.0625 201.640625 29.425781 200 28.605469 199.179688 C 29.425781 198.359375 31.0625 196.722656 31.882812 195.902344 C 32.703125 196.722656 34.34375 198.359375 35.160156 199.179688 C 34.34375 200 32.703125 201.640625 31.882812 202.460938 Z M 31.882812 202.460938 " fill-opacity="1" fill-rule="evenodd"/><path fill="#0bb851" d="M 31.882812 177.867188 C 30.242188 176.230469 29.425781 175.410156 27.785156 173.769531 C 29.425781 172.132812 30.242188 171.3125 31.882812 169.671875 C 33.523438 171.3125 34.34375 172.132812 35.980469 173.769531 C 34.34375 175.410156 33.523438 176.230469 31.882812 177.867188 Z M 31.882812 177.867188 " fill-opacity="1" fill-rule="evenodd"/><path fill="#0bb851" d="M 31.0625 153.277344 C 29.425781 151.640625 27.785156 150 26.144531 148.359375 C 27.785156 146.722656 29.425781 145.082031 31.0625 143.441406 C 32.703125 145.082031 34.34375 146.722656 35.980469 148.359375 C 34.34375 150 32.703125 151.640625 31.0625 153.277344 Z M 31.0625 153.277344 " fill-opacity="1" fill-rule="evenodd"/><path fill="#0bb851" d="M 31.0625 128.6875 C 29.425781 127.050781 27.785156 125.410156 25.324219 122.949219 C 26.964844 121.3125 28.605469 119.671875 31.0625 117.214844 C 32.703125 118.851562 34.34375 120.492188 36.800781 122.949219 C 35.160156 124.589844 33.523438 126.230469 31.0625 128.6875 Z M 31.0625 128.6875 " fill-opacity="1" fill-rule="evenodd"/><path fill="#0bb851" d="M 31.0625 104.097656 C 29.425781 102.460938 26.964844 100 25.324219 98.359375 C 26.964844 96.722656 29.425781 94.261719 31.0625 92.621094 C 32.703125 94.261719 35.160156 96.722656 36.800781 98.359375 C 35.160156 100 32.703125 102.460938 31.0625 104.097656 Z M 31.0625 104.097656 " fill-opacity="1" fill-rule="evenodd"/><path fill="#0bb851" d="M 31.0625 79.507812 C 28.605469 77.050781 26.964844 75.410156 24.507812 72.949219 C 26.964844 70.492188 28.605469 68.851562 31.0625 66.394531 C 33.523438 68.851562 35.160156 70.492188 37.621094 72.949219 C 35.160156 75.410156 33.523438 77.050781 31.0625 79.507812 Z M 31.0625 79.507812 " fill-opacity="1" fill-rule="evenodd"/><path fill="#0bb851" d="M 30.449219 55.332031 L 23.171875 48.054688 L 30.449219 40.777344 L 37.726562 48.054688 Z M 30.449219 55.332031 " fill-opacity="1" fill-rule="evenodd"/><path fill="#0bb851" d="M 21.875 259.238281 L 20.710938 258.074219 L 21.875 256.910156 L 23.039062 258.074219 Z M 21.875 259.238281 " fill-opacity="1" fill-rule="evenodd"/><path fill="#0bb851" d="M 21.226562 234.425781 C 20.40625 233.605469 20.40625 233.605469 19.589844 232.785156 C 20.40625 231.96875 20.40625 231.96875 21.226562 231.148438 C 22.046875 231.96875 22.046875 231.96875 22.867188 232.785156 C 22.046875 233.605469 22.046875 233.605469 21.226562 234.425781 Z M 21.226562 234.425781 " fill-opacity="1" fill-rule="evenodd"/><path fill="#0bb851" d="M 21.226562 210.65625 C 20.40625 209.835938 19.589844 209.015625 18.769531 208.195312 C 19.589844 207.378906 20.40625 206.558594 21.226562 205.738281 C 22.046875 206.558594 22.867188 207.378906 23.6875 208.195312 C 22.867188 209.015625 22.046875 209.835938 21.226562 210.65625 Z M 21.226562 210.65625 " fill-opacity="1" fill-rule="evenodd"/><path fill="#0bb851" d="M 21.226562 186.066406 C 20.40625 185.246094 19.589844 184.425781 17.949219 182.785156 C 18.769531 181.96875 19.589844 181.148438 21.226562 179.507812 C 22.046875 180.328125 22.867188 181.148438 24.507812 182.785156 C 23.6875 183.605469 22.867188 184.425781 21.226562 186.066406 Z M 21.226562 186.066406 " fill-opacity="1" fill-rule="evenodd"/><path fill="#0bb851" d="M 21.226562 161.476562 C 20.40625 160.65625 18.769531 159.015625 17.949219 158.195312 C 18.769531 157.378906 20.40625 155.738281 21.226562 154.917969 C 22.046875 155.738281 23.6875 157.378906 24.507812 158.195312 C 23.6875 159.015625 22.046875 160.65625 21.226562 161.476562 Z M 21.226562 161.476562 " fill-opacity="1" fill-rule="evenodd"/><path fill="#0bb851" d="M 20.40625 136.886719 C 18.769531 135.246094 17.949219 134.425781 16.308594 132.785156 C 17.949219 131.148438 18.769531 130.328125 20.40625 128.6875 C 22.046875 130.328125 22.867188 131.148438 24.507812 132.785156 C 22.867188 134.425781 22.046875 135.246094 20.40625 136.886719 Z M 20.40625 136.886719 " fill-opacity="1" fill-rule="evenodd"/><path fill="#0bb851" d="M 20.40625 112.296875 C 18.769531 110.65625 17.128906 109.015625 15.488281 107.378906 C 17.128906 105.738281 18.769531 104.097656 20.40625 102.460938 C 22.046875 104.097656 23.6875 105.738281 25.324219 107.378906 C 23.6875 109.015625 22.046875 110.65625 20.40625 112.296875 Z M 20.40625 112.296875 " fill-opacity="1" fill-rule="evenodd"/><path fill="#0bb851" d="M 20.40625 87.703125 C 18.769531 86.066406 17.128906 84.425781 14.671875 81.96875 C 16.308594 80.328125 17.949219 78.6875 20.40625 76.230469 C 22.046875 77.867188 23.6875 79.507812 26.144531 81.96875 C 24.507812 83.605469 22.867188 85.246094 20.40625 87.703125 Z M 20.40625 87.703125 " fill-opacity="1" fill-rule="evenodd"/><path fill="#0bb851" d="M 19.589844 63.113281 C 17.949219 61.476562 15.488281 59.015625 13.851562 57.378906 C 15.488281 55.738281 17.949219 53.277344 19.589844 51.640625 C 21.226562 53.277344 23.6875 55.738281 25.324219 57.378906 C 23.6875 59.015625 21.226562 61.476562 19.589844 63.113281 Z M 19.589844 63.113281 " fill-opacity="1" fill-rule="evenodd"/><path fill="#0bb851" d="M 19.589844 39.34375 C 17.128906 36.886719 15.488281 35.246094 13.03125 32.785156 C 15.488281 30.328125 17.128906 28.6875 19.589844 26.230469 C 22.046875 28.6875 23.6875 30.328125 26.144531 32.785156 C 23.6875 35.246094 22.046875 36.886719 19.589844 39.34375 Z M 19.589844 39.34375 " fill-opacity="1" fill-rule="evenodd"/><path fill="#0bb851" d="M 19.457031 14.574219 L 12.179688 7.296875 L 19.457031 0.0195312 L 26.734375 7.296875 Z M 19.457031 14.574219 " fill-opacity="1" fill-rule="evenodd"/><path fill="#0bb851" d="M 10.542969 270.976562 L 9.378906 269.808594 L 10.542969 268.644531 L 11.707031 269.808594 Z M 10.542969 270.976562 " fill-opacity="1" fill-rule="evenodd"/><path fill="#0bb851" d="M 10.570312 246.722656 C 9.753906 245.902344 9.753906 245.902344 8.933594 245.082031 C 9.753906 244.261719 9.753906 244.261719 10.570312 243.441406 C 11.390625 244.261719 11.390625 244.261719 12.210938 245.082031 C 11.390625 245.902344 11.390625 245.902344 10.570312 246.722656 Z M 10.570312 246.722656 " fill-opacity="1" fill-rule="evenodd"/><path fill="#0bb851" d="M 9.753906 222.132812 C 8.933594 221.3125 8.113281 220.492188 7.292969 219.671875 C 8.113281 218.851562 8.933594 218.03125 9.753906 217.214844 C 10.570312 218.03125 11.390625 218.851562 12.210938 219.671875 C 11.390625 220.492188 10.570312 221.3125 9.753906 222.132812 Z M 9.753906 222.132812 " fill-opacity="1" fill-rule="evenodd"/><path fill="#0bb851" d="M 9.753906 197.539062 C 8.933594 196.722656 8.113281 195.902344 6.472656 194.261719 C 7.292969 193.441406 8.113281 192.621094 9.753906 190.984375 C 10.570312 191.804688 11.390625 192.621094 13.03125 194.261719 C 12.210938 195.082031 11.390625 195.902344 9.753906 197.539062 Z M 9.753906 197.539062 " fill-opacity="1" fill-rule="evenodd"/><path fill="#0bb851" d="M 9.753906 172.949219 C 8.933594 172.132812 7.292969 170.492188 6.472656 169.671875 C 7.292969 168.851562 8.933594 167.214844 9.753906 166.394531 C 10.570312 167.214844 12.210938 168.851562 13.03125 169.671875 C 12.210938 170.492188 10.570312 172.132812 9.753906 172.949219 Z M 9.753906 172.949219 " fill-opacity="1" fill-rule="evenodd"/><path fill="#0bb851" d="M 8.933594 148.359375 C 7.292969 146.722656 6.472656 145.902344 4.835938 144.261719 C 6.472656 142.621094 7.292969 141.804688 8.933594 140.164062 C 10.570312 141.804688 11.390625 142.621094 13.03125 144.261719 C 11.390625 145.902344 10.570312 146.722656 8.933594 148.359375 Z M 8.933594 148.359375 " fill-opacity="1" fill-rule="evenodd"/><path fill="#0bb851" d="M 8.933594 123.769531 C 7.292969 122.132812 5.652344 120.492188 4.015625 118.851562 C 5.652344 117.214844 7.292969 115.574219 8.933594 113.933594 C 10.570312 115.574219 12.210938 117.214844 13.851562 118.851562 C 12.210938 120.492188 10.570312 122.132812 8.933594 123.769531 Z M 8.933594 123.769531 " fill-opacity="1" fill-rule="evenodd"/><path fill="#0bb851" d="M 8.933594 100 C 7.292969 98.359375 5.652344 96.722656 3.195312 94.261719 C 4.835938 92.621094 6.472656 90.984375 8.933594 88.523438 C 10.570312 90.164062 12.210938 91.804688 14.671875 94.261719 C 13.03125 95.902344 11.390625 97.539062 8.933594 100 Z M 8.933594 100 " fill-opacity="1" fill-rule="evenodd"/><path fill="#0bb851" d="M 8.933594 75.410156 C 7.292969 73.769531 4.835938 71.3125 3.195312 69.671875 C 4.835938 68.03125 7.292969 65.574219 8.933594 63.933594 C 10.570312 65.574219 13.03125 68.03125 14.671875 69.671875 C 13.03125 71.3125 10.570312 73.769531 8.933594 75.410156 Z M 8.933594 75.410156 " fill-opacity="1" fill-rule="evenodd"/><g clip-path="url(#bcaea91836)"><path fill="#0bb851" d="M 8.113281 50.820312 C 5.652344 48.359375 4.015625 46.722656 1.554688 44.261719 C 4.015625 41.804688 5.652344 40.164062 8.113281 37.703125 C 10.570312 40.164062 12.210938 41.804688 14.671875 44.261719 C 12.210938 46.722656 10.570312 48.359375 8.113281 50.820312 Z M 8.113281 50.820312 " fill-opacity="1" fill-rule="evenodd"/></g><g clip-path="url(#7987c22606)"><path fill="#0bb851" d="M 8.125 26.308594 L 0.847656 19.03125 L 8.125 11.753906 L 15.402344 19.03125 Z M 8.125 26.308594 " fill-opacity="1" fill-rule="evenodd"/></g></g></g></g></svg>