<svg xmlns="http://www.w3.org/2000/svg" xmlns:xlink="http://www.w3.org/1999/xlink" width="192" zoomAndPan="magnify" viewBox="0 0 144 143.999998" height="192" preserveAspectRatio="xMidYMid meet" version="1.0"><defs><clipPath id="cbc42be0a7"><path d="M 21.519531 14.398438 L 122.769531 14.398438 L 122.769531 129.898438 L 21.519531 129.898438 Z M 21.519531 14.398438 " clip-rule="nonzero"/></clipPath><clipPath id="778c1b4f4e"><path d="M 21.519531 14.398438 L 122.769531 14.398438 L 122.769531 129.898438 L 21.519531 129.898438 Z M 21.519531 14.398438 " clip-rule="nonzero"/></clipPath></defs><g clip-path="url(#cbc42be0a7)"><path fill="#f5f6f7" d="M 100.570312 39.730469 L 100.570312 38.160156 L 97.199219 38.160156 C 96.925781 36.910156 96.429688 35.746094 95.761719 34.699219 L 98.148438 32.3125 L 94.894531 29.058594 L 92.507812 31.445312 C 91.460938 30.777344 90.296875 30.28125 89.046875 30.007812 L 89.046875 26.636719 L 84.441406 26.636719 L 84.441406 30.007812 C 83.191406 30.28125 82.027344 30.777344 80.980469 31.445312 L 78.59375 29.058594 L 75.335938 32.3125 L 77.726562 34.699219 C 77.058594 35.746094 76.5625 36.910156 76.289062 38.160156 L 72.914062 38.160156 L 72.914062 42.765625 L 76.289062 42.765625 C 76.5625 44.015625 77.058594 45.179688 77.726562 46.226562 L 75.335938 48.613281 L 78.59375 51.871094 L 80.980469 49.480469 C 81.964844 50.117188 83.191406 50.644531 84.441406 50.917969 L 84.441406 54.292969 L 85.976562 54.292969 L 85.976562 85.65625 L 119.207031 85.65625 L 119.207031 82.441406 L 119.265625 82.519531 L 122.347656 82.519531 L 122.347656 39.730469 Z M 89.152344 42.871094 L 85.976562 42.871094 L 85.976562 47.417969 C 82.476562 47.035156 79.746094 44.0625 79.746094 40.464844 C 79.746094 36.605469 82.886719 33.464844 86.742188 33.464844 C 90.355469 33.464844 93.335938 36.214844 93.703125 39.730469 L 89.117188 39.730469 L 89.117188 42.824219 Z M 53.496094 115.992188 C 53.496094 115.992188 53.515625 115.914062 53.390625 115.507812 C 54.164062 114.105469 51.109375 111.605469 49.125 110.980469 C 47.140625 110.355469 46.050781 110.492188 46.050781 110.492188 C 46.050781 110.492188 42.382812 105.011719 41.433594 102.800781 C 41.152344 102.136719 42.839844 100.621094 42.839844 100.621094 L 38.324219 95.738281 C 36.429688 97.671875 35.269531 100.21875 35.152344 101.851562 C 35.015625 103.703125 36.285156 106.703125 38.097656 109.261719 C 40.101562 112.089844 42.101562 114.53125 42.101562 114.53125 C 42.101562 114.53125 42.769531 113.746094 43.167969 113.523438 C 43.582031 113.9375 43.800781 114.308594 44.585938 114.621094 C 45.945312 115.160156 47.171875 114.980469 47.171875 114.980469 L 48.542969 116.085938 L 47.226562 116.109375 C 46.992188 120.5 46.890625 121.480469 47.160156 129.460938 L 47.417969 129.484375 L 66.316406 129.390625 L 66.363281 115.9375 L 64.863281 115.773438 Z M 36.695312 77.226562 C 36.695312 73.074219 33.328125 69.707031 29.175781 69.707031 C 25.023438 69.707031 21.65625 73.074219 21.65625 77.226562 C 21.65625 81.378906 25.023438 84.746094 29.175781 84.746094 C 33.328125 84.746094 36.695312 81.378906 36.695312 77.226562 Z M 26.542969 54.671875 L 38.527344 54.671875 L 42.210938 61.839844 L 42.210938 54.671875 L 51.695312 54.671875 C 52.664062 54.671875 53.449219 53.886719 53.449219 52.917969 L 53.449219 44.675781 L 53.484375 44.761719 L 57.148438 44.761719 C 57.335938 44.761719 57.484375 44.613281 57.484375 44.425781 L 57.484375 29.222656 L 60.382812 29.222656 C 60.664062 29.222656 60.820312 28.898438 60.644531 28.679688 L 53.535156 19.800781 C 53.402344 19.632812 53.144531 19.632812 53.011719 19.800781 L 45.902344 28.679688 C 45.726562 28.898438 45.882812 29.222656 46.164062 29.222656 L 49.0625 29.222656 L 49.0625 33.386719 L 49.089844 33.457031 L 26.542969 33.457031 C 25.570312 33.457031 24.785156 34.242188 24.785156 35.210938 L 24.785156 52.917969 C 24.785156 53.886719 25.570312 54.671875 26.542969 54.671875 Z M 69.464844 54.933594 C 65.816406 54.933594 62.859375 57.890625 62.859375 61.535156 C 62.859375 65.183594 65.816406 68.140625 69.464844 68.140625 C 73.109375 68.140625 76.066406 65.183594 76.066406 61.535156 C 76.066406 57.890625 73.109375 54.933594 69.464844 54.933594 Z M 64.480469 81.546875 C 64.199219 81.511719 62.652344 83.003906 62.707031 83.53125 C 62.195312 83.777344 62.003906 84.25 62.476562 84.636719 C 61.863281 84.761719 61.863281 84.9375 61.878906 85.304688 C 61.898438 85.675781 62.390625 85.832031 62.390625 85.832031 C 62.390625 85.832031 61.949219 86.304688 62.355469 86.921875 C 62.757812 87.535156 64.214844 87.414062 64.214844 87.414062 C 64.214844 87.414062 64.285156 88.992188 65.621094 89.1875 C 69.203125 87.519531 69.238281 87.273438 69.238281 87.273438 C 69.238281 87.273438 68.027344 83.390625 67.796875 83.164062 C 67.570312 82.933594 65.410156 81.617188 64.480469 81.546875 Z M 63.53125 74.0625 C 63.003906 71.234375 60.808594 69.972656 56.136719 70.304688 C 51.464844 70.640625 50.253906 73.203125 50.058594 76.066406 C 49.867188 78.929688 51.515625 83.425781 49.425781 85.953125 C 50.726562 85.988281 54.433594 85.972656 54.433594 85.972656 L 54.363281 86.710938 C 54.363281 86.710938 54.800781 89.117188 56.839844 89.222656 C 58.875 89.328125 59.070312 88.359375 59.070312 86.832031 L 59.175781 83.828125 C 59.175781 83.828125 61.210938 84.003906 61.984375 83.40625 C 62.757812 82.8125 62.863281 80.210938 62.863281 80.210938 C 62.863281 80.210938 63.777344 79.859375 63.722656 79.296875 C 63.671875 78.734375 62.722656 77.824219 62.722656 77.824219 C 62.722656 77.824219 64.058594 76.890625 63.53125 74.0625 Z M 73.660156 14.597656 L 74.054688 16.375 C 74.144531 16.777344 74.382812 17.09375 74.6875 17.210938 L 76.035156 17.726562 L 74.6875 18.246094 C 74.382812 18.363281 74.144531 18.679688 74.054688 19.082031 L 73.660156 20.859375 L 73.269531 19.082031 C 73.179688 18.679688 72.941406 18.363281 72.632812 18.246094 L 71.285156 17.726562 L 72.632812 17.210938 C 72.941406 17.09375 73.179688 16.777344 73.269531 16.375 Z M 73.660156 14.597656 " fill-opacity="1" fill-rule="nonzero"/></g><path fill="#0bb851" d="M 29.710938 81.421875 L 28.609375 81.421875 L 28.609375 75.023438 L 29.710938 75.023438 Z M 110.683594 83.777344 L 113.28125 89.617188 C 113.550781 90.21875 114.253906 90.488281 114.855469 90.222656 C 115.457031 89.953125 115.726562 89.25 115.460938 88.648438 L 112.863281 82.808594 Z M 68.691406 63.34375 C 68.691406 62.195312 69.109375 61.652344 69.496094 61.160156 C 69.847656 60.71875 70.167969 60.289062 70.167969 59.503906 C 70.167969 58.945312 69.90625 58.640625 69.441406 58.640625 C 68.972656 58.640625 68.714844 58.945312 68.714844 59.503906 L 68.714844 59.980469 L 67.554688 59.980469 L 67.554688 59.59375 C 67.554688 58.296875 68.257812 57.503906 69.453125 57.503906 C 70.644531 57.503906 71.371094 58.242188 71.371094 59.46875 C 71.371094 60.527344 70.917969 61.105469 70.472656 61.640625 C 70.089844 62.105469 69.714844 62.570312 69.714844 63.34375 L 69.714844 63.527344 L 68.691406 63.527344 Z M 68.597656 64.367188 L 69.804688 64.367188 L 69.804688 65.570312 L 68.597656 65.570312 Z M 114.148438 51.058594 C 114.148438 51.320312 113.9375 51.53125 113.679688 51.53125 C 113.417969 51.53125 113.207031 51.320312 113.207031 51.058594 C 113.207031 50.800781 113.417969 50.589844 113.679688 50.589844 C 113.9375 50.589844 114.148438 50.800781 114.148438 51.058594 Z M 107.765625 58.121094 C 107.761719 58.375 107.550781 58.585938 107.296875 58.589844 C 107.035156 58.59375 106.824219 58.378906 106.824219 58.121094 C 106.824219 57.859375 107.035156 57.648438 107.296875 57.648438 C 107.554688 57.648438 107.769531 57.859375 107.765625 58.121094 Z M 110.132812 60.601562 C 110.132812 60.863281 109.921875 61.074219 109.664062 61.074219 C 109.402344 61.074219 109.191406 60.863281 109.191406 60.601562 C 109.191406 60.34375 109.402344 60.132812 109.664062 60.132812 C 109.921875 60.132812 110.132812 60.34375 110.132812 60.601562 Z M 105.8125 61.371094 C 105.8125 61.628906 105.601562 61.839844 105.339844 61.839844 C 105.082031 61.839844 104.871094 61.628906 104.871094 61.371094 C 104.871094 61.109375 105.082031 60.898438 105.339844 60.898438 C 105.601562 60.902344 105.8125 61.109375 105.8125 61.371094 Z M 101.667969 53.542969 C 101.667969 53.800781 101.457031 54.011719 101.199219 54.011719 C 100.9375 54.011719 100.726562 53.800781 100.726562 53.542969 C 100.726562 53.28125 100.9375 53.070312 101.199219 53.070312 C 101.457031 53.070312 101.667969 53.28125 101.667969 53.542969 Z M 97.078125 60.371094 C 96.898438 60.558594 96.902344 60.855469 97.089844 61.035156 C 97.277344 61.214844 97.578125 61.210938 97.757812 61.023438 C 97.9375 60.835938 97.929688 60.539062 97.742188 60.359375 C 97.554688 60.175781 97.257812 60.183594 97.078125 60.371094 Z M 95.273438 57.316406 C 95.273438 57.578125 95.0625 57.789062 94.800781 57.789062 C 94.542969 57.789062 94.332031 57.578125 94.332031 57.316406 C 94.332031 57.058594 94.542969 56.847656 94.800781 56.847656 C 95.0625 56.847656 95.273438 57.058594 95.273438 57.316406 Z M 54.316406 86.828125 C 54.316406 86.828125 52.453125 86.792969 50.53125 87.167969 C 48.613281 87.542969 46.328125 88.664062 44.609375 90.011719 C 42.886719 91.359375 39.105469 94.34375 37.230469 97.132812 C 35.359375 99.917969 34.703125 101.699219 35.3125 103.828125 C 35.917969 105.960938 37.136719 108.207031 38.566406 110.175781 C 39.996094 112.144531 42.078125 114.507812 42.078125 114.507812 L 45.941406 110.433594 C 45.941406 110.433594 41.914062 104.390625 41.445312 102.566406 C 41.445312 101.863281 44.351562 98.980469 46.597656 97.484375 C 46.621094 99.144531 46.574219 110.457031 46.574219 110.457031 C 46.574219 110.457031 48.449219 110.597656 49.738281 111.207031 C 51.023438 111.816406 52.546875 113.171875 53.296875 114.132812 C 54.046875 115.09375 53.695312 115.632812 53.179688 115.398438 C 53.296875 115.773438 53.34375 115.984375 53.34375 115.984375 L 66.339844 115.890625 L 66.339844 97.414062 C 66.339844 97.414062 67.746094 101.300781 68.636719 102.917969 C 69.527344 104.53125 70.929688 106.40625 73.554688 105.773438 C 76.175781 105.140625 76.574219 103.101562 76.269531 101.324219 C 75.964844 99.542969 74.257812 95.351562 72.40625 92.144531 C 70.554688 88.933594 69.621094 87.203125 69.621094 87.203125 L 65.496094 89.285156 C 65.496094 89.285156 64.46875 88.792969 64.304688 87.484375 C 63.0625 87.34375 62.40625 87.15625 62.3125 86.945312 C 61.796875 86.921875 59.363281 86.804688 59.058594 86.875 C 58.988281 87.460938 59.035156 89.261719 57.628906 89.285156 C 56.222656 89.308594 54.820312 88.582031 54.316406 86.828125 Z M 33.039062 40.199219 C 33.039062 40.199219 33.601562 39.8125 35.183594 41.921875 C 36.761719 44.03125 37.710938 44.378906 38.554688 43.960938 C 39.398438 43.539062 39.75 42.484375 40.453125 42.484375 C 41.152344 42.484375 41.363281 43.117188 42.136719 43.117188 C 42.910156 43.117188 43.085938 41.640625 43.648438 41.605469 C 44.210938 41.570312 44.667969 43.257812 45.648438 43.046875 C 46.632812 42.835938 47.054688 40.761719 48.003906 40.761719 C 48.953125 40.761719 49.09375 43.398438 49.304688 43.960938 C 49.515625 44.519531 49.445312 47.402344 51.058594 47.332031 C 51.128906 45.644531 51.058594 36.125 51.058594 36.125 L 33.039062 36.125 Z M 33.039062 40.199219 " fill-opacity="1" fill-rule="nonzero"/><g clip-path="url(#778c1b4f4e)"><path fill="#0a0147" d="M 69.757812 87.132812 C 69.71875 87.074219 69.644531 87.050781 69.582031 87.082031 L 69.3125 87.222656 C 69.085938 86.472656 68.164062 83.40625 67.828125 83.039062 C 67.476562 82.652344 64.792969 81.273438 64.359375 81.40625 C 63.996094 81.515625 62.691406 82.871094 62.558594 83.449219 C 62.554688 83.457031 62.558594 83.460938 62.558594 83.46875 C 62.214844 83.578125 62.070312 83.855469 62.054688 84.089844 C 62.042969 84.253906 62.085938 84.402344 62.171875 84.523438 C 62.136719 84.527344 62.105469 84.53125 62.085938 84.539062 C 61.835938 84.605469 61.664062 84.929688 61.683594 85.289062 C 61.699219 85.550781 61.832031 85.839844 62.136719 85.976562 C 62.035156 86.136719 61.980469 86.371094 62.035156 86.609375 C 62.054688 86.691406 62.089844 86.789062 62.15625 86.886719 C 60.558594 86.617188 59.417969 86.691406 59.167969 86.714844 L 59.167969 83.980469 C 59.761719 84.007812 61.761719 84.046875 62.21875 83.359375 C 62.746094 82.570312 62.8125 81.707031 62.886719 80.792969 C 62.898438 80.652344 62.910156 80.507812 62.921875 80.363281 C 63.179688 80.230469 63.984375 79.773438 63.90625 79.273438 C 63.835938 78.839844 63.195312 78.097656 62.953125 77.828125 C 64.21875 76.378906 64.023438 73.335938 62.535156 71.808594 C 61.257812 70.5 59.621094 70.082031 56.28125 70.21875 C 53.929688 70.3125 52.207031 71.007812 51.15625 72.28125 C 49.390625 74.421875 49.890625 77.671875 50.191406 79.609375 C 50.359375 80.714844 50.4375 82.4375 50.144531 83.96875 C 49.953125 84.972656 49.285156 85.871094 49.277344 85.882812 C 49.25 85.921875 49.242188 85.976562 49.265625 86.019531 C 49.289062 86.066406 49.335938 86.09375 49.386719 86.09375 L 54.21875 86.09375 L 54.21875 86.707031 C 53.410156 86.65625 49.347656 86.558594 45.46875 89.269531 C 43.617188 90.578125 34.410156 97.371094 35.015625 102.785156 C 35.589844 107.9375 41.925781 114.59375 41.992188 114.660156 C 42.019531 114.6875 42.050781 114.699219 42.085938 114.699219 C 42.121094 114.699219 42.152344 114.6875 42.179688 114.664062 C 42.195312 114.648438 42.207031 114.628906 42.210938 114.609375 L 43.101562 113.664062 C 43.226562 113.800781 43.523438 114.109375 43.859375 114.367188 C 43.875 114.378906 44.257812 114.683594 45.039062 114.867188 C 45.757812 115.035156 46.59375 115.050781 46.976562 115.050781 L 47.09375 116.113281 C 46.957031 118.664062 46.976562 120.078125 47.003906 122.421875 C 47.023438 124.078125 47.050781 126.132812 47.027344 129.328125 L 44.976562 129.328125 C 44.902344 129.328125 44.84375 129.386719 44.84375 129.460938 C 44.84375 129.535156 44.902344 129.59375 44.976562 129.59375 L 68.40625 129.59375 C 68.480469 129.59375 68.539062 129.535156 68.539062 129.460938 C 68.539062 129.386719 68.480469 129.328125 68.40625 129.328125 L 66.472656 129.328125 C 66.472656 129.324219 66.472656 129.324219 66.472656 129.320312 L 66.472656 98.097656 C 67.132812 99.847656 67.769531 101.46875 68.222656 102.433594 C 69.128906 104.367188 70.265625 105.546875 71.609375 105.9375 C 71.921875 106.03125 72.246094 106.078125 72.574219 106.078125 C 73.34375 106.078125 74.148438 105.824219 74.9375 105.324219 C 77.132812 103.933594 76.949219 101.039062 74.328125 95.644531 C 71.964844 90.777344 69.777344 87.167969 69.757812 87.132812 Z M 61.953125 85.273438 C 61.9375 85.027344 62.046875 84.824219 62.15625 84.796875 C 62.21875 84.777344 62.347656 84.769531 62.519531 84.761719 C 62.523438 84.765625 62.527344 84.765625 62.535156 84.765625 C 62.542969 84.769531 62.554688 84.769531 62.566406 84.769531 C 62.582031 84.769531 62.597656 84.765625 62.613281 84.761719 C 63.199219 84.75 64.175781 84.78125 64.859375 84.816406 C 64.933594 84.824219 64.996094 84.765625 65 84.691406 C 65.003906 84.617188 64.945312 84.554688 64.871094 84.550781 C 64.683594 84.542969 63.34375 84.472656 62.570312 84.496094 C 62.386719 84.4375 62.308594 84.257812 62.320312 84.105469 C 62.332031 83.925781 62.460938 83.722656 62.789062 83.691406 C 63.125 83.65625 65.390625 83.605469 65.414062 83.605469 C 65.472656 83.605469 65.523438 83.5625 65.539062 83.507812 C 65.554688 83.449219 65.53125 83.390625 65.480469 83.359375 C 64.644531 82.851562 64.554688 82.851562 64.515625 82.851562 C 64.457031 82.851562 64.355469 82.851562 63.996094 83.375 C 63.523438 83.386719 63.066406 83.402344 62.847656 83.417969 C 63.066406 82.890625 64.175781 81.742188 64.433594 81.664062 C 64.742188 81.59375 67.28125 82.835938 67.628906 83.214844 C 67.867188 83.480469 68.609375 85.796875 69.070312 87.34375 L 65.613281 89.101562 C 65.078125 89.019531 64.46875 88.09375 64.382812 87.414062 C 64.375 87.347656 64.316406 87.296875 64.25 87.296875 C 63.117188 87.304688 62.402344 87.03125 62.292969 86.546875 C 62.242188 86.316406 62.347656 86.101562 62.421875 86.046875 C 62.972656 86.011719 64.636719 86.03125 64.652344 86.03125 C 64.652344 86.03125 64.65625 86.03125 64.65625 86.03125 C 64.726562 86.03125 64.789062 85.972656 64.789062 85.898438 C 64.789062 85.824219 64.730469 85.765625 64.65625 85.761719 C 64.585938 85.761719 62.9375 85.746094 62.394531 85.78125 C 62.019531 85.71875 61.960938 85.40625 61.953125 85.273438 Z M 64.332031 83.367188 C 64.410156 83.261719 64.484375 83.171875 64.53125 83.128906 C 64.605469 83.164062 64.761719 83.246094 64.941406 83.351562 C 64.761719 83.355469 64.550781 83.359375 64.332031 83.367188 Z M 53.179688 80.691406 C 52.8125 80.121094 52.851562 79.417969 53.273438 78.894531 C 54.242188 77.707031 55.558594 78.492188 55.613281 78.523438 C 55.636719 78.539062 55.667969 78.546875 55.695312 78.542969 C 55.71875 78.542969 57.710938 78.3125 58.402344 75.574219 C 58.957031 76.398438 58.828125 77.921875 58.824219 77.941406 C 58.820312 77.976562 58.835938 78.015625 58.859375 78.042969 C 58.886719 78.070312 58.921875 78.085938 58.960938 78.085938 L 62.714844 77.964844 C 62.988281 78.261719 63.585938 78.972656 63.640625 79.3125 C 63.6875 79.601562 63.050781 80.007812 62.738281 80.160156 C 62.695312 80.179688 62.667969 80.21875 62.664062 80.265625 C 62.648438 80.4375 62.632812 80.605469 62.621094 80.769531 C 62.546875 81.6875 62.484375 82.480469 61.996094 83.210938 C 61.636719 83.75 59.742188 83.75 59.042969 83.707031 C 59.007812 83.703125 58.96875 83.714844 58.941406 83.742188 C 58.917969 83.765625 58.902344 83.800781 58.902344 83.839844 L 58.902344 86.824219 C 58.902344 86.835938 59.074219 88.046875 58.492188 88.722656 C 58.234375 89.023438 57.855469 89.175781 57.371094 89.175781 C 55.449219 89.175781 54.582031 87.457031 54.484375 86.851562 L 54.484375 86.09375 L 55.683594 86.09375 C 55.757812 86.09375 55.816406 86.035156 55.816406 85.960938 L 55.816406 81.570312 C 55.816406 81.53125 55.796875 81.492188 55.765625 81.464844 C 55.730469 81.441406 55.6875 81.429688 55.648438 81.441406 C 54.390625 81.765625 53.550781 81.269531 53.179688 80.691406 Z M 45.101562 114.605469 C 44.382812 114.4375 44.03125 114.160156 44.023438 114.15625 C 43.695312 113.902344 43.394531 113.585938 43.285156 113.46875 L 46.042969 110.535156 C 46.414062 110.628906 46.804688 110.679688 47.21875 110.730469 C 48.070312 110.835938 49.03125 110.957031 50.03125 111.5 C 50.859375 111.949219 52.210938 113.035156 53.042969 114.078125 C 53.558594 114.722656 53.605469 115.191406 53.472656 115.304688 C 53.390625 115.382812 53.175781 115.320312 52.925781 115.058594 C 52.917969 115.050781 52.910156 115.046875 52.902344 115.042969 C 51.339844 113.234375 49.964844 112.539062 49.902344 112.507812 C 49.839844 112.476562 49.757812 112.503906 49.726562 112.570312 C 49.691406 112.636719 49.71875 112.714844 49.785156 112.75 C 49.800781 112.753906 51.265625 113.492188 52.855469 115.398438 C 53.152344 115.753906 53.21875 116.078125 53.027344 116.246094 C 52.898438 116.363281 52.648438 116.378906 52.496094 116.21875 C 51 114.621094 49.394531 113.496094 49.378906 113.488281 C 49.320312 113.445312 49.234375 113.460938 49.195312 113.519531 C 49.152344 113.582031 49.167969 113.664062 49.226562 113.707031 C 49.242188 113.714844 50.644531 114.699219 52.042969 116.128906 C 52.039062 116.144531 52.035156 116.160156 52.039062 116.175781 C 52.039062 116.179688 52.058594 116.433594 51.910156 116.546875 C 51.792969 116.632812 51.578125 116.617188 51.289062 116.5 C 50.3125 116.105469 48.550781 114.492188 48.53125 114.476562 C 48.480469 114.429688 48.394531 114.429688 48.34375 114.484375 C 48.292969 114.539062 48.296875 114.625 48.351562 114.675781 C 48.410156 114.726562 49.488281 115.710938 50.441406 116.335938 C 50.441406 116.339844 50.4375 116.347656 50.4375 116.351562 C 50.417969 116.554688 50.328125 116.609375 50.265625 116.636719 C 49.878906 116.78125 48.800781 116.273438 47.273438 114.816406 C 47.246094 114.792969 47.214844 114.78125 47.175781 114.78125 C 47.164062 114.78125 46.011719 114.820312 45.101562 114.605469 Z M 41.566406 102.527344 C 41.640625 101.640625 44.960938 98.890625 46.488281 97.707031 L 46.464844 110.355469 C 46.332031 110.332031 46.207031 110.304688 46.082031 110.273438 C 44.773438 108.394531 41.492188 103.464844 41.566406 102.527344 Z M 48.183594 115.960938 L 47.347656 115.976562 L 47.257812 115.167969 C 47.582031 115.46875 47.890625 115.730469 48.183594 115.960938 Z M 47.296875 129.328125 C 47.316406 126.128906 47.289062 124.074219 47.269531 122.417969 C 47.242188 120.117188 47.222656 118.710938 47.355469 116.242188 L 48.535156 116.21875 C 49.1875 116.679688 49.734375 116.925781 50.117188 116.925781 C 50.207031 116.925781 50.289062 116.910156 50.359375 116.886719 C 50.480469 116.839844 50.632812 116.730469 50.6875 116.488281 C 50.863281 116.59375 51.035156 116.683594 51.191406 116.746094 C 51.386719 116.828125 51.5625 116.867188 51.710938 116.867188 C 51.855469 116.867188 51.972656 116.832031 52.070312 116.757812 C 52.207031 116.65625 52.265625 116.511719 52.289062 116.386719 C 52.292969 116.390625 52.296875 116.398438 52.304688 116.402344 C 52.429688 116.535156 52.601562 116.601562 52.777344 116.601562 C 52.933594 116.601562 53.085938 116.550781 53.207031 116.445312 C 53.308594 116.351562 53.382812 116.214844 53.398438 116.046875 L 66.207031 116.023438 L 66.207031 129.320312 C 66.207031 129.324219 66.207031 129.324219 66.210938 129.328125 Z M 66.207031 97.425781 L 66.207031 115.757812 L 53.375 115.78125 C 53.375 115.78125 53.371094 115.78125 53.371094 115.78125 C 53.355469 115.722656 53.332031 115.660156 53.300781 115.59375 C 53.328125 115.597656 53.355469 115.601562 53.382812 115.601562 C 53.496094 115.601562 53.585938 115.5625 53.648438 115.507812 C 53.90625 115.28125 53.882812 114.699219 53.253906 113.910156 C 52.367188 112.804688 50.996094 111.722656 50.160156 111.265625 C 49.117188 110.699219 48.125 110.574219 47.25 110.464844 C 47.074219 110.441406 46.902344 110.421875 46.730469 110.398438 L 46.753906 97.4375 C 46.753906 97.386719 46.726562 97.339844 46.679688 97.316406 C 46.636719 97.292969 46.582031 97.300781 46.542969 97.328125 C 46.015625 97.730469 41.402344 101.285156 41.300781 102.507812 C 41.207031 103.675781 45.128906 109.371094 45.828125 110.375 L 42.078125 114.363281 C 41.257812 113.480469 35.804688 107.460938 35.277344 102.753906 C 34.691406 97.488281 43.792969 90.78125 45.621094 89.488281 C 49.511719 86.769531 53.582031 86.929688 54.242188 86.976562 C 54.417969 87.730469 55.371094 89.441406 57.371094 89.441406 C 57.9375 89.441406 58.382812 89.257812 58.695312 88.898438 C 59.21875 88.289062 59.214844 87.363281 59.1875 86.980469 C 59.425781 86.957031 60.738281 86.871094 62.503906 87.222656 C 62.511719 87.222656 62.515625 87.222656 62.519531 87.222656 C 62.832031 87.410156 63.332031 87.554688 64.136719 87.5625 C 64.257812 88.167969 64.726562 88.984375 65.285156 89.269531 L 63.714844 90.070312 C 63.65625 90.097656 63.628906 90.167969 63.652344 90.230469 C 63.671875 90.289062 64.933594 93.957031 66.214844 97.398438 C 66.210938 97.40625 66.207031 97.414062 66.207031 97.425781 Z M 74.792969 105.097656 C 73.738281 105.765625 72.660156 105.96875 71.683594 105.683594 C 70.4375 105.320312 69.324219 104.15625 68.464844 102.320312 C 67.167969 99.550781 64.304688 91.304688 63.941406 90.253906 L 69.59375 87.378906 C 69.96875 88.007812 71.957031 91.371094 74.089844 95.761719 C 76.636719 101.007812 76.847656 103.800781 74.792969 105.097656 Z M 68.464844 65.703125 L 69.9375 65.703125 L 69.9375 64.234375 L 68.464844 64.234375 Z M 68.734375 64.5 L 69.671875 64.5 L 69.671875 65.4375 L 68.734375 65.4375 Z M 69.464844 68.273438 C 73.179688 68.273438 76.199219 65.253906 76.199219 61.535156 C 76.199219 57.820312 73.179688 54.800781 69.464844 54.800781 C 65.75 54.800781 62.726562 57.820312 62.726562 61.535156 C 62.726562 65.253906 65.75 68.273438 69.464844 68.273438 Z M 69.464844 55.066406 C 73.03125 55.066406 75.933594 57.96875 75.933594 61.535156 C 75.933594 65.105469 73.03125 68.007812 69.464844 68.007812 C 65.894531 68.007812 62.992188 65.105469 62.992188 61.535156 C 62.992188 57.96875 65.894531 55.066406 69.464844 55.066406 Z M 71.21875 17.890625 L 72.609375 18.425781 C 72.882812 18.527344 73.101562 18.820312 73.183594 19.191406 L 73.585938 21.027344 C 73.601562 21.085938 73.65625 21.128906 73.71875 21.128906 C 73.78125 21.128906 73.835938 21.085938 73.847656 21.027344 L 74.253906 19.191406 C 74.335938 18.820312 74.554688 18.527344 74.824219 18.425781 L 76.214844 17.890625 C 76.269531 17.871094 76.300781 17.820312 76.300781 17.765625 C 76.300781 17.710938 76.269531 17.660156 76.214844 17.640625 L 74.824219 17.105469 C 74.554688 17 74.335938 16.707031 74.253906 16.339844 L 73.847656 14.503906 C 73.835938 14.445312 73.78125 14.398438 73.71875 14.398438 C 73.65625 14.398438 73.601562 14.445312 73.585938 14.503906 L 73.183594 16.339844 C 73.101562 16.707031 72.882812 17 72.609375 17.105469 L 71.21875 17.640625 C 71.167969 17.660156 71.132812 17.710938 71.132812 17.765625 C 71.132812 17.820312 71.167969 17.871094 71.21875 17.890625 Z M 72.707031 17.355469 C 73.066406 17.21875 73.339844 16.859375 73.441406 16.398438 L 73.71875 15.152344 L 73.992188 16.398438 C 74.09375 16.859375 74.371094 17.21875 74.730469 17.355469 L 75.796875 17.765625 L 74.730469 18.175781 C 74.371094 18.3125 74.09375 18.671875 73.992188 19.132812 L 73.71875 20.378906 L 73.441406 19.132812 C 73.339844 18.671875 73.066406 18.3125 72.707031 18.175781 L 71.640625 17.765625 Z M 68.847656 59.503906 C 68.847656 59.019531 69.046875 58.773438 69.441406 58.773438 C 69.835938 58.773438 70.035156 59.019531 70.035156 59.503906 C 70.035156 60.214844 69.769531 60.605469 69.394531 61.078125 C 69.019531 61.550781 68.558594 62.136719 68.558594 63.34375 L 68.558594 63.660156 L 69.847656 63.660156 L 69.847656 63.34375 C 69.847656 62.605469 70.21875 62.15625 70.578125 61.722656 C 70.992188 61.226562 71.503906 60.605469 71.503906 59.46875 C 71.503906 58.175781 70.71875 57.371094 69.453125 57.371094 C 68.199219 57.371094 67.421875 58.222656 67.421875 59.59375 L 67.421875 60.113281 L 68.847656 60.113281 Z M 68.578125 59.503906 L 68.578125 59.847656 L 67.6875 59.847656 L 67.6875 59.59375 C 67.6875 58.367188 68.347656 57.636719 69.453125 57.636719 C 70.570312 57.636719 71.238281 58.320312 71.238281 59.46875 C 71.238281 60.507812 70.777344 61.0625 70.371094 61.554688 C 70 62 69.578125 62.507812 69.578125 63.34375 L 69.578125 63.390625 L 68.824219 63.390625 L 68.824219 63.34375 C 68.824219 62.230469 69.238281 61.707031 69.601562 61.246094 C 69.996094 60.746094 70.300781 60.300781 70.300781 59.503906 C 70.300781 58.878906 69.980469 58.507812 69.441406 58.507812 C 68.902344 58.507812 68.578125 58.878906 68.578125 59.503906 Z M 32.710938 72.851562 L 31.589844 72.851562 C 31.515625 72.851562 31.457031 72.914062 31.457031 72.988281 L 31.457031 81.464844 C 31.457031 81.539062 31.515625 81.597656 31.589844 81.597656 L 32.710938 81.597656 C 32.785156 81.597656 32.84375 81.539062 32.84375 81.464844 L 32.84375 72.988281 C 32.84375 72.914062 32.785156 72.851562 32.710938 72.851562 Z M 95.351562 46.320312 L 89.460938 46.320312 L 89.460938 51.222656 L 95.351562 51.222656 Z M 95.082031 50.957031 L 89.730469 50.957031 L 89.730469 46.585938 L 95.082031 46.585938 Z M 89.460938 71.808594 L 95.351562 71.808594 L 95.351562 66.90625 L 89.460938 66.90625 Z M 89.730469 67.171875 L 95.082031 67.171875 L 95.082031 71.542969 L 89.730469 71.542969 Z M 33.039062 52.492188 L 51.023438 52.492188 C 51.097656 52.492188 51.160156 52.433594 51.160156 52.359375 L 51.160156 36.125 C 51.160156 36.050781 51.097656 35.992188 51.023438 35.992188 L 33.039062 35.992188 C 32.964844 35.992188 32.90625 36.050781 32.90625 36.125 L 32.90625 52.359375 C 32.90625 52.433594 32.964844 52.492188 33.039062 52.492188 Z M 33.984375 40.808594 L 33.984375 52.226562 L 33.171875 52.226562 L 33.171875 40.308594 C 33.316406 40.351562 33.613281 40.46875 33.992188 40.769531 C 33.988281 40.78125 33.984375 40.792969 33.984375 40.808594 Z M 35.574219 42.683594 L 35.574219 52.226562 L 34.25 52.226562 L 34.25 40.988281 C 34.464844 41.191406 34.699219 41.449219 34.945312 41.777344 L 35.164062 42.070312 C 35.300781 42.261719 35.441406 42.453125 35.585938 42.636719 C 35.578125 42.652344 35.574219 42.667969 35.574219 42.683594 Z M 37.167969 44.132812 L 37.167969 52.226562 L 35.84375 52.226562 L 35.84375 42.964844 C 36.253906 43.464844 36.683594 43.898438 37.171875 44.117188 C 37.171875 44.125 37.167969 44.128906 37.167969 44.132812 Z M 38.761719 52.226562 L 37.433594 52.226562 L 37.433594 44.214844 C 37.824219 44.324219 38.246094 44.296875 38.71875 44.066406 C 38.730469 44.0625 38.746094 44.046875 38.761719 44.039062 Z M 39.027344 52.226562 L 39.027344 43.84375 C 39.027344 43.835938 39.023438 43.832031 39.023438 43.824219 C 39.121094 43.730469 39.222656 43.617188 39.328125 43.496094 C 39.636719 43.148438 40.011719 42.730469 40.351562 42.644531 L 40.351562 52.226562 Z M 41.945312 52.226562 L 40.621094 52.226562 L 40.621094 42.632812 C 40.804688 42.667969 40.964844 42.785156 41.144531 42.914062 C 41.367188 43.074219 41.613281 43.253906 41.945312 43.296875 Z M 43.539062 52.226562 L 42.210938 52.226562 L 42.210938 43.292969 C 42.617188 43.21875 42.871094 42.757812 43.089844 42.34375 C 43.234375 42.074219 43.378906 41.800781 43.539062 41.695312 Z M 45.128906 52.226562 L 43.804688 52.226562 L 43.804688 41.671875 C 43.996094 41.75 44.140625 41.976562 44.300781 42.238281 C 44.496094 42.558594 44.730469 42.9375 45.128906 43.101562 Z M 45.398438 52.226562 L 45.398438 43.171875 C 45.457031 43.183594 45.515625 43.191406 45.582031 43.191406 C 46.105469 43.191406 46.433594 42.785156 46.722656 42.316406 L 46.722656 52.226562 Z M 46.988281 52.226562 L 46.988281 41.921875 C 46.988281 41.90625 46.984375 41.890625 46.980469 41.878906 C 47.265625 41.382812 47.550781 40.941406 47.980469 40.941406 C 48.105469 40.941406 48.21875 40.992188 48.316406 41.074219 L 48.316406 52.226562 Z M 49.90625 52.226562 L 48.582031 52.226562 L 48.582031 41.445312 C 48.855469 41.996094 49.003906 42.917969 49.148438 43.820312 C 49.324219 44.921875 49.503906 46.042969 49.90625 46.742188 Z M 50.890625 52.226562 L 50.175781 52.226562 L 50.175781 47.101562 C 50.367188 47.300781 50.605469 47.421875 50.890625 47.445312 Z M 33.171875 36.257812 L 50.890625 36.257812 L 50.890625 47.175781 C 50.585938 47.144531 50.351562 46.953125 50.164062 46.652344 C 50.160156 46.640625 50.15625 46.632812 50.148438 46.625 C 49.765625 45.980469 49.585938 44.871094 49.410156 43.777344 C 49.15625 42.183594 48.914062 40.675781 47.980469 40.675781 C 47.363281 40.675781 47.019531 41.273438 46.6875 41.851562 C 46.371094 42.402344 46.070312 42.925781 45.582031 42.925781 C 45.035156 42.925781 44.777344 42.503906 44.527344 42.097656 C 44.308594 41.746094 44.082031 41.378906 43.671875 41.378906 C 43.300781 41.378906 43.085938 41.785156 42.855469 42.21875 C 42.640625 42.621094 42.417969 43.042969 42.101562 43.042969 C 41.773438 43.042969 41.542969 42.875 41.300781 42.699219 C 41.035156 42.507812 40.761719 42.308594 40.375 42.363281 C 39.921875 42.429688 39.503906 42.898438 39.132812 43.316406 C 38.925781 43.546875 38.730469 43.765625 38.601562 43.828125 C 37.261719 44.476562 36.34375 43.234375 35.378906 41.914062 L 35.160156 41.621094 C 34.21875 40.351562 33.414062 40.085938 33.171875 40.035156 Z M 61.027344 82.328125 C 61.378906 82.328125 61.660156 82.007812 61.660156 81.617188 C 61.660156 81.222656 61.378906 80.902344 61.027344 80.902344 C 60.679688 80.902344 60.394531 81.222656 60.394531 81.617188 C 60.394531 82.007812 60.679688 82.328125 61.027344 82.328125 Z M 61.027344 81.171875 C 61.230469 81.171875 61.394531 81.371094 61.394531 81.617188 C 61.394531 81.863281 61.230469 82.0625 61.027344 82.0625 C 60.824219 82.0625 60.660156 81.863281 60.660156 81.617188 C 60.660156 81.371094 60.824219 81.171875 61.027344 81.171875 Z M 113.679688 50.457031 C 113.347656 50.457031 113.074219 50.726562 113.074219 51.058594 C 113.074219 51.246094 113.164062 51.414062 113.296875 51.523438 L 109.792969 60.011719 C 109.75 60.003906 109.707031 60 109.664062 60 C 109.542969 60 109.429688 60.035156 109.332031 60.097656 L 107.800781 58.441406 C 107.859375 58.347656 107.898438 58.238281 107.898438 58.121094 C 107.902344 57.960938 107.839844 57.8125 107.726562 57.695312 C 107.613281 57.578125 107.457031 57.515625 107.296875 57.515625 C 106.960938 57.515625 106.691406 57.785156 106.691406 58.121094 C 106.691406 58.28125 106.753906 58.4375 106.871094 58.550781 L 105.542969 60.804688 C 105.480469 60.78125 105.414062 60.765625 105.339844 60.765625 C 105.28125 60.765625 105.222656 60.777344 105.167969 60.796875 L 101.601562 53.984375 C 101.722656 53.875 101.800781 53.71875 101.800781 53.542969 C 101.800781 53.207031 101.53125 52.9375 101.199219 52.9375 C 100.863281 52.9375 100.59375 53.207031 100.59375 53.542969 C 100.59375 53.71875 100.671875 53.878906 100.796875 53.992188 L 97.605469 60.125 C 97.457031 60.078125 97.296875 60.085938 97.15625 60.15625 L 95.285156 57.675781 C 95.359375 57.578125 95.40625 57.453125 95.40625 57.316406 C 95.40625 56.984375 95.132812 56.714844 94.800781 56.714844 C 94.46875 56.714844 94.199219 56.984375 94.199219 57.316406 C 94.199219 57.480469 94.261719 57.625 94.367188 57.734375 L 90.921875 63.449219 C 90.886719 63.515625 90.90625 63.597656 90.96875 63.632812 C 90.988281 63.648438 91.015625 63.652344 91.039062 63.652344 C 91.082031 63.652344 91.125 63.628906 91.152344 63.589844 L 94.589844 57.882812 C 94.65625 57.90625 94.726562 57.921875 94.800781 57.921875 C 94.902344 57.921875 94.996094 57.894531 95.082031 57.851562 L 96.949219 60.320312 C 96.859375 60.433594 96.8125 60.566406 96.8125 60.707031 C 96.816406 60.871094 96.882812 61.019531 97 61.132812 C 97.113281 61.242188 97.261719 61.300781 97.417969 61.300781 C 97.421875 61.300781 97.425781 61.300781 97.429688 61.300781 C 97.589844 61.296875 97.742188 61.230469 97.851562 61.117188 C 98.082031 60.875 98.074219 60.492188 97.835938 60.261719 C 97.835938 60.261719 97.835938 60.261719 97.832031 60.257812 L 101.03125 54.121094 C 101.085938 54.132812 101.140625 54.144531 101.199219 54.144531 C 101.257812 54.144531 101.316406 54.132812 101.371094 54.117188 L 104.9375 60.925781 C 104.816406 61.035156 104.738281 61.195312 104.738281 61.371094 C 104.738281 61.703125 105.007812 61.976562 105.339844 61.976562 C 105.675781 61.976562 105.945312 61.703125 105.945312 61.371094 C 105.945312 61.207031 105.878906 61.054688 105.769531 60.945312 L 107.097656 58.691406 C 107.160156 58.710938 107.222656 58.722656 107.289062 58.722656 C 107.292969 58.722656 107.292969 58.722656 107.296875 58.722656 C 107.410156 58.722656 107.519531 58.6875 107.609375 58.628906 L 109.148438 60.292969 C 109.09375 60.382812 109.058594 60.488281 109.058594 60.601562 C 109.058594 60.933594 109.332031 61.207031 109.664062 61.207031 C 109.996094 61.207031 110.269531 60.933594 110.269531 60.601562 C 110.269531 60.410156 110.175781 60.238281 110.03125 60.128906 L 113.535156 51.644531 C 113.582031 51.65625 113.628906 51.664062 113.679688 51.664062 C 114.011719 51.664062 114.28125 51.394531 114.28125 51.058594 C 114.28125 50.726562 114.011719 50.457031 113.679688 50.457031 Z M 94.800781 57.65625 C 94.617188 57.65625 94.464844 57.503906 94.464844 57.316406 C 94.464844 57.132812 94.617188 56.980469 94.800781 56.980469 C 94.988281 56.980469 95.136719 57.132812 95.136719 57.316406 C 95.136719 57.503906 94.988281 57.65625 94.800781 57.65625 Z M 97.660156 60.929688 C 97.597656 60.996094 97.515625 61.03125 97.425781 61.035156 C 97.335938 61.035156 97.25 61 97.183594 60.9375 C 97.117188 60.875 97.082031 60.792969 97.082031 60.703125 C 97.078125 60.613281 97.113281 60.527344 97.175781 60.460938 C 97.238281 60.398438 97.320312 60.359375 97.410156 60.359375 C 97.414062 60.359375 97.414062 60.359375 97.417969 60.359375 C 97.503906 60.359375 97.589844 60.394531 97.652344 60.453125 C 97.714844 60.515625 97.753906 60.601562 97.753906 60.691406 C 97.757812 60.78125 97.722656 60.867188 97.660156 60.929688 Z M 101.199219 53.878906 C 101.011719 53.878906 100.859375 53.726562 100.859375 53.542969 C 100.859375 53.355469 101.011719 53.203125 101.199219 53.203125 C 101.382812 53.203125 101.535156 53.355469 101.535156 53.542969 C 101.535156 53.726562 101.382812 53.878906 101.199219 53.878906 Z M 105.339844 61.707031 C 105.15625 61.707031 105.003906 61.558594 105.003906 61.371094 C 105.003906 61.183594 105.15625 61.035156 105.339844 61.035156 C 105.527344 61.035156 105.679688 61.183594 105.679688 61.371094 C 105.679688 61.558594 105.527344 61.707031 105.339844 61.707031 Z M 107.632812 58.117188 C 107.628906 58.300781 107.476562 58.453125 107.292969 58.457031 C 107.207031 58.453125 107.121094 58.425781 107.058594 58.363281 C 106.992188 58.296875 106.957031 58.210938 106.957031 58.121094 C 106.957031 57.933594 107.109375 57.78125 107.296875 57.78125 C 107.386719 57.78125 107.472656 57.816406 107.539062 57.882812 C 107.601562 57.945312 107.632812 58.03125 107.632812 58.117188 Z M 109.664062 60.941406 C 109.476562 60.941406 109.328125 60.789062 109.328125 60.601562 C 109.328125 60.417969 109.476562 60.265625 109.664062 60.265625 C 109.851562 60.265625 110 60.417969 110 60.601562 C 110 60.789062 109.851562 60.941406 109.664062 60.941406 Z M 113.679688 51.398438 C 113.492188 51.398438 113.339844 51.246094 113.339844 51.058594 C 113.339844 50.875 113.492188 50.722656 113.679688 50.722656 C 113.863281 50.722656 114.015625 50.875 114.015625 51.058594 C 114.015625 51.246094 113.863281 51.398438 113.679688 51.398438 Z M 100.707031 39.597656 L 100.707031 38.160156 C 100.707031 38.085938 100.644531 38.027344 100.570312 38.027344 L 97.304688 38.027344 C 97.039062 36.859375 96.574219 35.746094 95.933594 34.71875 L 98.246094 32.40625 C 98.296875 32.355469 98.296875 32.269531 98.246094 32.21875 L 94.988281 28.960938 C 94.9375 28.914062 94.847656 28.914062 94.800781 28.960938 L 92.488281 31.273438 C 91.460938 30.632812 90.347656 30.167969 89.179688 29.902344 L 89.179688 26.636719 C 89.179688 26.5625 89.121094 26.5 89.046875 26.5 L 84.441406 26.5 C 84.367188 26.5 84.308594 26.5625 84.308594 26.636719 L 84.308594 29.902344 C 83.140625 30.167969 82.027344 30.632812 81 31.273438 L 78.6875 28.960938 C 78.636719 28.914062 78.550781 28.914062 78.5 28.960938 L 75.242188 32.21875 C 75.191406 32.269531 75.191406 32.355469 75.242188 32.40625 L 77.554688 34.71875 C 76.910156 35.746094 76.449219 36.859375 76.179688 38.027344 L 72.914062 38.027344 C 72.84375 38.027344 72.78125 38.085938 72.78125 38.160156 L 72.78125 42.765625 C 72.78125 42.839844 72.84375 42.898438 72.914062 42.898438 L 76.179688 42.898438 C 76.449219 44.066406 76.910156 45.179688 77.554688 46.207031 L 75.242188 48.519531 C 75.191406 48.570312 75.191406 48.65625 75.242188 48.707031 L 78.5 51.964844 C 78.550781 52.011719 78.636719 52.011719 78.6875 51.964844 L 81 49.652344 C 81.992188 50.277344 83.160156 50.761719 84.308594 51.027344 L 84.308594 54.292969 C 84.308594 54.363281 84.367188 54.425781 84.441406 54.425781 L 85.84375 54.425781 L 85.84375 85.789062 L 111.433594 85.789062 L 113.160156 89.671875 C 113.378906 90.164062 113.863281 90.457031 114.375 90.457031 C 114.550781 90.457031 114.734375 90.421875 114.910156 90.34375 C 115.578125 90.046875 115.878906 89.261719 115.582031 88.59375 L 114.335938 85.789062 L 119.34375 85.789062 L 119.34375 82.652344 L 122.480469 82.652344 L 122.480469 39.597656 Z M 85.84375 54.15625 L 84.574219 54.15625 L 84.574219 50.917969 C 84.574219 50.855469 84.53125 50.800781 84.46875 50.789062 C 83.28125 50.527344 82.070312 50.023438 81.054688 49.371094 C 81 49.335938 80.933594 49.34375 80.886719 49.386719 L 78.59375 51.679688 L 75.527344 48.613281 L 77.820312 46.320312 C 77.863281 46.273438 77.871094 46.207031 77.835938 46.152344 C 77.160156 45.097656 76.683594 43.949219 76.417969 42.738281 C 76.40625 42.675781 76.351562 42.632812 76.289062 42.632812 L 73.050781 42.632812 L 73.050781 38.292969 L 76.289062 38.292969 C 76.351562 38.292969 76.40625 38.25 76.417969 38.1875 C 76.683594 36.976562 77.160156 35.828125 77.835938 34.773438 C 77.871094 34.71875 77.863281 34.652344 77.820312 34.605469 L 75.527344 32.3125 L 78.59375 29.246094 L 80.886719 31.539062 C 80.933594 31.582031 81 31.589844 81.054688 31.558594 C 82.109375 30.878906 83.257812 30.402344 84.46875 30.136719 C 84.53125 30.125 84.574219 30.070312 84.574219 30.007812 L 84.574219 26.769531 L 88.914062 26.769531 L 88.914062 30.007812 C 88.914062 30.070312 88.957031 30.125 89.019531 30.136719 C 90.230469 30.402344 91.378906 30.878906 92.433594 31.558594 C 92.488281 31.589844 92.554688 31.582031 92.601562 31.539062 L 94.894531 29.246094 L 97.960938 32.3125 L 95.667969 34.605469 C 95.625 34.652344 95.617188 34.71875 95.652344 34.773438 C 96.328125 35.828125 96.804688 36.980469 97.070312 38.1875 C 97.082031 38.25 97.136719 38.292969 97.199219 38.292969 L 100.4375 38.292969 L 100.4375 39.597656 L 93.824219 39.597656 C 93.390625 36.019531 90.367188 33.332031 86.742188 33.332031 C 82.8125 33.332031 79.613281 36.53125 79.613281 40.464844 C 79.613281 44.066406 82.285156 47.085938 85.84375 47.535156 Z M 88.980469 39.597656 L 88.980469 42.738281 L 85.84375 42.738281 L 85.84375 47.265625 C 82.433594 46.816406 79.878906 43.921875 79.878906 40.464844 C 79.878906 36.679688 82.960938 33.597656 86.742188 33.597656 C 90.21875 33.597656 93.121094 36.167969 93.550781 39.597656 Z M 115.339844 88.703125 C 115.574219 89.234375 115.335938 89.863281 114.800781 90.097656 C 114.269531 90.335938 113.640625 90.097656 113.402344 89.5625 L 110.859375 83.84375 L 112.792969 82.984375 Z M 108.796875 76.597656 C 108.324219 76.808594 107.824219 76.910156 107.324219 76.910156 C 106.886719 76.910156 106.445312 76.832031 106.019531 76.667969 C 105.113281 76.320312 104.398438 75.640625 104.003906 74.757812 C 103.191406 72.929688 104.019531 70.78125 105.847656 69.96875 C 106.730469 69.574219 107.714844 69.550781 108.621094 69.898438 C 109.527344 70.246094 110.242188 70.925781 110.636719 71.808594 C 111.027344 72.691406 111.054688 73.679688 110.707031 74.582031 C 110.359375 75.488281 109.679688 76.203125 108.796875 76.597656 Z M 109.878906 82.292969 L 89.730469 82.292969 L 89.730469 73.777344 L 101.332031 73.777344 C 101.371094 74.265625 101.472656 74.757812 101.640625 75.242188 C 101.644531 75.257812 101.648438 75.269531 101.652344 75.285156 C 101.707031 75.433594 101.761719 75.582031 101.828125 75.726562 C 102.964844 78.285156 105.757812 79.722656 108.492188 79.179688 Z M 111.28125 77.804688 C 111.300781 77.785156 111.320312 77.769531 111.34375 77.75 C 111.457031 77.644531 111.570312 77.535156 111.679688 77.425781 C 111.683594 77.417969 111.691406 77.410156 111.699219 77.402344 C 112.378906 76.675781 112.867188 75.796875 113.121094 74.832031 C 113.125 74.816406 113.128906 74.804688 113.132812 74.789062 C 113.171875 74.648438 113.203125 74.503906 113.230469 74.355469 C 113.234375 74.320312 113.242188 74.28125 113.246094 74.246094 C 113.265625 74.136719 113.28125 74.023438 113.292969 73.910156 C 113.296875 73.871094 113.300781 73.828125 113.304688 73.785156 C 113.304688 73.785156 113.304688 73.78125 113.304688 73.777344 L 115.597656 73.777344 L 115.597656 82.292969 L 112.777344 82.292969 L 110.914062 78.101562 C 111.042969 78.007812 111.164062 77.90625 111.28125 77.804688 Z M 114.214844 85.523438 L 112.898438 82.558594 L 115.863281 82.558594 L 115.863281 73.507812 L 113.320312 73.507812 C 113.355469 72.613281 113.195312 71.699219 112.8125 70.839844 C 111.464844 67.8125 107.90625 66.441406 104.878906 67.789062 C 102.570312 68.816406 101.226562 71.128906 101.316406 73.507812 L 89.460938 73.507812 L 89.460938 82.558594 L 109.996094 82.558594 L 111.316406 85.523438 L 86.109375 85.523438 L 86.109375 43.003906 L 119.074219 43.003906 L 119.074219 85.523438 Z M 122.214844 82.386719 L 119.34375 82.386719 L 119.34375 42.738281 L 89.25 42.738281 L 89.25 39.867188 L 122.214844 39.867188 Z M 27.261719 40.261719 L 31.265625 40.261719 C 31.339844 40.261719 31.398438 40.203125 31.398438 40.128906 L 31.398438 38.726562 C 31.398438 38.652344 31.339844 38.589844 31.265625 38.589844 L 27.261719 38.589844 C 27.1875 38.589844 27.128906 38.652344 27.128906 38.726562 L 27.128906 40.128906 C 27.128906 40.203125 27.1875 40.261719 27.261719 40.261719 Z M 27.394531 38.859375 L 31.132812 38.859375 L 31.132812 39.996094 L 27.394531 39.996094 Z M 27.261719 37.664062 L 31.265625 37.664062 C 31.339844 37.664062 31.398438 37.605469 31.398438 37.53125 L 31.398438 36.125 C 31.398438 36.050781 31.339844 35.992188 31.265625 35.992188 L 27.261719 35.992188 C 27.1875 35.992188 27.128906 36.050781 27.128906 36.125 L 27.128906 37.53125 C 27.128906 37.605469 27.1875 37.664062 27.261719 37.664062 Z M 27.394531 36.257812 L 31.132812 36.257812 L 31.132812 37.398438 L 27.394531 37.398438 Z M 27.261719 42.863281 L 31.265625 42.863281 C 31.339844 42.863281 31.398438 42.804688 31.398438 42.730469 L 31.398438 41.324219 C 31.398438 41.25 31.339844 41.191406 31.265625 41.191406 L 27.261719 41.191406 C 27.1875 41.191406 27.128906 41.25 27.128906 41.324219 L 27.128906 42.730469 C 27.128906 42.804688 27.1875 42.863281 27.261719 42.863281 Z M 36.828125 76.992188 C 36.828125 72.902344 33.5 69.574219 29.40625 69.574219 L 28.941406 69.574219 C 24.851562 69.574219 21.523438 72.902344 21.523438 76.992188 L 21.523438 77.457031 C 21.523438 81.550781 24.851562 84.878906 28.941406 84.878906 L 29.40625 84.878906 C 33.5 84.878906 36.828125 81.550781 36.828125 77.457031 Z M 29.40625 84.613281 L 28.941406 84.613281 C 24.996094 84.613281 21.789062 81.402344 21.789062 77.457031 L 21.789062 76.992188 C 21.789062 73.046875 24.996094 69.839844 28.941406 69.839844 L 29.40625 69.839844 C 33.351562 69.839844 36.5625 73.046875 36.5625 76.992188 L 36.5625 77.457031 C 36.5625 81.402344 33.351562 84.613281 29.40625 84.613281 Z M 29.738281 74.929688 L 28.613281 74.929688 C 28.539062 74.929688 28.480469 74.988281 28.480469 75.0625 L 28.480469 81.464844 C 28.480469 81.539062 28.539062 81.597656 28.613281 81.597656 L 29.738281 81.597656 C 29.808594 81.597656 29.871094 81.539062 29.871094 81.464844 L 29.871094 75.0625 C 29.871094 74.992188 29.808594 74.929688 29.738281 74.929688 Z M 29.601562 81.332031 L 28.746094 81.332031 L 28.746094 75.195312 L 29.601562 75.195312 Z M 26.542969 54.804688 L 38.445312 54.804688 L 42.089844 61.898438 C 42.113281 61.945312 42.160156 61.972656 42.210938 61.972656 C 42.21875 61.972656 42.230469 61.972656 42.242188 61.96875 C 42.300781 61.953125 42.34375 61.902344 42.34375 61.839844 L 42.34375 54.804688 L 51.695312 54.804688 C 52.734375 54.804688 53.582031 53.957031 53.582031 52.917969 L 53.582031 44.894531 L 57.148438 44.894531 C 57.40625 44.894531 57.617188 44.683594 57.617188 44.425781 L 57.617188 29.355469 L 60.382812 29.355469 C 60.5625 29.355469 60.726562 29.253906 60.804688 29.089844 C 60.882812 28.925781 60.863281 28.738281 60.746094 28.597656 L 53.636719 19.714844 C 53.550781 19.605469 53.417969 19.539062 53.273438 19.539062 C 53.128906 19.539062 52.996094 19.605469 52.90625 19.714844 L 45.796875 28.597656 C 45.683594 28.738281 45.664062 28.925781 45.742188 29.089844 C 45.820312 29.253906 45.980469 29.355469 46.164062 29.355469 L 48.929688 29.355469 L 48.929688 33.324219 L 26.542969 33.324219 C 25.5 33.324219 24.652344 34.171875 24.652344 35.210938 L 24.652344 52.917969 C 24.652344 53.957031 25.5 54.804688 26.542969 54.804688 Z M 46.164062 29.089844 C 46.085938 29.089844 46.015625 29.046875 45.984375 28.976562 C 45.949219 28.902344 45.957031 28.824219 46.007812 28.761719 L 53.117188 19.882812 C 53.191406 19.785156 53.355469 19.785156 53.429688 19.882812 L 60.539062 28.761719 C 60.589844 28.824219 60.597656 28.902344 60.5625 28.976562 C 60.53125 29.046875 60.460938 29.089844 60.382812 29.089844 L 57.484375 29.089844 C 57.410156 29.089844 57.351562 29.148438 57.351562 29.222656 L 57.351562 44.425781 C 57.351562 44.539062 57.261719 44.628906 57.148438 44.628906 L 53.582031 44.628906 L 53.582031 35.210938 C 53.582031 34.171875 52.734375 33.324219 51.695312 33.324219 L 49.195312 33.324219 L 49.195312 29.222656 C 49.195312 29.148438 49.136719 29.089844 49.0625 29.089844 Z M 24.917969 35.210938 C 24.917969 34.316406 25.648438 33.589844 26.542969 33.589844 L 51.695312 33.589844 C 52.589844 33.589844 53.316406 34.316406 53.316406 35.210938 L 53.316406 52.917969 C 53.316406 53.8125 52.589844 54.539062 51.695312 54.539062 L 42.210938 54.539062 C 42.136719 54.539062 42.074219 54.597656 42.074219 54.671875 L 42.074219 61.289062 L 38.644531 54.613281 C 38.621094 54.566406 38.574219 54.539062 38.527344 54.539062 L 26.542969 54.539062 C 25.648438 54.539062 24.917969 53.8125 24.917969 52.917969 Z M 26.761719 76.613281 L 25.636719 76.613281 C 25.5625 76.613281 25.503906 76.675781 25.503906 76.75 L 25.503906 81.464844 C 25.503906 81.539062 25.5625 81.597656 25.636719 81.597656 L 26.761719 81.597656 C 26.835938 81.597656 26.894531 81.539062 26.894531 81.464844 L 26.894531 76.75 C 26.894531 76.675781 26.835938 76.613281 26.761719 76.613281 Z M 25.769531 81.332031 L 25.769531 76.882812 L 26.628906 76.882812 L 26.628906 81.332031 Z M 25.769531 81.332031 " fill-opacity="1" fill-rule="nonzero"/></g></svg>