<svg xmlns="http://www.w3.org/2000/svg" xmlns:xlink="http://www.w3.org/1999/xlink" width="192" zoomAndPan="magnify" viewBox="0 0 144 143.999998" height="192" preserveAspectRatio="xMidYMid meet" version="1.0"><defs><clipPath id="1dd6372f12"><path d="M 14.398438 52 L 129.898438 52 L 129.898438 117.296875 L 14.398438 117.296875 Z M 14.398438 52 " clip-rule="nonzero"/></clipPath><clipPath id="0660994a58"><path d="M 51 26.546875 L 96 26.546875 L 96 88 L 51 88 Z M 51 26.546875 " clip-rule="nonzero"/></clipPath><clipPath id="27cf07f67d"><path d="M 102 85 L 129.898438 85 L 129.898438 95 L 102 95 Z M 102 85 " clip-rule="nonzero"/></clipPath><clipPath id="4e3bf2bc12"><path d="M 14.398438 85 L 42 85 L 42 95 L 14.398438 95 Z M 14.398438 85 " clip-rule="nonzero"/></clipPath><clipPath id="b5e2ebb541"><path d="M 14.398438 88 L 129.898438 88 L 129.898438 117.296875 L 14.398438 117.296875 Z M 14.398438 88 " clip-rule="nonzero"/></clipPath></defs><path fill="#ffae9e" d="M 75.703125 68.441406 L 75.996094 68.644531 L 75.953125 68.683594 L 75.949219 68.6875 L 75.75 68.875 C 75.742188 68.882812 75.738281 68.886719 75.734375 68.890625 C 75.734375 68.898438 75.726562 68.902344 75.726562 68.910156 C 75.707031 68.929688 75.691406 68.953125 75.679688 68.980469 C 75.671875 68.996094 75.664062 69.011719 75.660156 69.03125 C 75.65625 69.046875 75.65625 69.066406 75.65625 69.082031 L 75.640625 69.519531 C 75.640625 69.542969 75.636719 69.5625 75.632812 69.582031 C 75.625 69.597656 75.621094 69.609375 75.617188 69.621094 C 75.605469 69.636719 75.597656 69.648438 75.585938 69.664062 C 75.585938 69.667969 75.585938 69.671875 75.582031 69.671875 C 75.570312 69.683594 75.5625 69.691406 75.550781 69.699219 C 75.535156 69.710938 75.519531 69.722656 75.503906 69.734375 C 75.484375 69.746094 75.464844 69.75 75.441406 69.753906 L 75.4375 69.757812 L 74.429688 69.953125 C 74.417969 69.953125 74.40625 69.953125 74.394531 69.953125 C 74.382812 69.953125 74.371094 69.953125 74.359375 69.953125 C 74.351562 69.953125 74.347656 69.953125 74.339844 69.953125 C 74.320312 69.949219 74.300781 69.941406 74.285156 69.9375 C 74.277344 69.933594 74.277344 69.933594 74.273438 69.929688 C 74.257812 69.925781 74.242188 69.914062 74.230469 69.902344 C 74.207031 69.886719 74.1875 69.867188 74.171875 69.839844 C 74.160156 69.828125 74.152344 69.8125 74.148438 69.792969 L 73.890625 69.179688 L 73.84375 69.074219 C 73.839844 69.050781 73.84375 69.03125 73.84375 69.011719 C 73.851562 68.9375 73.902344 68.875 73.988281 68.832031 L 75.433594 68.410156 C 75.441406 68.40625 75.449219 68.40625 75.457031 68.40625 C 75.503906 68.390625 75.546875 68.390625 75.589844 68.394531 C 75.628906 68.402344 75.667969 68.417969 75.703125 68.441406 Z M 90.160156 69.96875 C 90.089844 69.917969 89.992188 69.925781 89.9375 69.992188 C 89.808594 70.125 89.71875 70.28125 89.671875 70.460938 C 89.644531 70.570312 89.578125 70.664062 89.484375 70.730469 L 89.101562 70.933594 L 89.113281 70.648438 C 89.269531 70.246094 89.058594 70.203125 89.058594 70.203125 C 89.019531 70.179688 88.957031 70.191406 88.914062 70.253906 L 88.335938 71.316406 L 85.917969 72.496094 C 85.90625 72.503906 85.890625 72.5 85.878906 72.492188 L 85.042969 71.851562 L 85.082031 71.601562 C 85.089844 71.589844 85.085938 71.578125 85.074219 71.574219 L 82.125 69.886719 L 81.570312 68.980469 L 81.523438 68.722656 L 81.5625 68.722656 C 81.671875 68.722656 81.773438 68.652344 81.804688 68.546875 C 81.914062 68.199219 81.964844 67.828125 81.96875 67.4375 L 81.972656 67.4375 C 82.257812 67.210938 82.28125 66.847656 82.285156 66.484375 C 82.285156 66.261719 82.183594 66.046875 82.023438 65.894531 C 81.589844 65.488281 81.21875 65.40625 80.625 65.4375 C 80.300781 65.472656 80.058594 65.621094 79.863281 65.8125 C 79.78125 65.894531 79.679688 65.957031 79.566406 65.996094 C 79.515625 66.015625 79.464844 66.039062 79.414062 66.066406 C 79.179688 66.1875 79.109375 66.296875 79.089844 66.558594 C 79.066406 66.921875 79.035156 67.308594 79.332031 67.511719 L 79.335938 67.511719 C 79.316406 67.730469 79.441406 67.988281 79.726562 68.148438 L 79.738281 68.160156 L 79.492188 68.84375 L 79.492188 68.835938 L 78.65625 69.5 L 78.035156 69.632812 L 77.082031 69.839844 L 76.109375 74.863281 L 82.285156 75.054688 L 82.375 74.695312 L 82.828125 72.902344 L 83.867188 73.636719 C 83.878906 73.644531 83.894531 73.640625 83.898438 73.632812 L 84.027344 73.570312 L 85.378906 74.164062 C 85.523438 74.230469 85.683594 74.265625 85.84375 74.265625 L 85.890625 74.265625 C 86.132812 74.265625 86.367188 74.1875 86.5625 74.050781 L 89 72.324219 L 90.1875 71.691406 C 90.300781 71.628906 90.386719 71.523438 90.417969 71.398438 L 90.648438 70.539062 C 90.671875 70.445312 90.636719 70.347656 90.5625 70.289062 Z M 123.582031 84.78125 C 123.585938 84.800781 123.578125 84.824219 123.558594 84.832031 L 123.28125 85.042969 C 123.265625 85.054688 123.242188 85.050781 123.230469 85.039062 L 122.886719 84.730469 L 122.785156 85.21875 C 122.785156 85.242188 122.769531 85.265625 122.75 85.273438 L 122.226562 85.550781 C 122.210938 85.558594 122.191406 85.566406 122.171875 85.578125 C 122.121094 85.601562 122.0625 85.613281 122 85.613281 L 120.804688 85.601562 C 120.789062 85.601562 120.777344 85.589844 120.769531 85.578125 C 120.769531 85.574219 120.765625 85.566406 120.765625 85.5625 L 120.765625 85.445312 C 120.765625 85.3125 120.828125 85.183594 120.941406 85.105469 L 122.125 84.308594 L 121.605469 84.308594 C 121.597656 84.316406 121.582031 84.304688 121.582031 84.296875 L 119.46875 77.535156 L 118.839844 72.324219 L 118.503906 72.484375 L 117.769531 77.378906 C 117.753906 77.523438 117.738281 77.667969 117.734375 77.8125 L 117.625 84.269531 C 117.625 84.28125 117.617188 84.289062 117.601562 84.289062 L 117.320312 84.273438 C 117.390625 84.726562 117.441406 85.164062 117.347656 85.574219 C 117.347656 85.574219 117.347656 85.574219 117.34375 85.578125 C 117.34375 85.597656 117.324219 85.609375 117.304688 85.609375 L 116.890625 85.625 C 116.867188 85.625 116.847656 85.601562 116.847656 85.578125 L 116.832031 85.160156 L 116.386719 85.507812 C 116.335938 85.546875 116.273438 85.566406 116.207031 85.566406 L 114.339844 85.554688 C 114.316406 85.554688 114.292969 85.535156 114.292969 85.511719 L 114.261719 85.308594 C 114.261719 85.183594 114.332031 85.066406 114.441406 85.007812 L 115.863281 84.222656 L 115.515625 84.203125 C 115.503906 84.203125 115.492188 84.191406 115.492188 84.179688 L 116.117188 77.324219 L 116.949219 69.425781 L 116.75 67.363281 C 116.660156 67.4375 116.570312 67.5 116.46875 67.554688 C 115.984375 67.824219 115.386719 67.785156 114.90625 67.511719 C 114.128906 67.066406 113.289062 66.539062 112.5 65.757812 C 112.492188 65.746094 112.488281 65.730469 112.496094 65.726562 L 112.511719 65.671875 L 112.449219 65.609375 C 112.363281 65.523438 112.265625 65.457031 112.152344 65.421875 C 112.042969 65.386719 111.9375 65.339844 111.828125 65.285156 C 111.789062 65.265625 111.746094 65.246094 111.703125 65.222656 C 111.703125 65.222656 111.695312 65.21875 111.691406 65.21875 C 111.648438 65.195312 111.601562 65.179688 111.554688 65.167969 C 111.511719 65.160156 111.472656 65.152344 111.425781 65.148438 C 111.402344 65.144531 111.382812 65.140625 111.359375 65.140625 C 111.191406 65.136719 111.058594 65.078125 110.980469 65.015625 C 110.957031 64.996094 110.9375 64.972656 110.925781 64.953125 C 110.875 64.859375 110.976562 64.832031 110.976562 64.832031 L 111.339844 64.753906 L 111.371094 64.75 L 111.425781 64.742188 L 111.703125 64.710938 L 111.367188 64.492188 C 111.289062 64.460938 111.207031 64.433594 111.125 64.4375 C 111.070312 64.4375 111.019531 64.433594 110.976562 64.429688 C 110.960938 64.425781 110.945312 64.421875 110.933594 64.421875 C 110.90625 64.417969 110.882812 64.410156 110.859375 64.402344 C 110.84375 64.398438 110.832031 64.394531 110.816406 64.390625 C 110.792969 64.375 110.769531 64.363281 110.75 64.347656 C 110.722656 64.324219 110.695312 64.300781 110.679688 64.273438 C 110.648438 64.21875 110.675781 64.15625 110.675781 64.15625 C 110.679688 64.148438 110.6875 64.140625 110.703125 64.132812 C 110.707031 64.128906 110.710938 64.128906 110.714844 64.128906 C 110.722656 64.128906 110.730469 64.125 110.742188 64.121094 C 110.75 64.117188 110.765625 64.117188 110.777344 64.113281 C 110.78125 64.113281 110.789062 64.113281 110.792969 64.113281 C 110.804688 64.109375 110.816406 64.109375 110.828125 64.105469 C 111.015625 64.085938 111.320312 64.097656 111.425781 64.101562 C 111.449219 64.101562 111.464844 64.101562 111.464844 64.101562 L 111.828125 64.128906 L 112.136719 64.152344 C 112.265625 64.167969 112.386719 64.222656 112.480469 64.308594 L 112.507812 64.347656 L 112.785156 64.675781 C 112.796875 64.6875 112.8125 64.699219 112.824219 64.714844 C 112.839844 64.726562 112.855469 64.738281 112.871094 64.75 C 112.90625 64.777344 112.945312 64.800781 112.988281 64.820312 L 113.132812 64.875 L 113.199219 64.832031 C 113.203125 64.824219 113.214844 64.824219 113.226562 64.824219 L 115.664062 65.925781 L 116.976562 64.496094 C 117.148438 64.3125 117.351562 64.160156 117.578125 64.046875 L 118.082031 63.679688 L 118.1875 63.328125 C 118.046875 63.25 117.929688 63.125 117.859375 62.976562 C 117.851562 62.957031 117.84375 62.941406 117.835938 62.921875 C 117.710938 62.597656 117.71875 62.253906 117.855469 61.90625 C 117.914062 61.75 117.996094 61.585938 118.113281 61.425781 C 118.210938 60.753906 118.886719 60.285156 119.851562 60.734375 C 119.851562 60.734375 119.855469 60.734375 119.855469 60.734375 C 119.867188 60.738281 119.878906 60.742188 119.890625 60.75 C 119.96875 60.785156 120.039062 60.824219 120.105469 60.867188 C 120.164062 60.914062 120.222656 60.964844 120.277344 61.019531 C 120.710938 60.710938 121.152344 60.519531 121.640625 60.835938 C 122.039062 61.089844 122.285156 61.597656 122.273438 62.058594 C 122.257812 62.46875 122.253906 62.746094 122.683594 62.808594 C 123.148438 62.871094 123.488281 63.140625 123.445312 63.605469 C 123.417969 63.949219 123.328125 64.273438 123.0625 64.46875 C 122.984375 64.519531 122.925781 64.480469 122.9375 64.386719 C 122.96875 64.105469 122.925781 63.707031 122.640625 63.609375 C 122.335938 63.503906 122.042969 63.632812 121.730469 63.542969 C 121.273438 63.40625 121.226562 63.058594 121.371094 62.65625 C 121.445312 62.441406 121.515625 62.195312 121.464844 61.960938 C 121.386719 61.625 120.859375 61.472656 120.558594 61.457031 C 120.585938 61.550781 120.605469 61.773438 120.605469 61.867188 C 120.605469 62.09375 120.542969 62.308594 120.398438 62.511719 C 120.253906 62.71875 120.03125 62.917969 119.71875 63.121094 L 119.800781 63.730469 L 120.460938 64.304688 C 120.835938 64.523438 121.148438 64.828125 121.371094 65.195312 L 123.242188 68.273438 C 123.332031 68.476562 123.320312 68.621094 123.328125 68.785156 C 123.332031 69.027344 123.230469 69.257812 123.058594 69.425781 C 122.554688 69.90625 122.007812 70.421875 121.371094 70.578125 L 120.914062 70.882812 L 120.875 71.183594 C 120.980469 71.546875 121.03125 71.921875 121.03125 72.296875 L 120.921875 77.148438 C 120.921875 77.3125 120.957031 77.46875 121.015625 77.621094 L 123.507812 83.71875 C 123.503906 83.730469 123.496094 83.734375 123.492188 83.746094 L 123.21875 83.839844 Z M 120.691406 69.621094 C 120.925781 69.265625 121.425781 68.757812 121.796875 68.425781 L 120.707031 67.0625 L 120.371094 69.363281 L 120.550781 69.632812 Z M 61.65625 90.816406 L 61.558594 90.640625 C 61.503906 90.542969 61.40625 90.472656 61.296875 90.441406 L 60.492188 90.226562 C 60.375 90.195312 60.25 90.1875 60.128906 90.210938 L 59.25 90.371094 C 59.164062 90.386719 59.082031 90.390625 59 90.386719 L 57.410156 90.253906 C 57.269531 90.246094 57.136719 90.183594 57.039062 90.082031 L 56.074219 89.089844 L 56.125 88.886719 C 56.148438 88.871094 56.15625 88.839844 56.140625 88.8125 L 55.488281 87.953125 C 55.472656 87.867188 55.457031 87.785156 55.4375 87.699219 L 55.160156 86.007812 C 55.152344 85.972656 55.125 85.941406 55.089844 85.925781 L 55.085938 85.871094 L 55.148438 85.261719 L 55.199219 85.242188 C 55.277344 85.28125 55.332031 85.25 55.398438 85.199219 C 55.40625 85.191406 55.417969 85.183594 55.429688 85.175781 C 55.429688 85.171875 55.429688 85.171875 55.429688 85.171875 C 55.433594 85.171875 55.433594 85.171875 55.4375 85.167969 C 55.566406 85.066406 55.667969 85.058594 55.777344 84.914062 L 55.773438 84.914062 C 55.792969 84.890625 55.8125 84.863281 55.832031 84.839844 C 55.84375 84.820312 55.859375 84.800781 55.875 84.777344 C 56.339844 84.878906 56.351562 84.558594 56.226562 84.164062 C 56.203125 84.101562 56.203125 84.039062 56.21875 83.976562 C 56.238281 83.890625 56.25 83.804688 56.265625 83.714844 C 56.320312 83.613281 56.25 83.507812 56.269531 83.382812 C 56.277344 83.347656 56.285156 83.308594 56.289062 83.273438 C 56.289062 83.265625 56.292969 83.261719 56.292969 83.253906 L 56.289062 83.25 C 56.382812 82.148438 54.957031 81.605469 54 82.457031 C 54 82.457031 54 82.457031 53.996094 82.457031 L 53.648438 82.710938 C 53.4375 82.871094 53.398438 83.003906 53.261719 83.058594 C 53.207031 83.078125 53.140625 83.066406 53.082031 83.078125 C 52.96875 83.097656 52.90625 83.242188 52.894531 83.355469 C 52.886719 83.457031 52.910156 83.515625 52.835938 83.585938 C 52.765625 83.652344 52.640625 83.589844 52.5625 83.644531 C 52.480469 83.707031 52.5 83.765625 52.570312 83.835938 C 52.640625 83.910156 52.734375 83.890625 52.832031 83.90625 C 52.929688 83.925781 53.015625 83.964844 53.09375 84.027344 C 53.148438 84.074219 53.234375 84.09375 53.28125 84.152344 C 53.386719 84.28125 53.476562 84.421875 53.539062 84.527344 C 53.605469 84.636719 53.640625 84.710938 53.640625 84.710938 L 53.261719 85.058594 L 53.234375 85.101562 C 53.195312 85.082031 53.144531 85.089844 53.109375 85.121094 L 52.476562 85.703125 C 51.859375 86.214844 51.644531 86.886719 51.589844 87.6875 L 51.148438 92.660156 L 51.148438 94.222656 L 49.480469 98.832031 C 49.363281 99.121094 49.183594 99.382812 48.957031 99.597656 L 45.71875 102.453125 L 44.804688 103.257812 C 44.789062 103.277344 44.789062 103.296875 44.804688 103.316406 L 44.898438 103.40625 C 44.484375 103.703125 44.105469 104.003906 43.894531 104.445312 C 43.867188 104.507812 43.878906 104.585938 43.929688 104.636719 L 44.195312 104.925781 C 44.21875 104.949219 44.25 104.957031 44.28125 104.953125 L 44.746094 104.855469 L 44.757812 105.339844 C 44.757812 105.367188 44.765625 105.394531 44.785156 105.414062 L 45.734375 106.441406 C 45.773438 106.480469 45.824219 106.503906 45.882812 106.503906 L 47.125 106.550781 C 47.238281 106.550781 47.332031 106.503906 47.332031 106.390625 L 47.332031 106.191406 C 47.332031 106.046875 47.308594 105.992188 47.210938 105.890625 L 46.164062 104.980469 L 47.167969 104.058594 L 50.753906 100.769531 C 50.996094 100.554688 51.191406 100.296875 51.339844 100.007812 L 53.324219 96.378906 L 55.660156 99.273438 C 55.835938 99.480469 55.9375 99.738281 55.949219 100.007812 L 56.148438 104.058594 L 56.222656 105.566406 C 56.226562 105.601562 56.253906 105.628906 56.289062 105.628906 L 56.457031 105.628906 C 56.378906 106.136719 56.265625 106.671875 56.367188 107.179688 C 56.371094 107.210938 56.398438 107.230469 56.429688 107.230469 L 57.003906 107.167969 C 57.023438 107.167969 57.042969 107.15625 57.054688 107.144531 L 57.269531 106.847656 L 57.617188 107.214844 C 57.632812 107.230469 57.648438 107.238281 57.671875 107.238281 L 59.90625 107.226562 C 59.941406 107.226562 59.972656 107.195312 59.972656 107.15625 L 60 106.878906 C 60 106.734375 59.921875 106.601562 59.792969 106.53125 L 58.453125 105.683594 L 58.644531 105.683594 C 58.683594 105.683594 58.714844 105.652344 58.710938 105.613281 L 58.578125 104.058594 L 58.222656 99.804688 C 58.210938 99.484375 58.140625 99.171875 58.003906 98.882812 L 55.035156 92.730469 L 55.472656 91 L 56.253906 91.648438 C 56.371094 91.746094 56.511719 91.8125 56.664062 91.839844 L 57.214844 91.9375 C 57.332031 91.957031 57.449219 91.953125 57.570312 91.925781 L 59.59375 91.40625 C 59.710938 91.378906 59.828125 91.359375 59.949219 91.367188 C 59.996094 91.371094 60.039062 91.375 60.085938 91.371094 C 60.105469 91.367188 60.128906 91.367188 60.148438 91.363281 C 60.167969 91.363281 60.1875 91.363281 60.207031 91.355469 C 60.238281 91.351562 60.265625 91.347656 60.292969 91.339844 C 60.300781 91.339844 60.308594 91.335938 60.316406 91.335938 C 60.347656 91.324219 60.378906 91.316406 60.410156 91.304688 C 60.5625 91.25 60.671875 91.175781 60.738281 91.132812 C 60.761719 91.113281 60.792969 91.113281 60.820312 91.125 L 61.238281 91.320312 C 61.277344 91.339844 61.324219 91.339844 61.363281 91.324219 L 61.757812 91.148438 C 61.792969 91.132812 61.808594 91.089844 61.789062 91.050781 Z M 61.65625 90.816406 " fill-opacity="1" fill-rule="nonzero"/><g clip-path="url(#1dd6372f12)"><path fill="#030635" d="M 102.425781 85.578125 L 102.425781 94.160156 L 98.074219 94.160156 L 98.074219 104.058594 L 88.144531 104.058594 L 88.144531 101.386719 C 86.804688 101.335938 85.726562 100.226562 85.726562 98.875 C 85.726562 97.515625 86.804688 96.40625 88.144531 96.355469 L 88.144531 90.816406 L 84.785156 90.816406 L 84.785156 85.269531 C 86.171875 85.269531 87.300781 84.144531 87.300781 82.753906 C 87.300781 81.367188 86.171875 80.242188 84.785156 80.242188 L 84.785156 74.695312 L 81.101562 74.695312 C 80.878906 74.335938 80.570312 74.03125 80.203125 73.824219 C 79.835938 73.609375 79.414062 73.492188 78.957031 73.492188 C 78.882812 73.492188 78.8125 73.492188 78.742188 73.5 L 78.035156 69.632812 L 77.800781 68.351562 L 75.949219 68.6875 L 75.75 68.875 L 75.746094 68.875 C 75.742188 68.882812 75.738281 68.886719 75.734375 68.890625 C 75.710938 68.917969 75.691406 68.949219 75.679688 68.980469 C 75.679688 68.980469 75.679688 68.980469 75.675781 68.984375 C 75.671875 69 75.667969 69.015625 75.660156 69.03125 C 75.65625 69.046875 75.65625 69.066406 75.65625 69.082031 L 75.640625 69.519531 C 75.640625 69.542969 75.636719 69.5625 75.632812 69.582031 C 75.625 69.597656 75.621094 69.609375 75.617188 69.621094 C 75.609375 69.636719 75.597656 69.652344 75.585938 69.664062 C 75.585938 69.667969 75.585938 69.671875 75.582031 69.671875 C 75.558594 69.699219 75.535156 69.71875 75.503906 69.734375 C 75.484375 69.746094 75.464844 69.75 75.441406 69.753906 L 74.429688 69.953125 C 74.40625 69.957031 74.382812 69.957031 74.359375 69.953125 C 74.351562 69.953125 74.34375 69.953125 74.339844 69.953125 C 74.320312 69.949219 74.300781 69.941406 74.285156 69.9375 C 74.277344 69.933594 74.277344 69.933594 74.273438 69.929688 C 74.257812 69.925781 74.242188 69.914062 74.230469 69.902344 C 74.207031 69.886719 74.1875 69.867188 74.171875 69.839844 C 74.160156 69.824219 74.152344 69.808594 74.148438 69.792969 L 73.890625 69.179688 L 73.847656 69.074219 L 73.84375 69.074219 L 72.535156 69.316406 C 72.578125 69.496094 72.601562 69.6875 72.601562 69.882812 C 72.601562 71.273438 71.472656 72.398438 70.082031 72.398438 C 68.808594 72.398438 67.753906 71.453125 67.589844 70.21875 L 62.339844 71.183594 L 63.316406 76.503906 L 63.339844 76.621094 C 62.21875 76.875 61.382812 77.875 61.382812 79.074219 C 61.382812 80.464844 62.507812 81.589844 63.898438 81.589844 C 64.015625 81.589844 64.132812 81.582031 64.246094 81.566406 L 64.320312 81.976562 L 65.25 87.035156 L 69.066406 86.335938 L 69.066406 88.429688 C 68.980469 88.398438 68.890625 88.378906 68.796875 88.355469 C 68.769531 88.351562 68.742188 88.34375 68.714844 88.339844 C 68.675781 88.332031 68.640625 88.328125 68.605469 88.320312 C 68.601562 88.320312 68.601562 88.320312 68.601562 88.320312 C 68.566406 88.316406 68.535156 88.3125 68.5 88.308594 C 68.5 88.308594 68.5 88.308594 68.496094 88.308594 C 68.421875 88.304688 68.347656 88.296875 68.269531 88.296875 C 66.875 88.296875 65.75 89.421875 65.75 90.816406 L 61.65625 90.816406 L 61.789062 91.050781 C 61.808594 91.089844 61.792969 91.132812 61.757812 91.148438 L 61.363281 91.324219 C 61.324219 91.339844 61.277344 91.339844 61.238281 91.320312 L 60.820312 91.125 C 60.792969 91.113281 60.761719 91.113281 60.738281 91.132812 C 60.671875 91.175781 60.5625 91.25 60.410156 91.304688 L 60.410156 96.375 C 60.507812 96.363281 60.609375 96.355469 60.710938 96.355469 C 62.101562 96.355469 63.226562 97.480469 63.226562 98.875 C 63.226562 100.261719 62.101562 101.390625 60.710938 101.390625 C 60.609375 101.390625 60.507812 101.382812 60.410156 101.371094 L 60.410156 104.058594 L 45.71875 104.058594 L 45.71875 94.160156 L 41.367188 94.160156 L 41.367188 85.578125 L 14.398438 85.578125 L 14.398438 117.238281 L 129.394531 117.238281 L 129.394531 85.578125 Z M 29.238281 66.347656 L 28.769531 66.34375 L 28.589844 66.339844 L 28.359375 66.339844 L 25.78125 66.320312 C 25.746094 66.320312 25.71875 66.339844 25.710938 66.371094 L 25.488281 67.375 L 25.597656 67.90625 L 26.132812 68.027344 C 26.21875 68.046875 26.304688 68.03125 26.390625 67.996094 C 26.539062 67.933594 26.703125 67.898438 26.882812 67.890625 C 26.933594 67.886719 26.976562 67.933594 26.976562 67.984375 L 26.976562 68.796875 C 26.976562 68.910156 26.914062 69.011719 26.816406 69.066406 L 26.316406 69.335938 C 26.246094 69.375 26.164062 69.394531 26.082031 69.398438 L 25.339844 69.410156 C 25.261719 69.414062 25.183594 69.421875 25.105469 69.445312 L 25.019531 69.46875 L 24.851562 70.226562 C 24.84375 70.246094 24.851562 70.261719 24.863281 70.277344 C 24.863281 70.277344 24.863281 70.28125 24.863281 70.28125 C 24.875 70.292969 24.890625 70.304688 24.90625 70.304688 C 24.914062 70.304688 24.914062 70.304688 24.917969 70.304688 L 28.03125 70.332031 L 28.375 70.332031 C 28.40625 70.335938 28.433594 70.3125 28.441406 70.28125 L 29.304688 66.425781 C 29.3125 66.386719 29.28125 66.347656 29.238281 66.347656 Z M 120.464844 71.054688 L 120.15625 71.121094 C 120.070312 71.136719 119.988281 71.132812 119.902344 71.109375 L 119.308594 70.929688 C 119.269531 70.917969 119.246094 70.886719 119.238281 70.851562 L 119.101562 70.027344 C 119.09375 69.984375 119.121094 69.941406 119.160156 69.933594 C 119.285156 69.90625 119.488281 69.90625 119.664062 70 C 119.691406 70.011719 119.71875 70.019531 119.75 70.019531 L 120.210938 69.988281 L 120.066406 69.363281 L 119.890625 68.617188 L 119.832031 68.367188 C 119.828125 68.34375 119.808594 68.328125 119.789062 68.328125 L 117.234375 68.328125 C 117.222656 68.328125 117.207031 68.335938 117.199219 68.347656 C 117.191406 68.359375 117.1875 68.375 117.191406 68.386719 L 117.304688 68.863281 L 117.425781 69.363281 L 117.964844 71.640625 C 117.972656 71.664062 117.992188 71.675781 118.011719 71.675781 L 120.550781 71.675781 C 120.582031 71.675781 120.601562 71.648438 120.597656 71.621094 Z M 39.628906 61.300781 L 41.617188 61.300781 L 41.617188 59.296875 L 39.628906 59.296875 C 39.574219 59.296875 39.53125 59.253906 39.53125 59.203125 L 39.53125 58.179688 C 39.53125 58.125 39.574219 58.082031 39.628906 58.082031 L 40.882812 58.082031 L 40.882812 56.421875 L 35.214844 56.421875 L 35.214844 58.082031 L 36.582031 58.082031 C 36.636719 58.082031 36.679688 58.125 36.679688 58.179688 L 36.679688 59.203125 C 36.679688 59.253906 36.636719 59.296875 36.582031 59.296875 L 34.59375 59.296875 L 34.59375 60.421875 C 34.597656 60.425781 34.597656 60.433594 34.601562 60.4375 C 34.609375 60.464844 34.613281 60.492188 34.597656 60.515625 L 34.59375 60.523438 L 34.59375 61.300781 L 36.582031 61.300781 C 36.636719 61.300781 36.679688 61.34375 36.679688 61.394531 L 36.679688 64.691406 C 36.679688 64.746094 36.636719 64.789062 36.582031 64.789062 L 34.59375 64.789062 L 34.59375 67.734375 L 35.820312 67.734375 L 35.820312 66.285156 C 35.820312 66.234375 35.863281 66.191406 35.914062 66.191406 L 40.296875 66.191406 C 40.347656 66.191406 40.390625 66.234375 40.390625 66.285156 L 40.390625 67.734375 L 41.617188 67.734375 L 41.617188 64.789062 L 39.628906 64.789062 C 39.574219 64.789062 39.53125 64.746094 39.53125 64.691406 L 39.53125 61.394531 C 39.53125 61.34375 39.574219 61.300781 39.628906 61.300781 Z M 34.132812 61.300781 L 34.191406 61.300781 L 34.191406 61.199219 Z M 46.109375 52.703125 L 30.105469 52.703125 C 30.035156 52.703125 29.980469 52.757812 29.980469 52.824219 L 29.980469 63.238281 C 30.320312 63.015625 30.632812 62.753906 30.910156 62.453125 L 32.101562 61.160156 C 32.125 61.140625 32.164062 61.140625 32.183594 61.164062 L 32.246094 61.246094 L 32.527344 60.640625 C 32.550781 60.589844 32.582031 60.542969 32.609375 60.496094 C 32.648438 60.433594 32.695312 60.378906 32.746094 60.324219 C 32.769531 60.296875 32.785156 60.269531 32.8125 60.25 L 32.972656 60.078125 L 33.183594 59.851562 C 33.1875 59.851562 33.1875 59.851562 33.1875 59.851562 C 33.207031 59.828125 33.230469 59.816406 33.246094 59.816406 C 33.265625 59.816406 33.277344 59.824219 33.285156 59.832031 C 33.296875 59.839844 33.304688 59.847656 33.308594 59.851562 C 33.398438 60.011719 33.214844 60.351562 33.214844 60.351562 L 33.136719 60.664062 L 33.464844 60.527344 C 33.5625 60.484375 33.644531 60.429688 33.722656 60.359375 C 33.765625 60.320312 33.808594 60.285156 33.84375 60.242188 L 33.929688 60.132812 L 34.082031 59.949219 C 34.089844 59.941406 34.097656 59.9375 34.105469 59.929688 C 34.132812 59.914062 34.164062 59.914062 34.191406 59.929688 L 34.191406 59.296875 L 32.203125 59.296875 C 32.148438 59.296875 32.105469 59.253906 32.105469 59.203125 L 32.105469 58.179688 C 32.105469 58.125 32.148438 58.082031 32.203125 58.082031 L 34.816406 58.082031 L 34.816406 56.421875 L 34.148438 56.421875 C 34.09375 56.421875 34.050781 56.378906 34.050781 56.324219 L 34.050781 55.300781 C 34.050781 55.25 34.09375 55.207031 34.148438 55.207031 L 42.0625 55.207031 C 42.117188 55.207031 42.160156 55.25 42.160156 55.300781 L 42.160156 56.324219 C 42.160156 56.378906 42.117188 56.421875 42.0625 56.421875 L 41.28125 56.421875 L 41.28125 58.082031 L 44.007812 58.082031 C 44.058594 58.082031 44.105469 58.125 44.105469 58.179688 L 44.105469 59.203125 C 44.105469 59.253906 44.058594 59.296875 44.007812 59.296875 L 42.019531 59.296875 L 42.019531 61.300781 L 44.007812 61.300781 C 44.058594 61.300781 44.105469 61.34375 44.105469 61.394531 L 44.105469 64.691406 C 44.105469 64.746094 44.058594 64.789062 44.007812 64.789062 L 42.019531 64.789062 L 42.019531 68.136719 L 40.390625 68.136719 L 40.390625 69.582031 C 40.390625 69.636719 40.347656 69.679688 40.296875 69.679688 L 35.914062 69.679688 C 35.863281 69.679688 35.820312 69.636719 35.820312 69.582031 L 35.820312 68.136719 L 34.191406 68.136719 L 34.191406 64.789062 L 32.203125 64.789062 C 32.148438 64.789062 32.105469 64.746094 32.105469 64.691406 L 32.105469 63.683594 L 31.875 64.007812 C 31.582031 64.417969 31.214844 64.769531 30.792969 65.042969 L 29.980469 65.5625 L 29.980469 72.0625 C 29.980469 72.128906 30.035156 72.183594 30.105469 72.183594 L 46.109375 72.183594 C 46.175781 72.183594 46.230469 72.128906 46.230469 72.0625 L 46.230469 52.824219 C 46.230469 52.757812 46.175781 52.703125 46.109375 52.703125 Z M 106.90625 70.160156 L 106.90625 72.757812 L 108.964844 72.757812 L 108.964844 70.160156 Z M 109.367188 70.160156 L 109.367188 72.757812 L 111.425781 72.757812 L 111.425781 70.160156 Z M 104.445312 62.042969 L 104.445312 64.347656 L 106.507812 64.347656 L 106.507812 62.042969 Z M 101.984375 70.160156 L 101.984375 72.757812 L 104.046875 72.757812 L 104.046875 70.160156 Z M 104.445312 70.160156 L 104.445312 72.757812 L 106.507812 72.757812 L 106.507812 70.160156 Z M 111.828125 59.046875 L 111.828125 61.640625 L 113.382812 61.640625 L 113.382812 62.042969 L 111.828125 62.042969 L 111.828125 64.128906 L 112.136719 64.152344 C 112.265625 64.167969 112.386719 64.222656 112.480469 64.308594 L 112.507812 64.347656 L 113.382812 64.347656 L 113.382812 64.75 L 112.871094 64.75 C 112.90625 64.777344 112.945312 64.800781 112.988281 64.820312 L 113.132812 64.875 L 113.191406 64.796875 C 113.199219 64.789062 113.210938 64.789062 113.21875 64.789062 L 113.390625 64.859375 L 113.390625 59.046875 Z M 109.367188 61.640625 L 111.425781 61.640625 L 111.425781 59.046875 L 109.367188 59.046875 Z M 106.90625 61.640625 L 108.964844 61.640625 L 108.964844 59.046875 L 106.90625 59.046875 Z M 104.445312 61.640625 L 106.507812 61.640625 L 106.507812 59.046875 L 104.445312 59.046875 Z M 105.066406 60.273438 L 105.195312 60.144531 L 105.472656 60.425781 L 105.757812 60.144531 L 105.886719 60.277344 L 105.601562 60.558594 L 105.882812 60.839844 L 105.753906 60.96875 L 105.472656 60.6875 L 105.191406 60.964844 L 105.0625 60.835938 L 105.34375 60.554688 Z M 101.984375 61.640625 L 104.046875 61.640625 L 104.046875 59.046875 L 101.984375 59.046875 Z M 99.527344 61.640625 L 101.585938 61.640625 L 101.585938 59.046875 L 99.527344 59.046875 Z M 97.558594 72.757812 L 99.125 72.757812 L 99.125 70.160156 L 97.558594 70.160156 Z M 97.558594 69.757812 L 99.125 69.757812 L 99.125 67.453125 L 97.558594 67.453125 Z M 97.558594 67.050781 L 99.125 67.050781 L 99.125 64.75 L 97.558594 64.75 Z M 97.558594 64.347656 L 99.125 64.347656 L 99.125 62.042969 L 97.558594 62.042969 Z M 97.558594 61.640625 L 99.125 61.640625 L 99.125 59.046875 L 97.558594 59.046875 Z M 99.527344 70.160156 L 99.527344 72.757812 L 101.585938 72.757812 L 101.585938 70.160156 Z M 101.984375 64.75 L 101.984375 67.050781 L 104.046875 67.050781 L 104.046875 64.75 Z M 112.464844 65.769531 C 112.457031 65.757812 112.453125 65.742188 112.460938 65.738281 L 112.511719 65.671875 L 112.449219 65.609375 C 112.363281 65.523438 112.265625 65.457031 112.152344 65.421875 C 112.042969 65.386719 111.9375 65.339844 111.828125 65.285156 L 111.828125 67.050781 L 113.382812 67.050781 L 113.382812 67.453125 L 111.828125 67.453125 L 111.828125 69.757812 L 113.382812 69.757812 L 113.382812 70.160156 L 111.828125 70.160156 L 111.828125 72.757812 L 113.390625 72.757812 L 113.390625 66.613281 C 113.078125 66.355469 112.769531 66.070312 112.464844 65.769531 Z M 101.984375 67.453125 L 101.984375 69.757812 L 104.046875 69.757812 L 104.046875 67.453125 Z M 106.90625 67.453125 L 106.90625 69.757812 L 108.964844 69.757812 L 108.964844 67.453125 Z M 99.527344 67.453125 L 99.527344 69.757812 L 101.585938 69.757812 L 101.585938 67.453125 Z M 104.445312 67.453125 L 104.445312 69.757812 L 106.507812 69.757812 L 106.507812 67.453125 Z M 105.878906 69.070312 L 105.75 69.199219 L 105.46875 68.914062 L 105.183594 69.195312 L 105.054688 69.066406 L 105.335938 68.785156 L 105.058594 68.503906 L 105.191406 68.375 L 105.46875 68.65625 L 105.753906 68.375 L 105.882812 68.507812 L 105.597656 68.785156 Z M 101.984375 62.042969 L 101.984375 64.347656 L 104.046875 64.347656 L 104.046875 62.042969 Z M 109.367188 67.453125 L 109.367188 69.757812 L 111.425781 69.757812 L 111.425781 67.453125 Z M 99.527344 64.75 L 99.527344 67.050781 L 101.585938 67.050781 L 101.585938 64.75 Z M 101.070312 66.1875 L 100.9375 66.316406 L 100.660156 66.03125 L 100.375 66.3125 L 100.246094 66.179688 L 100.53125 65.902344 L 100.25 65.621094 L 100.382812 65.488281 L 100.660156 65.773438 L 100.941406 65.492188 L 101.070312 65.625 L 100.789062 65.902344 Z M 106.90625 62.042969 L 106.90625 64.347656 L 108.964844 64.347656 L 108.964844 62.042969 Z M 99.527344 62.042969 L 99.527344 64.347656 L 101.585938 64.347656 L 101.585938 62.042969 Z M 104.445312 64.75 L 104.445312 67.050781 L 106.507812 67.050781 L 106.507812 64.75 Z M 109.367188 62.042969 L 109.367188 64.347656 L 110.75 64.347656 C 110.722656 64.324219 110.695312 64.300781 110.679688 64.273438 C 110.648438 64.21875 110.675781 64.15625 110.675781 64.15625 C 110.675781 64.148438 110.6875 64.140625 110.703125 64.132812 C 110.707031 64.128906 110.710938 64.128906 110.714844 64.128906 C 110.722656 64.125 110.730469 64.125 110.742188 64.121094 C 110.753906 64.117188 110.765625 64.113281 110.777344 64.113281 C 110.792969 64.109375 110.808594 64.105469 110.828125 64.105469 C 111.015625 64.085938 111.320312 64.097656 111.425781 64.101562 L 111.425781 62.042969 Z M 110.726562 63.453125 L 110.59375 63.582031 L 110.316406 63.300781 L 110.03125 63.582031 L 109.902344 63.449219 L 110.183594 63.171875 L 109.90625 62.886719 L 110.035156 62.757812 L 110.316406 63.039062 L 110.597656 62.761719 L 110.726562 62.890625 L 110.445312 63.171875 Z M 106.90625 64.75 L 106.90625 67.050781 L 108.964844 67.050781 L 108.964844 64.75 Z M 111.359375 65.140625 C 111.191406 65.136719 111.058594 65.078125 110.980469 65.015625 C 110.957031 64.996094 110.9375 64.972656 110.925781 64.953125 C 110.875 64.859375 110.976562 64.832031 110.976562 64.832031 L 111.339844 64.753906 L 111.371094 64.75 L 109.367188 64.75 L 109.367188 67.050781 L 111.425781 67.050781 L 111.425781 65.148438 C 111.402344 65.144531 111.382812 65.140625 111.359375 65.140625 Z M 111.359375 65.140625 " fill-opacity="1" fill-rule="nonzero"/></g><path fill="#a63b2a" d="M 34.601562 60.441406 C 34.609375 60.464844 34.613281 60.492188 34.597656 60.515625 L 34.441406 60.777344 L 34.191406 61.199219 L 34.164062 61.242188 L 34.074219 61.398438 C 34.058594 61.421875 34.039062 61.4375 34.027344 61.457031 C 33.972656 61.53125 33.910156 61.59375 33.835938 61.648438 C 33.808594 61.671875 33.78125 61.699219 33.75 61.71875 L 32.960938 62.164062 L 32.953125 62.28125 C 32.964844 62.300781 32.964844 62.324219 32.953125 62.34375 L 31.691406 63.84375 C 31.402344 64.257812 31.035156 64.609375 30.609375 64.882812 L 28.511719 66.316406 L 29.117188 66.5 C 29.160156 66.5 29.195312 66.539062 29.183594 66.578125 L 28.226562 70.144531 C 28.21875 70.175781 28.191406 70.195312 28.15625 70.195312 L 28.035156 70.195312 L 28.03125 70.332031 L 28.003906 71.179688 L 30.382812 83.875 C 30.386719 83.910156 30.367188 83.9375 30.332031 83.945312 L 30.074219 83.976562 L 30.222656 84.097656 L 31.546875 85.15625 L 31.554688 85.457031 L 29.65625 85.441406 L 29.320312 84.972656 L 29.046875 85.457031 L 28.640625 85.386719 L 28.613281 84.199219 L 28.410156 84.226562 C 28.378906 84.230469 28.351562 84.207031 28.34375 84.179688 L 27.496094 78.335938 L 26.324219 72.871094 L 25.796875 72.917969 L 24.589844 78.476562 L 23.84375 84.238281 C 23.839844 84.253906 23.820312 84.269531 23.800781 84.265625 L 23.667969 84.246094 L 23.664062 84.351562 L 23.628906 85.429688 L 23.234375 85.417969 L 22.953125 85.085938 L 22.640625 85.480469 L 20.679688 85.480469 L 20.753906 85.132812 L 22.078125 84.136719 L 22.191406 84.050781 L 21.964844 84.019531 C 21.945312 84.019531 21.933594 84 21.9375 83.980469 L 23.804688 71.15625 L 23.683594 69.925781 L 22.582031 70.332031 C 22.128906 70.539062 21.882812 70.539062 21.609375 70.128906 L 21.28125 69.644531 C 21.09375 69.359375 21.058594 69 21.195312 68.683594 L 22.625 65.421875 C 22.859375 64.867188 23.210938 64.503906 23.769531 64.285156 L 24.148438 64.136719 L 24.796875 63.542969 L 24.796875 63.539062 L 24.925781 63.015625 C 24.597656 62.964844 24.417969 62.804688 24.359375 62.632812 C 24.121094 62.417969 23.960938 62.203125 23.824219 61.796875 C 23.71875 61.496094 23.890625 61.21875 24.191406 61.113281 C 24.195312 61.109375 24.199219 61.109375 24.199219 61.109375 C 24.34375 61.058594 24.460938 60.976562 24.539062 60.851562 C 24.683594 60.625 24.863281 60.441406 25.078125 60.296875 C 25.292969 60.15625 25.441406 60.105469 25.6875 60.105469 C 25.992188 60.105469 26.222656 60.175781 26.441406 60.40625 C 26.441406 60.410156 26.476562 60.433594 26.476562 60.4375 C 26.59375 60.5625 26.679688 60.671875 26.738281 60.835938 L 26.746094 60.851562 C 26.796875 61.007812 26.839844 61.144531 26.839844 61.332031 C 26.839844 61.371094 26.867188 61.429688 26.863281 61.472656 C 26.996094 61.914062 27.035156 62.398438 26.976562 62.875 C 26.964844 62.957031 26.914062 63.027344 26.839844 63.0625 C 26.816406 63.074219 26.789062 63.085938 26.761719 63.089844 L 26.664062 63.105469 L 26.710938 63.296875 L 26.769531 63.539062 L 26.769531 63.542969 L 26.96875 63.816406 C 27.089844 63.878906 27.222656 63.90625 27.355469 63.894531 L 29.246094 63.785156 C 29.414062 63.753906 29.582031 63.703125 29.734375 63.617188 C 30.203125 63.359375 30.636719 62.933594 30.996094 62.542969 L 32.097656 61.210938 C 32.121094 61.1875 32.15625 61.191406 32.175781 61.21875 L 32.246094 61.25 L 32.527344 60.640625 C 32.550781 60.589844 32.582031 60.542969 32.609375 60.496094 C 32.652344 60.433594 32.695312 60.378906 32.746094 60.324219 C 32.765625 60.296875 32.785156 60.273438 32.808594 60.25 L 32.972656 60.078125 L 33.1875 59.851562 C 33.226562 59.808594 33.261719 59.816406 33.285156 59.832031 C 33.296875 59.839844 33.304688 59.847656 33.308594 59.851562 C 33.398438 60.011719 33.210938 60.351562 33.210938 60.351562 L 33.136719 60.664062 L 33.464844 60.527344 C 33.5625 60.488281 33.644531 60.425781 33.722656 60.359375 C 33.765625 60.320312 33.808594 60.285156 33.84375 60.242188 L 33.929688 60.136719 L 34.082031 59.949219 C 34.089844 59.941406 34.097656 59.9375 34.105469 59.929688 C 34.117188 59.921875 34.132812 59.917969 34.148438 59.917969 C 34.164062 59.917969 34.179688 59.921875 34.195312 59.929688 C 34.203125 59.933594 34.214844 59.941406 34.222656 59.949219 L 34.417969 60.195312 L 34.589844 60.414062 C 34.597656 60.421875 34.597656 60.429688 34.601562 60.441406 Z M 82.292969 69.722656 L 81.570312 68.980469 L 81.3125 69.464844 L 80.59375 70.835938 L 79.65625 69.136719 L 79.496094 68.84375 L 79.488281 68.835938 L 78.660156 69.28125 L 78 69.453125 L 78.035156 69.632812 L 78.742188 73.5 C 78.8125 73.492188 78.882812 73.488281 78.957031 73.488281 C 79.058594 73.488281 79.160156 73.496094 79.261719 73.511719 C 79.289062 73.511719 79.316406 73.519531 79.347656 73.523438 C 79.421875 73.535156 79.492188 73.550781 79.566406 73.566406 C 79.589844 73.574219 79.617188 73.578125 79.644531 73.585938 C 79.738281 73.613281 79.828125 73.644531 79.914062 73.679688 C 79.914062 73.679688 79.917969 73.679688 79.917969 73.679688 C 80.015625 73.722656 80.105469 73.765625 80.195312 73.816406 C 80.203125 73.824219 80.210938 73.828125 80.222656 73.832031 C 80.300781 73.878906 80.378906 73.933594 80.453125 73.988281 C 80.460938 73.992188 80.472656 74 80.480469 74.007812 C 80.726562 74.195312 80.9375 74.429688 81.101562 74.695312 L 82.554688 74.695312 L 82.925781 73.152344 L 83.898438 73.75 C 83.90625 73.753906 83.921875 73.75 83.929688 73.742188 L 84.027344 73.570312 L 85.042969 71.851562 L 85.234375 71.53125 C 85.238281 71.519531 85.234375 71.507812 85.226562 71.5 Z M 56.390625 83.238281 L 56.390625 83.242188 C 56.390625 83.246094 56.386719 83.253906 56.386719 83.257812 C 56.382812 83.296875 56.375 83.332031 56.371094 83.367188 C 56.351562 83.496094 56.320312 83.613281 56.265625 83.714844 L 54.992188 83.324219 C 54.914062 83.300781 54.828125 83.347656 54.8125 83.429688 L 54.699219 83.9375 C 54.671875 84.058594 54.726562 84.183594 54.832031 84.25 L 55.773438 84.914062 L 55.777344 84.914062 C 55.667969 85.058594 55.589844 85.128906 55.460938 85.230469 C 55.460938 85.230469 55.457031 85.234375 55.453125 85.234375 C 55.445312 85.246094 55.4375 85.25 55.425781 85.257812 C 55.359375 85.3125 55.261719 85.316406 55.183594 85.277344 L 55.148438 85.261719 L 53.640625 84.710938 C 53.640625 84.710938 53.402344 84.519531 53.191406 84.261719 C 53.144531 84.203125 53.109375 84.136719 53.050781 84.089844 C 52.972656 84.023438 52.867188 84.007812 52.769531 83.992188 C 52.671875 83.972656 52.566406 83.949219 52.496094 83.878906 C 52.425781 83.808594 52.410156 83.675781 52.492188 83.617188 C 52.570312 83.5625 52.695312 83.601562 52.761719 83.535156 C 52.835938 83.464844 52.789062 83.339844 52.800781 83.238281 C 52.808594 83.128906 52.902344 83.027344 53.011719 83.007812 C 53.074219 83 53.136719 83.011719 53.195312 82.988281 C 53.328125 82.9375 53.34375 82.75 53.554688 82.59375 L 53.90625 82.335938 C 54.863281 81.484375 56.480469 82.132812 56.390625 83.238281 Z M 55.425781 85.175781 C 55.429688 85.175781 55.429688 85.175781 55.429688 85.171875 C 55.433594 85.171875 55.433594 85.171875 55.433594 85.167969 C 55.433594 85.171875 55.429688 85.171875 55.425781 85.175781 Z M 92.355469 84.648438 C 92.3125 84.621094 92.253906 84.636719 92.21875 84.671875 L 92.003906 84.914062 L 91.835938 84.804688 L 91.867188 84.289062 C 91.878906 84.089844 91.777344 83.90625 91.609375 83.808594 L 90.664062 83.269531 C 90.167969 83.664062 89.878906 84.203125 89.761719 84.855469 C 89.726562 85.035156 89.808594 85.21875 89.960938 85.316406 L 90.386719 85.59375 L 90.296875 86.363281 L 92.347656 86.066406 L 92.21875 85.578125 L 92.191406 85.46875 C 92.621094 85.304688 92.667969 84.839844 92.355469 84.648438 Z M 83.789062 84.480469 C 83.703125 84.285156 83.613281 84.015625 83.542969 83.972656 C 83.515625 83.957031 83.484375 83.964844 83.460938 83.980469 C 83.410156 84.011719 83.328125 84.21875 83.421875 84.417969 L 83.367188 84.679688 L 82.882812 84.566406 C 82.789062 84.554688 82.703125 84.503906 82.660156 84.421875 C 82.578125 84.269531 82.457031 84.136719 82.308594 84.019531 C 82.25 83.972656 82.164062 83.988281 82.121094 84.046875 C 82 84.214844 81.765625 84.53125 81.648438 84.695312 C 81.601562 84.753906 81.605469 84.835938 81.652344 84.898438 L 82.371094 85.832031 C 82.425781 85.90625 82.5 85.960938 82.582031 85.996094 L 83.464844 86.363281 L 84.121094 85.367188 Z M 122.765625 62.722656 C 122.335938 62.664062 122.339844 62.382812 122.355469 61.976562 C 122.367188 61.511719 122.105469 61.023438 121.710938 60.769531 C 121.21875 60.453125 120.726562 60.617188 120.289062 60.929688 C 120.234375 60.875 120.179688 60.820312 120.117188 60.777344 C 120.054688 60.730469 119.980469 60.691406 119.90625 60.65625 C 119.894531 60.648438 119.882812 60.644531 119.871094 60.640625 C 119.871094 60.640625 119.867188 60.640625 119.867188 60.636719 C 118.898438 60.191406 118.089844 60.789062 118.113281 61.425781 C 118.136719 61.394531 118.160156 61.359375 118.1875 61.324219 C 118.207031 61.300781 118.226562 61.273438 118.25 61.246094 L 118.816406 61.570312 L 119.453125 61.929688 C 119.53125 61.976562 119.582031 62.054688 119.585938 62.144531 L 119.605469 62.441406 L 119.703125 62.480469 L 119.917969 62.121094 C 120.410156 62.148438 120.402344 62.859375 119.691406 62.914062 L 119.71875 63.121094 C 120.585938 62.707031 120.796875 62.09375 120.664062 61.566406 C 120.964844 61.578125 121.320312 61.652344 121.394531 61.988281 C 121.449219 62.214844 121.351562 62.429688 121.277344 62.644531 C 121.136719 63.042969 121.195312 63.464844 121.65625 63.601562 C 121.964844 63.691406 122.289062 63.589844 122.597656 63.695312 C 122.882812 63.792969 122.921875 64.117188 122.890625 64.398438 C 122.878906 64.492188 122.988281 64.5625 123.066406 64.507812 C 123.332031 64.3125 123.519531 63.980469 123.546875 63.636719 C 123.589844 63.175781 123.226562 62.789062 122.765625 62.722656 Z M 122.765625 62.722656 " fill-opacity="1" fill-rule="nonzero"/><path fill="#000000" d="M 82.160156 65.886719 C 82.324219 66.039062 82.421875 66.25 82.421875 66.476562 C 82.421875 66.785156 82.296875 67.09375 82.085938 67.320312 C 82.046875 67.359375 82.011719 67.402344 81.972656 67.4375 L 81.96875 67.4375 C 81.96875 67.261719 81.964844 67.082031 81.945312 66.898438 L 80.621094 66.648438 C 80.460938 66.621094 80.304688 66.71875 80.265625 66.878906 L 80.148438 67.367188 L 79.894531 67.367188 L 79.875 67.121094 C 79.542969 67.089844 79.359375 67.277344 79.335938 67.507812 L 79.332031 67.507812 C 79.035156 67.308594 78.933594 66.933594 78.960938 66.570312 C 78.980469 66.308594 79.128906 66.0625 79.363281 65.941406 C 79.414062 65.914062 79.464844 65.890625 79.515625 65.871094 C 79.628906 65.832031 79.730469 65.773438 79.8125 65.6875 C 80.007812 65.496094 80.289062 65.355469 80.613281 65.320312 C 81.207031 65.289062 81.730469 65.480469 82.160156 65.886719 Z M 114.421875 75.070312 L 96.515625 75.070312 C 96.449219 75.070312 96.398438 75.015625 96.398438 74.953125 L 96.398438 54.144531 C 96.398438 54.078125 96.449219 54.027344 96.515625 54.027344 L 97.539062 54.027344 L 97.539062 54.785156 C 97.539062 54.8125 97.558594 54.835938 97.585938 54.835938 L 99.234375 54.835938 C 99.261719 54.835938 99.285156 54.8125 99.285156 54.785156 L 99.285156 54.027344 L 102.242188 54.027344 L 102.242188 54.785156 C 102.242188 54.8125 102.265625 54.835938 102.292969 54.835938 L 103.941406 54.835938 C 103.96875 54.835938 103.992188 54.8125 103.992188 54.785156 L 103.992188 54.027344 L 106.945312 54.027344 L 106.945312 54.785156 C 106.945312 54.8125 106.96875 54.835938 106.996094 54.835938 L 108.644531 54.835938 C 108.671875 54.835938 108.695312 54.8125 108.695312 54.785156 L 108.695312 54.027344 L 111.652344 54.027344 L 111.652344 54.785156 C 111.652344 54.8125 111.675781 54.835938 111.703125 54.835938 L 113.351562 54.835938 C 113.378906 54.835938 113.398438 54.8125 113.398438 54.785156 L 113.398438 54.027344 L 114.421875 54.027344 C 114.488281 54.027344 114.539062 54.078125 114.539062 54.144531 L 114.539062 65.308594 L 113.390625 64.855469 L 113.390625 59.046875 L 97.558594 59.046875 L 97.558594 72.757812 L 113.390625 72.757812 L 113.390625 66.613281 C 113.773438 66.9375 114.160156 67.21875 114.539062 67.460938 L 114.539062 74.953125 C 114.539062 75.015625 114.488281 75.070312 114.421875 75.070312 Z M 97.539062 59.042969 L 113.398438 59.042969 L 113.398438 56.722656 L 97.539062 56.722656 Z M 59.929688 106.4375 L 58.71875 105.78125 L 58.90625 105.78125 C 58.945312 105.78125 58.976562 105.746094 58.972656 105.710938 L 58.816406 104.058594 L 58.410156 99.707031 C 58.398438 99.386719 58.324219 99.074219 58.191406 98.785156 L 55.320312 92.664062 L 51.011719 92.664062 L 51.011719 94.222656 L 49.269531 98.574219 C 49.152344 98.863281 48.972656 99.125 48.746094 99.335938 L 45.71875 102.179688 L 44.640625 103.195312 C 44.625 103.210938 44.625 103.234375 44.640625 103.25 L 44.734375 103.339844 C 44.445312 103.546875 44.203125 103.785156 44.007812 104.058594 C 43.921875 104.175781 43.839844 104.300781 43.777344 104.433594 C 43.746094 104.5 43.761719 104.578125 43.8125 104.628906 L 44.183594 105.015625 C 44.207031 105.039062 44.238281 105.050781 44.269531 105.042969 L 44.652344 104.96875 L 44.617188 105.363281 C 44.613281 105.390625 44.621094 105.417969 44.640625 105.4375 L 45.726562 106.574219 C 45.761719 106.617188 45.816406 106.640625 45.875 106.640625 L 47.230469 106.640625 C 47.34375 106.640625 47.4375 106.546875 47.4375 106.433594 L 47.4375 106.230469 C 47.4375 106.089844 47.378906 105.953125 47.28125 105.847656 L 46.433594 104.96875 L 47.464844 104.058594 L 50.96875 100.953125 C 51.210938 100.738281 51.410156 100.480469 51.554688 100.195312 L 53.253906 96.875 L 55.425781 99.425781 C 55.601562 99.628906 55.703125 99.886719 55.71875 100.15625 L 55.902344 104.058594 L 55.980469 105.71875 C 55.984375 105.753906 56.011719 105.78125 56.046875 105.78125 L 56.214844 105.78125 C 56.132812 106.289062 56.140625 106.796875 56.242188 107.304688 C 56.246094 107.335938 56.273438 107.355469 56.304688 107.355469 L 57.007812 107.355469 C 57.027344 107.355469 57.046875 107.347656 57.058594 107.332031 L 57.277344 107.035156 L 57.511719 107.332031 C 57.527344 107.347656 57.546875 107.355469 57.566406 107.355469 L 60.070312 107.355469 C 60.105469 107.355469 60.136719 107.328125 60.136719 107.289062 L 60.136719 106.78125 C 60.136719 106.636719 60.058594 106.503906 59.929688 106.4375 Z M 90.664062 83.269531 L 91.609375 83.808594 C 91.777344 83.90625 91.878906 84.089844 91.867188 84.289062 L 91.835938 84.804688 L 92.003906 84.914062 L 92.21875 84.671875 C 92.253906 84.636719 92.3125 84.621094 92.355469 84.648438 C 92.667969 84.839844 92.621094 85.304688 92.191406 85.46875 L 92.21875 85.578125 C 93.398438 84.9375 93.246094 83.921875 92.664062 83.3125 L 92.664062 83.308594 C 92.320312 82.953125 91.828125 82.738281 91.367188 82.824219 L 91.363281 82.820312 C 91.359375 82.824219 91.351562 82.824219 91.34375 82.828125 C 91.128906 82.871094 90.921875 82.988281 90.742188 83.183594 C 90.714844 83.210938 90.6875 83.238281 90.664062 83.269531 Z M 94.964844 104.058594 L 93.679688 100.894531 C 93.625 100.765625 93.582031 100.628906 93.550781 100.492188 L 92.480469 95.640625 L 92.484375 95.636719 C 92.730469 95.25 92.863281 94.804688 92.863281 94.347656 L 92.863281 93.007812 L 89.316406 93.007812 L 87.078125 101.097656 L 86.257812 104.058594 L 85.644531 106.277344 C 85.636719 106.308594 85.65625 106.335938 85.683594 106.339844 L 85.894531 106.375 L 84.835938 106.929688 L 84.195312 107.265625 C 84.0625 107.335938 83.980469 107.472656 83.980469 107.625 L 83.980469 108.046875 C 83.980469 108.082031 84.007812 108.109375 84.039062 108.109375 L 86.324219 108.109375 C 86.371094 108.109375 86.414062 108.089844 86.445312 108.054688 L 86.734375 107.777344 L 86.949219 108.074219 C 86.960938 108.09375 86.980469 108.109375 87.003906 108.109375 L 87.617188 108.109375 C 87.652344 108.109375 87.679688 108.082031 87.679688 108.046875 L 87.679688 106.652344 L 88.144531 105.28125 L 88.5625 104.058594 L 90.121094 99.492188 C 90.207031 99.25 90.316406 99.019531 90.457031 98.800781 L 90.632812 98.527344 L 91.464844 101.621094 C 91.503906 101.761719 91.554688 101.902344 91.621094 102.035156 L 92.574219 104.058594 L 93.53125 106.082031 L 92.550781 106.757812 C 92.390625 106.867188 92.296875 107.042969 92.296875 107.234375 L 92.296875 107.480469 C 92.296875 107.511719 92.324219 107.539062 92.355469 107.539062 L 93.902344 107.539062 C 93.945312 107.539062 93.988281 107.527344 94.019531 107.5 L 94.976562 106.828125 C 94.980469 106.816406 94.988281 106.808594 94.996094 106.796875 L 95.050781 106.453125 L 95.300781 106.632812 C 95.316406 106.632812 95.332031 106.636719 95.347656 106.636719 L 95.847656 106.394531 C 95.871094 106.382812 95.878906 106.355469 95.871094 106.332031 L 95.4375 105.214844 Z M 120.550781 69.632812 L 120.472656 69.363281 L 120.066406 69.363281 L 120.140625 69.671875 Z M 123.398438 83.859375 L 123.671875 83.765625 C 123.679688 83.753906 123.679688 83.75 123.6875 83.738281 L 121.339844 77.648438 C 121.285156 77.5 121.253906 77.339844 121.25 77.175781 L 121.15625 72.277344 C 121.15625 71.902344 121.101562 71.53125 120.996094 71.167969 L 120.914062 70.886719 L 120.914062 70.882812 L 120.835938 70.9375 C 120.78125 70.976562 120.71875 71 120.65625 71.011719 L 120.464844 71.054688 L 120.597656 71.621094 C 120.605469 71.648438 120.582031 71.675781 120.550781 71.675781 L 118.011719 71.675781 C 117.992188 71.675781 117.972656 71.664062 117.96875 71.640625 L 117.421875 69.363281 L 116.800781 69.363281 L 115.871094 77.222656 L 115.316406 84.230469 C 115.316406 84.246094 115.328125 84.257812 115.339844 84.257812 L 115.6875 84.277344 L 114.324219 85.003906 C 114.210938 85.0625 114.144531 85.179688 114.144531 85.308594 L 114.144531 85.578125 L 116.425781 85.578125 L 116.78125 85.304688 L 116.78125 85.578125 L 117.4375 85.578125 C 117.511719 85.195312 117.507812 84.792969 117.441406 84.371094 L 117.722656 84.386719 C 117.734375 84.390625 117.746094 84.378906 117.746094 84.367188 L 117.921875 77.847656 C 117.925781 77.703125 117.9375 77.558594 117.957031 77.414062 L 118.617188 72.539062 L 118.769531 72.457031 L 119.148438 77.21875 C 119.167969 77.445312 119.210938 77.671875 119.277344 77.890625 L 121.335938 84.523438 C 121.347656 84.527344 121.355469 84.53125 121.363281 84.535156 L 121.707031 84.421875 L 120.777344 85.089844 C 120.667969 85.171875 120.605469 85.296875 120.605469 85.433594 L 120.605469 85.578125 L 122.523438 85.578125 L 122.921875 85.332031 C 122.933594 85.3125 122.941406 85.296875 122.953125 85.277344 L 122.953125 84.929688 L 123.199219 85.164062 C 123.214844 85.167969 123.226562 85.167969 123.246094 85.171875 L 123.710938 84.945312 C 123.726562 84.933594 123.738281 84.914062 123.730469 84.894531 Z M 24.355469 62.632812 C 24.355469 62.632812 24.359375 62.632812 24.359375 62.632812 C 24.265625 62.371094 24.464844 62.089844 24.835938 62.1875 L 24.914062 62.359375 L 24.988281 62.34375 L 25.167969 62.300781 L 25.164062 62.257812 L 25.144531 61.574219 C 25.136719 61.402344 25.25 61.246094 25.417969 61.203125 L 26.613281 60.882812 C 26.714844 61.070312 26.800781 61.265625 26.863281 61.472656 C 26.875 61.234375 26.847656 61.027344 26.785156 60.839844 L 26.789062 60.839844 L 26.78125 60.824219 C 26.722656 60.660156 26.640625 60.511719 26.523438 60.382812 C 26.519531 60.378906 26.515625 60.378906 26.511719 60.375 C 26.121094 59.957031 25.464844 59.929688 24.992188 60.246094 C 24.773438 60.390625 24.59375 60.574219 24.449219 60.800781 C 24.367188 60.925781 24.238281 61.007812 24.097656 61.054688 C 24.09375 61.054688 24.09375 61.058594 24.089844 61.058594 C 23.792969 61.167969 23.644531 61.511719 23.746094 61.8125 C 23.882812 62.214844 24.09375 62.46875 24.355469 62.632812 Z M 32.960938 62.164062 L 32.9375 62.132812 L 32.289062 61.300781 L 32.269531 61.273438 L 32.246094 61.246094 L 32.183594 61.164062 C 32.164062 61.140625 32.125 61.136719 32.101562 61.160156 L 30.910156 62.453125 C 30.632812 62.753906 30.320312 63.015625 29.980469 63.238281 C 29.875 63.308594 29.769531 63.371094 29.660156 63.433594 C 29.507812 63.515625 29.339844 63.570312 29.167969 63.605469 L 27.394531 63.734375 C 27.257812 63.746094 27.125 63.71875 27.003906 63.660156 L 26.769531 63.539062 L 26.769531 63.542969 L 26.644531 63.828125 L 26.199219 64.867188 L 25.171875 63.894531 L 24.800781 63.539062 L 24.796875 63.539062 L 24.042969 63.945312 L 23.667969 64.09375 C 23.105469 64.316406 22.660156 64.75 22.421875 65.304688 L 20.957031 68.722656 C 20.824219 69.035156 20.855469 69.398438 21.046875 69.683594 L 21.371094 70.167969 C 21.644531 70.578125 22.179688 70.726562 22.628906 70.523438 L 23.558594 70.101562 L 23.664062 71.144531 L 28.222656 71.144531 L 28.25 70.332031 L 28.03125 70.332031 L 24.910156 70.304688 C 24.890625 70.300781 24.875 70.292969 24.863281 70.28125 C 24.863281 70.28125 24.863281 70.277344 24.859375 70.277344 C 24.851562 70.261719 24.84375 70.246094 24.847656 70.226562 L 25.019531 69.46875 L 24.328125 69.648438 L 24.042969 69.722656 L 24.042969 68.234375 L 24.214844 68.207031 L 24.707031 68.128906 C 24.832031 68.105469 24.945312 68.039062 25.023438 67.941406 L 25.480469 67.347656 L 25.488281 67.375 L 25.710938 66.371094 C 25.71875 66.339844 25.746094 66.316406 25.777344 66.316406 L 28.359375 66.339844 L 28.589844 66.339844 L 28.769531 66.34375 L 29.980469 65.566406 L 30.789062 65.042969 C 31.214844 64.769531 31.582031 64.417969 31.875 64.007812 L 32.105469 63.679688 L 33.054688 62.347656 C 33.066406 62.328125 33.066406 62.300781 33.050781 62.285156 Z M 31.578125 85.035156 L 30.292969 84.089844 L 30.222656 84.097656 L 28.890625 84.28125 L 28.617188 84.320312 L 28.441406 84.34375 C 28.328125 84.714844 28.339844 85.117188 28.433594 85.535156 C 28.4375 85.558594 28.460938 85.578125 28.488281 85.578125 L 29.121094 85.578125 C 29.144531 85.578125 29.164062 85.5625 29.171875 85.542969 L 29.296875 85.210938 L 29.464844 85.5625 C 29.472656 85.570312 29.480469 85.578125 29.492188 85.578125 L 31.679688 85.578125 C 31.695312 85.578125 31.707031 85.566406 31.707031 85.550781 L 31.707031 85.28125 C 31.707031 85.183594 31.660156 85.09375 31.578125 85.035156 Z M 23.664062 84.351562 L 22.078125 84.136719 L 21.941406 84.117188 L 20.652344 85.039062 C 20.574219 85.097656 20.527344 85.183594 20.527344 85.28125 L 20.527344 85.546875 C 20.527344 85.5625 20.539062 85.574219 20.554688 85.578125 C 20.554688 85.578125 20.558594 85.582031 20.558594 85.582031 L 22.738281 85.582031 C 22.742188 85.582031 22.742188 85.578125 22.742188 85.578125 C 22.753906 85.578125 22.761719 85.570312 22.769531 85.5625 L 22.9375 85.214844 L 23.066406 85.558594 C 23.070312 85.570312 23.082031 85.578125 23.09375 85.578125 C 23.09375 85.578125 23.09375 85.582031 23.097656 85.582031 L 23.757812 85.582031 C 23.761719 85.582031 23.761719 85.578125 23.765625 85.578125 C 23.777344 85.574219 23.789062 85.5625 23.789062 85.546875 C 23.855469 85.113281 23.871094 84.707031 23.789062 84.371094 Z M 23.664062 84.351562 " fill-opacity="1" fill-rule="nonzero"/><path fill="#0bb851" d="M 105.183594 69.195312 L 105.46875 68.914062 L 105.746094 69.199219 L 105.878906 69.070312 L 105.597656 68.785156 L 105.882812 68.507812 L 105.753906 68.375 L 105.46875 68.65625 L 105.191406 68.371094 L 105.058594 68.5 L 105.339844 68.785156 L 105.054688 69.066406 Z M 105.183594 69.195312 " fill-opacity="1" fill-rule="nonzero"/><path fill="#0bb851" d="M 113.21875 64.789062 C 113.210938 64.789062 113.199219 64.789062 113.191406 64.796875 L 113.132812 64.875 L 112.511719 65.671875 L 112.460938 65.738281 C 112.453125 65.746094 112.457031 65.757812 112.464844 65.769531 C 112.769531 66.074219 113.082031 66.355469 113.390625 66.613281 C 113.773438 66.9375 114.160156 67.21875 114.539062 67.460938 C 114.636719 67.519531 114.734375 67.578125 114.832031 67.636719 C 115.3125 67.910156 115.910156 67.949219 116.394531 67.679688 C 116.496094 67.625 116.585938 67.5625 116.671875 67.488281 L 116.800781 69.363281 L 117.421875 69.363281 L 117.304688 68.863281 L 117.191406 68.386719 C 117.1875 68.371094 117.191406 68.359375 117.199219 68.347656 C 117.207031 68.335938 117.222656 68.328125 117.234375 68.328125 L 119.785156 68.328125 C 119.808594 68.328125 119.828125 68.34375 119.832031 68.367188 L 119.890625 68.617188 L 120.066406 69.363281 L 120.472656 69.363281 L 120.746094 67.410156 L 121.570312 68.375 C 121.605469 68.417969 121.601562 68.476562 121.5625 68.511719 C 121.21875 68.839844 120.910156 69.289062 120.691406 69.621094 C 120.6875 69.621094 120.6875 69.625 120.683594 69.628906 L 121.371094 70.578125 C 122.007812 70.417969 122.777344 69.929688 123.277344 69.449219 C 123.453125 69.28125 123.554688 69.046875 123.546875 68.808594 C 123.542969 68.640625 123.503906 68.460938 123.414062 68.253906 L 121.496094 65.074219 C 121.273438 64.703125 120.960938 64.398438 120.585938 64.183594 L 119.800781 63.730469 L 118.179688 65.664062 C 118.152344 65.695312 118.101562 65.679688 118.097656 65.640625 L 117.988281 64.210938 C 117.980469 64.097656 117.992188 63.984375 118.023438 63.875 L 118.082031 63.675781 L 117.546875 63.953125 C 117.324219 64.066406 117.121094 64.21875 116.945312 64.40625 L 115.738281 65.683594 C 115.695312 65.726562 115.636719 65.738281 115.582031 65.71875 L 114.539062 65.308594 L 113.390625 64.855469 Z M 113.21875 64.789062 " fill-opacity="1" fill-rule="nonzero"/><path fill="#0bb851" d="M 100.375 66.3125 L 100.660156 66.03125 L 100.9375 66.316406 L 101.070312 66.1875 L 100.789062 65.902344 L 101.074219 65.625 L 100.945312 65.492188 L 100.660156 65.773438 L 100.378906 65.488281 L 100.25 65.617188 L 100.53125 65.902344 L 100.246094 66.179688 Z M 100.375 66.3125 " fill-opacity="1" fill-rule="nonzero"/><path fill="#0bb851" d="M 55.050781 92.664062 L 55.320312 92.664062 L 55.472656 91 L 54.496094 90.191406 L 55.621094 89.40625 L 56.074219 89.085938 L 56.257812 88.957031 C 56.28125 88.941406 56.289062 88.910156 56.273438 88.882812 L 55.652344 87.871094 C 55.636719 87.785156 55.621094 87.703125 55.601562 87.621094 L 55.191406 85.96875 C 55.183594 85.933594 55.15625 85.902344 55.121094 85.886719 L 55.085938 85.871094 L 53.261719 85.058594 L 53.242188 85.050781 C 53.199219 85.03125 53.152344 85.039062 53.113281 85.066406 L 52.414062 85.648438 C 51.796875 86.160156 51.414062 86.902344 51.359375 87.699219 L 51.011719 92.664062 Z M 55.050781 92.664062 " fill-opacity="1" fill-rule="nonzero"/><path fill="#0bb851" d="M 72.015625 41.949219 L 73.863281 41.949219 C 73.972656 41.949219 74.0625 41.859375 74.0625 41.746094 C 74.0625 41.636719 73.972656 41.546875 73.863281 41.546875 L 72.214844 41.546875 L 72.214844 39.300781 C 72.214844 39.191406 72.125 39.101562 72.015625 39.101562 C 71.902344 39.101562 71.8125 39.191406 71.8125 39.300781 L 71.8125 41.746094 C 71.8125 41.859375 71.902344 41.949219 72.015625 41.949219 Z M 72.015625 41.949219 " fill-opacity="1" fill-rule="nonzero"/><path fill="#0bb851" d="M 32.203125 64.789062 L 34.191406 64.789062 L 34.191406 68.136719 L 35.820312 68.136719 L 35.820312 69.582031 C 35.820312 69.636719 35.863281 69.679688 35.914062 69.679688 L 40.296875 69.679688 C 40.347656 69.679688 40.390625 69.636719 40.390625 69.582031 L 40.390625 68.136719 L 42.019531 68.136719 L 42.019531 64.789062 L 44.007812 64.789062 C 44.0625 64.789062 44.105469 64.746094 44.105469 64.691406 L 44.105469 61.394531 C 44.105469 61.34375 44.0625 61.300781 44.007812 61.300781 L 42.019531 61.300781 L 42.019531 59.296875 L 44.007812 59.296875 C 44.0625 59.296875 44.105469 59.253906 44.105469 59.203125 L 44.105469 58.179688 C 44.105469 58.125 44.0625 58.082031 44.007812 58.082031 L 41.285156 58.082031 L 41.285156 56.421875 L 42.0625 56.421875 C 42.117188 56.421875 42.160156 56.378906 42.160156 56.324219 L 42.160156 55.300781 C 42.160156 55.25 42.117188 55.207031 42.0625 55.207031 L 34.148438 55.207031 C 34.09375 55.207031 34.050781 55.25 34.050781 55.300781 L 34.050781 56.324219 C 34.050781 56.378906 34.09375 56.421875 34.148438 56.421875 L 34.816406 56.421875 L 34.816406 58.082031 L 32.203125 58.082031 C 32.148438 58.082031 32.105469 58.125 32.105469 58.179688 L 32.105469 59.203125 C 32.105469 59.253906 32.148438 59.296875 32.203125 59.296875 L 34.191406 59.296875 L 34.191406 59.929688 C 34.191406 59.929688 34.195312 59.929688 34.195312 59.929688 C 34.203125 59.933594 34.214844 59.941406 34.222656 59.949219 L 34.417969 60.195312 L 34.589844 60.414062 C 34.59375 60.417969 34.59375 60.417969 34.59375 60.417969 L 34.59375 59.296875 L 36.582031 59.296875 C 36.636719 59.296875 36.679688 59.253906 36.679688 59.203125 L 36.679688 58.179688 C 36.679688 58.125 36.636719 58.082031 36.582031 58.082031 L 35.21875 58.082031 L 35.21875 56.421875 L 40.882812 56.421875 L 40.882812 58.082031 L 39.628906 58.082031 C 39.574219 58.082031 39.53125 58.125 39.53125 58.179688 L 39.53125 59.203125 C 39.53125 59.253906 39.574219 59.296875 39.628906 59.296875 L 41.617188 59.296875 L 41.617188 61.300781 L 39.628906 61.300781 C 39.574219 61.300781 39.53125 61.34375 39.53125 61.394531 L 39.53125 64.691406 C 39.53125 64.746094 39.574219 64.789062 39.628906 64.789062 L 41.617188 64.789062 L 41.617188 67.734375 L 40.390625 67.734375 L 40.390625 66.285156 C 40.390625 66.234375 40.347656 66.191406 40.296875 66.191406 L 35.914062 66.191406 C 35.863281 66.191406 35.820312 66.234375 35.820312 66.285156 L 35.820312 67.734375 L 34.59375 67.734375 L 34.59375 64.789062 L 36.582031 64.789062 C 36.636719 64.789062 36.679688 64.746094 36.679688 64.691406 L 36.679688 61.394531 C 36.679688 61.34375 36.636719 61.300781 36.582031 61.300781 L 34.59375 61.300781 L 34.59375 60.523438 L 34.441406 60.777344 L 34.191406 61.199219 L 34.191406 61.300781 L 34.132812 61.300781 L 34.074219 61.398438 C 34.058594 61.421875 34.039062 61.4375 34.027344 61.457031 C 33.972656 61.53125 33.910156 61.59375 33.835938 61.648438 C 33.808594 61.671875 33.78125 61.699219 33.75 61.71875 L 32.960938 62.164062 L 33.050781 62.285156 C 33.066406 62.300781 33.066406 62.328125 33.054688 62.347656 L 32.105469 63.679688 L 32.105469 64.691406 C 32.105469 64.746094 32.148438 64.789062 32.203125 64.789062 Z M 32.203125 64.789062 " fill-opacity="1" fill-rule="nonzero"/><path fill="#0bb851" d="M 21.71875 84.085938 L 22.078125 84.136719 L 23.664062 84.351562 L 23.925781 84.386719 C 23.945312 84.390625 23.960938 84.378906 23.964844 84.359375 L 24.867188 78.542969 L 25.871094 73.050781 L 26.222656 72.980469 L 27.21875 78.378906 L 28.171875 84.324219 C 28.179688 84.355469 28.207031 84.378906 28.238281 84.375 L 28.441406 84.34375 L 28.617188 84.320312 L 28.890625 84.28125 L 30.222656 84.097656 L 30.554688 84.050781 C 30.585938 84.046875 30.609375 84.015625 30.605469 83.984375 L 28.222656 71.144531 L 23.664062 71.144531 L 21.6875 84.046875 C 21.683594 84.066406 21.699219 84.085938 21.71875 84.085938 Z M 21.71875 84.085938 " fill-opacity="1" fill-rule="nonzero"/><g clip-path="url(#0660994a58)"><path fill="#0bb851" d="M 51.632812 53.023438 L 53.480469 52.597656 C 53.773438 53.359375 54.253906 54.050781 54.902344 54.605469 L 53.898438 56.207031 L 55.109375 56.964844 L 56.113281 55.363281 C 56.894531 55.707031 57.726562 55.835938 58.539062 55.769531 L 58.964844 57.617188 L 60.355469 57.296875 L 59.933594 55.449219 C 60.300781 55.308594 60.648438 55.125 60.976562 54.898438 L 64.355469 70.8125 L 62.339844 71.183594 L 63.316406 76.503906 L 63.339844 76.621094 C 62.21875 76.875 61.382812 77.875 61.382812 79.074219 C 61.382812 80.464844 62.507812 81.589844 63.898438 81.589844 C 64.015625 81.589844 64.132812 81.582031 64.246094 81.566406 L 64.320312 81.976562 L 65.246094 87.035156 L 69.066406 86.335938 L 70.675781 86.039062 C 70.589844 85.785156 70.539062 85.503906 70.539062 85.21875 C 70.539062 83.832031 71.667969 82.703125 73.058594 82.703125 C 74.421875 82.703125 75.53125 83.789062 75.570312 85.140625 L 80.707031 84.199219 L 79.648438 78.425781 C 80.699219 78.128906 81.472656 77.15625 81.472656 76.007812 C 81.472656 75.722656 81.425781 75.453125 81.339844 75.199219 C 81.320312 75.140625 81.296875 75.082031 81.273438 75.023438 C 81.226562 74.910156 81.167969 74.800781 81.101562 74.695312 C 80.9375 74.429688 80.726562 74.195312 80.480469 74.007812 C 80.472656 74 80.460938 73.992188 80.453125 73.988281 C 80.378906 73.929688 80.300781 73.878906 80.222656 73.832031 C 80.210938 73.828125 80.203125 73.824219 80.195312 73.816406 C 80.105469 73.765625 80.015625 73.722656 79.917969 73.679688 C 79.917969 73.679688 79.914062 73.679688 79.914062 73.679688 C 79.828125 73.644531 79.734375 73.613281 79.644531 73.585938 C 79.617188 73.578125 79.589844 73.574219 79.566406 73.566406 C 79.492188 73.550781 79.421875 73.535156 79.347656 73.523438 C 79.316406 73.519531 79.289062 73.511719 79.261719 73.511719 C 79.160156 73.496094 79.058594 73.488281 78.957031 73.488281 C 78.882812 73.488281 78.8125 73.492188 78.742188 73.5 L 78.035156 69.632812 L 78 69.453125 L 77.796875 68.351562 L 77.503906 68.402344 L 79.785156 44.71875 L 82.046875 45.285156 L 82.570312 43.199219 L 80.171875 42.597656 L 82.4375 39.941406 L 83.398438 39.679688 L 83.691406 45.101562 L 83.3125 44.503906 L 82.597656 44.953125 L 83.195312 45.898438 C 82.8125 46.226562 82.527344 46.636719 82.355469 47.089844 L 81.265625 46.84375 L 81.078125 47.667969 L 82.171875 47.914062 C 82.132812 48.394531 82.210938 48.886719 82.417969 49.347656 L 81.472656 49.945312 L 81.921875 50.660156 L 82.867188 50.0625 C 83.195312 50.445312 83.605469 50.726562 84.058594 50.898438 L 83.8125 51.992188 L 84.636719 52.179688 L 84.882812 51.085938 C 85.363281 51.125 85.855469 51.046875 86.316406 50.839844 L 86.914062 51.785156 L 87.628906 51.335938 L 87.03125 50.390625 C 87.414062 50.0625 87.699219 49.652344 87.871094 49.199219 L 88.964844 49.445312 L 89.148438 48.621094 L 88.054688 48.375 C 88.09375 47.894531 88.015625 47.402344 87.808594 46.941406 L 88.757812 46.34375 L 88.304688 45.628906 L 87.628906 46.054688 L 88.765625 42.757812 C 88.804688 42.753906 88.839844 42.753906 88.875 42.75 L 89.390625 44.652344 L 90.828125 44.261719 L 90.3125 42.359375 C 91.089844 42.023438 91.792969 41.496094 92.339844 40.796875 L 94.050781 41.773438 L 94.789062 40.484375 L 93.078125 39.503906 C 93.40625 38.675781 93.507812 37.804688 93.402344 36.960938 L 95.308594 36.441406 L 94.917969 35.007812 L 93.011719 35.523438 C 92.675781 34.742188 92.148438 34.042969 91.449219 33.496094 L 92.429688 31.785156 L 91.136719 31.046875 L 90.15625 32.757812 C 89.332031 32.429688 88.460938 32.328125 87.617188 32.433594 L 87.101562 30.527344 L 85.664062 30.917969 L 86.179688 32.820312 C 85.398438 33.160156 84.695312 33.6875 84.148438 34.390625 L 82.441406 33.410156 L 81.703125 34.703125 L 83.410156 35.679688 C 83.34375 35.851562 83.289062 36.023438 83.238281 36.195312 L 81.257812 36.632812 L 80.597656 35.535156 L 78.15625 37 C 77.34375 36.003906 76.316406 35.261719 75.179688 34.796875 L 75.875 32.035156 L 73.789062 31.507812 L 73.09375 34.273438 C 71.871094 34.148438 70.613281 34.320312 69.429688 34.816406 L 67.964844 32.378906 L 66.121094 33.484375 L 67.582031 35.921875 C 67.578125 35.925781 67.574219 35.929688 67.570312 35.933594 L 64.289062 31.90625 C 64.3125 31.738281 64.324219 31.5625 64.320312 31.386719 L 65.644531 31.167969 L 65.480469 30.167969 L 64.15625 30.386719 C 63.976562 29.8125 63.652344 29.308594 63.238281 28.90625 L 64.019531 27.816406 L 63.195312 27.226562 L 62.414062 28.316406 C 61.898438 28.050781 61.320312 27.90625 60.714844 27.921875 L 60.496094 26.597656 L 59.5 26.761719 L 59.714844 28.085938 C 59.140625 28.265625 58.636719 28.589844 58.238281 29.003906 L 57.148438 28.226562 L 56.558594 29.046875 L 57.648438 29.828125 C 57.382812 30.339844 57.238281 30.921875 57.25 31.527344 L 55.929688 31.742188 L 56.09375 32.742188 L 57.414062 32.523438 C 57.597656 33.101562 57.917969 33.605469 58.335938 34.003906 L 57.554688 35.09375 L 58.378906 35.683594 L 59.160156 34.59375 C 59.671875 34.859375 60.25 35.003906 60.855469 34.992188 L 61.074219 36.3125 L 62.070312 36.148438 L 61.949219 35.414062 L 64.921875 38.78125 L 62.617188 38.207031 L 62.097656 40.296875 L 64.355469 40.859375 L 57.640625 45.441406 L 57.304688 43.976562 L 55.910156 44.296875 L 56.332031 46.140625 C 55.570312 46.4375 54.875 46.917969 54.324219 47.566406 L 52.722656 46.5625 L 51.964844 47.773438 L 53.566406 48.78125 C 53.222656 49.558594 53.09375 50.390625 53.160156 51.203125 L 51.3125 51.628906 Z M 85.34375 35.929688 C 86.261719 34.328125 88.308594 33.773438 89.90625 34.6875 C 91.507812 35.605469 92.0625 37.652344 91.148438 39.253906 C 90.230469 40.851562 88.183594 41.410156 86.582031 40.492188 C 84.984375 39.574219 84.425781 37.527344 85.34375 35.929688 Z M 85.042969 41.6875 L 84.0625 43.398438 L 85.355469 44.136719 L 86.335938 42.425781 C 86.984375 42.683594 87.664062 42.796875 88.332031 42.785156 L 87.203125 46.066406 C 86.902344 45.765625 86.550781 45.535156 86.167969 45.386719 L 86.417969 44.296875 L 85.59375 44.109375 L 85.34375 45.203125 C 84.929688 45.167969 84.507812 45.226562 84.105469 45.375 L 83.835938 40.339844 C 84.152344 40.847656 84.554688 41.304688 85.042969 41.6875 Z M 84.097656 46.539062 C 84.984375 45.980469 86.160156 46.246094 86.71875 47.128906 C 87.277344 48.015625 87.011719 49.191406 86.128906 49.75 C 85.242188 50.308594 84.066406 50.042969 83.507812 49.160156 C 82.949219 48.273438 83.214844 47.097656 84.097656 46.539062 Z M 81.703125 37.378906 L 81.472656 36.996094 L 83.136719 36.628906 C 83.035156 37.160156 83.023438 37.695312 83.085938 38.222656 L 81.183594 38.738281 L 81.574219 40.175781 L 81.75 40.128906 L 79.808594 42.402344 C 79.917969 41.214844 79.742188 39.996094 79.261719 38.84375 Z M 79.28125 44.589844 L 79.390625 44.621094 L 77.09375 68.480469 L 75.949219 68.6875 L 75.75 68.875 C 75.691406 68.929688 75.65625 69.003906 75.65625 69.082031 L 75.640625 69.519531 C 75.636719 69.636719 75.554688 69.734375 75.4375 69.757812 L 74.429688 69.953125 C 74.308594 69.976562 74.191406 69.90625 74.148438 69.792969 L 73.847656 69.074219 L 72.53125 69.316406 C 72.578125 69.496094 72.601562 69.6875 72.601562 69.882812 C 72.601562 71.273438 71.472656 72.398438 70.082031 72.398438 C 68.808594 72.398438 67.753906 71.453125 67.589844 70.21875 L 64.75 70.738281 L 61.351562 54.730469 L 61.148438 54.773438 C 61.433594 54.554688 61.699219 54.308594 61.9375 54.027344 L 63.542969 55.03125 L 64.300781 53.820312 L 62.699219 52.816406 C 62.890625 52.378906 63.015625 51.925781 63.078125 51.464844 L 63.164062 51.648438 L 69.460938 48.683594 C 69.46875 48.6875 69.476562 48.691406 69.484375 48.695312 L 68.792969 51.460938 L 70.878906 51.980469 L 71.570312 49.214844 C 72.792969 49.34375 74.046875 49.171875 75.230469 48.675781 L 76.695312 51.117188 L 78.539062 50.011719 L 77.074219 47.570312 C 78.074219 46.757812 78.816406 45.730469 79.28125 44.589844 Z M 69.847656 37.601562 C 72.132812 36.230469 75.105469 36.976562 76.476562 39.261719 C 77.847656 41.546875 77.101562 44.519531 74.816406 45.890625 C 72.53125 47.261719 69.558594 46.515625 68.1875 44.230469 C 66.816406 41.945312 67.5625 38.972656 69.847656 37.601562 Z M 58.542969 31.824219 C 58.339844 30.585938 59.179688 29.414062 60.417969 29.210938 C 61.652344 29.007812 62.828125 29.847656 63.03125 31.085938 C 63.234375 32.324219 62.394531 33.496094 61.15625 33.699219 C 59.917969 33.902344 58.746094 33.0625 58.542969 31.824219 Z M 61.9375 34.792969 C 62.480469 34.609375 62.953125 34.300781 63.335938 33.90625 L 64.425781 34.6875 L 65.015625 33.863281 L 63.925781 33.082031 C 64.035156 32.871094 64.117188 32.644531 64.183594 32.414062 L 67.269531 36.199219 C 66.46875 36.929688 65.855469 37.808594 65.441406 38.765625 Z M 64.859375 41 C 64.738281 42.214844 64.910156 43.46875 65.402344 44.648438 L 62.960938 46.113281 L 64.066406 47.957031 L 66.507812 46.492188 C 67.199219 47.339844 68.046875 48 68.984375 48.464844 L 63.105469 51.234375 C 63.128906 50.953125 63.128906 50.667969 63.105469 50.386719 L 64.953125 49.964844 L 64.632812 48.570312 L 62.785156 48.996094 C 62.492188 48.234375 62.011719 47.542969 61.363281 46.988281 L 62.367188 45.386719 L 61.15625 44.628906 L 60.152344 46.230469 C 59.394531 45.894531 58.589844 45.765625 57.796875 45.820312 Z M 55.414062 49.089844 C 56.351562 47.589844 58.339844 47.136719 59.839844 48.074219 C 61.339844 49.015625 61.792969 51 60.855469 52.5 C 59.914062 54.003906 57.929688 54.457031 56.425781 53.515625 C 54.925781 52.578125 54.472656 50.589844 55.414062 49.089844 Z M 55.414062 49.089844 " fill-opacity="1" fill-rule="nonzero"/></g><path fill="#0bb851" d="M 89.199219 92.914062 L 89.316406 93.007812 L 92.863281 93.007812 L 92.980469 92.953125 C 93.15625 92.875 93.277344 92.703125 93.289062 92.511719 L 93.554688 88.453125 C 93.589844 87.925781 93.425781 87.402344 93.089844 86.988281 L 92.347656 86.066406 L 90.296875 86.363281 L 89.996094 86.871094 C 89.96875 86.925781 89.910156 86.957031 89.851562 86.949219 L 87.742188 86.710938 C 87.585938 86.691406 87.433594 86.648438 87.289062 86.585938 L 84.785156 85.472656 L 84.292969 85.253906 C 84.25 85.234375 84.195312 85.25 84.171875 85.289062 L 84.121094 85.367188 L 83.464844 86.363281 L 83.347656 86.546875 C 83.316406 86.59375 83.332031 86.65625 83.378906 86.6875 L 84.785156 87.484375 L 86.496094 88.453125 C 86.632812 88.53125 86.777344 88.597656 86.929688 88.648438 L 89.136719 89.390625 L 89.007812 92.484375 C 89.003906 92.648438 89.074219 92.808594 89.199219 92.914062 Z M 89.199219 92.914062 " fill-opacity="1" fill-rule="nonzero"/><g clip-path="url(#27cf07f67d)"><path fill="#0bb851" d="M 122.523438 85.578125 L 102.425781 85.578125 L 102.425781 94.160156 L 129.394531 94.160156 L 129.394531 85.578125 Z M 122.523438 85.578125 " fill-opacity="1" fill-rule="nonzero"/></g><g clip-path="url(#4e3bf2bc12)"><path fill="#0bb851" d="M 41.367188 85.578125 L 23.765625 85.578125 C 23.761719 85.578125 23.761719 85.582031 23.757812 85.582031 L 23.097656 85.582031 C 23.09375 85.582031 23.09375 85.578125 23.09375 85.578125 L 22.742188 85.578125 C 22.742188 85.578125 22.742188 85.582031 22.738281 85.582031 L 20.558594 85.582031 C 20.558594 85.582031 20.554688 85.578125 20.554688 85.578125 L 14.398438 85.578125 L 14.398438 94.160156 L 41.367188 94.160156 Z M 41.367188 85.578125 " fill-opacity="1" fill-rule="nonzero"/></g><g clip-path="url(#b5e2ebb541)"><path fill="#0bb851" d="M 94.964844 104.058594 L 95.4375 105.214844 L 95.871094 106.332031 C 95.878906 106.355469 95.871094 106.382812 95.847656 106.394531 L 95.347656 106.636719 C 95.332031 106.636719 95.316406 106.632812 95.300781 106.632812 L 95.050781 106.453125 L 94.996094 106.796875 C 94.988281 106.808594 94.980469 106.816406 94.976562 106.828125 L 94.019531 107.5 C 93.988281 107.527344 93.945312 107.539062 93.902344 107.539062 L 92.355469 107.539062 C 92.324219 107.539062 92.296875 107.511719 92.296875 107.480469 L 92.296875 107.234375 C 92.296875 107.042969 92.390625 106.867188 92.550781 106.757812 L 93.53125 106.082031 L 92.574219 104.058594 L 88.5625 104.058594 L 88.144531 105.28125 L 87.679688 106.652344 L 87.679688 108.046875 C 87.679688 108.082031 87.652344 108.109375 87.617188 108.109375 L 87.003906 108.109375 C 86.980469 108.109375 86.960938 108.09375 86.949219 108.074219 L 86.734375 107.777344 L 86.445312 108.054688 C 86.414062 108.089844 86.371094 108.109375 86.324219 108.109375 L 84.039062 108.109375 C 84.007812 108.109375 83.980469 108.082031 83.980469 108.046875 L 83.980469 107.625 C 83.980469 107.472656 84.0625 107.335938 84.195312 107.265625 L 84.835938 106.929688 L 85.894531 106.375 L 85.683594 106.339844 C 85.65625 106.335938 85.636719 106.308594 85.644531 106.277344 L 86.257812 104.058594 L 87.078125 101.097656 C 86.277344 100.679688 85.726562 99.839844 85.726562 98.871094 C 85.726562 97.515625 86.804688 96.410156 88.144531 96.359375 L 88.144531 90.8125 L 82.804688 90.8125 C 82.804688 89.421875 81.679688 88.296875 80.289062 88.296875 C 78.902344 88.296875 77.773438 89.421875 77.773438 90.8125 L 72.429688 90.8125 L 72.429688 96.355469 C 73.820312 96.355469 74.949219 97.480469 74.949219 98.871094 C 74.949219 100.261719 73.820312 101.390625 72.429688 101.390625 L 72.429688 106.929688 L 70.777344 106.929688 C 70.78125 106.871094 70.785156 106.808594 70.785156 106.746094 C 70.785156 105.355469 69.65625 104.230469 68.265625 104.230469 C 66.875 104.230469 65.75 105.355469 65.75 106.746094 C 65.75 106.808594 65.753906 106.871094 65.757812 106.929688 L 60.410156 106.929688 L 60.410156 104.058594 L 58.816406 104.058594 L 58.972656 105.710938 C 58.976562 105.746094 58.945312 105.78125 58.90625 105.78125 L 58.71875 105.78125 L 59.929688 106.4375 C 60.058594 106.503906 60.136719 106.636719 60.136719 106.78125 L 60.136719 107.289062 C 60.136719 107.328125 60.105469 107.355469 60.070312 107.355469 L 57.566406 107.355469 C 57.546875 107.355469 57.527344 107.347656 57.511719 107.332031 L 57.277344 107.035156 L 57.058594 107.332031 C 57.046875 107.347656 57.027344 107.355469 57.007812 107.355469 L 56.304688 107.355469 C 56.273438 107.355469 56.246094 107.335938 56.242188 107.304688 C 56.140625 106.796875 56.132812 106.289062 56.214844 105.78125 L 56.046875 105.78125 C 56.011719 105.78125 55.984375 105.753906 55.980469 105.71875 L 55.902344 104.058594 L 47.464844 104.058594 L 46.433594 104.96875 L 47.28125 105.847656 C 47.378906 105.953125 47.4375 106.089844 47.4375 106.230469 L 47.4375 106.433594 C 47.4375 106.546875 47.34375 106.640625 47.230469 106.640625 L 45.875 106.640625 C 45.816406 106.640625 45.761719 106.617188 45.726562 106.574219 L 44.640625 105.4375 C 44.621094 105.417969 44.613281 105.390625 44.617188 105.363281 L 44.652344 104.96875 L 44.269531 105.042969 C 44.238281 105.050781 44.207031 105.039062 44.183594 105.015625 L 43.8125 104.628906 C 43.761719 104.578125 43.746094 104.5 43.777344 104.433594 C 43.839844 104.300781 43.921875 104.175781 44.007812 104.058594 L 14.398438 104.058594 L 14.398438 117.238281 L 129.394531 117.238281 L 129.394531 104.058594 Z M 94.964844 104.058594 " fill-opacity="1" fill-rule="nonzero"/></g><path fill="#0bb851" d="M 97.585938 54.835938 L 99.234375 54.835938 C 99.261719 54.835938 99.285156 54.8125 99.285156 54.785156 L 99.285156 53.136719 C 99.285156 53.109375 99.261719 53.085938 99.234375 53.085938 L 97.585938 53.085938 C 97.558594 53.085938 97.539062 53.109375 97.539062 53.136719 L 97.539062 54.785156 C 97.539062 54.8125 97.558594 54.835938 97.585938 54.835938 Z M 97.585938 54.835938 " fill-opacity="1" fill-rule="nonzero"/><path fill="#0bb851" d="M 111.703125 54.835938 L 113.351562 54.835938 C 113.378906 54.835938 113.398438 54.8125 113.398438 54.785156 L 113.398438 53.136719 C 113.398438 53.109375 113.378906 53.085938 113.351562 53.085938 L 111.703125 53.085938 C 111.675781 53.085938 111.652344 53.109375 111.652344 53.136719 L 111.652344 54.785156 C 111.652344 54.8125 111.675781 54.835938 111.703125 54.835938 Z M 111.703125 54.835938 " fill-opacity="1" fill-rule="nonzero"/><path fill="#0bb851" d="M 113.398438 59.042969 L 113.398438 56.722656 L 97.539062 56.722656 L 97.539062 59.042969 L 99.125 59.042969 L 99.125 61.640625 L 97.558594 61.640625 L 97.558594 62.042969 L 99.125 62.042969 L 99.125 64.347656 L 97.558594 64.347656 L 97.558594 64.75 L 99.125 64.75 L 99.125 67.050781 L 97.558594 67.050781 L 97.558594 67.453125 L 99.125 67.453125 L 99.125 69.757812 L 97.558594 69.757812 L 97.558594 70.160156 L 99.125 70.160156 L 99.125 72.757812 L 99.527344 72.757812 L 99.527344 70.160156 L 101.585938 70.160156 L 101.585938 72.757812 L 101.984375 72.757812 L 101.984375 70.160156 L 104.042969 70.160156 L 104.042969 72.757812 L 104.445312 72.757812 L 104.445312 70.160156 L 106.507812 70.160156 L 106.507812 72.757812 L 106.910156 72.757812 L 106.910156 70.160156 L 108.96875 70.160156 L 108.96875 72.757812 L 109.367188 72.757812 L 109.367188 70.160156 L 111.425781 70.160156 L 111.425781 72.757812 L 111.828125 72.757812 L 111.828125 70.160156 L 113.382812 70.160156 L 113.382812 69.757812 L 111.828125 69.757812 L 111.828125 67.453125 L 113.382812 67.453125 L 113.382812 67.050781 L 111.828125 67.050781 L 111.828125 65.285156 C 111.785156 65.265625 111.746094 65.246094 111.703125 65.222656 C 111.699219 65.222656 111.695312 65.222656 111.691406 65.21875 C 111.609375 65.175781 111.519531 65.15625 111.425781 65.148438 L 111.425781 67.050781 L 109.367188 67.050781 L 109.367188 64.75 L 111.371094 64.75 L 111.425781 64.742188 L 111.703125 64.710938 L 111.425781 64.53125 L 111.367188 64.492188 C 111.289062 64.460938 111.207031 64.433594 111.125 64.4375 C 110.941406 64.441406 110.824219 64.40625 110.75 64.347656 L 109.367188 64.347656 L 109.367188 62.042969 L 111.425781 62.042969 L 111.425781 64.101562 C 111.449219 64.101562 111.464844 64.101562 111.464844 64.101562 L 111.828125 64.128906 L 111.828125 62.042969 L 113.382812 62.042969 L 113.382812 61.640625 L 111.828125 61.640625 L 111.828125 59.042969 Z M 101.585938 69.757812 L 99.527344 69.757812 L 99.527344 67.453125 L 101.585938 67.453125 Z M 101.585938 67.050781 L 99.527344 67.050781 L 99.527344 64.75 L 101.585938 64.75 Z M 101.585938 64.347656 L 99.527344 64.347656 L 99.527344 62.042969 L 101.585938 62.042969 Z M 99.527344 61.640625 L 99.527344 59.042969 L 101.585938 59.042969 L 101.585938 61.640625 Z M 104.042969 69.757812 L 101.984375 69.757812 L 101.984375 67.453125 L 104.042969 67.453125 Z M 104.042969 67.050781 L 101.984375 67.050781 L 101.984375 64.75 L 104.042969 64.75 Z M 104.042969 64.347656 L 101.984375 64.347656 L 101.984375 62.042969 L 104.042969 62.042969 Z M 101.984375 61.640625 L 101.984375 59.042969 L 104.042969 59.042969 L 104.042969 61.640625 Z M 106.507812 69.757812 L 104.445312 69.757812 L 104.445312 67.453125 L 106.507812 67.453125 Z M 106.507812 67.050781 L 104.445312 67.050781 L 104.445312 64.75 L 106.507812 64.75 Z M 106.507812 64.347656 L 104.445312 64.347656 L 104.445312 62.042969 L 106.507812 62.042969 Z M 104.445312 61.640625 L 104.445312 59.042969 L 106.507812 59.042969 L 106.507812 61.640625 Z M 108.96875 69.757812 L 106.910156 69.757812 L 106.910156 67.453125 L 108.96875 67.453125 Z M 108.96875 67.050781 L 106.910156 67.050781 L 106.910156 64.75 L 108.96875 64.75 Z M 108.96875 64.347656 L 106.910156 64.347656 L 106.910156 62.042969 L 108.96875 62.042969 Z M 106.910156 61.640625 L 106.910156 59.042969 L 108.96875 59.042969 L 108.96875 61.640625 Z M 111.425781 67.453125 L 111.425781 69.757812 L 109.367188 69.757812 L 109.367188 67.453125 Z M 111.425781 61.640625 L 109.367188 61.640625 L 109.367188 59.042969 L 111.425781 59.042969 Z M 111.425781 61.640625 " fill-opacity="1" fill-rule="nonzero"/><path fill="#0bb851" d="M 112.828125 64.714844 C 112.839844 64.726562 112.855469 64.738281 112.867188 64.75 L 113.382812 64.75 L 113.382812 64.347656 L 112.511719 64.347656 L 112.785156 64.675781 C 112.796875 64.691406 112.8125 64.699219 112.828125 64.714844 Z M 112.828125 64.714844 " fill-opacity="1" fill-rule="nonzero"/><path fill="#0bb851" d="M 110.597656 62.761719 L 110.316406 63.039062 L 110.035156 62.757812 L 109.90625 62.886719 L 110.183594 63.167969 L 109.902344 63.449219 L 110.03125 63.578125 L 110.3125 63.300781 L 110.59375 63.582031 L 110.726562 63.453125 L 110.445312 63.171875 L 110.726562 62.890625 Z M 110.597656 62.761719 " fill-opacity="1" fill-rule="nonzero"/><path fill="#0bb851" d="M 106.996094 54.835938 L 108.644531 54.835938 C 108.671875 54.835938 108.695312 54.8125 108.695312 54.785156 L 108.695312 53.136719 C 108.695312 53.109375 108.671875 53.085938 108.644531 53.085938 L 106.996094 53.085938 C 106.96875 53.085938 106.945312 53.109375 106.945312 53.136719 L 106.945312 54.785156 C 106.945312 54.8125 106.96875 54.835938 106.996094 54.835938 Z M 106.996094 54.835938 " fill-opacity="1" fill-rule="nonzero"/><path fill="#0bb851" d="M 105.191406 60.964844 L 105.472656 60.6875 L 105.753906 60.96875 L 105.882812 60.839844 L 105.605469 60.558594 L 105.886719 60.277344 L 105.757812 60.148438 L 105.476562 60.425781 L 105.195312 60.144531 L 105.066406 60.273438 L 105.34375 60.554688 L 105.0625 60.835938 Z M 105.191406 60.964844 " fill-opacity="1" fill-rule="nonzero"/><path fill="#0bb851" d="M 102.292969 54.835938 L 103.941406 54.835938 C 103.96875 54.835938 103.992188 54.8125 103.992188 54.785156 L 103.992188 53.136719 C 103.992188 53.109375 103.96875 53.085938 103.941406 53.085938 L 102.292969 53.085938 C 102.265625 53.085938 102.242188 53.109375 102.242188 53.136719 L 102.242188 54.785156 C 102.242188 54.8125 102.265625 54.835938 102.292969 54.835938 Z M 102.292969 54.835938 " fill-opacity="1" fill-rule="nonzero"/></svg>