<svg xmlns="http://www.w3.org/2000/svg" xmlns:xlink="http://www.w3.org/1999/xlink" width="96" zoomAndPan="magnify" viewBox="0 0 72 72" height="96" preserveAspectRatio="xMidYMid meet" version="1.0"><defs><g/></defs><g fill="#000000" fill-opacity="1"><g transform="translate(8.344065, 45)"><g><path d="M 1.109375 -3.03125 L 2.6875 -3.03125 L 2.6875 -13.78125 L 1.109375 -13.78125 L 1.109375 -16.8125 L 8.484375 -16.8125 C 9.273438 -16.8125 9.976562 -16.695312 10.59375 -16.46875 C 11.21875 -16.25 11.738281 -15.945312 12.15625 -15.5625 C 12.582031 -15.175781 12.90625 -14.710938 13.125 -14.171875 C 13.34375 -13.640625 13.453125 -13.0625 13.453125 -12.4375 L 13.453125 -12.15625 C 13.453125 -11.195312 13.179688 -10.425781 12.640625 -9.84375 C 12.109375 -9.269531 11.429688 -8.867188 10.609375 -8.640625 L 10.609375 -8.21875 C 11.429688 -7.988281 12.109375 -7.582031 12.640625 -7 C 13.179688 -6.414062 13.453125 -5.644531 13.453125 -4.6875 L 13.453125 -4.390625 C 13.453125 -3.765625 13.34375 -3.179688 13.125 -2.640625 C 12.90625 -2.109375 12.582031 -1.644531 12.15625 -1.25 C 11.738281 -0.863281 11.21875 -0.554688 10.59375 -0.328125 C 9.976562 -0.109375 9.273438 0 8.484375 0 L 1.109375 0 Z M 5.859375 -3.03125 L 8.171875 -3.03125 C 8.835938 -3.03125 9.378906 -3.171875 9.796875 -3.453125 C 10.210938 -3.742188 10.421875 -4.226562 10.421875 -4.90625 L 10.421875 -5.046875 C 10.421875 -5.710938 10.210938 -6.191406 9.796875 -6.484375 C 9.378906 -6.773438 8.835938 -6.921875 8.171875 -6.921875 L 5.859375 -6.921875 Z M 5.859375 -9.9375 L 8.171875 -9.9375 C 8.835938 -9.9375 9.378906 -10.078125 9.796875 -10.359375 C 10.210938 -10.640625 10.421875 -11.117188 10.421875 -11.796875 L 10.421875 -11.9375 C 10.421875 -12.601562 10.210938 -13.078125 9.796875 -13.359375 C 9.378906 -13.640625 8.835938 -13.78125 8.171875 -13.78125 L 5.859375 -13.78125 Z M 5.859375 -9.9375 "/></g></g></g><g fill="#000000" fill-opacity="1"><g transform="translate(23.039205, 45)"><g><path d="M 1.734375 -16.8125 L 12.96875 -16.8125 L 12.96875 -13.78125 L 8.9375 -13.78125 L 8.9375 -3.03125 L 12.96875 -3.03125 L 12.96875 0 L 1.734375 0 L 1.734375 -3.03125 L 5.765625 -3.03125 L 5.765625 -13.78125 L 1.734375 -13.78125 Z M 1.734375 -16.8125 "/></g></g></g><g fill="#000000" fill-opacity="1"><g transform="translate(37.734345, 45)"><g><path d="M 1.296875 -16.8125 L 13.40625 -16.8125 L 13.40625 -13.78125 L 8.9375 -13.78125 L 8.9375 0 L 5.765625 0 L 5.765625 -13.78125 L 1.296875 -13.78125 Z M 1.296875 -16.8125 "/></g></g></g><g fill="#000000" fill-opacity="1"><g transform="translate(52.429485, 45)"><g><path d="M 10.234375 -11.671875 C 10.234375 -12.347656 9.972656 -12.929688 9.453125 -13.421875 C 8.929688 -13.921875 8.195312 -14.171875 7.25 -14.171875 C 6.445312 -14.171875 5.8125 -14.003906 5.34375 -13.671875 C 4.882812 -13.347656 4.65625 -12.90625 4.65625 -12.34375 C 4.65625 -12.050781 4.710938 -11.789062 4.828125 -11.5625 C 4.941406 -11.332031 5.132812 -11.125 5.40625 -10.9375 C 5.6875 -10.75 6.054688 -10.582031 6.515625 -10.4375 C 6.972656 -10.300781 7.554688 -10.164062 8.265625 -10.03125 C 10.023438 -9.71875 11.367188 -9.179688 12.296875 -8.421875 C 13.222656 -7.671875 13.6875 -6.5625 13.6875 -5.09375 L 13.6875 -4.796875 C 13.6875 -4.015625 13.546875 -3.304688 13.265625 -2.671875 C 12.984375 -2.046875 12.578125 -1.507812 12.046875 -1.0625 C 11.523438 -0.613281 10.882812 -0.265625 10.125 -0.015625 C 9.375 0.222656 8.53125 0.34375 7.59375 0.34375 C 6.488281 0.34375 5.515625 0.1875 4.671875 -0.125 C 3.828125 -0.4375 3.125 -0.867188 2.5625 -1.421875 C 2.007812 -1.972656 1.585938 -2.617188 1.296875 -3.359375 C 1.003906 -4.109375 0.859375 -4.925781 0.859375 -5.8125 L 0.859375 -6.53125 L 4.03125 -6.53125 L 4.03125 -5.953125 C 4.03125 -4.941406 4.320312 -4.132812 4.90625 -3.53125 C 5.488281 -2.9375 6.398438 -2.640625 7.640625 -2.640625 C 8.597656 -2.640625 9.304688 -2.847656 9.765625 -3.265625 C 10.234375 -3.679688 10.46875 -4.175781 10.46875 -4.75 C 10.46875 -5.019531 10.421875 -5.28125 10.328125 -5.53125 C 10.234375 -5.78125 10.066406 -6.003906 9.828125 -6.203125 C 9.585938 -6.410156 9.257812 -6.59375 8.84375 -6.75 C 8.425781 -6.90625 7.894531 -7.039062 7.25 -7.15625 C 6.40625 -7.300781 5.628906 -7.488281 4.921875 -7.71875 C 4.210938 -7.945312 3.597656 -8.253906 3.078125 -8.640625 C 2.566406 -9.023438 2.164062 -9.503906 1.875 -10.078125 C 1.582031 -10.660156 1.4375 -11.367188 1.4375 -12.203125 L 1.4375 -12.34375 C 1.4375 -13.03125 1.578125 -13.664062 1.859375 -14.25 C 2.140625 -14.832031 2.53125 -15.335938 3.03125 -15.765625 C 3.539062 -16.203125 4.148438 -16.539062 4.859375 -16.78125 C 5.578125 -17.019531 6.375 -17.140625 7.25 -17.140625 C 8.238281 -17.140625 9.117188 -17 9.890625 -16.71875 C 10.660156 -16.445312 11.304688 -16.066406 11.828125 -15.578125 C 12.347656 -15.097656 12.738281 -14.546875 13 -13.921875 C 13.269531 -13.304688 13.40625 -12.648438 13.40625 -11.953125 L 13.40625 -11.09375 L 10.234375 -11.09375 Z M 10.234375 -11.671875 "/></g></g></g></svg>