<svg xmlns="http://www.w3.org/2000/svg" xmlns:xlink="http://www.w3.org/1999/xlink" width="96" zoomAndPan="magnify" viewBox="0 0 72 72" height="96" preserveAspectRatio="xMidYMid meet" version="1.0"><defs><clipPath id="3e6ebbf621"><path d="M 25 21.601562 L 47 21.601562 L 47 50.101562 L 25 50.101562 Z M 25 21.601562 " clip-rule="nonzero"/></clipPath></defs><g clip-path="url(#3e6ebbf621)"><path fill="#ffffff" d="M 34.027344 21.675781 C 34.027344 21.738281 32.386719 24.941406 30.242188 29.0625 C 29.210938 31.039062 25.652344 37.921875 25.628906 37.980469 C 25.613281 38.015625 26.738281 38.042969 28.128906 38.042969 L 30.65625 38.042969 L 32.351562 34.859375 C 33.285156 33.105469 34.074219 31.65625 34.105469 31.636719 C 34.136719 31.617188 34.929688 33.050781 35.867188 34.824219 L 37.570312 38.042969 L 35.683594 38.042969 C 34.648438 38.042969 33.800781 38.0625 33.800781 38.085938 C 33.800781 38.113281 34.101562 38.71875 34.472656 39.433594 C 34.84375 40.148438 35.9375 42.285156 36.90625 44.179688 C 37.875 46.074219 38.929688 48.140625 39.253906 48.765625 C 39.578125 49.390625 39.902344 50.015625 39.972656 50.15625 L 40.101562 50.414062 L 40.726562 49.210938 C 41.066406 48.546875 42.210938 46.300781 43.265625 44.21875 C 44.320312 42.132812 45.453125 39.914062 45.78125 39.28125 C 46.109375 38.652344 46.378906 38.113281 46.378906 38.089844 C 46.378906 38.066406 45.519531 38.035156 44.476562 38.023438 L 42.574219 38.003906 L 40.644531 34.253906 C 39.585938 32.191406 37.894531 28.902344 36.890625 26.941406 C 35.886719 24.984375 34.859375 22.980469 34.601562 22.492188 C 34.183594 21.683594 34.027344 21.464844 34.027344 21.675781 M 37.664062 38.085938 C 37.664062 38.136719 38.734375 40.273438 39.464844 41.671875 L 40.113281 42.917969 L 41.308594 40.535156 C 41.964844 39.226562 42.507812 38.128906 42.507812 38.097656 C 42.511719 38.066406 41.421875 38.042969 40.089844 38.042969 C 38.753906 38.046875 37.664062 38.066406 37.664062 38.085938 " fill-opacity="1" fill-rule="evenodd"/></g></svg>